<?xml version="1.0" encoding="UTF-8"?>
<svg id="Layer_2" data-name="Layer 2" xmlns="http://www.w3.org/2000/svg" viewBox="0 0 1472.9 2599.86">
  <defs>
    <style>
      .cls-1 {
        fill: #b0b8cf;
      }

      .cls-1, .cls-2, .cls-3, .cls-4, .cls-5, .cls-6, .cls-7, .cls-8, .cls-9, .cls-10, .cls-11, .cls-12, .cls-13, .cls-14 {
        stroke-width: 0px;
      }

      .cls-2 {
        fill: #1d2943;
      }

      .cls-3 {
        fill: #e9e7fc;
      }

      .cls-4 {
        fill: #78e75a;
      }

      .cls-5 {
        fill: #c9cee2;
      }

      .cls-15 {
        isolation: isolate;
      }

      .cls-6 {
        fill: #008080ff;
      }

      .cls-7 {
        fill: #f3f1fc;
      }

      .cls-8 {
        fill: #e93565;
      }

      .cls-9 {
        fill: #dedffb;
      }

      .cls-10 {
        fill: #fff;
      }

      .cls-11 {
        fill: #4c5c75;
      }

      .cls-12 {
        fill: #febc1f;
      }

      .cls-13 {
        fill: #57b3fe;
      }

      .cls-14 {
        fill: #9ea9c9;
      }
    </style>
  </defs>
  <g id="Layer_1-2" data-name="Layer 1">
    <g id="_30" data-name="30">
      <polygon class="cls-3" points="1359.01 2018.71 1471.12 2083.7 1471.12 2175.24 740.49 2599.86 5.53 2175.24 5.53 2084.25 107.9 2024.67 107.9 1900.1 .12 1837.82 7.16 424.77 737.79 .15 1472.75 424.23 1465.7 1837.27 1359.01 1899.02 1359.01 2018.71"/>
      <g>
        <g>
          <g>
            <g>
              <g class="cls-15">
                <polygon class="cls-9" points="1471.36 2083.54 1471.36 2174.97 740.49 2599.71 740.49 2508.28 1471.36 2083.54"/>
                <polygon class="cls-3" points="740.49 2508.28 740.49 2599.71 5.62 2175.44 5.62 2084 740.49 2508.28"/>
                <polygon class="cls-7" points="1471.36 2083.54 740.49 2508.28 5.62 2084 736.49 1659.27 1471.36 2083.54"/>
              </g>
              <g class="cls-15">
                <polygon class="cls-2" points="1359.01 1862.19 1359.01 2051.75 735.08 2414.09 107.9 2051.75 107.9 1862.73 735.08 2224.52 1359.01 1862.19"/>
                <polygon class="cls-2" points="1358.8 1862.25 1358.8 2051.55 735.03 2414.04 735.03 2224.75 1358.8 1862.25"/>
                <polygon class="cls-11" points="735.03 2224.75 735.03 2414.04 107.85 2051.94 107.85 1862.65 735.03 2224.75"/>
                <polygon class="cls-7" points="1358.8 1862.25 735.03 2224.75 107.85 1862.65 731.62 1500.15 1358.8 1862.25"/>
              </g>
              <g class="cls-15">
                <g>
                  <polygon class="cls-9" points="1472.9 424.28 1465.74 1837.4 734.87 2262.14 742.02 849.01 1472.9 424.28"/>
                  <g>
                    <g>
                      <polygon class="cls-3" points="1410.45 532.45 1357.18 563.42 1350.98 1770.78 1350.98 1770.78 1404.26 1801.75 1410.45 532.45"/>
                      <polygon class="cls-7" points="1350.98 1770.78 797.79 2092.29 797.17 2154.23 1404.26 1801.75 1404.26 1801.75 1350.98 1770.78"/>
                    </g>
                    <polygon class="cls-11" points="1357.18 563.42 1356.56 702.8 1356.56 713.95 1355.94 836.61 1355.32 925.19 1355.32 937.58 1354.7 1060.24 1354.08 1148.21 1354.08 1161.83 1353.46 1283.87 1352.84 1370.6 1352.84 1385.46 1352.22 1508.12 1351.6 1592.99 1351.6 1609.1 1350.98 1731.75 1350.98 1770.78 797.79 2092.29 798.41 2011.76 799.03 1889.72 799.65 1788.74 799.65 1733.61 800.27 1667.32 800.27 1566.35 800.89 1509.36 800.89 1444.93 801.5 1343.34 802.12 1285.73 802.12 1222.54 802.74 1120.95 803.36 1061.48 803.36 999.53 803.98 884.93 1237 633.42 1357.18 563.42"/>
                  </g>
                </g>
                <polygon class="cls-3" points="742.02 849.01 734.87 2262.14 0 1837.86 7.16 424.74 742.02 849.01"/>
                <polygon class="cls-7" points="1472.9 424.28 742.02 849.01 7.16 424.74 738.03 0 1472.9 424.28"/>
              </g>
              <g>
                <g>
                  <polygon class="cls-9" points="114.39 558.23 68.67 531.83 68.67 1806.09 68.67 1806.09 114.39 1779.73 114.39 558.23"/>
                  <polygon class="cls-10" points="680.09 2105.85 114.39 1779.73 114.39 1779.73 68.67 1806.09 680.09 2158.57 680.09 2105.85"/>
                </g>
                <polygon class="cls-11" points="114.39 558.23 114.39 1779.73 680.09 2105.85 680.09 884.93 114.39 558.23"/>
              </g>
              <g>
                <g>
                  <polygon class="cls-4" points="379.81 1060.4 453.6 1102.74 453.6 1068.71 379.81 1026.08 379.81 1060.4"/>
                  <polygon class="cls-4" points="491.52 1013.21 359.52 937.07 359.52 971.4 491.52 1047.54 491.52 1013.21"/>
                  <polygon class="cls-4" points="412.15 924.43 529.15 992.05 529.15 957.72 412.44 890.4 412.15 924.43"/>
                  <polygon class="cls-4" points="267.21 883.56 266.91 917.89 337.18 958.46 337.18 924.14 267.21 883.56"/>
                  <polygon class="cls-4" points="342.76 1004.62 171.07 905.54 171.07 939.57 342.76 1038.94 342.76 1004.62"/>
                  <polygon class="cls-4" points="246.63 828.88 394.8 914.43 394.8 880.11 246.63 794.56 246.63 828.88"/>
                  <polygon class="cls-4" points="171.37 785.37 232.52 820.65 232.52 786.32 171.37 751.04 171.37 785.37"/>
                  <polygon class="cls-4" points="171.07 862.62 245.16 905.25 245.16 870.92 171.07 828.29 171.07 862.62"/>
                  <polygon class="cls-4" points="491.23 1124.79 587.66 1180.35 587.66 1146.03 491.52 1090.46 491.23 1124.79"/>
                </g>
                <g>
                  <polygon class="cls-4" points="379.81 1426.75 453.6 1469.08 453.6 1435.05 379.81 1392.42 379.81 1426.75"/>
                  <polygon class="cls-4" points="491.52 1379.56 359.52 1303.41 359.52 1337.74 491.52 1413.88 491.52 1379.56"/>
                  <polygon class="cls-4" points="412.15 1290.77 529.15 1358.39 529.15 1324.07 412.44 1256.74 412.15 1290.77"/>
                  <polygon class="cls-4" points="267.21 1249.91 266.91 1284.23 337.18 1324.8 337.18 1290.48 267.21 1249.91"/>
                  <polygon class="cls-4" points="342.76 1370.96 171.07 1271.88 171.07 1305.92 342.76 1405.28 342.76 1370.96"/>
                  <polygon class="cls-4" points="246.63 1195.23 394.8 1280.78 394.8 1246.45 246.63 1160.9 246.63 1195.23"/>
                  <polygon class="cls-4" points="171.37 1151.71 232.52 1186.99 232.52 1152.67 171.37 1117.39 171.37 1151.71"/>
                  <polygon class="cls-4" points="171.07 1228.96 245.16 1271.59 245.16 1237.27 171.07 1194.64 171.07 1228.96"/>
                  <polygon class="cls-4" points="491.23 1491.13 587.66 1546.7 587.66 1512.37 491.52 1456.81 491.23 1491.13"/>
                </g>
                <g>
                  <polygon class="cls-4" points="379.81 1793.09 453.6 1835.43 453.6 1801.4 379.81 1758.77 379.81 1793.09"/>
                  <polygon class="cls-4" points="491.52 1745.9 359.52 1669.76 359.52 1704.08 491.52 1780.23 491.52 1745.9"/>
                  <polygon class="cls-4" points="412.15 1657.12 529.15 1724.73 529.15 1690.41 412.44 1623.08 412.15 1657.12"/>
                  <polygon class="cls-4" points="267.21 1616.25 266.91 1650.58 337.18 1691.15 337.18 1656.82 267.21 1616.25"/>
                  <polygon class="cls-4" points="342.76 1737.3 171.07 1638.23 171.07 1672.26 342.76 1771.63 342.76 1737.3"/>
                  <polygon class="cls-4" points="246.63 1561.57 394.8 1647.12 394.8 1612.79 246.63 1527.24 246.63 1561.57"/>
                  <polygon class="cls-4" points="171.37 1518.06 232.52 1553.34 232.52 1519.01 171.37 1483.73 171.37 1518.06"/>
                  <polygon class="cls-4" points="171.07 1595.31 245.16 1637.93 245.16 1603.61 171.07 1560.98 171.07 1595.31"/>
                  <polygon class="cls-4" points="491.23 1857.48 587.66 1913.04 587.66 1878.72 491.52 1823.15 491.23 1857.48"/>
                </g>
              </g>
              <g>
                <g class="cls-15">
                  <polygon class="cls-14" points="832.48 1909.54 832.48 2031.58 798.41 2011.76 799.03 1889.72 832.48 1909.54"/>
                  <polygon class="cls-5" points="1365.85 1601.04 1351.6 1609.1 832.48 1909.54 799.03 1889.72 799.65 1788.74 799.65 1733.61 832.48 1714.4 1197.97 1503.78 1278.5 1550.87 1351.6 1592.99 1365.85 1601.04"/>
                  <polygon class="cls-10" points="1366.02 1601.27 1366.36 1723.19 832.61 2031.36 832.26 1909.44 1366.02 1601.27"/>
                </g>
                <g class="cls-15">
                  <polygon class="cls-14" points="832.48 1685.91 832.48 1807.95 799.65 1788.74 799.65 1733.61 800.27 1667.32 832.48 1685.91"/>
                  <polygon class="cls-5" points="1365.85 1378.03 1352.84 1385.46 832.48 1685.91 800.27 1667.32 800.27 1566.35 800.89 1509.36 832.48 1491.39 1197.97 1280.15 1278.5 1327.23 1352.84 1370.6 1365.85 1378.03"/>
                  <polygon class="cls-10" points="1366.02 1378.02 1366.36 1499.94 832.61 1808.1 832.26 1686.18 1366.02 1378.02"/>
                </g>
                <g class="cls-15">
                  <polygon class="cls-14" points="832.48 1462.9 832.48 1584.94 800.27 1566.35 800.89 1509.36 800.89 1444.93 832.48 1462.9"/>
                  <polygon class="cls-5" points="1365.85 1155.02 1354.08 1161.83 832.48 1462.9 800.89 1444.93 801.5 1343.34 802.12 1285.73 832.48 1267.77 1197.97 1057.14 1278.5 1104.22 1354.08 1148.21 1365.85 1155.02"/>
                  <polygon class="cls-10" points="1366.02 1154.77 1366.36 1276.69 832.61 1584.85 832.26 1462.93 1366.02 1154.77"/>
                </g>
                <g class="cls-15">
                  <polygon class="cls-14" points="832.48 1239.89 832.48 1361.31 801.5 1343.34 802.12 1285.73 802.12 1222.54 832.48 1239.89"/>
                  <polygon class="cls-5" points="1365.85 931.39 1355.32 937.58 832.48 1239.89 802.12 1222.54 802.74 1120.95 803.36 1061.48 832.48 1044.75 1197.97 833.51 1279.12 880.59 1355.32 925.19 1365.85 931.39"/>
                  <polygon class="cls-10" points="1366.02 931.51 1366.36 1053.43 832.61 1361.6 832.26 1239.68 1366.02 931.51"/>
                </g>
                <g class="cls-15">
                  <polygon class="cls-14" points="832.48 1016.26 832.48 1138.29 802.74 1120.95 803.36 1061.48 803.36 999.53 832.48 1016.26"/>
                  <polygon class="cls-5" points="1365.85 708.38 1356.56 713.95 832.48 1016.26 803.36 999.53 803.98 884.93 1237 633.42 1356.56 702.8 1365.85 708.38"/>
                  <g>
                    <polygon class="cls-1" points="1237 633.42 803.98 884.93 803.62 951.82 1294.42 666.75 1237 633.42"/>
                    <polygon class="cls-5" points="1294.42 666.75 803.62 951.82 803.36 999.53 832.48 1016.26 1356.56 713.95 1365.85 708.38 1356.56 702.8 1294.42 666.75"/>
                  </g>
                  <polygon class="cls-10" points="1366.02 708.26 1366.36 830.18 832.61 1138.34 832.26 1016.42 1366.02 708.26"/>
                </g>
              </g>
            </g>
            <g>
              <g>
                <polygon class="cls-8" points="1205.98 886.34 1205.87 845.67 1329.06 774.55 1329.17 815.22 1205.98 886.34"/>
                <path class="cls-8" d="M990.94,1010.69c-9.78,5.65-17.89,1.13-17.92-10.31-.03-11.24,8.02-25.1,17.81-30.75,9.95-5.75,17.98-1.17,18.01,10.07.03,11.44-7.94,25.24-17.89,30.99Z"/>
                <path class="cls-8" d="M938.79,1040.8c-9.87,5.7-17.98,1.17-18.01-10.26-.03-11.24,8.02-25.1,17.89-30.8,9.87-5.7,17.89-1.13,17.92,10.12.03,11.44-7.94,25.24-17.81,30.94Z"/>
                <path class="cls-8" d="M886.55,1070.96c-9.78,5.65-17.89,1.13-17.92-10.31-.03-11.24,8.02-25.1,17.81-30.75,9.95-5.75,17.98-1.17,18.01,10.07.03,11.44-7.94,25.24-17.89,30.99Z"/>
              </g>
              <g>
                <polygon class="cls-12" points="1205.98 1108.93 1205.87 1068.26 1329.06 997.14 1329.17 1037.8 1205.98 1108.93"/>
                <path class="cls-12" d="M990.94,1233.28c-9.78,5.65-17.89,1.13-17.92-10.31-.03-11.24,8.02-25.1,17.81-30.75,9.95-5.75,17.98-1.17,18.01,10.07.03,11.44-7.94,25.24-17.89,30.99Z"/>
                <path class="cls-12" d="M938.79,1263.39c-9.87,5.7-17.98,1.17-18.01-10.26-.03-11.24,8.02-25.1,17.89-30.8s17.89-1.13,17.92,10.12c.03,11.44-7.94,25.24-17.81,30.94Z"/>
                <path class="cls-12" d="M886.55,1293.55c-9.78,5.65-17.89,1.13-17.92-10.31-.03-11.24,8.02-25.1,17.81-30.75,9.95-5.75,17.98-1.17,18.01,10.07.03,11.44-7.94,25.24-17.89,30.99Z"/>
              </g>
              <g>
                <polygon class="cls-13" points="1205.98 1331.52 1205.87 1290.85 1329.06 1219.72 1329.17 1260.39 1205.98 1331.52"/>
                <path class="cls-13" d="M990.94,1455.87c-9.78,5.65-17.89,1.13-17.92-10.31-.03-11.24,8.02-25.1,17.81-30.75,9.95-5.75,17.98-1.17,18.01,10.07.03,11.44-7.94,25.24-17.89,30.99Z"/>
                <path class="cls-13" d="M938.79,1485.98c-9.87,5.7-17.98,1.18-18.01-10.26-.03-11.24,8.02-25.1,17.89-30.8,9.87-5.7,17.89-1.13,17.92,10.12.03,11.44-7.94,25.24-17.81,30.94Z"/>
                <path class="cls-13" d="M886.55,1516.14c-9.78,5.65-17.89,1.13-17.92-10.31-.03-11.24,8.02-25.1,17.81-30.75,9.95-5.75,17.98-1.17,18.01,10.07.03,11.44-7.94,25.24-17.89,30.99Z"/>
              </g>
              <g>
                <polygon class="cls-11" points="1205.98 1554.1 1205.87 1513.43 1329.06 1442.31 1329.17 1482.98 1205.98 1554.1"/>
                <path class="cls-11" d="M990.94,1678.45c-9.78,5.65-17.89,1.13-17.92-10.31-.03-11.24,8.02-25.1,17.81-30.75,9.95-5.75,17.98-1.17,18.01,10.07.03,11.44-7.94,25.24-17.89,30.99Z"/>
                <path class="cls-11" d="M938.79,1708.56c-9.87,5.7-17.98,1.17-18.01-10.26-.03-11.24,8.02-25.1,17.89-30.8,9.87-5.7,17.89-1.13,17.92,10.12.03,11.44-7.94,25.24-17.81,30.94Z"/>
                <path class="cls-11" d="M886.55,1738.72c-9.78,5.65-17.89,1.13-17.92-10.31-.03-11.24,8.02-25.1,17.81-30.75,9.95-5.75,17.98-1.17,18.01,10.07.03,11.44-7.94,25.24-17.89,30.99Z"/>
              </g>
              <g>
                <polygon class="cls-6" points="1205.98 1776.69 1205.87 1736.02 1329.06 1664.9 1329.17 1705.56 1205.98 1776.69"/>
                <path class="cls-6" d="M990.94,1901.04c-9.78,5.65-17.89,1.13-17.92-10.31-.03-11.24,8.02-25.1,17.81-30.75,9.95-5.75,17.98-1.17,18.01,10.07.03,11.44-7.94,25.24-17.89,30.99Z"/>
                <path class="cls-6" d="M938.79,1931.15c-9.87,5.7-17.98,1.17-18.01-10.26-.03-11.24,8.02-25.1,17.89-30.8,9.87-5.7,17.89-1.13,17.92,10.12.03,11.44-7.94,25.24-17.81,30.94Z"/>
                <path class="cls-6" d="M886.55,1961.31c-9.78,5.65-17.89,1.13-17.92-10.31-.03-11.24,8.02-25.1,17.81-30.75,9.95-5.75,17.98-1.17,18.01,10.07.03,11.44-7.94,25.24-17.89,30.99Z"/>
              </g>
            </g>
          </g>
          <polygon class="cls-5" points="298.92 424.31 738.28 168.98 1181.14 424.71 741.77 680.01 298.92 424.31"/>
        </g>
        <path class="cls-10" d="M667.66,1020.27c-22.03,0-42.43,9.76-56.68,25.1-14.25,15.68-23.32,36.6-23.32,60.99,0-47.4-35.95-86.09-80-86.09,22.03,0,42.11-9.76,56.68-25.09,13.93-15.34,23.32-37.29,23.32-60.99,0,23.7,9.07,45.66,23.32,60.99,14.25,15.34,34.66,25.09,56.68,25.09Z"/>
      </g>
    </g>
  </g>
</svg>