<?xml version="1.0" encoding="UTF-8"?>
<svg id="Layer_2" data-name="Layer 2" xmlns="http://www.w3.org/2000/svg" viewBox="0 0 2532.74 3460.29">
  <defs>
    <style>
      .cls-1 {
        isolation: isolate;
      }

      .cls-2 {
        fill: #f3f1fc;
      }

      .cls-2, .cls-3, .cls-4, .cls-5, .cls-6, .cls-7, .cls-8, .cls-9, .cls-10, .cls-11, .cls-12, .cls-13 {
        stroke-width: 0px;
      }

      .cls-3 {
        fill: #dedffb;
      }

      .cls-4 {
        fill: #fff;
      }

      .cls-5 {
        fill: #4c5c75;
      }

      .cls-6 {
        fill: #72d561;
      }

      .cls-7 {
        fill: #bf7d5a;
      }

      .cls-8 {
        fill: #57b3fe;
      }

      .cls-9 {
        fill: #9ea9c9;
      }

      .cls-10 {
        fill: #f45170;
      }

      .cls-11 {
        fill: #008080ff;
      }

      .cls-12 {
        fill: #ffd06c;
      }

      .cls-13 {
        fill: #5094ff;
      }
    </style>
  </defs>
  <g id="Layer_1-2" data-name="Layer 1">
    <g id="_108" data-name="108">
      <g>
        <g class="cls-1">
          <path class="cls-9" d="M657.62,2110.25c-12.24,2.45-24.49,6.53-35.92,9.8l-400.87-231.05-29.39-127.36,36.74-2.45,27.76,119.2,401.68,231.86Z"/>
          <path class="cls-9" d="M517.2,2159.24c-10.61,3.27-21.23,7.35-31.02,13.07"/>
          <path class="cls-9" d="M393.91,2218.02c-8.16,5.72-17.15,10.61-24.49,15.51"/>
          <path class="cls-9" d="M291.86,2288.24c-7.35,5.72-14.7,11.43-22.05,17.15"/>
        </g>
        <path class="cls-13" d="M186.4,1737.47c20.93-12.07,54.69-12.07,75.63,0,20.75,12.07,20.56,31.69-.38,43.76-20.93,12.07-54.69,12.07-75.44,0-20.75-12.07-20.75-31.69.19-43.76Z"/>
      </g>
      <g>
        <g>
          <path class="cls-9" d="M53.28,2796.12C18.98,2776.26.04,2748.88,0,2718.91c-.04-29.79,18.63-57.08,52.53-76.81l1094.68-636.18c64.34-37.36,165.52-37.4,230.39-.04l1101.81,636.18c34.34,19.82,53.28,47.2,53.32,77.16.04,29.83-18.63,57.13-52.58,76.85l-1094.68,636.14c-32.19,18.72-73.62,28.08-115.04,28.08s-82.89-9.36-115.3-28.04M1173.07,3401.2c52.84,30.62,141.9,30.58,194.39.04l1094.68-636.14c22.44-13.04,34.77-29.31,34.77-45.8-.04-16.67-12.6-33.07-35.43-46.19h0l-1101.81-636.18c-26.42-15.27-61.94-22.88-97.37-22.88s-70.82,7.61-97.06,22.83L70.56,2673.07c-22.4,13.04-34.73,29.31-34.73,45.8.04,16.62,12.6,33.03,35.39,46.19"/>
          <g>
            <g>
              <path class="cls-3" d="M2514.69,723.44l-7.17,1775.54c0,22.4-14.34,44.79-43.9,60.92l-1094.71,636.94c-58.23,33.15-153.18,33.15-212.31,0L54.73,2559.9c-29.56-17.02-43.9-39.42-43.9-61.81l7.16-1775.54c0-21.5,14.34-43.89,43.9-60.92L1156.61,25.59c58.23-34.04,153.19-34.04,212.31,0l1101.87,636.04c29.56,17.02,43.9,39.42,43.9,61.81Z"/>
              <g class="cls-1">
                <path class="cls-3" d="M2471.16,784.65l-1094.69,636.16c-58.47,33.98-153.53,33.98-212.37,0L62.26,784.66c-29.61-17.1-44.4-39.53-44.34-61.94l-7.34,1775.63c-.06,22.4,14.72,44.83,44.34,61.93l1101.86,636.15c58.84,33.98,153.91,33.98,212.37,0l1094.69-636.16c29.04-16.88,43.58-38.96,43.65-61.08l7.34-1775.63c-.06,22.12-14.6,44.2-43.65,61.09Z"/>
                <path class="cls-2" d="M2470.47,661.63c58.85,33.98,59.16,89.04.69,123.01l-1094.69,636.16c-58.46,33.98-153.53,33.98-212.37,0L62.25,784.66c-58.85-33.98-59.15-89.04-.69-123.01L1156.25,25.48c58.46-33.98,153.52-33.98,212.37,0l1101.85,636.15Z"/>
              </g>
            </g>
            <path class="cls-5" d="M2308.21,669.92c50.92,29.4,51.18,77.04.6,106.44l-947.17,550.44c-50.59,29.4-132.84,29.4-183.75,0L224.51,776.37c-50.92-29.4-51.18-77.04-.6-106.44L1171.09,119.5c50.59-29.4,132.83-29.4,183.75,0l953.37,550.43Z"/>
          </g>
        </g>
        <path class="cls-11" d="M2365.98,1163.3v351.17l-997.06,578.7c-57.33,33.15-153.18,33.15-211.42,0l-799.98-462.25v-358.33l806.25,464.94c58.23,34.94,154.08,34.94,212.31,0l989.89-574.23Z"/>
        <path class="cls-11" d="M2365.78,1163.54l-989.31,574.35c-58.8,34.96-154.14,34.96-212.93,0l-806.27-465.52v358.45l799.9,462.34c58.8,33.38,154.16,33.38,211.36,0l997.25-578.48v-351.14Z"/>
        <g>
          <polygon class="cls-9" points="356.68 1272.01 280.76 1227.73 280.76 1671.32 280.76 1671.32 356.68 1631.13 356.68 1272.01"/>
          <path class="cls-2" d="M2365.78,1515.23l-996.84,578.61c-56.93,31.64-153.95,31.64-210.9,0l-801.35-462.6v-.12l-75.92,40.19,877.27,506.89c56.95,31.64,153.96,31.64,210.9,0l996.84-578.63v-84.35Z"/>
        </g>
        <path class="cls-11" d="M2365.98,1951.63v351.17l-997.06,577.81c-57.33,34.04-153.18,34.04-211.42,0l-799.98-462.25v-358.33l806.25,465.83c58.23,34.94,154.08,34.94,212.31,0l989.89-574.23Z"/>
        <path class="cls-11" d="M2365.78,1951.27l-989.31,574.35c-58.8,34.96-154.14,34.96-212.93,0l-806.27-465.52v358.45l799.9,462.34c58.8,33.38,154.16,33.38,211.36,0l997.25-578.48v-351.14Z"/>
        <g>
          <polygon class="cls-9" points="356.68 2059.74 280.76 2015.46 280.76 2459.05 280.76 2459.05 356.68 2418.86 356.68 2059.74"/>
          <path class="cls-2" d="M2365.78,2302.96l-996.84,578.61c-56.93,31.64-153.95,31.64-210.9,0l-801.35-462.6v-.12l-75.92,40.19,877.27,506.89c56.95,31.64,153.96,31.64,210.9,0l996.84-578.63v-84.35Z"/>
        </g>
        <g>
          <g>
            <polygon class="cls-4" points="1521.35 1720.3 1521.42 1746.6 1454.1 1785.47 1454.02 1759.17 1521.35 1720.3"/>
            <polygon class="cls-4" points="2283.36 1280.35 2283.43 1306.65 2051.94 1440.31 2051.87 1414 2283.36 1280.35"/>
            <polygon class="cls-4" points="2104.76 1515.2 2104.83 1541.5 1741.28 1751.4 1741.2 1725.1 2104.76 1515.2"/>
            <polygon class="cls-4" points="2283.73 1411.87 2283.81 1438.17 2135.8 1523.62 2135.73 1497.32 2283.73 1411.87"/>
            <polygon class="cls-4" points="2283.92 1478.4 2284 1504.7 1890.93 1731.64 1890.85 1705.34 2283.92 1478.4"/>
            <polygon class="cls-4" points="2283.54 1345.34 2283.62 1371.64 1965.95 1555.04 1965.88 1528.74 2283.54 1345.34"/>
            <polygon class="cls-4" points="1704.84 1746.09 1704.92 1772.39 1562.19 1854.79 1562.12 1828.49 1704.84 1746.09"/>
            <polygon class="cls-4" points="1865.27 1720.11 1865.34 1746.41 1562.38 1921.33 1562.3 1895.02 1865.27 1720.11"/>
            <polygon class="cls-4" points="1918.75 1555.95 1918.82 1582.25 1562 1788.26 1561.93 1761.96 1918.75 1555.95"/>
            <polygon class="cls-4" points="2011.47 1437.32 2011.55 1463.63 1726.09 1628.44 1726.02 1602.13 2011.47 1437.32"/>
            <polygon class="cls-4" points="1693.7 1620.79 1693.78 1647.09 1561.82 1723.28 1561.74 1696.97 1693.7 1620.79"/>
            <polygon class="cls-4" points="1521.53 1785.28 1521.61 1811.58 1454.28 1850.45 1454.21 1824.15 1521.53 1785.28"/>
            <polygon class="cls-4" points="1521.72 1851.81 1521.8 1878.11 1454.47 1916.98 1454.4 1890.68 1521.72 1851.81"/>
            <polygon class="cls-4" points="1521.91 1918.34 1521.98 1944.65 1454.66 1983.52 1454.58 1957.21 1521.91 1918.34"/>
          </g>
          <g>
            <polygon class="cls-4" points="1521.35 2505.81 1521.42 2532.12 1454.1 2570.99 1454.02 2544.68 1521.35 2505.81"/>
            <polygon class="cls-4" points="2283.36 2065.87 2283.43 2092.17 2051.94 2225.82 2051.87 2199.52 2283.36 2065.87"/>
            <polygon class="cls-4" points="2104.76 2300.72 2104.83 2327.02 1741.28 2536.91 1741.2 2510.61 2104.76 2300.72"/>
            <polygon class="cls-4" points="2283.73 2197.38 2283.81 2223.68 2135.8 2309.14 2135.73 2282.83 2283.73 2197.38"/>
            <polygon class="cls-4" points="2283.92 2263.91 2284 2290.22 1890.93 2517.16 1890.85 2490.85 2283.92 2263.91"/>
            <polygon class="cls-4" points="2283.54 2130.85 2283.62 2157.15 1965.95 2340.56 1965.88 2314.26 2283.54 2130.85"/>
            <polygon class="cls-4" points="1704.84 2531.6 1704.92 2557.9 1562.19 2640.31 1562.12 2614.01 1704.84 2531.6"/>
            <polygon class="cls-4" points="1865.27 2505.62 1865.34 2531.93 1562.38 2706.84 1562.3 2680.54 1865.27 2505.62"/>
            <polygon class="cls-4" points="1918.75 2341.47 1918.82 2367.77 1562 2573.78 1561.93 2547.48 1918.75 2341.47"/>
            <polygon class="cls-4" points="2011.47 2222.84 2011.55 2249.14 1726.09 2413.95 1726.02 2387.65 2011.47 2222.84"/>
            <polygon class="cls-4" points="1693.7 2406.31 1693.78 2432.61 1561.82 2508.8 1561.74 2482.49 1693.7 2406.31"/>
            <polygon class="cls-4" points="1521.53 2570.8 1521.61 2597.1 1454.28 2635.97 1454.21 2609.67 1521.53 2570.8"/>
            <polygon class="cls-4" points="1521.72 2637.33 1521.8 2663.63 1454.47 2702.5 1454.4 2676.2 1521.72 2637.33"/>
            <polygon class="cls-4" points="1521.91 2703.86 1521.98 2730.17 1454.66 2769.04 1454.58 2742.73 1521.91 2703.86"/>
          </g>
        </g>
        <g>
          <g>
            <polygon class="cls-4" points="996.33 1720.3 996.25 1746.6 1063.58 1785.47 1063.65 1759.17 996.33 1720.3"/>
            <polygon class="cls-4" points="412.92 1515.2 412.85 1541.5 776.4 1751.4 776.47 1725.1 412.92 1515.2"/>
            <polygon class="cls-4" points="812.83 1746.09 812.76 1772.39 955.49 1854.79 955.56 1828.49 812.83 1746.09"/>
            <polygon class="cls-4" points="652.41 1720.11 652.34 1746.41 955.3 1921.33 955.37 1895.02 652.41 1720.11"/>
            <polygon class="cls-4" points="598.93 1555.95 598.85 1582.25 955.67 1788.26 955.75 1761.96 598.93 1555.95"/>
            <polygon class="cls-4" points="506.2 1437.32 506.13 1463.63 791.59 1628.44 791.66 1602.13 506.2 1437.32"/>
            <polygon class="cls-4" points="823.98 1620.79 823.9 1647.09 955.86 1723.28 955.93 1696.97 823.98 1620.79"/>
            <polygon class="cls-4" points="996.14 1785.28 996.07 1811.58 1063.39 1850.45 1063.47 1824.15 996.14 1785.28"/>
            <polygon class="cls-4" points="995.96 1851.81 995.88 1878.11 1063.21 1916.98 1063.28 1890.68 995.96 1851.81"/>
            <polygon class="cls-4" points="995.77 1918.34 995.69 1944.65 1063.02 1983.52 1063.09 1957.21 995.77 1918.34"/>
          </g>
          <g>
            <polygon class="cls-4" points="996.33 2505.81 996.25 2532.12 1063.58 2570.99 1063.65 2544.68 996.33 2505.81"/>
            <polygon class="cls-4" points="412.92 2300.72 412.85 2327.02 776.4 2536.91 776.47 2510.61 412.92 2300.72"/>
            <polygon class="cls-4" points="812.83 2531.6 812.76 2557.9 955.49 2640.31 955.56 2614.01 812.83 2531.6"/>
            <polygon class="cls-4" points="652.41 2505.62 652.34 2531.93 955.3 2706.84 955.37 2680.54 652.41 2505.62"/>
            <polygon class="cls-4" points="598.93 2341.47 598.85 2367.77 955.67 2573.78 955.75 2547.48 598.93 2341.47"/>
            <polygon class="cls-4" points="506.2 2222.84 506.13 2249.14 791.59 2413.95 791.66 2387.65 506.2 2222.84"/>
            <polygon class="cls-4" points="823.98 2406.31 823.9 2432.61 955.86 2508.8 955.93 2482.49 823.98 2406.31"/>
            <polygon class="cls-4" points="996.14 2570.8 996.07 2597.1 1063.39 2635.97 1063.47 2609.67 996.14 2570.8"/>
            <polygon class="cls-4" points="995.96 2637.33 995.88 2663.63 1063.21 2702.5 1063.28 2676.2 995.96 2637.33"/>
            <polygon class="cls-4" points="995.77 2703.86 995.69 2730.17 1063.02 2769.04 1063.09 2742.73 995.77 2703.86"/>
          </g>
        </g>
        <g>
          <polygon class="cls-4" points="595.52 522.35 1177.34 860.47 1214.2 839.19 632.38 501.07 595.52 522.35"/>
          <polygon class="cls-4" points="621.24 865.73 893.84 1024.15 931.08 1002.65 658.48 844.23 621.24 865.73"/>
          <polygon class="cls-4" points="500.89 576.98 1082.71 915.1 1119.96 893.6 538.13 555.48 500.89 576.98"/>
          <g class="cls-1">
            <polygon class="cls-8" points="888.05 437 973.38 486.59 1252.32 325.54 1167 275.95 888.05 437"/>
            <polygon class="cls-7" points="1043.61 527.4 1129.31 577.21 1353.91 447.54 1268.21 397.73 1043.61 527.4"/>
            <polygon class="cls-6" points="1199.54 618.02 1284.87 667.61 1554.31 512.04 1468.98 462.46 1199.54 618.02"/>
            <polygon class="cls-10" points="1510.65 798.82 1596.36 848.62 1875.3 687.58 1789.59 637.77 1510.65 798.82"/>
            <path class="cls-4" d="M2177.83,776.66l-386.49,223.14L783.25,413.96l386.49-223.14,1008.09,585.84ZM1596.35,848.62l278.94-161.05-85.71-49.81-278.94,161.05,85.71,49.81M973.38,486.59l278.94-161.05-85.33-49.59-278.94,161.05,85.33,49.59M1284.87,667.61l269.44-155.56-85.33-49.59-269.44,155.56,85.33,49.59M1129.31,577.21l224.6-129.67-85.71-49.81-224.6,129.67,85.71,49.81M1751.91,939.02l224.6-129.67-85.71-49.81-224.6,129.67,85.71,49.81M1440.42,758.01l151.63-87.55-85.33-49.59-151.63,87.54,85.33,49.59"/>
            <path class="cls-6" d="M1130.48,975.44l168.77,98.52,170.25-98.3c-93.64-54.42-245.15-54.42-339.02-.22Z"/>
            <path class="cls-8" d="M1130.1,975.66c-94.25,54.41-94.74,142.62-1.49,196.81l170.63-98.52-169.15-98.3Z"/>
            <path class="cls-10" d="M1299.25,1073.96l169.15,98.3c94.25-54.41,94.74-142.18,1.11-196.59l-170.25,98.3Z"/>
            <path class="cls-12" d="M1128.61,1172.47c93.26,54.2,245.53,54.2,339.78-.22l-169.15-98.3-170.63,98.52Z"/>
          </g>
          <polygon class="cls-11" points="1666.21 889.21 1751.91 939.02 1976.51 809.35 1890.8 759.54 1666.21 889.21"/>
          <polygon class="cls-12" points="1355.1 708.42 1440.42 758.01 1592.06 670.46 1506.73 620.87 1355.1 708.42"/>
          <polygon class="cls-4" points="591.65 738.91 988.47 969.52 1025.33 948.23 628.51 717.63 591.65 738.91"/>
        </g>
      </g>
    </g>
  </g>
</svg>