<?xml version="1.0" encoding="UTF-8"?>
<svg id="Layer_2" data-name="Layer 2" xmlns="http://www.w3.org/2000/svg" viewBox="0 0 1960.21 2599.93">
  <defs>
    <style>
      .cls-1 {
        fill: #b0b8cf;
      }

      .cls-1, .cls-2, .cls-3, .cls-4, .cls-5, .cls-6, .cls-7, .cls-8, .cls-9, .cls-10, .cls-11, .cls-12, .cls-13, .cls-14, .cls-15 {
        stroke-width: 0px;
      }

      .cls-2 {
        fill: #1d2943;
      }

      .cls-3 {
        fill: #78e75a;
      }

      .cls-4 {
        fill: #c9cee2;
      }

      .cls-16 {
        isolation: isolate;
      }

      .cls-5 {
        fill: #72797f;
      }

      .cls-6 {
        fill: #fff;
      }

      .cls-7 {
        fill: #008080ff;
      }

      .cls-8 {
        fill: #57b3fe;
      }

      .cls-9 {
        fill: #f45170;
      }

      .cls-10 {
        fill: #8fabfe;
      }

      .cls-11 {
        fill: #dba660;
      }

      .cls-12 {
        fill: #ffd06c;
      }

      .cls-13 {
        fill: #5094ff;
      }

      .cls-14 {
        fill: #e3e7f0;
      }

      .cls-15 {
        fill: #ffde9b;
      }
    </style>
  </defs>
  <g id="Layer_1-2" data-name="Layer 1">
    <g id="_16" data-name="16">
      <path class="cls-4" d="M1960.21,526.48l-4.33,1408.82c0,10.83-7.04,22.21-22.21,30.87l-829.26,482.07c-13.63,6.8-28.44,12.46-47.67,12.46v-1.08c-21.53,1.03-43.37-1.92-59.58-11.37l-49.29-28.17-311.99,179.83L1.08,2231.04l-1.08-375.36,139.74-143,3.79-1186.75c0-10.83,7.04-22.21,22.21-30.87L995,13c29.79-17.33,77.45-17.33,107.24,0l835.22,482.06c15.17,8.67,22.75,20.04,22.75,31.42Z"/>
      <g>
        <g>
          <path class="cls-1" d="M1959.99,526.42l-4.01,1408.81c0,11.11-7.25,22.37-22.07,30.86l-829.55,482.05c-29.63,17.28-77.77,17.28-107.4,0l-835.25-482.05c-14.97-8.64-22.37-20.06-22.37-31.32l4.01-1408.81c0,11.41,7.41,22.68,22.38,31.32l835.1,482.21c29.78,17.13,77.77,17.13,107.55,0l829.55-482.21c14.81-8.48,22.07-19.75,22.07-30.86Z"/>
          <path class="cls-4" d="M1937.93,557.28l-829.55,482.21c-14.3,8.22-32.8,12.39-51.46,12.72v1408.55c17.3-.83,34.23-4.9,47.44-12.61l829.55-482.05c14.81-8.49,22.06-19.75,22.06-30.86l4.01-1408.81c0,11.11-7.25,22.38-22.06,30.86Z"/>
          <path class="cls-14" d="M1937.59,495.08c29.75,17.18,30.01,44.99.35,62.23l-829.62,482.12c-29.66,17.23-77.67,17.18-107.43,0L165.75,557.26c-29.75-17.18-29.91-44.94-.25-62.17L995.12,12.97c29.66-17.23,77.58-17.23,107.33-.06l835.14,482.17Z"/>
          <path class="cls-1" d="M1629.68,505.89c19.41,11.21,19.58,29.35.23,40.6l-541.27,314.55c-19.35,11.24-50.68,11.21-70.09,0l-544.87-314.58c-19.41-11.21-19.51-29.32-.17-40.56L1014.79,191.35c19.35-11.24,50.61-11.24,70.02-.04l544.87,314.58Z"/>
          <path class="cls-2" d="M974.06,1225.74l-1.08,438.73v16.79c0,9.21-6.5,12.46-14.63,8.13l-48.21-27.62-642.93-371.57-48.21-27.62c-8.12-4.88-14.08-15.71-14.08-24.92l1.08-455.52c0-8.67,6.5-12.46,14.08-8.13l10.83,6.5,729.06,420.86c8.12,4.33,14.08,15.71,14.08,24.37Z"/>
          <path class="cls-3" d="M934.99,1643.21l-692.72-400.34c4.67-18.68,22.18-75.28,82.87-112.05,74.12-44.35,92.61,90.08,112.05,142.39,24.54,66.03,106.21-47.27,166.9-33.85,61.86,13.42,19.26,73.53,37.35,135.39,11.67,39.69,41.43,32.68,61.86,22.18,12.25-6.42,21.01-16.92,26.84-29.18,26.85-51.36,93.96-52.52,93.96-52.52,117.88-10.5,114.38,256.19,110.88,327.97Z"/>
          <path class="cls-2" d="M1893.23,1211.12c0,9.21-6.5,20.04-14.08,24.37l-739.89,427.36c-7.58,4.33-14.08.54-14.08-8.13v-16.79l-1.63-438.73c0-8.66,6.5-20.04,14.63-24.37l728.51-420.86,10.83-6.5c8.13-4.33,14.08-.54,14.63,8.13l1.08,455.52Z"/>
          <g>
            <g>
              <path class="cls-6" d="M1723.89,946.02c12.1-6.99,21.97-1.39,22.01,12.52.04,13.91-9.76,30.88-21.86,37.87l-455.82,263.17c-12.1,6.99-21.94,1.35-21.98-12.55-.04-13.76,9.6-30.76,21.84-37.83l455.82-263.17Z"/>
              <path class="cls-6" d="M1820.98,889.54c12.3-7.1,22.33-1.4,22.37,12.73.04,14.15-9.93,31.4-22.23,38.5-12.34,7.12-22.36,1.42-22.4-12.74-.04-14.13,9.91-31.37,22.25-38.49Z"/>
            </g>
            <g>
              <path class="cls-8" d="M1723.89,1075.44c12.1-6.99,21.97-1.39,22.01,12.52.04,13.91-9.76,30.88-21.86,37.87l-455.82,263.17c-12.1,6.99-21.94,1.35-21.98-12.55-.04-13.76,9.6-30.76,21.84-37.83l455.82-263.17Z"/>
              <path class="cls-8" d="M1820.98,1018.96c12.3-7.1,22.33-1.4,22.37,12.73.04,14.15-9.93,31.4-22.23,38.5-12.34,7.12-22.36,1.42-22.4-12.74-.04-14.13,9.91-31.37,22.25-38.49Z"/>
            </g>
            <g>
              <path class="cls-15" d="M1723.89,1204.86c12.1-6.99,21.97-1.39,22.01,12.52.04,13.91-9.76,30.88-21.86,37.87l-455.82,263.17c-12.1,6.99-21.94,1.35-21.98-12.55-.04-13.76,9.6-30.76,21.84-37.83l455.82-263.17Z"/>
              <path class="cls-15" d="M1189.9,1512.74c12.3-7.1,22.33-1.4,22.37,12.73.04,14.15-9.93,31.4-22.23,38.5-12.34,7.12-22.36,1.42-22.4-12.74-.04-14.13,9.91-31.37,22.25-38.49Z"/>
              <path class="cls-6" d="M1189.9,1253.9c12.3-7.1,22.33-1.4,22.37,12.73.04,14.15-9.93,31.4-22.23,38.5-12.34,7.12-22.36,1.42-22.4-12.74-.04-14.13,9.91-31.37,22.25-38.49Z"/>
              <path class="cls-8" d="M1189.9,1383.32c12.3-7.1,22.33-1.4,22.37,12.73.04,14.15-9.93,31.4-22.23,38.5-12.34,7.12-22.36,1.42-22.4-12.74-.04-14.13,9.91-31.37,22.25-38.49Z"/>
              <path class="cls-15" d="M1189.9,1512.74c12.3-7.1,22.33-1.4,22.37,12.73.04,14.15-9.93,31.4-22.23,38.5-12.34,7.12-22.36,1.42-22.4-12.74-.04-14.13,9.91-31.37,22.25-38.49Z"/>
              <path class="cls-6" d="M1820.98,889.54c12.3-7.1,22.33-1.4,22.37,12.73.04,14.15-9.93,31.4-22.23,38.5-12.34,7.12-22.36,1.42-22.4-12.74-.04-14.13,9.91-31.37,22.25-38.49Z"/>
              <path class="cls-8" d="M1820.98,1018.96c12.3-7.1,22.33-1.4,22.37,12.73.04,14.15-9.93,31.4-22.23,38.5-12.34,7.12-22.36,1.42-22.4-12.74-.04-14.13,9.91-31.37,22.25-38.49Z"/>
              <path class="cls-6" d="M1820.98,889.54c12.3-7.1,22.33-1.4,22.37,12.73.04,14.15-9.93,31.4-22.23,38.5-12.34,7.12-22.36,1.42-22.4-12.74-.04-14.13,9.91-31.37,22.25-38.49Z"/>
              <path class="cls-8" d="M1820.98,1018.96c12.3-7.1,22.33-1.4,22.37,12.73.04,14.15-9.93,31.4-22.23,38.5-12.34,7.12-22.36,1.42-22.4-12.74-.04-14.13,9.91-31.37,22.25-38.49Z"/>
              <path class="cls-15" d="M1820.98,1148.38c12.3-7.1,22.33-1.4,22.37,12.73.04,14.15-9.93,31.4-22.23,38.5-12.34,7.12-22.36,1.42-22.4-12.74-.04-14.13,9.91-31.37,22.25-38.49Z"/>
            </g>
          </g>
          <g>
            <g class="cls-16">
              <polygon class="cls-1" points="635.67 2599.93 1.07 2231.14 .2 1855.73 634.8 2224.52 635.67 2599.93"/>
              <g>
                <polygon class="cls-14" points="634.8 2224.52 .2 1855.73 312.36 1535.95 946.96 1904.74 634.8 2224.52"/>
                <polygon class="cls-2" points="49.94 1848.94 317.66 1574.72 897.22 1911.52 629.51 2185.75 49.94 1848.94"/>
              </g>
              <polygon class="cls-4" points="946.96 1904.74 948.23 2419.47 635.67 2599.93 634.8 2224.52 946.96 1904.74"/>
            </g>
            <g>
              <path class="cls-1" d="M737.46,1959.1c-4.68,13.94-12.51,27.83-23.54,40.93l-2.78-1.31c10.74-12.74,18.35-26.27,22.91-39.83l3.41.21Z"/>
              <path class="cls-12" d="M260.2,1695.22c5.3,3.06,5.71,9.62.83,14.73-4.89,5.11-13.17,6.79-18.47,3.73-5.21-3.01-5.54-9.66-.65-14.77,4.89-5.11,13.08-6.7,18.29-3.69Z"/>
              <path class="cls-10" d="M148.26,1812.43c5.3,3.06,5.63,9.71.75,14.82-4.89,5.11-13.09,6.7-18.38,3.64-5.21-3.01-5.62-9.57-.74-14.68,4.89-5.11,13.17-6.79,18.37-3.78Z"/>
              <path class="cls-10" d="M339.22,1921.6c5.66,3.27,6.1,10.38.8,15.93-5.22,5.46-14.19,7.28-19.85,4.01l-156.73-90.49c-5.74-3.32-6.02-10.47-.8-15.93,2.65-2.77,6.22-4.61,9.84-5.34,3.45-.7,7.13-.32,10,1.34l156.73,90.49Z"/>
              <path class="cls-6" d="M204.23,1753.82c5.3,3.06,5.63,9.71.83,14.74-4.89,5.11-13.17,6.79-18.46,3.73-5.21-3.01-5.54-9.65-.66-14.77,4.8-5.03,13.09-6.7,18.29-3.7Z"/>
              <g class="cls-16">
                <path class="cls-12" d="M451.25,1804.31c5.66,3.27,6.1,10.38.8,15.93-5.3,5.55-14.19,7.28-19.85,4.01l-156.73-90.49c-5.74-3.32-6.1-10.38-.8-15.93,2.65-2.77,6.13-4.53,9.76-5.26,3.53-.78,7.21-.41,10.09,1.25l156.73,90.49Z"/>
                <path class="cls-6" d="M395.28,1862.91c5.66,3.27,6.02,10.47.8,15.93-5.3,5.55-14.27,7.36-19.93,4.1l-156.73-90.49c-5.74-3.32-6.02-10.47-.72-16.02,2.57-2.69,6.14-4.53,9.76-5.26,3.54-.79,7.21-.41,10.09,1.25l156.73,90.49Z"/>
                <path class="cls-1" d="M548.9,1865.19c15.49-9.05,32.26-15.72,49.29-19.8l.31,2.83c-16.57,3.97-32.9,10.45-47.97,19.26l-1.63-2.28Z"/>
                <path class="cls-1" d="M518.05,1897.73c-1.08,1.13-2.15,2.25-3.14,3.29l-3.55-1.85-2.69-1.41-3.61-1.89c1.07-1.27,2.23-2.48,3.39-3.69,11.01-11.53,23.93-21.7,38.23-30.11l2.22,3.12,1.63,2.28,2.16,3.04c-12.95,7.59-24.69,16.81-34.63,27.22Z"/>
                <path class="cls-1" d="M649.22,1841.16l-1.05,2.93-1.37,3.83c-15.57-1.19-31.72.11-47.91,3.94l-.4-3.65-.31-2.83-.42-3.86c18-4.27,35.71-5.74,52.86-4.31l-1.41,3.94Z"/>
                <path class="cls-1" d="M508.67,1897.76l2.69,1.41c-11.25,12.54-19.43,25.91-24.56,39.38l-3.38-.33c5.28-13.84,13.69-27.57,25.25-40.45Z"/>
                <path class="cls-1" d="M649.22,1841.16c16.08,1.31,31.44,5.28,45.11,12.1l-2.28,2.58c-13.29-6.63-28.22-10.48-43.88-11.75l1.05-2.93Z"/>
                <path class="cls-9" d="M625.69,1880.17l-.65,2.93-1.41,6.31c-2.26.04-4.52.21-6.78.39-23.34,2.13-45.72,12.88-61.62,29.52-1.08,1.13-2.07,2.17-3.06,3.35l-5.95-2.89-2.75-1.34-6.04-2.93c1.24-1.44,2.56-2.83,3.89-4.21,19.95-20.89,48.04-34.4,77.28-37.02,2.77-.28,5.73-.46,8.52-.46l-1.42,6.37Z"/>
                <path class="cls-1" d="M491.19,1938.98c-5.08,13.34-7.11,26.69-5.94,39.61l-4.68,1.07-3.56.82-4.77,1.09c-1.24-14.3,1.06-29.11,6.6-43.8l4.58.45,3.38.33,4.39.43Z"/>
                <path class="cls-1" d="M697.37,1849.81c1.88.95,3.85,1.95,5.73,3.04,11.31,6.53,20.7,14.78,27.99,24.5l-4.2,2.52-3.13,1.88-4.09,2.46c-6.54-8.75-15.1-16.12-25.43-22.08-1.71-.98-3.41-1.97-5.2-2.87l3.01-3.42,2.28-2.58,3.04-3.45Z"/>
                <path class="cls-1" d="M625.69,1880.17c15.14-.24,29.67,2.95,41.81,9.96,11.36,6.56,19.23,15.65,23.55,26.09l-3.39,1.42c-4.14-10-11.68-18.71-22.56-25-11.63-6.72-25.56-9.78-40.07-9.55l.65-2.93Z"/>
                <path class="cls-1" d="M546.22,1919.77c-19.38,22.63-23.2,49.28-11.92,69.28l-3.26,1.67c-11.77-20.87-7.8-48.67,12.42-72.29l2.75,1.34Z"/>
                <path class="cls-1" d="M477.01,1980.47l3.56-.82c1.12,13.28,5.42,25.85,12.85,36.91l-3.19,1.83c-7.66-11.37-12.08-24.28-13.23-37.92Z"/>
                <path class="cls-1" d="M643.74,1915.01c20.38,11.76,21.58,37.34,2.86,56.93-18.79,19.68-50.55,26.09-70.92,14.33-20.29-11.71-21.66-37.25-2.86-56.93,18.71-19.59,50.64-26.05,70.92-14.33ZM581.31,1980.38c16.97,9.79,43.46,4.51,59.19-11.96,15.65-16.39,14.58-37.72-2.39-47.51-16.97-9.8-43.54-4.43-59.19,11.96-15.73,16.47-14.58,37.72,2.39,47.51"/>
                <path class="cls-5" d="M624.53,1935.12c8.89,5.13,9.36,16.3,1.25,24.8-8.2,8.58-22,11.37-30.89,6.24-8.8-5.08-9.44-16.21-1.25-24.79,8.12-8.5,22.09-11.32,30.89-6.24Z"/>
                <path class="cls-1" d="M723.76,1881.75l3.13-1.88c8.24,11.04,13.26,23.69,15.05,37.15l-3.52.88c-1.74-13.09-6.64-25.4-14.65-36.15Z"/>
                <path class="cls-6" d="M638.11,1920.91c16.97,9.79,18.04,31.13,2.39,47.51-15.73,16.47-42.22,21.75-59.19,11.96-16.97-9.8-18.12-31.04-2.39-47.51,15.65-16.39,42.22-21.76,59.19-11.96ZM591.66,1969.54c10.77,6.22,27.68,2.8,37.62-7.6,9.94-10.4,9.17-23.89-1.6-30.11-10.77-6.22-27.51-2.84-37.45,7.57-9.93,10.4-9.34,23.92,1.43,30.14"/>
                <path class="cls-1" d="M523.65,2043.62l-2.35,2.54-3.1,3.35-1.97-1c-12.57-7.26-22.71-16.61-30.24-27.68l4.26-2.44,3.19-1.83,4.24-2.43c6.78,10.1,16.01,18.52,27.41,25.11l1.71.98-3.14,3.4Z"/>
                <path class="cls-1" d="M737.46,1959.1l-3.41-.21-4.54-.28c4.46-13.42,5.89-26.73,4.2-39.54l4.7-1.18,3.52-.88,4.77-1.2c1.84,14.11.32,28.83-4.69,43.56l-4.56-.28Z"/>
                <path class="cls-3" d="M702.28,1942.22c-1.95,16.76-10.26,33.35-24.17,47.91l-1.91,1.86-5.46-3.37-2.54-1.57-5.58-3.44,1.58-1.51c11.01-11.53,17.67-24.77,19.17-38.16,1.07-8.26-.02-16.02-3-23.25l7.29-3.05,3.39-1.42,7.42-3.11c3.68,8.98,5.04,18.78,3.82,29.1Z"/>
                <polygon class="cls-1" points="669.2 1991.58 673.72 1994.73 672.8 1995.54 668.37 1992.31 669.2 1991.58"/>
                <path class="cls-11" d="M601.92,2017.84l-.34,2.91-.75,6.4c-20.39,1.81-39.13-1.75-54.12-10.4-9.78-5.65-17.67-13.43-22.74-22.41l7.08-3.62,3.26-1.67,7.08-3.62c4.11,7.22,10.35,13.37,18.16,17.88,11.94,6.89,26.81,9.69,43.12,8.22l-.74,6.31Z"/>
                <polygon class="cls-1" points="663.43 1996.46 667.45 2000.12 666.53 2000.8 662.43 1997.22 663.43 1996.46"/>
                <path class="cls-1" d="M523.65,2043.62c12.94,7.12,27.59,11.47,43.03,13.24l-1.15,2.91c-15.88-1.81-30.94-6.29-44.23-13.6l2.35-2.54Z"/>
                <path class="cls-1" d="M616.08,2054.27l.17,2.83.22,3.83c-17.94,3.77-35.67,4.69-52.5,2.77l1.56-3.94,1.15-2.91,1.54-3.88c15.34,1.73,31.42.93,47.64-2.49l.22,3.78Z"/>
                <path class="cls-1" d="M616.08,2054.27c16.66-3.49,33.17-9.53,48.53-17.92l1.51,2.34c-15.78,8.63-32.74,14.84-49.87,18.42l-.17-2.83Z"/>
                <path class="cls-6" d="M716.85,1838.46c64.18,37.06,68.3,117.31,9.1,179.3-59.2,61.98-159.28,82.2-223.46,45.15-64.18-37.06-68.13-117.34-8.94-179.33,59.2-61.99,159.12-82.17,223.3-45.12ZM666.12,2038.68l2.04,3.13c19.13-10.51,35.92-24.11,49.41-40.07l-3.64-1.72c11.03-13.1,18.86-26.99,23.54-40.93l4.56.28c5.01-14.72,6.54-29.44,4.69-43.56l-4.77,1.2c-1.78-13.45-6.81-26.1-15.05-37.15l4.2-2.52c-7.29-9.72-16.68-17.97-27.99-24.5-1.88-1.09-3.85-2.09-5.73-3.04l-3.04,3.45c-13.67-6.83-29.02-10.79-45.11-12.1l1.41-3.94c-17.16-1.43-34.86.05-52.86,4.31l.42,3.86c-17.03,4.08-33.8,10.75-49.29,19.8l-2.22-3.12c-14.31,8.42-27.22,18.58-38.23,30.11-1.16,1.21-2.32,2.43-3.39,3.69l3.61,1.89c-11.56,12.88-19.96,26.61-25.25,40.45l-4.58-.45c-5.54,14.69-7.84,29.5-6.6,43.8l4.77-1.09c1.15,13.64,5.57,26.55,13.23,37.92l-4.26,2.44c7.53,11.07,17.67,20.43,30.24,27.68l1.97,1,3.1-3.35c13.3,7.32,28.36,11.79,44.23,13.6l-1.56,3.94c16.83,1.92,34.56.99,52.5-2.77l-.22-3.83c17.13-3.58,34.09-9.79,49.87-18.42"/>
                <path class="cls-1" d="M627.67,1931.83c10.77,6.22,11.54,19.71,1.6,30.11-9.93,10.4-26.85,13.82-37.62,7.6-10.77-6.22-11.36-19.74-1.43-30.14,9.94-10.4,26.67-13.79,37.45-7.57Z"/>
                <path class="cls-6" d="M729.51,1958.62l4.54.28c-4.56,13.56-12.17,27.08-22.91,39.83l-3.75-1.77c-11.2,13.45-26.45,26.17-44.8,36.27l2.03,3.13c-15.35,8.4-31.86,14.44-48.53,17.92l-.22-3.78c-16.21,3.42-32.3,4.22-47.64,2.49l-1.54,3.88c-15.45-1.77-30.1-6.12-43.03-13.24l3.14-3.4-1.71-.98c-11.4-6.58-20.63-15-27.41-25.11l-4.24,2.43c-7.44-11.06-11.74-23.64-12.85-36.91l4.68-1.07c-1.17-12.92.86-26.27,5.94-39.61l-4.39-.43c5.13-13.47,13.31-26.84,24.56-39.38l3.55,1.85c.99-1.04,2.07-2.17,3.14-3.29,9.94-10.4,21.67-19.63,34.63-27.22l-2.16-3.04c15.07-8.8,31.4-15.29,47.97-19.26l.4,3.65c16.19-3.83,32.34-5.13,47.91-3.94l1.37-3.83c15.65,1.27,30.59,5.12,43.88,11.75l-3.01,3.42c1.79.9,3.49,1.88,5.2,2.87,10.32,5.96,18.88,13.33,25.43,22.08l4.09-2.46c8.02,10.75,12.91,23.06,14.65,36.15l-4.7,1.18c1.69,12.81.27,26.11-4.2,39.54ZM676.19,1991.99l1.91-1.86c13.91-14.57,22.23-31.15,24.17-47.91,1.22-10.32-.14-20.12-3.82-29.1l-7.42,3.11c-4.32-10.44-12.19-19.53-23.55-26.09-12.14-7.01-26.68-10.2-41.81-9.96l1.42-6.37c-2.79,0-5.74.18-8.52.46-29.24,2.62-57.32,16.13-77.28,37.02-1.33,1.39-2.65,2.78-3.89,4.21l6.04,2.93c-20.22,23.61-24.2,51.41-12.42,72.29l-7.08,3.62c5.07,8.98,12.96,16.76,22.74,22.41,14.99,8.65,33.73,12.21,54.12,10.4l.75-6.4c24.88-2.32,50.52-13.55,69.16-32.14l5.46,3.37"/>
                <path class="cls-1" d="M668.19,1987.05l2.54,1.57c-18.63,18.59-44.28,29.82-69.16,32.14l.34-2.91c23.84-2.22,48.42-12.98,66.27-30.79Z"/>
                <path class="cls-1" d="M717.56,2001.75c-13.49,15.95-30.27,29.56-49.41,40.07l-2.04-3.13-1.51-2.34-2.03-3.13c18.37-10.1,33.6-22.82,44.8-36.27l3.75,1.77,2.78,1.31,3.64,1.72Z"/>
              </g>
              <path class="cls-6" d="M664.19,1982.1l-1.58,1.51,5.58,3.44c-17.85,17.81-42.43,28.57-66.27,30.79l.74-6.31c-16.31,1.48-31.18-1.33-43.12-8.22-7.81-4.51-14.05-10.66-18.16-17.88l-7.08,3.62c-11.28-20-7.47-46.65,11.92-69.28l5.95,2.89c.99-1.18,1.98-2.22,3.06-3.35,15.9-16.64,38.28-27.39,61.62-29.52,2.26-.17,4.51-.35,6.78-.39l1.41-6.31c14.5-.23,28.44,2.83,40.07,9.55,10.88,6.28,18.42,14.99,22.56,25l-7.29,3.05c2.98,7.23,4.07,14.99,3,23.25-1.51,13.39-8.16,26.63-19.17,38.16ZM575.68,1986.27c20.38,11.76,52.13,5.35,70.92-14.33,18.71-19.59,17.51-45.17-2.86-56.93-20.29-11.71-52.21-5.26-70.92,14.33-18.79,19.68-17.42,45.22,2.86,56.93"/>
              <path class="cls-9" d="M316.25,1636.53c5.3,3.06,5.63,9.71.75,14.82-4.89,5.11-13.09,6.7-18.38,3.64-5.21-3.01-5.62-9.57-.74-14.68s13.17-6.79,18.37-3.78Z"/>
              <path class="cls-9" d="M507.22,1745.71c5.66,3.27,6.1,10.38.8,15.93-5.22,5.46-14.19,7.28-19.85,4.01l-156.73-90.49c-5.74-3.32-6.02-10.47-.8-15.93,2.65-2.77,6.22-4.61,9.84-5.34,3.45-.7,7.13-.32,10,1.34l156.73,90.49Z"/>
            </g>
          </g>
        </g>
        <path class="cls-7" d="M1508.03,1584.74c71.28-41.15,129.47-8.13,129.7,73.77.23,82.05-57.58,182.04-128.86,223.19-71.53,41.3-129.59,8.21-129.82-73.84-.23-81.9,57.45-181.82,128.98-223.12Z"/>
        <path class="cls-13" d="M1508.27,1943.14c37.25-21.5,67.65-4.25,67.78,38.55.12,42.88-30.09,95.13-67.34,116.63-37.38,21.58-67.72,4.29-67.84-38.59-.12-42.8,30.02-95.01,67.4-116.59Z"/>
      </g>
    </g>
  </g>
</svg>