<?xml version="1.0" encoding="UTF-8" standalone="no"?>
<svg
   id="Layer_2"
   data-name="Layer 2"
   viewBox="0 0 4115.39 4300"
   version="1.1"
   sodipodi:docname="hero-banner-home-2.svg"
   inkscape:version="1.3.2 (091e20e, 2023-11-25, custom)"
   xmlns:inkscape="http://www.inkscape.org/namespaces/inkscape"
   xmlns:sodipodi="http://sodipodi.sourceforge.net/DTD/sodipodi-0.dtd"
   xmlns="http://www.w3.org/2000/svg"
   xmlns:svg="http://www.w3.org/2000/svg">
  <sodipodi:namedview
     id="namedview177"
     pagecolor="#ffffff"
     bordercolor="#000000"
     borderopacity="0.25"
     inkscape:showpageshadow="2"
     inkscape:pageopacity="0.0"
     inkscape:pagecheckerboard="0"
     inkscape:deskcolor="#d1d1d1"
     inkscape:zoom="0.37813953"
     inkscape:cx="858.14883"
     inkscape:cy="1886.8696"
     inkscape:window-width="1920"
     inkscape:window-height="1009"
     inkscape:window-x="1912"
     inkscape:window-y="39"
     inkscape:window-maximized="1"
     inkscape:current-layer="Layer_2" />
  <defs
     id="defs1">
    <style
       id="style1">
      .cls-1 {
        fill: #423d9b;
      }

      .cls-1, .cls-2, .cls-3, .cls-4, .cls-5, .cls-6, .cls-7, .cls-8, .cls-9, .cls-10, .cls-11, .cls-12, .cls-13, .cls-14, .cls-15, .cls-16, .cls-17, .cls-18, .cls-19, .cls-20 {
        stroke-width: 0px;
      }

      .cls-2 {
        fill: #b0b8cf;
      }

      .cls-3 {
        fill: #1d2943;
      }

      .cls-21 {
        isolation: isolate;
      }

      .cls-4 {
        fill: #d3d5f4;
      }

      .cls-5 {
        fill: #b28afd;
      }

      .cls-6 {
        fill: #f3f1fc;
      }

      .cls-7 {
        fill: #211a67;
      }

      .cls-8 {
        fill: #dedffb;
      }

      .cls-9 {
        fill: #fff;
      }

      .cls-10 {
        fill: #4c5c75;
      }

      .cls-11 {
        fill: #7e5af2;
      }

      .cls-12 {
        fill: #72d561;
      }

      .cls-13 {
        fill: #57b3fe;
      }

      .cls-14 {
        fill: #9ea9c9;
      }

      .cls-15 {
        fill: #f45170;
      }

      .cls-16 {
        fill: #8fabfe;
      }

      .cls-17 {
        fill: #dba660;
      }

      .cls-18 {
        fill: #ffd06c;
      }

      .cls-19 {
        fill: #5094ff;
      }

      .cls-20 {
        fill: #e3e7f0;
      }
    </style>
  </defs>
  <g
     id="Layer_1-2"
     data-name="Layer 1">
    <g
       id="_110"
       data-name="110">
      <g
         id="g151">
        <g
           id="g59">
          <g
             id="g20">
            <path
               class="cls-14"
               d="M2871.84,2291.44l-588.04-339.49c-20.65-11.85-32.54-29.53-32.58-48.26-.04-18.73,11.67-36.33,32.1-48.26l584.29-339.49c36.68-21.26,94.3-21.43,131.24,0l588.04,339.49c43.51,25.1,43.23,71.76.44,96.53l-584.25,339.49c-36.88,21.37-94.41,21.37-131.24,0ZM2933.17,1535.53c-17.38,0-34.76,3.75-47.61,11.24l-584.25,339.49c-9.02,5.31-14.42,11.76-14.42,17.34.04,5.58,5.53,12.2,14.77,17.51l588.04,339.49c25.96,14.98,69.74,14.98,95.44,0l584.25-339.49c19.92-11.55,18.34-24.09-.35-34.85h0l-588.04-339.49c-12.98-7.49-30.4-11.24-47.83-11.24Z"
               id="path1" />
            <path
               class="cls-2"
               d="M3611.97,386.05c-2.59,2048.64-1.57,635.88-3.57,1382.71,0,12.48-8.03,24.09-23.19,33l-584.31,338.99c-31.23,18.73-82.07,18.73-113.3,0l-587.87-338.99c-16.06-8.91-24.09-21.41-24.09-33l4.46-1382.71c0-11.61,7.14-24.09,23.19-33.02L2887.61,14.06c31.23-18.74,82.07-18.74,113.3,0l587.87,338.98c20.52,12.5,26.77,29.45,19.63,44.6,1.79-3.56,3.57-7.13,3.57-11.59Z"
               id="path2" />
            <g
               id="g19">
              <g
                 class="cls-21"
                 id="g10">
                <path
                   class="cls-8"
                   d="M3589.12,418.99l-584.23,339.52c-31.2,18.13-81.94,18.13-113.34,0l-588.05-339.51c-15.8-9.13-23.7-21.1-23.67-33.06l-3.92,1382.69c-.03,11.95,7.86,23.93,23.66,33.05l588.06,339.51c31.41,18.13,82.14,18.13,113.34,0l584.23-339.52c15.5-9.01,23.26-20.79,23.29-32.6l3.92-1382.69c-.03,11.81-7.79,23.59-23.29,32.6Z"
                   id="path3" />
                <path
                   class="cls-11"
                   d="M3612.13,557.11l-.85,148.42v44.95c0,11.03-7.64,22.9-22.9,32.23l-587.74,340.94c-30.53,17.81-81.42,17.81-112.8,0l-237.47-137.39v-197.61l240.86,139.09c31.38,18.66,82.26,18.66,113.64,0l584.35-339.24c15.27-8.48,22.9-19.51,22.9-31.38Z"
                   id="path4"
                   style="fill:#008080" />
                <path
                   class="cls-5"
                   d="M3612.13,557.11l-.85,148.42c0,11.87-7.64,22.9-22.9,32.23l-587.74,340.93c-30.53,17.81-81.42,17.81-112.8,0l-237.47-137.39v-152.66l240.86,139.09c31.38,18.66,82.26,18.66,113.64,0l584.35-339.24c15.27-8.48,22.9-19.51,22.9-31.38Z"
                   id="path5"
                   style="fill:#00b3b3;fill-opacity:1" />
                <path
                   class="cls-11"
                   d="M3612.13,943.4l-.85,148.42v44.95c0,11.03-7.64,22.9-22.9,32.23l-587.74,340.94c-30.53,17.81-81.42,17.81-112.8,0l-237.47-137.39v-197.61l240.86,139.09c31.38,18.66,82.26,18.66,113.64,0l584.35-339.24c15.27-8.48,22.9-19.51,22.9-31.38Z"
                   id="path6"
                   style="fill:#008080" />
                <path
                   class="cls-5"
                   d="M3612.13,943.4l-.85,148.42c0,11.87-7.64,22.9-22.9,32.23l-587.74,340.93c-30.53,17.81-81.42,17.81-112.8,0l-237.47-137.39v-152.66l240.86,139.09c31.38,18.66,82.26,18.66,113.64,0l584.35-339.24c15.27-8.48,22.9-19.51,22.9-31.38Z"
                   id="path7"
                   style="fill:#00b3b3;fill-opacity:1" />
                <path
                   class="cls-11"
                   d="M3612.13,1329.7l-.85,148.42v44.95c0,11.03-7.64,22.9-22.9,32.23l-587.74,340.94c-30.53,17.81-81.42,17.81-112.8,0l-237.47-137.39v-197.61l240.86,139.09c31.38,18.66,82.26,18.66,113.64,0l584.35-339.24c15.27-8.48,22.9-19.51,22.9-31.38Z"
                   id="path8"
                   style="fill:#008080" />
                <path
                   class="cls-5"
                   d="M3612.13,1329.7l-.85,148.42c0,11.87-7.64,22.9-22.9,32.23l-587.74,340.93c-30.53,17.81-81.42,17.81-112.8,0l-237.47-137.39v-152.66l240.86,139.09c31.38,18.66,82.26,18.66,113.64,0l584.35-339.24c15.27-8.48,22.9-19.51,22.9-31.38Z"
                   id="path9"
                   style="fill:#00b3b3;fill-opacity:1" />
                <path
                   class="cls-6"
                   d="M3588.75,353.33c31.41,18.13,31.57,47.52.37,65.65l-584.23,339.52c-31.2,18.13-81.94,18.13-113.34,0l-588.06-339.51c-31.41-18.13-31.57-47.52-.37-65.65L2887.35,13.82c31.2-18.13,81.93-18.13,113.34,0l588.06,339.51Z"
                   id="path10" />
              </g>
              <g
                 id="g18">
                <path
                   class="cls-2"
                   d="M2363.73,707.66c23.25,13.42,42.27,45.67,42.19,72.39-.08,26.72-19.22,37.62-42.47,24.2-23.25-13.42-41.67-46.02-41.59-72.73.08-26.72,18.62-37.28,41.87-23.86Z"
                   id="path11" />
                <path
                   class="cls-2"
                   d="M2544.37,811.95c23.25,13.42,42.27,45.67,42.19,72.39-.08,26.72-19.21,37.62-42.47,24.2-23.25-13.42-41.67-46.02-41.59-72.73.08-26.72,18.62-37.28,41.87-23.86Z"
                   id="path12" />
                <path
                   class="cls-18"
                   d="M2363.17,967.71c23.25,13.42,42.27,45.67,42.19,72.39-.08,26.72-19.22,37.62-42.47,24.2-23.25-13.42-41.67-46.01-41.59-72.73.08-26.72,18.62-37.28,41.87-23.86Z"
                   id="path13" />
                <path
                   class="cls-18"
                   d="M2543.8,1072c23.25,13.42,42.27,45.67,42.19,72.39-.08,26.72-19.21,37.62-42.47,24.2-23.25-13.42-41.67-46.01-41.59-72.73.08-26.72,18.62-37.28,41.87-23.86Z"
                   id="path14" />
                <path
                   class="cls-15"
                   d="M2362.61,1227.76c23.25,13.42,42.27,45.67,42.19,72.39-.08,26.72-19.22,37.62-42.47,24.2-23.25-13.42-41.67-46.02-41.59-72.73.08-26.72,18.62-37.28,41.87-23.86Z"
                   id="path15" />
                <path
                   class="cls-15"
                   d="M2543.24,1332.05c23.25,13.42,42.27,45.67,42.19,72.39-.08,26.72-19.21,37.62-42.47,24.2-23.25-13.42-41.67-46.02-41.59-72.73.08-26.72,18.62-37.28,41.87-23.86Z"
                   id="path16" />
                <path
                   class="cls-5"
                   d="M2362.04,1487.81c23.25,13.42,42.27,45.67,42.19,72.39-.08,26.72-19.22,37.62-42.47,24.2-23.25-13.42-41.67-46.02-41.59-72.73.08-26.72,18.62-37.28,41.87-23.86Z"
                   id="path17" />
                <path
                   class="cls-5"
                   d="M2542.68,1592.11c23.25,13.42,42.27,45.67,42.19,72.39-.08,26.72-19.21,37.62-42.47,24.2-23.25-13.42-41.67-46.02-41.59-72.73.08-26.72,18.62-37.28,41.87-23.86Z"
                   id="path18" />
              </g>
              <path
                 class="cls-2"
                 d="M3408.51,362.54c22.6,13.05,22.72,34.19.27,47.24l-420.37,244.29c-22.45,13.05-58.96,13.05-81.55,0l-423.12-244.29c-22.6-13.05-22.72-34.19-.26-47.24l420.37-244.29c22.45-13.05,58.95-13.05,81.55,0l423.12,244.29Z"
                 id="path19" />
            </g>
          </g>
          <g
             id="g39">
            <path
               class="cls-14"
               d="M1746.25,2944.38l-588.08-339.49c-20.65-11.93-32.54-29.53-32.54-48.35-.04-18.73,11.67-36.33,32.15-48.18l584.25-339.49c36.68-21.26,94.3-21.43,131.24,0l588.04,339.49c43.63,25.17,43.1,71.81.39,96.53l-584.2,339.49c-36.25,20.96-93.8,21.6-131.24,0ZM1807.58,2188.47c-17.38,0-34.76,3.75-47.61,11.24l-584.25,339.49c-9.06,5.23-14.42,11.76-14.42,17.34s5.49,12.2,14.72,17.51l588.08,339.49c25.92,14.98,69.69,14.98,95.44,0l584.2-339.49c19.44-11.21,18.93-23.78-.3-34.85h0l-588.04-339.49c-12.98-7.49-30.4-11.24-47.83-11.24Z"
               id="path20" />
            <path
               class="cls-2"
               d="M2482.99,1050.63c6.8-15.4,1.05-32.31-19.85-44.38l-588.06-339.51c-31.41-18.13-82.14-18.13-113.34,0l-584.24,339.51c-15.55,9.04-23.27,20.88-23.25,32.71,0-.03-.04-.07-.04-.11l-3.92,1382.69c-.03,11.96,7.86,23.92,23.66,33.05l588.06,339.5c31.41,18.14,82.14,18.14,113.34,0l584.23-339.52c15.5-8.99,23.25-20.79,23.29-32.58.14-51.19,3.94-1393.22,3.92-1382.69-.01,3.84-2.16,7.56-3.82,11.31ZM1158.41,1051.36c.82,1.7.59,3.48,1.75,5.12-1.15-1.63-.93-3.42-1.75-5.12Z"
               id="path21" />
            <g
               id="g38">
              <g
                 class="cls-21"
                 id="g29">
                <path
                   class="cls-4"
                   d="M2463.51,1071.92l-584.23,339.52c-31.2,18.13-81.94,18.13-113.34,0l-588.05-339.51c-15.8-9.13-23.7-21.1-23.67-33.06l-3.92,1382.69c-.03,11.95,7.86,23.93,23.66,33.05l588.06,339.51c31.41,18.13,82.14,18.13,113.34,0l584.23-339.52c15.5-9.01,23.26-20.79,23.29-32.6l3.92-1382.69c-.03,11.81-7.79,23.59-23.29,32.6Z"
                   id="path22" />
                <path
                   class="cls-7"
                   d="M2486.52,1210.04l-.85,148.42v44.95c0,11.03-7.64,22.9-22.9,32.23l-587.74,340.94c-30.53,17.81-81.42,17.81-112.8,0l-237.47-137.39v-197.61l240.86,139.09c31.38,18.66,82.26,18.66,113.64,0l584.35-339.24c15.27-8.48,22.9-19.51,22.9-31.38Z"
                   id="path23" />
                <path
                   class="cls-1"
                   d="M2486.52,1210.04l-.85,148.42c0,11.87-7.64,22.9-22.9,32.23l-587.74,340.93c-30.53,17.81-81.42,17.81-112.8,0l-237.47-137.39v-152.66l240.86,139.09c31.38,18.66,82.26,18.66,113.64,0l584.35-339.24c15.27-8.48,22.9-19.51,22.9-31.38Z"
                   id="path24"
                   style="fill:#3d709b;fill-opacity:1" />
                <path
                   class="cls-7"
                   d="M2486.52,1596.33l-.85,148.42v44.95c0,11.03-7.64,22.9-22.9,32.23l-587.74,340.94c-30.53,17.81-81.42,17.81-112.8,0l-237.47-137.39v-197.61l240.86,139.09c31.38,18.66,82.26,18.66,113.64,0l584.35-339.24c15.27-8.48,22.9-19.51,22.9-31.38Z"
                   id="path25" />
                <path
                   class="cls-1"
                   d="M2486.52,1596.33l-.85,148.42c0,11.87-7.64,22.9-22.9,32.23l-587.74,340.93c-30.53,17.81-81.42,17.81-112.8,0l-237.47-137.39v-152.66l240.86,139.09c31.38,18.66,82.26,18.66,113.64,0l584.35-339.24c15.27-8.48,22.9-19.51,22.9-31.38Z"
                   id="path26"
                   style="fill:#3d709b;fill-opacity:1" />
                <path
                   class="cls-7"
                   d="M2486.52,1982.63l-.85,148.42v44.95c0,11.03-7.64,22.9-22.9,32.23l-587.74,340.94c-30.53,17.81-81.42,17.81-112.8,0l-237.47-137.39v-197.61l240.86,139.09c31.38,18.66,82.26,18.66,113.64,0l584.35-339.24c15.27-8.48,22.9-19.51,22.9-31.38Z"
                   id="path27" />
                <path
                   class="cls-1"
                   d="M2486.52,1982.63l-.85,148.42c0,11.87-7.64,22.9-22.9,32.23l-587.74,340.93c-30.53,17.81-81.42,17.81-112.8,0l-237.47-137.39v-152.66l240.86,139.09c31.38,18.66,82.26,18.66,113.64,0l584.35-339.24c15.27-8.48,22.9-19.51,22.9-31.38Z"
                   id="path28"
                   style="fill:#3d709b;fill-opacity:1" />
                <path
                   class="cls-6"
                   d="M2463.14,1006.26c31.41,18.13,31.57,47.52.37,65.65l-584.23,339.52c-31.2,18.13-81.94,18.13-113.34,0l-588.06-339.51c-31.41-18.13-31.57-47.52-.37-65.65l584.23-339.52c31.2-18.13,81.93-18.13,113.34,0l588.06,339.51Z"
                   id="path29" />
              </g>
              <g
                 id="g37">
                <path
                   class="cls-2"
                   d="M1238.12,1360.59c23.25,13.42,42.27,45.67,42.19,72.39-.08,26.72-19.22,37.62-42.47,24.2-23.25-13.42-41.67-46.02-41.59-72.73.08-26.72,18.62-37.28,41.87-23.86Z"
                   id="path30" />
                <path
                   class="cls-2"
                   d="M1418.76,1464.89c23.25,13.42,42.27,45.67,42.19,72.39-.08,26.72-19.21,37.62-42.47,24.2-23.25-13.42-41.67-46.02-41.59-72.73.08-26.72,18.62-37.28,41.87-23.86Z"
                   id="path31" />
                <path
                   class="cls-18"
                   d="M1237.56,1620.64c23.25,13.42,42.27,45.67,42.19,72.39-.08,26.72-19.22,37.62-42.47,24.2-23.25-13.42-41.67-46.01-41.59-72.73.08-26.72,18.62-37.28,41.87-23.86Z"
                   id="path32" />
                <path
                   class="cls-18"
                   d="M1418.2,1724.94c23.25,13.42,42.27,45.67,42.19,72.39-.08,26.72-19.21,37.62-42.47,24.2-23.25-13.42-41.67-46.01-41.59-72.73.08-26.72,18.62-37.28,41.87-23.86Z"
                   id="path33" />
                <path
                   class="cls-15"
                   d="M1237,1880.69c23.25,13.42,42.27,45.67,42.19,72.39-.08,26.72-19.22,37.62-42.47,24.2-23.25-13.42-41.67-46.02-41.59-72.73.08-26.72,18.62-37.28,41.87-23.86Z"
                   id="path34" />
                <path
                   class="cls-15"
                   d="M1417.64,1984.99c23.25,13.42,42.27,45.67,42.19,72.39-.08,26.72-19.21,37.62-42.47,24.2-23.25-13.42-41.67-46.02-41.59-72.73.08-26.72,18.62-37.28,41.87-23.86Z"
                   id="path35" />
                <path
                   class="cls-5"
                   d="M1236.44,2140.75c23.25,13.42,42.27,45.67,42.19,72.39-.08,26.72-19.22,37.62-42.47,24.2-23.25-13.42-41.67-46.02-41.59-72.73.08-26.72,18.62-37.28,41.87-23.86Z"
                   id="path36" />
                <path
                   class="cls-5"
                   d="M1417.07,2245.04c23.25,13.42,42.27,45.67,42.19,72.39-.08,26.72-19.21,37.62-42.47,24.2-23.25-13.42-41.67-46.02-41.59-72.73.08-26.72,18.62-37.28,41.87-23.86Z"
                   id="path37" />
              </g>
              <path
                 class="cls-2"
                 d="M2282.91,1015.47c22.6,13.05,22.72,34.19.27,47.24l-420.37,244.29c-22.45,13.05-58.96,13.05-81.55,0l-423.12-244.29c-22.6-13.05-22.72-34.19-.26-47.24l420.37-244.29c22.45-13.05,58.95-13.05,81.55,0l423.12,244.29Z"
                 id="path38" />
            </g>
          </g>
          <g
             id="g58">
            <path
               class="cls-14"
               d="M620.62,3597.32L32.58,3257.82c-43.51-25.1-43.23-71.76-.44-96.53l584.25-339.49c36.68-21.26,94.3-21.43,131.24,0l588.08,339.49c43.69,25.25,42.97,71.89.39,96.53l-584.25,339.49c-36.88,21.37-94.41,21.37-131.24,0ZM681.95,2841.41c-17.38,0-34.76,3.75-47.61,11.24L50.09,3192.14c-19.92,11.55-18.34,24.09.35,34.85l588.04,339.49c25.92,14.98,69.69,14.98,95.44,0l584.25-339.49c19.07-11,19.12-23.67-.3-34.85h0l-588.08-339.49c-12.98-7.49-30.4-11.24-47.83-11.24Z"
               id="path39" />
            <path
               class="cls-2"
               d="M1357.23,1704.04c7.15-15.53,1.42-32.67-19.69-44.84l-588.05-339.51c-31.41-18.14-82.14-18.14-113.34,0L51.91,1659.2c-15.55,9.04-23.27,20.88-23.25,32.71,0-.04-.04-.08-.04-.11l-3.92,1382.68c-.03,11.96,7.86,23.92,23.66,33.05l588.06,339.51c31.41,18.13,82.14,18.13,113.34,0l584.24-339.51c15.5-9.02,23.25-20.8,23.29-32.6.08-27.94,4.16-1468.78,3.92-1382.69-.01,4.02-2.18,7.91-3.97,11.8ZM32.74,1704.09c.83,1.76.63,3.63,1.82,5.33-1.2-1.7-.99-3.56-1.82-5.33Z"
               id="path40" />
            <g
               id="g57">
              <g
                 class="cls-21"
                 id="g48">
                <path
                   class="cls-8"
                   d="M1337.91,1724.85l-584.23,339.52c-31.2,18.13-81.94,18.13-113.34,0L52.28,1724.85c-15.8-9.13-23.7-21.1-23.67-33.06l-3.92,1382.69c-.03,11.95,7.86,23.93,23.66,33.05l588.06,339.51c31.41,18.13,82.14,18.13,113.34,0l584.23-339.52c15.5-9.01,23.26-20.79,23.29-32.6l3.92-1382.69c-.03,11.81-7.79,23.59-23.29,32.6Z"
                   id="path41" />
                <path
                   class="cls-19"
                   d="M1360.92,1862.97l-.85,148.42v44.95c0,11.03-7.64,22.9-22.9,32.23l-587.74,340.94c-30.53,17.81-81.42,17.81-112.8,0l-237.47-137.39v-197.61l240.86,139.09c31.38,18.66,82.26,18.66,113.64,0l584.35-339.24c15.27-8.48,22.9-19.51,22.9-31.38Z"
                   id="path42"
                   style="fill:#447821;fill-opacity:1" />
                <path
                   class="cls-13"
                   d="M1360.92,1862.97l-.85,148.42c0,11.87-7.64,22.9-22.9,32.23l-587.74,340.93c-30.53,17.81-81.42,17.81-112.8,0l-237.47-137.39v-152.66l240.86,139.09c31.38,18.66,82.26,18.66,113.64,0l584.35-339.24c15.27-8.48,22.9-19.51,22.9-31.38Z"
                   id="path43"
                   style="fill:#5aa02c;fill-opacity:1" />
                <path
                   class="cls-19"
                   d="M1360.92,2249.26l-.85,148.42v44.95c0,11.03-7.64,22.9-22.9,32.23l-587.74,340.94c-30.53,17.81-81.42,17.81-112.8,0l-237.47-137.39v-197.61l240.86,139.09c31.38,18.66,82.26,18.66,113.64,0l584.35-339.24c15.27-8.48,22.9-19.51,22.9-31.38Z"
                   id="path44"
                   style="fill:#447821;fill-opacity:1" />
                <path
                   class="cls-13"
                   d="M1360.92,2249.26l-.85,148.42c0,11.87-7.64,22.9-22.9,32.23l-587.74,340.93c-30.53,17.81-81.42,17.81-112.8,0l-237.47-137.39v-152.66l240.86,139.09c31.38,18.66,82.26,18.66,113.64,0l584.35-339.24c15.27-8.48,22.9-19.51,22.9-31.38Z"
                   id="path45"
                   style="fill:#5aa02c;fill-opacity:1" />
                <path
                   class="cls-19"
                   d="M1360.92,2635.56l-.85,148.42v44.95c0,11.03-7.64,22.9-22.9,32.23l-587.74,340.94c-30.53,17.81-81.42,17.81-112.8,0l-237.47-137.39v-197.61l240.86,139.09c31.38,18.66,82.26,18.66,113.64,0l584.35-339.24c15.27-8.48,22.9-19.51,22.9-31.38Z"
                   id="path46"
                   style="fill:#447821;fill-opacity:1" />
                <path
                   class="cls-13"
                   d="M1360.92,2635.56l-.85,148.42c0,11.87-7.64,22.9-22.9,32.23l-587.74,340.93c-30.53,17.81-81.42,17.81-112.8,0l-237.47-137.39v-152.66l240.86,139.09c31.38,18.66,82.26,18.66,113.64,0l584.35-339.24c15.27-8.48,22.9-19.51,22.9-31.38Z"
                   id="path47"
                   style="fill:#5aa02c;fill-opacity:1" />
                <path
                   class="cls-6"
                   d="M1337.54,1659.19c31.41,18.13,31.57,47.52.37,65.65l-584.23,339.52c-31.2,18.13-81.94,18.13-113.34,0L52.28,1724.85c-31.41-18.13-31.57-47.52-.37-65.65l584.23-339.52c31.2-18.13,81.93-18.13,113.34,0l588.06,339.51Z"
                   id="path48" />
              </g>
              <g
                 id="g56">
                <path
                   class="cls-2"
                   d="M112.51,2013.52c23.25,13.42,42.27,45.67,42.19,72.39-.08,26.72-19.22,37.62-42.47,24.2-23.25-13.42-41.67-46.02-41.59-72.73.08-26.72,18.62-37.28,41.87-23.86Z"
                   id="path49" />
                <path
                   class="cls-2"
                   d="M293.15,2117.82c23.25,13.42,42.27,45.67,42.19,72.39-.08,26.72-19.21,37.62-42.47,24.2-23.25-13.42-41.67-46.02-41.59-72.73.08-26.72,18.62-37.28,41.87-23.86Z"
                   id="path50" />
                <path
                   class="cls-18"
                   d="M111.95,2273.57c23.25,13.42,42.27,45.67,42.19,72.39-.08,26.72-19.22,37.62-42.47,24.2-23.25-13.42-41.67-46.01-41.59-72.73.08-26.72,18.62-37.28,41.87-23.86Z"
                   id="path51" />
                <path
                   class="cls-18"
                   d="M292.59,2377.87c23.25,13.42,42.27,45.67,42.19,72.39-.08,26.72-19.21,37.62-42.47,24.2-23.25-13.42-41.67-46.01-41.59-72.73.08-26.72,18.62-37.28,41.87-23.86Z"
                   id="path52" />
                <path
                   class="cls-15"
                   d="M111.39,2533.62c23.25,13.42,42.27,45.67,42.19,72.39-.08,26.72-19.22,37.62-42.47,24.2-23.25-13.42-41.67-46.02-41.59-72.73.08-26.72,18.62-37.28,41.87-23.86Z"
                   id="path53" />
                <path
                   class="cls-15"
                   d="M292.03,2637.92c23.25,13.42,42.27,45.67,42.19,72.39-.08,26.72-19.21,37.62-42.47,24.2-23.25-13.42-41.67-46.02-41.59-72.73.08-26.72,18.62-37.28,41.87-23.86Z"
                   id="path54" />
                <path
                   class="cls-5"
                   d="M110.83,2793.68c23.25,13.42,42.27,45.67,42.19,72.39-.08,26.72-19.22,37.62-42.47,24.2-23.25-13.42-41.67-46.02-41.59-72.73.08-26.72,18.62-37.28,41.87-23.86Z"
                   id="path55" />
                <path
                   class="cls-5"
                   d="M291.47,2897.97c23.25,13.42,42.27,45.67,42.19,72.39-.08,26.72-19.21,37.62-42.47,24.2-23.25-13.42-41.67-46.02-41.59-72.73.08-26.72,18.62-37.28,41.87-23.86Z"
                   id="path56" />
              </g>
              <path
                 class="cls-2"
                 d="M1157.3,1668.4c22.6,13.05,22.72,34.19.27,47.24l-420.37,244.29c-22.45,13.05-58.96,13.05-81.55,0l-423.12-244.29c-22.6-13.05-22.72-34.19-.26-47.24l420.37-244.29c22.45-13.05,58.95-13.05,81.55,0l423.12,244.29Z"
                 id="path57" />
            </g>
          </g>
        </g>
        <g
           id="g150">
          <path
             class="cls-14"
             d="M2665.94,4300c-22.65,0-45.3-5.14-62.9-15.33l-857.79-498.57c-5.49-3.22-8.89-9.06-8.89-15.42.04-6.36,3.44-12.28,8.93-15.42l1463.38-844.86c5.58-3.31,12.33-3.31,17.9,0l857.79,498.48c19.78,11.59,31.1,28.57,31.01,46.69-.04,18.21-11.54,35.28-31.62,46.78l-1354.84,782.31c-17.68,10.19-40.38,15.33-62.99,15.33ZM1789.81,3770.77l831.18,483.06c24.35,14.2,65.64,14.03,90.08,0l1354.88-782.31c8.62-4.97,13.76-10.98,13.76-16.03.04-5.05-4.97-10.89-13.29-15.77l-848.86-493.25-1427.75,824.3Z"
             id="path59" />
          <g
             id="g149">
            <path
               class="cls-3"
               d="M3217.68,2667.97l-1463.9,844.79-86.53-50.84-3.57-992c0-34.78,24.08-76.71,54.42-93.66l1355.06-782.35c15.16-8.92,28.55-9.81,38.36-3.56l86.53,49.95.89.89c9.82,5.35,16.06,16.95,16.06,34.79l2.68,991.99Z"
               id="path60" />
            <path
               class="cls-3"
               d="M3198.83,1640.94c-9.78-5.78-23.55-5.11-38.66,3.78l-1354.96,782.23c-29.99,17.33-53.99,59.09-53.99,93.53l2.89,992.17-87.23-50.73-2.89-992.17c0-34.44,23.99-76.2,53.99-93.53l1354.96-782.23c15.11-8.66,28.88-9.55,38.66-3.78l87.23,50.73Z"
               id="path61" />
            <path
               class="cls-10"
               d="M3160.25,1644.62c29.93-17.28,54.26-3.41,54.36,30.98l2.81,992.11-1463.39,844.89-2.81-992.11c-.1-34.39,24.08-76.27,54.01-93.54l1355.02-782.32Z"
               id="path62" />
            <path
               class="cls-9"
               d="M3170.01,2631.54l-1368.92,789.97-2.76-902.83c0-10.09,11.93-31.19,22.02-36.7l1346.91-777.13,2.75,926.69Z"
               id="path63" />
            <path
               class="cls-2"
               d="M4098.15,3310.27c0,10.69-8.03,22.3-23.19,31.21l-1355.06,782.35c-29.44,16.95-77.61,16.95-107.94,0l-857.29-495.09-.89-115.97,1463.9-844.79,857.28,497.77c15.16,8.93,22.3,20.52,22.3,32.12l.89,112.4Z"
               id="path64" />
            <path
               class="cls-2"
               d="M1754.11,3512.62l.44,116.44,857.77,494.79c29.77,17.33,77.98,17.33,107.97,0l1354.96-782.23c15.11-8.66,22.66-20.22,22.66-31.55l-.44-112.47c0,11.33-7.55,22.66-22.66,31.32l-1354.74,782.23c-29.99,17.11-78.42,17.11-107.97,0l-857.99-498.53Z"
               id="path65" />
            <path
               class="cls-20"
               d="M1754.21,3512.56l857.78,498.49c29.73,17.28,78.09,17.28,108.02,0l1354.88-782.24c30.07-17.36,30.23-45.37.49-62.65l-857.78-498.49-1463.39,844.89Z"
               id="path66" />
            <g
               id="g148">
              <polygon
                 class="cls-10"
                 points="1882.09 3495.87 1882.07 3500.18 1929.05 3527.48 1936.49 3527.48 1995.29 3493.54 1995 3489.41 1948.02 3462.1 1940.89 3461.92 1882.09 3495.87"
                 id="polygon66" />
              <polygon
                 class="cls-10"
                 points="2306.14 3744.1 2306.11 3748.41 2372.56 3787.03 2379.7 3786.85 2451.25 3745.54 2451.58 3741.41 2385.13 3702.79 2377.69 3702.79 2306.14 3744.1"
                 id="polygon67" />
              <polygon
                 class="cls-10"
                 points="2400.09 3689.86 2400.38 3693.99 2466.83 3732.61 2473.65 3732.61 2545.51 3691.12 2545.54 3687.16 2479.08 3648.55 2471.95 3648.37 2400.09 3689.86"
                 id="polygon68" />
              <polygon
                 class="cls-10"
                 points="2494.35 3635.43 2494.33 3639.74 2560.78 3678.36 2567.91 3678.18 2639.47 3636.87 2639.8 3632.74 2573.35 3594.12 2565.91 3594.12 2494.35 3635.43"
                 id="polygon69" />
              <polygon
                 class="cls-10"
                 points="3152.64 3255.37 3152.93 3259.5 3219.38 3298.12 3226.2 3298.12 3298.06 3256.63 3298.09 3252.68 3231.63 3214.06 3224.5 3213.88 3152.64 3255.37"
                 id="polygon70" />
              <polygon
                 class="cls-10"
                 points="3248.46 3200.05 3248.43 3204.36 3314.89 3242.98 3322.02 3242.8 3393.57 3201.49 3393.91 3197.36 3327.45 3158.74 3320.01 3158.74 3248.46 3200.05"
                 id="polygon71" />
              <polygon
                 class="cls-10"
                 points="3159.74 3150.3 3159.72 3154.61 3226.17 3193.23 3233.61 3193.23 3305.17 3151.91 3305.19 3147.6 3238.74 3108.99 3231.3 3108.99 3159.74 3150.3"
                 id="polygon72" />
              <polygon
                 class="cls-10"
                 points="3024.67 3127.66 3024.34 3131.8 3090.79 3170.41 3098.23 3170.41 3169.79 3129.1 3169.5 3124.97 3103.05 3086.35 3096.22 3086.35 3024.67 3127.66"
                 id="polygon73" />
              <polygon
                 class="cls-10"
                 points="3254.32 3095.69 3254.29 3100.01 3320.74 3138.62 3328.19 3138.62 3382.32 3107.37 3382.34 3103.06 3315.89 3064.44 3308.45 3064.44 3254.32 3095.69"
                 id="polygon74" />
              <polygon
                 class="cls-10"
                 points="3118.31 3073.6 3118.29 3077.55 3184.74 3116.17 3191.87 3116.35 3263.74 3074.86 3263.45 3070.73 3197 3032.11 3190.18 3032.11 3118.31 3073.6"
                 id="polygon75" />
              <polygon
                 class="cls-10"
                 points="3006.89 3036.96 3006.86 3041.27 3073.32 3079.89 3080.45 3079.71 3152 3038.4 3152.34 3034.27 3085.88 2995.65 3078.44 2995.65 3006.89 3036.96"
                 id="polygon76" />
              <polygon
                 class="cls-10"
                 points="2601.04 3080.78 2601.02 3085.09 2648 3112.4 2655.44 3112.4 2714.24 3078.45 2713.95 3074.32 2666.97 3047.02 2659.84 3046.84 2601.04 3080.78"
                 id="polygon77" />
              <polygon
                 class="cls-10"
                 points="2960.48 2962.78 2960.46 2967.09 3026.91 3005.71 3034.35 3005.71 3105.9 2964.4 3105.93 2960.08 3039.48 2921.47 3032.03 2921.47 2960.48 2962.78"
                 id="polygon78" />
              <polygon
                 class="cls-10"
                 points="2920.54 2896.32 2920.52 2900.63 2967.5 2927.93 2974.94 2927.93 3033.74 2893.99 3033.45 2889.85 2986.47 2862.55 2979.34 2862.37 2920.54 2896.32"
                 id="polygon79" />
              <polygon
                 class="cls-10"
                 points="2840.59 2942.48 2840.57 2946.79 2887.55 2974.09 2894.99 2974.09 2953.79 2940.15 2953.81 2935.84 2906.83 2908.53 2899.39 2908.53 2840.59 2942.48"
                 id="polygon80" />
              <polygon
                 class="cls-10"
                 points="2760.64 2988.64 2760.92 2992.77 2807.9 3020.08 2815.04 3020.25 2873.83 2986.31 2873.86 2982 2826.88 2954.69 2819.44 2954.7 2760.64 2988.64"
                 id="polygon81" />
              <polygon
                 class="cls-10"
                 points="2680.69 3034.8 2680.97 3038.93 2727.95 3066.24 2735.08 3066.42 2793.88 3032.47 2793.91 3028.16 2746.93 3000.86 2739.48 3000.86 2680.69 3034.8"
                 id="polygon82" />
              <polygon
                 class="cls-10"
                 points="2774.76 3070.01 2774.73 3074.32 2841.18 3112.94 2848.62 3112.94 2920.18 3071.62 2920.2 3067.31 2853.75 3028.7 2846.31 3028.7 2774.76 3070.01"
                 id="polygon83" />
              <polygon
                 class="cls-10"
                 points="2867.46 3016.48 2867.75 3020.61 2934.2 3059.23 2941.33 3059.41 3013.2 3017.92 3012.91 3013.79 2946.46 2975.17 2939.33 2974.99 2867.46 3016.48"
                 id="polygon84" />
              <polygon
                 class="cls-10"
                 points="2913.25 3091.02 2913.53 3095.15 2979.99 3133.77 2986.81 3133.77 3058.36 3092.46 3058.69 3088.33 2992.24 3049.71 2984.8 3049.71 2913.25 3091.02"
                 id="polygon85" />
              <polygon
                 class="cls-10"
                 points="2681.73 3123.71 2682.02 3127.84 2748.47 3166.46 2755.6 3166.64 2827.47 3125.15 2827.18 3121.02 2760.73 3082.4 2753.6 3082.22 2681.73 3123.71"
                 id="polygon86" />
              <polygon
                 class="cls-10"
                 points="2819.92 3144.91 2819.89 3149.22 2886.34 3187.84 2893.48 3187.66 2965.03 3146.35 2965.05 3142.39 2898.6 3103.78 2891.47 3103.6 2819.92 3144.91"
                 id="polygon87" />
              <polygon
                 class="cls-10"
                 points="2930.72 3181.91 2930.39 3186.04 2996.84 3224.66 3004.28 3224.66 3075.83 3183.35 3075.86 3179.04 3009.41 3140.42 3002.27 3140.6 2930.72 3181.91"
                 id="polygon88" />
              <g
                 class="cls-21"
                 id="g121">
                <polygon
                   class="cls-10"
                   points="2521.09 3126.94 2521.07 3131.25 2568.05 3158.56 2575.49 3158.56 2634.29 3124.61 2634 3120.48 2587.02 3093.18 2579.89 3093 2521.09 3126.94"
                   id="polygon89" />
                <polygon
                   class="cls-10"
                   points="2441.14 3173.1 2441.12 3177.42 2488.1 3204.72 2495.54 3204.72 2554.33 3170.77 2554.36 3166.46 2507.38 3139.16 2499.94 3139.16 2441.14 3173.1"
                   id="polygon90" />
                <polygon
                   class="cls-10"
                   points="2589.03 3177.24 2589 3181.55 2655.46 3220.17 2662.9 3220.16 2734.45 3178.85 2734.47 3174.54 2668.02 3135.93 2660.58 3135.93 2589.03 3177.24"
                   id="polygon91" />
                <polygon
                   class="cls-10"
                   points="2726.28 3198.97 2726.25 3203.28 2792.7 3241.9 2799.84 3241.72 2871.39 3200.41 2871.72 3196.28 2805.27 3157.66 2797.83 3157.66 2726.28 3198.97"
                   id="polygon92" />
                <polygon
                   class="cls-10"
                   points="2361.19 3219.27 2361.47 3223.4 2408.45 3250.7 2415.58 3250.88 2474.38 3216.93 2474.41 3212.62 2427.43 3185.32 2419.98 3185.32 2361.19 3219.27"
                   id="polygon93" />
                <polygon
                   class="cls-10"
                   points="2496.01 3230.94 2496.3 3235.07 2562.75 3273.69 2569.88 3273.87 2641.43 3232.56 2641.46 3228.25 2575.01 3189.63 2567.56 3189.63 2496.01 3230.94"
                   id="polygon94" />
                <polygon
                   class="cls-10"
                   points="2836.77 3236.15 2836.75 3240.1 2903.2 3278.72 2910.33 3278.9 2981.88 3237.59 2981.9 3233.28 2915.45 3194.66 2908.32 3194.84 2836.77 3236.15"
                   id="polygon95" />
                <polygon
                   class="cls-10"
                   points="2632.64 3253.03 2632.61 3257.35 2699.06 3295.96 2706.2 3295.78 2777.75 3254.47 2778.08 3250.34 2711.63 3211.72 2704.19 3211.72 2632.64 3253.03"
                   id="polygon96" />
                <polygon
                   class="cls-10"
                   points="2403.3 3284.47 2403.28 3288.78 2469.73 3327.39 2477.17 3327.39 2548.72 3286.08 2548.75 3281.77 2482.3 3243.15 2474.85 3243.16 2403.3 3284.47"
                   id="polygon97" />
                <polygon
                   class="cls-10"
                   points="2743.13 3290.22 2742.79 3294.35 2809.24 3332.96 2816.69 3332.96 2888.24 3291.65 2887.95 3287.52 2821.5 3248.9 2814.68 3248.9 2743.13 3290.22"
                   id="polygon98" />
                <polygon
                   class="cls-10"
                   points="2538.99 3307.1 2539.28 3311.23 2605.73 3349.85 2612.55 3349.85 2684.42 3308.36 2684.44 3304.4 2617.99 3265.79 2610.86 3265.61 2538.99 3307.1"
                   id="polygon99" />
                <polygon
                   class="cls-10"
                   points="2310.28 3338.17 2310.57 3342.3 2377.02 3380.92 2384.15 3381.1 2455.71 3339.79 2455.73 3335.48 2389.28 3296.86 2381.84 3296.86 2310.28 3338.17"
                   id="polygon100" />
                <polygon
                   class="cls-10"
                   points="2649.17 3344.46 2648.84 3348.59 2715.29 3387.21 2722.73 3387.21 2794.29 3345.9 2794.31 3341.59 2727.86 3302.97 2720.73 3303.15 2649.17 3344.46"
                   id="polygon101" />
                <polygon
                   class="cls-10"
                   points="2445.66 3360.98 2445.64 3365.29 2512.09 3403.91 2519.22 3403.73 2590.78 3362.42 2590.8 3358.47 2524.35 3319.85 2517.22 3319.67 2445.66 3360.98"
                   id="polygon102" />
                <polygon
                   class="cls-10"
                   points="2217.57 3391.7 2217.55 3396.01 2284 3434.62 2291.44 3434.62 2363 3393.31 2362.71 3389.18 2296.26 3350.56 2289.13 3350.38 2217.57 3391.7"
                   id="polygon103" />
                <polygon
                   class="cls-10"
                   points="2555.22 3398.7 2554.89 3402.83 2621.34 3441.45 2628.78 3441.45 2700.34 3400.14 2700.36 3395.83 2633.91 3357.21 2626.77 3357.39 2555.22 3398.7"
                   id="polygon104" />
                <polygon
                   class="cls-10"
                   points="2352.02 3415.05 2352 3419.36 2418.45 3457.97 2425.58 3457.8 2497.14 3416.48 2497.47 3412.35 2431.02 3373.74 2423.57 3373.74 2352.02 3415.05"
                   id="polygon105" />
                <polygon
                   class="cls-10"
                   points="2689.36 3421.87 2689.34 3426.18 2755.79 3464.8 2763.23 3464.8 2834.78 3423.49 2834.81 3419.18 2768.36 3380.56 2760.91 3380.56 2689.36 3421.87"
                   id="polygon106" />
                <polygon
                   class="cls-10"
                   points="2124.56 3445.4 2124.53 3449.71 2190.98 3488.33 2198.43 3488.33 2269.98 3447.02 2270 3442.71 2203.55 3404.09 2196.11 3404.09 2124.56 3445.4"
                   id="polygon107" />
                <polygon
                   class="cls-10"
                   points="2461.27 3452.95 2461.25 3456.9 2527.7 3495.51 2534.83 3495.69 2606.38 3454.38 2606.41 3450.07 2539.96 3411.46 2532.82 3411.63 2461.27 3452.95"
                   id="polygon108" />
                <polygon
                   class="cls-10"
                   points="2258.38 3469.11 2258.67 3473.24 2325.12 3511.86 2331.94 3511.86 2403.49 3470.55 2403.83 3466.42 2337.38 3427.8 2329.93 3427.8 2258.38 3469.11"
                   id="polygon109" />
                <polygon
                   class="cls-10"
                   points="2595.1 3476.3 2595.38 3480.43 2661.84 3519.04 2668.97 3519.22 2740.83 3477.73 2740.54 3473.6 2674.09 3434.98 2666.96 3434.81 2595.1 3476.3"
                   id="polygon110" />
                <polygon
                   class="cls-10"
                   points="2031.85 3498.92 2031.82 3503.24 2098.27 3541.85 2105.72 3541.85 2177.27 3500.54 2176.98 3496.41 2110.53 3457.79 2103.4 3457.61 2031.85 3498.92"
                   id="polygon111" />
                <polygon
                   class="cls-10"
                   points="2367.32 3507.19 2367.3 3511.14 2433.75 3549.76 2440.88 3549.94 2512.74 3508.45 2512.46 3504.32 2446 3465.7 2439.18 3465.7 2367.32 3507.19"
                   id="polygon112" />
                <polygon
                   class="cls-10"
                   points="2164.74 3523.17 2165.03 3527.3 2231.48 3565.92 2238.3 3565.92 2310.16 3524.43 2310.19 3520.48 2243.74 3481.86 2236.6 3481.68 2164.74 3523.17"
                   id="polygon113" />
                <polygon
                   class="cls-10"
                   points="2678.52 3529.1 2678.5 3533.41 2744.95 3572.03 2752.08 3571.85 3203.8 3311.05 3204.14 3306.92 3137.68 3268.3 3130.24 3268.3 2678.52 3529.1"
                   id="polygon114" />
                <polygon
                   class="cls-10"
                   points="2501.15 3530.54 2501.43 3534.67 2567.88 3573.29 2575.01 3573.47 2646.57 3532.16 2646.59 3527.85 2580.14 3489.23 2572.7 3489.23 2501.15 3530.54"
                   id="polygon115" />
                <polygon
                   class="cls-10"
                   points="2273.68 3561.25 2273.34 3565.38 2339.79 3604 2347.24 3604 2418.79 3562.69 2418.81 3558.38 2352.36 3519.76 2345.23 3519.94 2273.68 3561.25"
                   id="polygon116" />
                <polygon
                   class="cls-10"
                   points="2588.31 3581.19 2588.59 3585.32 2655.04 3623.94 2661.87 3623.94 2733.42 3582.63 2733.75 3578.5 2667.3 3539.88 2659.86 3539.88 2588.31 3581.19"
                   id="polygon117" />
                <polygon
                   class="cls-10"
                   points="2407.19 3584.78 2407.17 3589.09 2473.62 3627.71 2481.06 3627.71 2552.62 3586.4 2552.64 3582.09 2486.19 3543.47 2478.75 3543.47 2407.19 3584.78"
                   id="polygon118" />
                <polygon
                   class="cls-10"
                   points="2046.52 3591.43 2046.5 3595.74 2112.95 3634.36 2120.08 3634.18 2215.9 3578.85 2215.92 3574.9 2149.47 3536.29 2142.34 3536.11 2046.52 3591.43"
                   id="polygon119" />
                <polygon
                   class="cls-10"
                   points="2133.99 3641.9 2133.66 3646.03 2200.11 3684.65 2207.55 3684.65 2325.77 3616.4 2325.8 3612.08 2259.34 3573.47 2252.21 3573.65 2133.99 3641.9"
                   id="polygon120" />
                <polygon
                   class="cls-10"
                   points="2220.84 3692.37 2220.82 3696.68 2287.27 3735.3 2294.71 3735.3 2458.04 3641 2457.75 3636.87 2391.3 3598.25 2384.17 3598.07 2220.84 3692.37"
                   id="polygon121" />
              </g>
              <polygon
                 class="cls-10"
                 points="1959.36 3540.77 1959.34 3545.09 2025.79 3583.7 2033.23 3583.7 2082.39 3555.32 2082.1 3551.19 2015.65 3512.58 2008.52 3512.4 1959.36 3540.77"
                 id="polygon122" />
              <polygon
                 class="cls-10"
                 points="2971.53 3258.96 2971.5 3263.27 3037.96 3301.89 3045.4 3301.89 3116.95 3260.58 3116.98 3256.27 3050.52 3217.65 3043.08 3217.65 2971.53 3258.96"
                 id="polygon123" />
              <polygon
                 class="cls-10"
                 points="2877.58 3313.21 2877.55 3317.52 2944 3356.14 2951.45 3356.13 3023 3314.82 3022.71 3310.69 2956.26 3272.07 2949.13 3271.9 2877.58 3313.21"
                 id="polygon124" />
              <polygon
                 class="cls-10"
                 points="2783.31 3367.63 2783.6 3371.76 2850.05 3410.38 2857.18 3410.56 2928.73 3369.25 2928.76 3364.94 2862.31 3326.32 2854.86 3326.32 2783.31 3367.63"
                 id="polygon125" />
              <polygon
                 class="cls-10"
                 points="3065.48 3204.72 3065.77 3208.85 3132.22 3247.47 3139.35 3247.65 3211.21 3206.16 3210.93 3202.03 3144.47 3163.41 3137.34 3163.23 3065.48 3204.72"
                 id="polygon126" />
              <polygon
                 class="cls-10"
                 points="3447.56 3085.1 3447.54 3089.41 3513.99 3128.03 3521.12 3127.85 3574.32 3097.13 3574.66 3093 3508.2 3054.38 3500.76 3054.38 3447.56 3085.1"
                 id="polygon127" />
              <polygon
                 class="cls-10"
                 points="3333.34 3050.07 3333.62 3054.2 3400.08 3092.82 3407.21 3093 3487.47 3046.66 3487.5 3042.35 3421.04 3003.73 3413.6 3003.73 3333.34 3050.07"
                 id="polygon128" />
              <polygon
                 class="cls-10"
                 points="3344.9 3144.37 3344.87 3148.68 3411.33 3187.3 3418.46 3187.12 3498.73 3140.78 3498.75 3136.83 3432.3 3098.21 3425.16 3098.03 3344.9 3144.37"
                 id="polygon129" />
              <polygon
                 class="cls-10"
                 points="3519.74 3043.43 3520.02 3047.56 3586.48 3086.18 3593.3 3086.18 3646.81 3055.28 3646.83 3051.33 3580.38 3012.71 3573.25 3012.53 3519.74 3043.43"
                 id="polygon130" />
              <polygon
                 class="cls-10"
                 points="3591.6 3001.94 3591.58 3006.25 3658.03 3044.87 3665.16 3044.69 3718.36 3013.97 3718.38 3010.02 3651.93 2971.4 3644.8 2971.22 3591.6 3001.94"
                 id="polygon131" />
              <polygon
                 class="cls-10"
                 points="3504.44 2951.29 3504.42 2955.6 3570.87 2994.21 3578.31 2994.21 3631.51 2963.5 3631.22 2959.37 3564.77 2920.75 3557.64 2920.57 3504.44 2951.29"
                 id="polygon132" />
              <polygon
                 class="cls-10"
                 points="3000.18 2850.34 3000.47 2854.47 3047.45 2881.77 3054.58 2881.95 3113.38 2848 3113.41 2843.69 3066.43 2816.39 3058.98 2816.39 3000.18 2850.34"
                 id="polygon133" />
              <polygon
                 class="cls-10"
                 points="3160.09 2758.02 3160.07 2762.33 3207.05 2789.63 3214.49 2789.63 3273.29 2755.68 3273.31 2751.37 3226.33 2724.07 3218.89 2724.07 3160.09 2758.02"
                 id="polygon134" />
              <polygon
                 class="cls-10"
                 points="3080.14 2804.18 3080.43 2808.31 3127.41 2835.61 3134.54 2835.79 3193.33 2801.84 3193.36 2797.53 3146.38 2770.23 3138.94 2770.23 3080.14 2804.18"
                 id="polygon135" />
              <polygon
                 class="cls-10"
                 points="3146.21 2855.55 3146.49 2859.68 3212.95 2898.3 3220.08 2898.48 3370.03 2811.9 3370.05 2807.59 3303.6 2768.98 3296.16 2768.97 3146.21 2855.55"
                 id="polygon136" />
              <polygon
                 class="cls-10"
                 points="3053.5 2909.07 3053.48 2913.38 3119.93 2952 3127.37 2952 3198.92 2910.69 3198.64 2906.56 3132.18 2867.94 3125.05 2867.76 3053.5 2909.07"
                 id="polygon137" />
              <polygon
                 class="cls-10"
                 points="3193.86 2929.01 3194.15 2933.14 3260.6 2971.76 3267.42 2971.76 3339.28 2930.27 3339.31 2926.32 3272.85 2887.7 3265.72 2887.52 3193.86 2929.01"
                 id="polygon138" />
              <polygon
                 class="cls-10"
                 points="3100.53 2982.9 3100.5 2987.21 3166.96 3025.82 3174.09 3025.65 3245.64 2984.33 3245.98 2980.2 3179.52 2941.58 3172.08 2941.59 3100.53 2982.9"
                 id="polygon139" />
              <polygon
                 class="cls-10"
                 points="3212.27 3019.36 3212.24 3023.31 3278.69 3061.93 3285.83 3062.11 3357.38 3020.8 3357.4 3016.48 3290.95 2977.87 3283.82 2978.05 3212.27 3019.36"
                 id="polygon140" />
              <polygon
                 class="cls-10"
                 points="3289.37 2873.87 3289.65 2878 3356.1 2916.62 3362.93 2916.62 3457.19 2862.2 3457.21 2858.25 3390.76 2819.63 3383.63 2819.45 3289.37 2873.87"
                 id="polygon141" />
              <polygon
                 class="cls-10"
                 points="3308.39 2963.86 3308.37 2967.81 3374.82 3006.43 3381.96 3006.61 3544.35 2912.85 3544.06 2908.72 3477.61 2870.1 3470.79 2870.1 3308.39 2963.86"
                 id="polygon142" />
              <polygon
                 class="cls-10"
                 points="3432.58 2992.78 3432.86 2996.91 3499.32 3035.53 3506.45 3035.7 3559.96 3004.81 3559.67 3000.68 3493.22 2962.06 3486.09 2961.88 3432.58 2992.78"
                 id="polygon143" />
              <polygon
                 class="cls-10"
                 points="1961.73 3449.89 1962.02 3454.02 2009 3481.32 2016.13 3481.5 2074.93 3447.56 2074.95 3443.24 2027.97 3415.94 2020.53 3415.94 1961.73 3449.89"
                 id="polygon144" />
              <polygon
                 class="cls-10"
                 points="2201.59 3311.41 2201.57 3315.72 2248.55 3343.02 2255.99 3343.02 2314.79 3309.07 2314.5 3304.94 2267.52 3277.64 2260.39 3277.46 2201.59 3311.41"
                 id="polygon145" />
              <polygon
                 class="cls-10"
                 points="2121.64 3357.57 2121.61 3361.88 2168.59 3389.18 2176.04 3389.18 2234.84 3355.23 2234.86 3350.92 2187.88 3323.62 2180.44 3323.62 2121.64 3357.57"
                 id="polygon146" />
              <polygon
                 class="cls-10"
                 points="2041.69 3403.73 2041.97 3407.86 2088.95 3435.16 2096.08 3435.34 2154.88 3401.39 2154.91 3397.08 2107.93 3369.78 2100.48 3369.78 2041.69 3403.73"
                 id="polygon147" />
              <polygon
                 class="cls-10"
                 points="2281.23 3265.43 2281.52 3269.56 2328.5 3296.86 2335.63 3297.04 2394.74 3262.91 2394.45 3258.78 2347.47 3231.48 2340.34 3231.3 2281.23 3265.43"
                 id="polygon148" />
            </g>
            <path
               class="cls-2"
               d="M3339.77,3565.66l-249.11,145.25c-14.06,7.81-30.46,7.81-43.73,0l-159.31-92.15c-14.84-8.59-14.84-28.89,0-37.48l249.11-145.25c14.06-7.81,30.46-7.81,43.73,0l159.31,92.15c14.06,7.81,14.06,28.89,0,37.48Z"
               id="path148" />
          </g>
        </g>
      </g>
      <g
         id="g177">
        <polygon
           class="cls-8"
           points="1990.67 2513.14 1888.75 2571.9 1888.75 2532.42 1990.67 2473.66 1990.67 2513.14"
           id="polygon151" />
        <polygon
           class="cls-8"
           points="1990.67 2614.14 1888.75 2673.82 1888.75 2633.42 1990.67 2574.66 1990.67 2614.14"
           id="polygon152" />
        <polygon
           class="cls-8"
           points="1991.58 2817.97 1889.67 2876.73 1889.67 2836.33 1991.58 2777.57 1991.58 2817.97"
           id="polygon153" />
        <polygon
           class="cls-8"
           points="1889.67 2937.33 1991.58 2878.57 1991.58 2918.97 1889.67 2977.73 1889.67 2937.33"
           id="polygon154" />
        <polygon
           class="cls-8"
           points="1889.67 3039.24 1992.5 2980.48 1992.5 3020.88 1889.67 3079.64 1889.67 3039.24"
           id="polygon155" />
        <polygon
           class="cls-8"
           points="1890.58 3140.24 1992.5 3081.48 1992.5 3121.88 1890.58 3180.64 1890.58 3140.24"
           id="polygon156" />
        <polygon
           class="cls-8"
           points="2272.54 2554.45 2054.02 2680.25 2054.02 2639.85 2272.54 2514.06 2272.54 2554.45"
           id="polygon157" />
        <polygon
           class="cls-8"
           points="1890.58 3242.16 1992.5 3182.48 1992.5 3222.88 1890.58 3281.64 1890.58 3242.16"
           id="polygon158" />
        <polygon
           class="cls-8"
           points="2055.86 3085.15 2054.94 3045.67 2249.59 2932.74 2249.59 2973.14 2055.86 3085.15"
           id="polygon159" />
        <polygon
           class="cls-17"
           points="2255.1 2360.72 2054.02 2477.33 2054.02 2436.93 2255.1 2320.32 2255.1 2360.72"
           id="polygon160" />
        <polygon
           class="cls-15"
           points="2309.27 2694.93 2309.27 2735.33 2054.94 2882.24 2054.94 2841.84 2309.27 2694.93"
           id="polygon161" />
        <polygon
           class="cls-12"
           points="2055.86 3146.67 2378.13 2960.28 2378.13 3000.68 2055.86 3187.07 2055.86 3146.67"
           id="polygon162" />
        <polygon
           class="cls-8"
           points="1889.67 2775.73 1888.75 2735.33 1991.58 2676.57 1991.58 2716.05 1889.67 2775.73"
           id="polygon163" />
        <polygon
           class="cls-15"
           points="3079.6 1844.72 3079.6 1885.12 2805.07 2043.04 2805.07 2002.65 3079.6 1844.72"
           id="polygon164" />
        <polygon
           class="cls-8"
           points="2672.86 2180.77 3079.6 1945.72 3079.6 1986.12 2672.86 2221.17 2672.86 2180.77"
           id="polygon165" />
        <polygon
           class="cls-17"
           points="2441.48 2923.56 2853.74 2685.76 2853.74 2726.15 2441.48 2963.95 2441.48 2923.56"
           id="polygon166" />
        <polygon
           class="cls-8"
           points="2054.94 2943.76 2475.46 2701.36 2475.46 2741.76 2054.94 2984.16 2054.94 2943.76"
           id="polygon167" />
        <polygon
           class="cls-8"
           points="2054.94 2781.24 2054.02 2740.84 2518.61 2472.74 2518.61 2513.14 2054.94 2781.24"
           id="polygon168" />
        <polygon
           class="cls-8"
           points="2601.24 2262.48 2054.02 2578.33 2054.02 2537.93 2601.24 2222.08 2601.24 2262.48"
           id="polygon169" />
        <polygon
           class="cls-8"
           points="2744.48 2078.85 2305.59 2331.34 2305.59 2291.86 2743.56 2038.45 2744.48 2078.85"
           id="polygon170" />
        <polygon
           class="cls-8"
           points="2505.75 2683.92 2797.72 2514.97 2797.72 2555.37 2505.75 2724.32 2505.75 2683.92"
           id="polygon171" />
        <polygon
           class="cls-13"
           points="2327.63 2481.92 2885.87 2159.65 2886.79 2200.05 2327.63 2522.32 2327.63 2481.92"
           id="polygon172" />
        <polygon
           class="cls-8"
           points="2640.72 2748.19 2297.33 2945.59 2297.33 2905.19 2639.8 2707.79 2640.72 2748.19"
           id="polygon173" />
        <polygon
           class="cls-8"
           points="3016.25 2327.67 2688.46 2516.81 2688.46 2476.41 3016.25 2287.27 3016.25 2327.67"
           id="polygon174" />
        <polygon
           class="cls-8"
           points="2387.31 2649.95 2657.25 2494.78 2657.25 2534.26 2387.31 2690.34 2387.31 2649.95"
           id="polygon175" />
        <polygon
           class="cls-8"
           points="2558.09 2450.71 3079.6 2149.55 3079.6 2189.03 2558.09 2491.11 2558.09 2450.71"
           id="polygon176" />
        <polygon
           class="cls-16"
           points="2682.95 2683 3079.6 2453.46 3079.6 2493.86 2682.95 2723.4 2682.95 2683"
           id="polygon177" />
      </g>
    </g>
  </g>
</svg>
