<?xml version="1.0" encoding="UTF-8"?>
<svg id="Layer_2" data-name="Layer 2" xmlns="http://www.w3.org/2000/svg" viewBox="0 0 713.38 756">
  <defs>
    <style>
      .cls-1 {
        fill: #a2bd2c;
      }

      .cls-1, .cls-2, .cls-3 {
        stroke-width: 0px;
      }

      .cls-2 {
        fill: #edf1fd;
      }

      .cls-3 {
        fill: #fff;
        opacity: .2;
      }
    </style>
  </defs>
  <g id="_Layer_" data-name="&amp;lt;Layer&amp;gt;">
    <g>
      <path class="cls-2" d="M352.9,756C100.35,756,19.42,345.28.63,219.39c-4.07-27.29,11.99-53.38,38.17-62.04,18.72-6.19,53.17-19.98,73.69-42.77,26.31-29.25,30.92-49.86,31.33-59.54,1.28-30.86,26.15-55.05,56.62-55.05h312.51c30.48,0,55.34,24.18,56.62,55.06.4,9.67,5.02,30.28,31.34,59.53,20.51,22.78,54.96,36.57,73.67,42.76,26.18,8.66,42.24,34.74,38.18,62.02-18.8,125.9-99.73,536.63-352.29,536.63h-7.56Z"/>
      <path class="cls-1" d="M575.94,137.05c-31.29-34.78-39.17-62.6-39.92-80.6-.53-12.65-10.41-22.87-23.07-22.87H200.43c-12.67,0-22.55,10.22-23.07,22.87-.75,18-8.63,45.82-39.92,80.6-25.41,28.24-65.07,44.57-88.09,52.19-10.65,3.52-17.16,14.1-15.5,25.2,14.34,96.16,89.21,507.99,319.07,507.99h7.56c229.86,0,304.72-411.83,319.07-507.99,1.66-11.1-4.85-21.68-15.5-25.2-23.02-7.62-62.68-23.95-88.1-52.19Z"/>
      <path class="cls-2" d="M356.69,431.4h0c-60.27,0-109.13-48.86-109.13-109.13v-83.95c0-13.91,11.28-25.18,25.18-25.18h167.9c13.91,0,25.18,11.27,25.18,25.18v83.95c0,60.27-48.86,109.13-109.13,109.13Z"/>
      <path class="cls-1" d="M375.65,335.16c0-10.47-8.49-18.96-18.96-18.96s-18.96,8.49-18.96,18.96c0,6.72,3.52,12.59,8.8,15.96v17.89c0,5.61,4.55,10.15,10.15,10.15s10.15-4.55,10.15-10.15v-17.89c5.28-3.37,8.8-9.24,8.8-15.96Z"/>
      <path class="cls-2" d="M308.2,198.91v-24.43c0-26.12,19.03-49.68,45.04-52.01,29.4-2.64,54.17,20.54,54.17,49.4v27.04c0,4.25,3.45,7.7,7.7,7.7h20.12c4.25,0,7.7-3.45,7.7-7.7v-23.68c0-43.48-31.15-82.45-74.3-87.8-51.74-6.42-95.94,33.95-95.94,84.45v27.04c0,4.25,3.45,7.7,7.7,7.7h20.12c4.25,0,7.7-3.45,7.7-7.7Z"/>
      <g>
        <path class="cls-2" d="M299.38,566.72c0,11.27-4.06,20.15-12.18,26.63-8.1,6.49-19.38,9.73-33.84,9.73-13.32,0-25.09-2.5-35.34-7.51v-24.58c8.42,3.76,15.56,6.41,21.38,7.93,5.84,1.56,11.17,2.31,16.01,2.31,5.8,0,10.26-1.1,13.35-3.34,3.11-2.2,4.67-5.5,4.67-9.9,0-2.43-.68-4.61-2.05-6.53-1.36-1.9-3.38-3.74-6.03-5.5-2.64-1.77-8.04-4.57-16.16-8.46-7.64-3.57-13.36-7.02-17.17-10.32-3.81-3.3-6.87-7.13-9.12-11.53-2.29-4.36-3.41-9.48-3.41-15.36,0-11.02,3.74-19.71,11.21-26.03,7.49-6.32,17.83-9.48,31.03-9.48,6.49,0,12.67.78,18.57,2.31,5.88,1.54,12.04,3.7,18.48,6.49l-8.54,20.56c-6.66-2.73-12.16-4.63-16.52-5.71-4.34-1.08-8.63-1.61-12.84-1.61-5.01,0-8.86,1.16-11.53,3.49-2.67,2.33-4,5.39-4,9.14,0,2.33.53,4.36,1.61,6.09,1.08,1.74,2.81,3.41,5.18,5.04,2.35,1.61,7.95,4.53,16.77,8.74,11.66,5.58,19.65,11.17,23.99,16.77,4.31,5.61,6.49,12.48,6.49,20.62Z"/>
        <path class="cls-2" d="M395.66,566.72c0,11.27-4.06,20.15-12.18,26.63-8.1,6.49-19.39,9.73-33.84,9.73-13.32,0-25.1-2.5-35.34-7.51v-24.58c8.42,3.76,15.55,6.41,21.38,7.93,5.84,1.56,11.17,2.31,16.01,2.31,5.81,0,10.26-1.1,13.36-3.34,3.11-2.2,4.66-5.5,4.66-9.9,0-2.43-.68-4.61-2.05-6.53-1.37-1.9-3.38-3.74-6.03-5.5-2.64-1.77-8.04-4.57-16.16-8.46-7.64-3.57-13.35-7.02-17.17-10.32-3.81-3.3-6.87-7.13-9.12-11.53-2.3-4.36-3.41-9.48-3.41-15.36,0-11.02,3.74-19.71,11.21-26.03,7.49-6.32,17.83-9.48,31.03-9.48,6.49,0,12.67.78,18.57,2.31,5.88,1.54,12.05,3.7,18.48,6.49l-8.54,20.56c-6.66-2.73-12.16-4.63-16.52-5.71-4.34-1.08-8.63-1.61-12.84-1.61-5.01,0-8.86,1.16-11.53,3.49-2.67,2.33-4,5.39-4,9.14,0,2.33.53,4.36,1.61,6.09,1.08,1.74,2.81,3.41,5.18,5.04,2.35,1.61,7.95,4.53,16.77,8.74,11.67,5.58,19.65,11.17,24,16.77,4.31,5.61,6.49,12.48,6.49,20.62Z"/>
        <path class="cls-2" d="M418.27,601.37v-124.8h26.46v102.95h50.63v21.85h-77.09Z"/>
      </g>
      <path class="cls-3" d="M674.58,157.35c-18.71-6.19-53.17-19.98-73.67-42.76-26.32-29.25-30.93-49.86-31.34-59.53-1.28-30.88-26.15-55.06-56.62-55.06H200.43c-18.55,0-34.94,9.04-45.28,23.01,276.29,258.17,333.71,526.65,338.91,687.69,149.2-110.16,203.72-391.03,218.69-491.32,4.06-27.28-12-53.36-38.18-62.02Z"/>
    </g>
  </g>
</svg>