<?xml version="1.0" encoding="UTF-8" standalone="no"?>
<!-- Generator: Adobe Illustrator 28.2.0, SVG Export Plug-In . SVG Version: 6.00 Build 0)  -->

<svg
   version="1.1"
   id="Layer_2_00000116942945517045828500000011382288698627544202_"
   x="0px"
   y="0px"
   viewBox="0 0 2938.9 4300"
   style="enable-background:new 0 0 2938.9 4300;"
   xml:space="preserve"
   sodipodi:docname="vps-hosting.svg"
   inkscape:version="1.3.2 (091e20e, 2023-11-25, custom)"
   xmlns:inkscape="http://www.inkscape.org/namespaces/inkscape"
   xmlns:sodipodi="http://sodipodi.sourceforge.net/DTD/sodipodi-0.dtd"
   xmlns="http://www.w3.org/2000/svg"
   xmlns:svg="http://www.w3.org/2000/svg"><defs
   id="defs111" /><sodipodi:namedview
   id="namedview111"
   pagecolor="#ffffff"
   bordercolor="#000000"
   borderopacity="0.25"
   inkscape:showpageshadow="2"
   inkscape:pageopacity="0.0"
   inkscape:pagecheckerboard="0"
   inkscape:deskcolor="#d1d1d1"
   inkscape:zoom="0.18906977"
   inkscape:cx="1467.7122"
   inkscape:cy="1303.7515"
   inkscape:window-width="1920"
   inkscape:window-height="1009"
   inkscape:window-x="1912"
   inkscape:window-y="39"
   inkscape:window-maximized="1"
   inkscape:current-layer="Layer_2_00000116942945517045828500000011382288698627544202_" />
<style
   type="text/css"
   id="style1">
	.st0{fill:#DEDFFB;}
	.st1{fill:#E9E7FC;}
	.st2{fill:#F3F1FC;}
	.st3{fill:#926AF2;}
	.st4{fill:#4C5C75;}
	.st5{fill:#78E75A;}
	.st6{fill:#F45170;}
	.st7{fill:#F8F9FE;}
	.st8{fill:#FE90A9;}
	.st9{fill:#FFDE9B;}
	.st10{fill:#FEBC1F;}
	.st11{fill:#B0B8CF;}
	.st12{fill:#1D2943;}
	.st13{fill:#AD8FF5;}
	.st14{fill:#FFD06C;}
	.st15{fill:#7745EF;}
</style>
<g
   id="Layer_1-2">
	<g
   id="_153">
		<g
   id="g111">
			<g
   id="g5">
				<polygon
   class="st0"
   points="2910.6,2747.9 2905.3,3417.1 1489.8,4239.4 64.6,3417.1 69.1,2747.9 1485.4,1924.6     "
   id="polygon1" />
				<g
   id="g4">
					<polygon
   class="st0"
   points="2910.2,2747.5 2905.4,3417 1489.5,4239.8 1494.3,3570.4      "
   id="polygon2" />
					<polygon
   class="st1"
   points="1494.3,3570.4 1489.5,4239.8 64.3,3417 69.2,2747.6      "
   id="polygon3" />
					<polygon
   class="st2"
   points="2910.2,2747.5 1494.3,3570.4 69.2,2747.6 1485.1,1924.7      "
   id="polygon4" />
				</g>
			</g>
			<g
   id="g9">
				<polygon
   class="st1"
   points="2910.6,917.7 2905.3,2624.2 1489.8,3446.6 64.6,2624.2 69.1,917.7 1485.4,94.4     "
   id="polygon5" />
				<g
   id="g8">
					<polygon
   class="st0"
   points="2910.2,917.4 2905.4,2623.8 1489.5,3446.6 1494.3,1740.2      "
   id="polygon6" />
					<polygon
   class="st1"
   points="1494.3,1740.2 1489.5,3446.6 64.3,2623.8 69.2,917.4      "
   id="polygon7" />
					<polygon
   class="st2"
   points="2910.2,917.4 1494.3,1740.2 69.2,917.4 1485.1,94.6      "
   id="polygon8" />
				</g>
			</g>
			<path
   class="st3"
   d="M1493.3,1573.8l-7.8-4.6l-1129-651.8L1486.1,261l7.8,4.6l1129,651.8L1493.3,1573.8L1493.3,1573.8z      M419.1,917.4l1074.2,620.1l1067-620.1L1486.1,297.3L419.1,917.4z"
   id="path9"
   style="fill:#008080;fill-opacity:1" />
			<polygon
   class="st4"
   points="1703.3,1860.9 2699.9,1281.8 2696.4,2503.1 1699.8,3082.3    "
   id="polygon9" />
			<g
   id="g54">
				<polygon
   class="st5"
   points="1976.3,1900.1 1976.6,1981.9 1905.4,2023 1905.2,1941.2     "
   id="polygon10" />
				<polygon
   class="st5"
   points="2105.2,1825.7 2105.5,1907.5 2034.4,1948.5 2034.2,1866.7     "
   id="polygon11" />
				<polygon
   class="st5"
   points="2234.1,1751.3 2234.4,1833 2163.3,1874.1 2163.1,1792.3     "
   id="polygon12" />
				<polygon
   class="st5"
   points="2363.2,1676.8 2363.4,1758.5 2292.2,1799.6 2292,1717.8     "
   id="polygon13" />
				<polygon
   class="st5"
   points="2492.1,1602.3 2492.3,1684.1 2421.3,1725.1 2421,1643.3     "
   id="polygon14" />
				<polygon
   class="st6"
   points="1847.6,2097.8 1847.9,2179.4 1776.8,2220.4 1776.6,2138.8     "
   id="polygon15" />
				<polygon
   class="st5"
   points="1976.7,2023.3 1976.9,2104.9 1905.7,2146 1905.5,2064.4     "
   id="polygon16" />
				<polygon
   class="st7"
   points="2105.6,1948.8 2105.8,2030.5 2034.8,2071.5 2034.6,1989.9     "
   id="polygon17" />
				<polygon
   class="st5"
   points="2234.5,1874.4 2234.7,1956.1 2163.7,1997.1 2163.4,1915.4     "
   id="polygon18" />
				<polygon
   class="st5"
   points="2363.5,1799.9 2363.7,1881.6 2292.6,1922.6 2292.3,1841     "
   id="polygon19" />
				<polygon
   class="st8"
   points="2492.4,1725.5 2492.6,1807.1 2421.6,1848.1 2421.4,1766.5     "
   id="polygon20" />
				<polygon
   class="st5"
   points="2621.4,1651 2621.7,1732.6 2550.5,1773.7 2550.3,1692.1     "
   id="polygon21" />
				<polygon
   class="st5"
   points="1848,2220.9 1848.2,2302.6 1777.2,2343.6 1777,2261.9     "
   id="polygon22" />
				<polygon
   class="st5"
   points="1977,2146.4 1977.3,2228.1 1906.1,2269.2 1905.9,2187.5     "
   id="polygon23" />
				<polygon
   class="st5"
   points="2105.9,2072 2106.2,2153.6 2035.1,2194.6 2034.9,2113     "
   id="polygon24" />
				<polygon
   class="st5"
   points="2234.8,1997.6 2235.1,2079.2 2164,2120.2 2163.8,2038.6     "
   id="polygon25" />
				<polygon
   class="st5"
   points="2363.9,1923.1 2364.1,2004.7 2292.9,2045.8 2292.7,1964.2     "
   id="polygon26" />
				<polygon
   class="st5"
   points="2492.8,1848.7 2493,1930.3 2421.9,1971.3 2421.7,1889.7     "
   id="polygon27" />
				<polygon
   class="st5"
   points="2621.8,1774.2 2622,1855.8 2550.9,1896.9 2550.6,1815.3     "
   id="polygon28" />
				<polygon
   class="st5"
   points="1848.3,2343.9 1848.6,2425.7 1777.5,2466.8 1777.3,2385     "
   id="polygon29" />
				<polygon
   class="st7"
   points="1977.4,2269.4 1977.6,2351.2 1906.4,2392.3 1906.2,2310.6     "
   id="polygon30" />
				<polygon
   class="st5"
   points="2106.3,2195 2106.5,2276.8 2035.5,2317.8 2035.2,2236.1     "
   id="polygon31" />
				<polygon
   class="st9"
   points="2235.2,2120.6 2235.4,2202.4 2164.4,2243.4 2164.1,2161.6     "
   id="polygon32" />
				<polygon
   class="st5"
   points="2364.2,2046.1 2364.4,2127.9 2293.3,2169 2293,2087.2     "
   id="polygon33" />
				<polygon
   class="st5"
   points="2493.1,1971.7 2493.3,2053.5 2422.3,2094.5 2422.1,2012.7     "
   id="polygon34" />
				<polygon
   class="st5"
   points="2622.1,1897.2 2622.4,1979 2551.2,2020.1 2551,1938.3     "
   id="polygon35" />
				<polygon
   class="st5"
   points="1848.7,2467.1 1848.9,2548.9 1777.9,2589.9 1777.7,2508.1     "
   id="polygon36" />
				<polygon
   class="st5"
   points="1977.7,2392.6 1978,2474.4 1906.8,2515.5 1906.6,2433.7     "
   id="polygon37" />
				<polygon
   class="st5"
   points="2106.6,2318.2 2106.9,2400 2035.8,2441 2035.6,2359.2     "
   id="polygon38" />
				<polygon
   class="st5"
   points="2235.5,2243.8 2235.8,2325.6 2164.7,2366.6 2164.5,2284.8     "
   id="polygon39" />
				<polygon
   class="st5"
   points="2364.6,2169.3 2364.8,2251.1 2293.6,2292.2 2293.4,2210.4     "
   id="polygon40" />
				<polygon
   class="st5"
   points="2493.4,2094.9 2493.7,2176.7 2422.6,2217.7 2422.4,2135.9     "
   id="polygon41" />
				<polygon
   class="st7"
   points="2622.5,2020.4 2622.7,2102.2 2551.6,2143.2 2551.3,2061.5     "
   id="polygon42" />
				<polygon
   class="st5"
   points="1849,2590.3 1849.3,2671.9 1778.2,2712.9 1778,2631.3     "
   id="polygon43" />
				<polygon
   class="st5"
   points="1978.1,2515.8 1978.3,2597.4 1907.1,2638.5 1906.9,2556.9     "
   id="polygon44" />
				<polygon
   class="st5"
   points="2107,2441.4 2107.2,2523 2036.2,2564 2035.9,2482.4     "
   id="polygon45" />
				<polygon
   class="st5"
   points="2235.9,2367 2236.1,2448.6 2165.1,2489.6 2164.8,2408     "
   id="polygon46" />
				<polygon
   class="st7"
   points="2364.9,2292.5 2365.1,2374.1 2294,2415.2 2293.7,2333.6     "
   id="polygon47" />
				<polygon
   class="st5"
   points="2493.8,2218.1 2494,2299.7 2423,2340.7 2422.8,2259.1     "
   id="polygon48" />
				<polygon
   class="st5"
   points="2622.8,2143.6 2623.1,2225.2 2551.9,2266.3 2551.7,2184.6     "
   id="polygon49" />
				<polygon
   class="st5"
   points="1978.4,2638.8 1978.7,2720.6 1907.5,2761.7 1907.2,2679.9     "
   id="polygon50" />
				<polygon
   class="st10"
   points="2107.3,2564.4 2107.6,2646.2 2036.5,2687.2 2036.3,2605.4     "
   id="polygon51" />
				<polygon
   class="st5"
   points="2236.2,2490 2236.4,2571.8 2165.4,2612.8 2165.2,2531     "
   id="polygon52" />
				<polygon
   class="st5"
   points="2365.2,2415.5 2365.5,2497.3 2294.3,2538.4 2294.1,2456.6     "
   id="polygon53" />
				<polygon
   class="st6"
   points="2494.1,2341.1 2494.4,2422.9 2423.4,2463.9 2423.1,2382.1     "
   id="polygon54" />
			</g>
			<g
   id="g72">
				<g
   id="g63">
					<path
   class="st3"
   d="M1269.2,3093.4l-416.4-241.9v-9l-3.6-1248.7l416.4,241.9v9L1269.2,3093.4z M884.1,2833.4l353.5,205.4       l-3.3-1185l-353.5-205.4L884.1,2833.4L884.1,2833.4z"
   id="path54"
   style="fill:#008080;fill-opacity:1" />
					<g
   id="g62">
						<polygon
   class="st11"
   points="1166.3,1892.7 1166.1,1958.8 954.8,1836.8 954.9,1770.7       "
   id="polygon55" />
						<polygon
   class="st11"
   points="1165.5,2166.5 1165.3,2231.9 954,2109.9 954.2,2044.5       "
   id="polygon56" />
						<polygon
   class="st11"
   points="1165.9,2029.6 1165.7,2095 954.4,1973 954.6,1907.6       "
   id="polygon57" />
						<polygon
   class="st11"
   points="1164.3,2576.6 1164.1,2642.7 952.8,2520.7 953,2454.6       "
   id="polygon58" />
						<polygon
   class="st11"
   points="1164.7,2439.7 1164.5,2505.8 953.2,2383.8 953.4,2317.7       "
   id="polygon59" />
						<polygon
   class="st11"
   points="1165.1,2303.4 1164.9,2368.9 953.6,2246.9 953.8,2181.4       "
   id="polygon60" />
						<polygon
   class="st11"
   points="1163.5,2850.4 1163.3,2916.5 952,2794.5 952.2,2728.4       "
   id="polygon61" />
						<polygon
   class="st11"
   points="1163.9,2713.5 1163.7,2779.6 952.4,2657.6 952.6,2591.5       "
   id="polygon62" />
					</g>
				</g>
				<g
   id="g71">
					<path
   class="st3"
   d="M709.5,2770.3l-416.3-241.9v-9l-3.6-1248.7l416.3,241.9v9L709.5,2770.3z M324.5,2510.2l353.4,205.4       l-3.3-1185l-353.4-205.4L324.5,2510.2L324.5,2510.2z"
   id="path63"
   style="fill:#008080;fill-opacity:1" />
					<g
   id="g70">
						<polygon
   class="st11"
   points="606.6,1569.5 606.4,1635.6 395.1,1513.6 395.3,1447.5       "
   id="polygon63" />
						<polygon
   class="st11"
   points="605.8,1843.4 605.6,1908.8 394.3,1786.8 394.5,1721.4       "
   id="polygon64" />
						<polygon
   class="st11"
   points="606.2,1706.4 606,1771.9 394.7,1649.9 394.9,1584.4       "
   id="polygon65" />
						<polygon
   class="st11"
   points="604.7,2253.5 604.5,2319.6 393.1,2197.6 393.3,2131.5       "
   id="polygon66" />
						<polygon
   class="st11"
   points="605,2116.5 604.8,2182.6 393.5,2060.6 393.7,1994.5       "
   id="polygon67" />
						<polygon
   class="st11"
   points="605.4,1980.3 605.2,2045.7 393.9,1923.7 394.1,1858.3       "
   id="polygon68" />
						<polygon
   class="st11"
   points="603.9,2527.3 603.7,2593.4 392.4,2471.4 392.6,2405.3       "
   id="polygon69" />
						<polygon
   class="st11"
   points="604.3,2390.4 604.1,2456.5 392.8,2334.5 392.9,2268.4       "
   id="polygon70" />
					</g>
				</g>
			</g>
			<path
   class="st0"
   d="M1490.7,1263.6c-149.4,0-298.7-32.9-412.1-98.8c-112.9-65.2-175.2-152.9-175.3-246.9     c-0.1-94.3,62.1-182.5,175.3-248.2c225.6-130.5,593.8-130.4,821.1-0.1c113.7,66,176.3,154.5,176.4,249.3     c0.1,93.6-61.1,180.9-172.3,245.9l-0.1,0C1789.6,1230.7,1640,1263.6,1490.7,1263.6L1490.7,1263.6z M1488.5,602.7     c-143,0-285.7,31.3-394.2,94.1c-103,59.9-159.8,138.4-159.7,221c0.1,82.3,56.8,160.4,159.7,219.8     c218.2,126.7,574.2,126.7,793.7,0c101.1-59.1,156.8-136.8,156.7-218.7c-0.1-83.1-57.2-162-160.8-222.1     C1774.7,634,1631.5,602.7,1488.5,602.7z"
   id="path72" />
			<path
   class="st12"
   d="M1954.8,951.1c-11.2,57.7-55.4,113.9-131.1,158.1c-184.3,106.4-482.5,106.4-665.3,0     c-77.9-44.2-122.9-101.1-134.1-159.6c-16.5-79.4,28.5-163.3,134.1-224.8c182.1-104.9,476.5-106.4,661.6,0     C1926.3,787.1,1972,871,1954.8,951.1L1954.8,951.1z"
   id="path73" />
			<path
   class="st4"
   d="M1954.8,951.1c-11.2,57.7-55.4,113.9-131.1,158.1c-184.3,106.4-482.5,106.4-665.3,0     c-77.9-44.2-122.9-101.1-134.1-159.6c12-58.4,56.9-115.4,134.1-160.3c182.1-105.6,476.5-106.4,661.6,0     C1897.9,835,1943.6,891.9,1954.8,951.1L1954.8,951.1z"
   id="path74" />
			<path
   class="st13"
   d="M1651.9,758.6c6,3.5,11,7.6,14.8,12.3c17.3,21.7,0.3,47.6-38.1,56.5c-25.6,6-51.5,15.3-69.6,29.3     c-16.2,9.8-27.6,22.5-35.7,35c7.1,2.1,13.8,4.9,19.7,8.3s10.7,7.3,14.6,11.5c40.5-3.5,89.4-3.1,128.8,7.5     c29.3,5.2,54.4,15.2,74.9,27c14.6,8.4,26.8,17.7,36.4,26.9c23.1,21.9,8.5,50.4-31.4,60.9c-28.4,7.6-61,3.6-81.9-8.4     c-6.6-3.8-12.1-8.5-15.8-13.8c-8-11.6-20.1-23.7-36.9-33.4c-4.3-2.5-9-4.8-13.9-7c-16.9-9.3-38.5-16-60.3-20.7     c-3.4,4.2-8.2,8.1-13.9,11.4c-6.1,3.5-13.2,6.3-20.6,8.4c6.4,23.3,5.8,51.7-12.4,74.5c-14.9,29.1-54.7,50.9-92.7,64.3     c-30,10.6-67,7.5-90.3-6c-6-3.5-11.1-7.6-14.9-12.4c-17.3-21.7-0.3-47.6,38.1-56.6c25.6-6,51.5-15.3,69.6-29.3     c16.2-9.6,27.6-22.5,35.7-35c-7.1-1.9-13.8-4.7-19.5-8c-6.3-3.7-10.9-7.6-14.4-11.8c-40.7,3.7-89.6,3.2-129.2-7.5     c-29.2-5.1-54.2-15-74.6-26.8c-14.7-8.5-26.9-17.9-36.8-27.1c-22.9-21.8-8.9-50.1,31.4-60.9c28.4-7.6,61-3.6,81.9,8.4     c6.6,3.8,12.1,8.5,15.8,13.8c8.3,11.8,20.2,23.7,36.9,33.4c4.3,2.5,8.9,4.8,13.9,7c16.9,9.5,38.9,16,60.5,20.8     c3.4-4,8.2-7.9,14.1-11.3c6.1-3.5,12.8-6.3,19.8-8.4c-6.4-23.6-5.8-51.7,12.8-74.7c15.1-29,54.7-50.9,92.7-64.3     C1591.5,742,1628.7,745.2,1651.9,758.6L1651.9,758.6z"
   id="path75"
   style="fill:#008080;fill-opacity:1" />
			<g
   id="g93">
				<g
   id="g84">
					<path
   class="st12"
   d="M2075.8,3584.6c0.7,28.6-9.1,59.3-25.1,87.9c-16.8,27.9-39.1,52.3-63.5,67l-248.4,143.1       c-36.3,20.9-67.7,13.9-81.6-13.3c-4.9-10.5-8.4-23-8.4-38.4c0-27.9,10.5-59.3,26.5-87.9c16.1-27.9,38.4-51.6,62.8-66.3       l248.4-143c20.2-11.9,39.1-14.6,53.7-10.5C2061.8,3529.5,2075.8,3551.1,2075.8,3584.6L2075.8,3584.6z"
   id="path76" />
					<path
   class="st4"
   d="M2047.9,3560.9c0,28.6-9.8,60-25.8,87.9c-16.1,27.9-38.4,52.3-63.5,67l-248.4,143       c-19.5,11.2-38.4,14.6-53,10.5c-4.9-10.5-8.4-23-8.4-38.4c0-27.9,10.5-59.3,26.5-87.9c16.1-27.9,38.4-51.6,62.8-66.3l248.4-143       c20.2-11.9,39.1-14.6,53.7-10.5C2045.1,3533,2047.9,3546.3,2047.9,3560.9L2047.9,3560.9z"
   id="path77" />
					<g
   id="g80">
						<path
   class="st11"
   d="M1934.8,4256.7v2.3c0.6,10.3,8,21.1,21.1,28.5c28.6,16.6,74.2,16.6,102.8,0c13.1-8,20.6-17.1,21.1-26.8        c0.6-2.3,0.6-4,0-5.7c-0.6-9.7-8-19.4-20.6-26.8c-28.6-16.6-74.2-16.6-102.8,0C1942.8,4236.2,1935.4,4246.5,1934.8,4256.7        L1934.8,4256.7z"
   id="path78" />
						<path
   class="st12"
   d="M1757.3,3713.7c-22.7,13.1-41,44.7-40.9,70.8c0.1,25.6,18.5,36.1,41.2,23s40.6-44.5,40.5-70.1        C1798,3711.3,1780,3700.6,1757.3,3713.7L1757.3,3713.7z"
   id="path79" />
						<path
   class="st14"
   d="M1734.8,3781.8c0,7.9,2.5,13.8,6.9,17c0.3,0.3,0.6,0.6,0.9,0.9l2.5,1.3l135.4,78.2        c48.7,27.9,89.5,98.3,89.2,154.2l-2.2,217.8v1.3c0.3,5.7,4.4,11.6,11.6,15.7c15.7,9.1,40.8,9.1,56.5,0        c7.2-4.4,11.3-9.4,11.6-14.8v-3.1l2.2-216.9c0.3-83.2-56.5-181.5-129.1-223.3l-135.4-78.2c-1.3-0.9-2.5-1.6-3.8-2.2        c-4.7-1.6-11.3-0.9-18.2,3.1C1747.7,3741.6,1734.8,3763.9,1734.8,3781.8L1734.8,3781.8z"
   id="path80" />
					</g>
					<g
   id="g83">
						<path
   class="st11"
   d="M2106.5,4157.9v2.3c0.6,10.3,8,21.1,21.1,28.5c28.6,16.6,74.2,16.6,102.8,0c13.1-8,20.6-17.1,21.1-26.8        c0.6-2.3,0.6-4,0-5.7c-0.6-9.7-8-19.4-20.6-26.8c-28.6-16.6-74.2-16.6-102.8,0C2114.5,4137.3,2107.1,4147.6,2106.5,4157.9        L2106.5,4157.9z"
   id="path81" />
						<path
   class="st12"
   d="M1929,3614.8c-22.7,13.1-41,44.7-40.9,70.8c0.1,25.6,18.5,36.1,41.2,23c22.7-13.1,40.6-44.5,40.5-70.1        C1969.7,3612.4,1951.7,3601.7,1929,3614.8L1929,3614.8z"
   id="path82" />
						<path
   class="st15"
   d="M1906.5,3682.9c0,7.9,2.5,13.8,6.9,17c0.3,0.3,0.6,0.6,0.9,0.9l2.5,1.3l135.4,78.2        c48.7,27.9,89.5,98.3,89.2,154.2l-2.2,217.8v1.3c0.3,5.7,4.4,11.6,11.6,15.7c15.7,9.1,40.8,9.1,56.5,0        c7.2-4.4,11.3-9.4,11.6-14.8v-3.1l2.2-216.9c0.3-83.2-56.5-181.5-129.1-223.3l-135.4-78.2c-1.3-0.9-2.5-1.6-3.8-2.2        c-4.7-1.6-11.3-0.9-18.2,3.1C1919.4,3642.7,1906.5,3665,1906.5,3682.9L1906.5,3682.9z"
   id="path83"
   style="fill:#008080;fill-opacity:1" />
					</g>
				</g>
				<g
   id="g92">
					<path
   class="st12"
   d="M2762.6,3189.1c0.7,28.6-9.1,59.3-25.1,87.9c-16.8,27.9-39.1,52.3-63.5,67l-248.4,143.1       c-36.3,20.9-67.7,13.9-81.6-13.3c-4.9-10.5-8.4-23-8.4-38.4c0-27.9,10.5-59.3,26.5-87.9c16.1-27.9,38.4-51.6,62.8-66.3       l248.4-143c20.2-11.9,39.1-14.6,53.7-10.5C2748.7,3134,2762.6,3155.6,2762.6,3189.1L2762.6,3189.1z"
   id="path84" />
					<path
   class="st4"
   d="M2734.7,3165.4c0,28.6-9.8,60-25.8,87.9s-38.4,52.3-63.5,67l-248.4,143c-19.5,11.2-38.4,14.6-53,10.5       c-4.9-10.5-8.4-23-8.4-38.4c0-27.9,10.5-59.3,26.5-87.9c16.1-27.9,38.4-51.6,62.8-66.3l248.4-143       c20.2-11.9,39.1-14.6,53.7-10.5C2731.9,3137.5,2734.7,3150.8,2734.7,3165.4L2734.7,3165.4z"
   id="path85" />
					<g
   id="g88">
						<path
   class="st11"
   d="M2621.7,3861.2v2.3c0.6,10.3,8,21.1,21.1,28.6c28.6,16.6,74.2,16.6,102.8,0c13.1-8,20.6-17.1,21.1-26.8        c0.6-2.3,0.6-4,0-5.7c-0.6-9.7-8-19.4-20.6-26.8c-28.6-16.6-74.2-16.6-102.8,0C2629.6,3840.7,2622.2,3850.9,2621.7,3861.2        L2621.7,3861.2z"
   id="path86" />
						<path
   class="st12"
   d="M2444.2,3318.2c-22.7,13.1-41,44.7-40.9,70.8c0.1,25.6,18.5,36.1,41.2,23c22.7-13.1,40.6-44.5,40.5-70.1        C2484.9,3315.8,2466.9,3305.1,2444.2,3318.2L2444.2,3318.2z"
   id="path87" />
						<path
   class="st14"
   d="M2421.6,3386.3c0,7.9,2.5,13.8,6.9,17c0.3,0.3,0.6,0.6,0.9,0.9l2.5,1.3l135.4,78.2        c48.7,27.9,89.5,98.3,89.2,154.2l-2.2,217.8v1.3c0.3,5.7,4.4,11.6,11.6,15.7c15.7,9.1,40.8,9.1,56.5,0        c7.2-4.4,11.3-9.4,11.6-14.8v-3.1l2.2-216.9c0.3-83.2-56.5-181.5-129.1-223.3l-135.4-78.2c-1.3-0.9-2.5-1.6-3.8-2.2        c-4.7-1.6-11.3-0.9-18.2,3.1C2434.5,3346.1,2421.6,3368.4,2421.6,3386.3L2421.6,3386.3z"
   id="path88" />
					</g>
					<g
   id="g91">
						<path
   class="st11"
   d="M2793.4,3762.4v2.3c0.6,10.3,8,21.1,21.1,28.6c28.6,16.6,74.2,16.6,102.8,0c13.1-8,20.6-17.1,21.1-26.8        c0.6-2.3,0.6-4,0-5.7c-0.6-9.7-8-19.4-20.6-26.8c-28.6-16.6-74.2-16.6-102.8,0C2801.4,3741.8,2793.9,3752.1,2793.4,3762.4        L2793.4,3762.4z"
   id="path89" />
						<path
   class="st12"
   d="M2615.9,3219.3c-22.7,13.1-41,44.7-40.9,70.8c0.1,25.6,18.5,36.1,41.2,23c22.7-13.1,40.6-44.5,40.5-70.1        C2656.6,3216.9,2638.6,3206.2,2615.9,3219.3L2615.9,3219.3z"
   id="path90" />
						<path
   class="st15"
   d="M2593.4,3287.4c0,7.9,2.5,13.8,6.9,17c0.3,0.3,0.6,0.6,0.9,0.9l2.5,1.3l135.4,78.2        c48.7,27.9,89.5,98.3,89.2,154.2l-2.2,217.8v1.3c0.3,5.7,4.4,11.6,11.6,15.7c15.7,9.1,40.8,9.1,56.5,0        c7.2-4.4,11.3-9.4,11.6-14.8v-3.1l2.2-216.9c0.3-83.2-56.5-181.5-129.1-223.3l-135.4-78.2c-1.3-0.9-2.5-1.6-3.8-2.2        c-4.7-1.6-11.3-0.9-18.2,3.1C2606.2,3247.2,2593.3,3269.5,2593.4,3287.4L2593.4,3287.4z"
   id="path91"
   style="fill:#008080;fill-opacity:1" />
					</g>
				</g>
			</g>
			<g
   id="g110">
				<g
   id="g101">
					<path
   class="st12"
   d="M863.1,3584.6c-0.7,28.6,9.1,59.3,25.1,87.9c16.8,27.9,39.1,52.3,63.5,67l248.4,143.1       c36.3,20.9,67.7,13.9,81.6-13.3c4.9-10.5,8.4-23,8.4-38.4c0-27.9-10.5-59.3-26.5-87.9c-16.1-27.9-38.4-51.6-62.8-66.3       l-248.4-143c-20.2-11.9-39.1-14.6-53.7-10.5C877,3529.5,863.1,3551.1,863.1,3584.6L863.1,3584.6z"
   id="path93" />
					<path
   class="st4"
   d="M891,3560.9c0,28.6,9.8,60,25.8,87.9s38.4,52.3,63.5,67l248.4,143c19.5,11.2,38.4,14.6,53,10.5       c4.9-10.5,8.4-23,8.4-38.4c0-27.9-10.5-59.3-26.5-87.9c-16.1-27.9-38.4-51.6-62.8-66.3l-248.4-143       c-20.2-11.9-39.1-14.6-53.7-10.5C893.8,3533,891,3546.3,891,3560.9L891,3560.9z"
   id="path94" />
					<g
   id="g97">
						<path
   class="st11"
   d="M1004,4256.7v2.3c-0.6,10.3-8,21.1-21.1,28.5c-28.5,16.6-74.2,16.6-102.8,0c-13.1-8-20.6-17.1-21.1-26.8        c-0.6-2.3-0.6-4,0-5.7c0.6-9.7,8-19.4,20.6-26.8c28.5-16.6,74.2-16.6,102.8,0C996,4236.2,1003.5,4246.5,1004,4256.7        L1004,4256.7z"
   id="path95" />
						<path
   class="st12"
   d="M1181.5,3713.7c22.7,13.1,41,44.7,40.9,70.8c-0.1,25.6-18.5,36.1-41.2,23        c-22.7-13.1-40.6-44.5-40.5-70.1C1140.8,3711.3,1158.8,3700.6,1181.5,3713.7L1181.5,3713.7z"
   id="path96" />
						<path
   class="st14"
   d="M1204.1,3781.8c0,7.9-2.5,13.8-6.9,17c-0.3,0.3-0.6,0.6-0.9,0.9l-2.5,1.3l-135.4,78.2        c-48.7,27.9-89.5,98.3-89.2,154.2l2.2,217.8v1.3c-0.3,5.7-4.4,11.6-11.6,15.7c-15.7,9.1-40.8,9.1-56.5,0        c-7.2-4.4-11.3-9.4-11.6-14.8v-3.1l-2.2-216.9c-0.3-83.2,56.5-181.5,129.1-223.3l135.4-78.2c1.3-0.9,2.5-1.6,3.8-2.2        c4.7-1.6,11.3-0.9,18.2,3.1C1191.2,3741.6,1204.1,3763.9,1204.1,3781.8L1204.1,3781.8z"
   id="path97" />
					</g>
					<g
   id="g100">
						<path
   class="st11"
   d="M832.3,4157.9v2.3c-0.6,10.3-8,21.1-21.1,28.5c-28.5,16.6-74.2,16.6-102.8,0        c-13.1-8-20.6-17.1-21.1-26.8c-0.6-2.3-0.6-4,0-5.7c0.6-9.7,8-19.4,20.6-26.8c28.5-16.6,74.2-16.6,102.8,0        C824.3,4137.3,831.8,4147.6,832.3,4157.9L832.3,4157.9z"
   id="path98" />
						<path
   class="st12"
   d="M1009.8,3614.8c22.7,13.1,41,44.7,40.9,70.8c-0.1,25.6-18.5,36.1-41.2,23        c-22.7-13.1-40.6-44.5-40.5-70.1C969.1,3612.4,987.1,3601.7,1009.8,3614.8L1009.8,3614.8z"
   id="path99" />
						<path
   class="st15"
   d="M1032.3,3682.9c0,7.9-2.5,13.8-6.9,17c-0.3,0.3-0.6,0.6-0.9,0.9l-2.5,1.3l-135.4,78.2        c-48.7,27.9-89.5,98.3-89.2,154.2l2.2,217.8v1.3c-0.3,5.7-4.4,11.6-11.6,15.7c-15.7,9.1-40.8,9.1-56.5,0        c-7.2-4.4-11.3-9.4-11.6-14.8v-3.1l-2.2-216.9c-0.3-83.2,56.5-181.5,129.1-223.3l135.4-78.2c1.3-0.9,2.5-1.6,3.8-2.2        c4.7-1.6,11.3-0.9,18.2,3.1C1019.5,3642.7,1032.3,3665,1032.3,3682.9L1032.3,3682.9z"
   id="path100"
   style="fill:#008080;fill-opacity:1" />
					</g>
				</g>
				<g
   id="g109">
					<path
   class="st12"
   d="M176.2,3189.1c-0.7,28.6,9.1,59.3,25.1,87.9c16.8,27.9,39.1,52.3,63.5,67l248.4,143.1       c36.3,20.9,67.7,13.9,81.6-13.3c4.9-10.5,8.4-23,8.4-38.4c0-27.9-10.5-59.3-26.5-87.9c-16-27.9-38.4-51.6-62.8-66.3l-248.4-143       c-20.2-11.9-39.1-14.6-53.7-10.5C190.2,3134,176.2,3155.6,176.2,3189.1L176.2,3189.1z"
   id="path101" />
					<path
   class="st4"
   d="M204.1,3165.4c0,28.6,9.8,60,25.8,87.9s38.4,52.3,63.5,67l248.4,143c19.5,11.2,38.4,14.6,53,10.5       c4.9-10.5,8.4-23,8.4-38.4c0-27.9-10.5-59.3-26.5-87.9c-16-27.9-38.4-51.6-62.8-66.3l-248.4-143       c-20.2-11.9-39.1-14.6-53.7-10.5C206.9,3137.5,204.1,3150.8,204.1,3165.4L204.1,3165.4z"
   id="path102" />
					<g
   id="g105">
						<path
   class="st11"
   d="M317.2,3861.2v2.3c-0.6,10.3-8,21.1-21.1,28.6c-28.5,16.6-74.2,16.6-102.8,0        c-13.1-8-20.6-17.1-21.1-26.8c-0.6-2.3-0.6-4,0-5.7c0.6-9.7,8-19.4,20.6-26.8c28.6-16.6,74.2-16.6,102.8,0        C309.2,3840.7,316.6,3850.9,317.2,3861.2L317.2,3861.2z"
   id="path103" />
						<path
   class="st12"
   d="M494.7,3318.2c22.7,13.1,41,44.7,40.9,70.8c-0.1,25.6-18.5,36.1-41.2,23c-22.7-13.1-40.6-44.5-40.5-70.1        C454,3315.8,472,3305.1,494.7,3318.2L494.7,3318.2z"
   id="path104" />
						<path
   class="st14"
   d="M517.2,3386.3c0,7.9-2.5,13.8-6.9,17c-0.3,0.3-0.6,0.6-0.9,0.9l-2.5,1.3l-135.4,78.2        c-48.7,27.9-89.5,98.3-89.2,154.2l2.2,217.8v1.3c-0.3,5.7-4.4,11.6-11.6,15.7c-15.7,9.1-40.8,9.1-56.5,0        c-7.2-4.4-11.3-9.4-11.6-14.8v-3.1l-2.2-216.9c-0.3-83.2,56.5-181.5,129.1-223.3l135.4-78.2c1.3-0.9,2.5-1.6,3.8-2.2        c4.7-1.6,11.3-0.9,18.2,3.1C504.3,3346.1,517.2,3368.4,517.2,3386.3L517.2,3386.3z"
   id="path105" />
					</g>
					<g
   id="g108">
						<path
   class="st11"
   d="M145.5,3762.4v2.3c-0.6,10.3-8,21.1-21.1,28.6c-28.5,16.6-74.2,16.6-102.8,0        c-13.1-8-20.6-17.1-21.1-26.8c-0.6-2.3-0.6-4,0-5.7c0.6-9.7,8-19.4,20.6-26.8c28.5-16.6,74.2-16.6,102.8,0        C137.5,3741.8,144.9,3752.1,145.5,3762.4L145.5,3762.4z"
   id="path106" />
						<path
   class="st12"
   d="M323,3219.3c22.7,13.1,41,44.7,40.9,70.8c-0.1,25.6-18.5,36.1-41.2,23c-22.7-13.1-40.6-44.5-40.5-70.1        C282.3,3216.9,300.3,3206.2,323,3219.3L323,3219.3z"
   id="path107" />
						<path
   class="st15"
   d="M345.5,3287.4c0,7.9-2.5,13.8-6.9,17c-0.3,0.3-0.6,0.6-0.9,0.9l-2.5,1.3l-135.4,78.2        c-48.7,27.9-89.5,98.3-89.2,154.2l2.2,217.8v1.3c-0.3,5.7-4.4,11.6-11.6,15.7c-15.7,9.1-40.8,9.1-56.5,0        c-7.2-4.4-11.3-9.4-11.6-14.8v-3.1L30.8,3539c-0.3-83.2,56.5-181.5,129.1-223.3l135.4-78.2c1.3-0.9,2.5-1.6,3.8-2.2        c4.7-1.6,11.3-0.9,18.2,3.1C332.6,3247.2,345.5,3269.5,345.5,3287.4L345.5,3287.4z"
   id="path108"
   style="fill:#008080;fill-opacity:1" />
					</g>
				</g>
			</g>
		</g>
	</g>
</g>
</svg>
