<?xml version="1.0" encoding="UTF-8" standalone="no"?>
<svg
   id="Layer_2"
   data-name="Layer 2"
   viewBox="0 0 3393.75 4300"
   version="1.1"
   sodipodi:docname="web-hosting.svg"
   inkscape:version="1.3.2 (091e20e, 2023-11-25, custom)"
   xmlns:inkscape="http://www.inkscape.org/namespaces/inkscape"
   xmlns:sodipodi="http://sodipodi.sourceforge.net/DTD/sodipodi-0.dtd"
   xmlns="http://www.w3.org/2000/svg"
   xmlns:svg="http://www.w3.org/2000/svg">
  <sodipodi:namedview
     id="namedview129"
     pagecolor="#ffffff"
     bordercolor="#000000"
     borderopacity="0.25"
     inkscape:showpageshadow="2"
     inkscape:pageopacity="0.0"
     inkscape:pagecheckerboard="0"
     inkscape:deskcolor="#d1d1d1"
     inkscape:zoom="0.75627907"
     inkscape:cx="2294.7878"
     inkscape:cy="2830.3044"
     inkscape:window-width="1920"
     inkscape:window-height="1009"
     inkscape:window-x="1912"
     inkscape:window-y="39"
     inkscape:window-maximized="1"
     inkscape:current-layer="Layer_2" />
  <defs
     id="defs1">
    <style
       id="style1">
      .cls-1 {
        fill: #423d9b;
      }

      .cls-1, .cls-2, .cls-3, .cls-4, .cls-5, .cls-6, .cls-7, .cls-8, .cls-9, .cls-10, .cls-11, .cls-12, .cls-13, .cls-14, .cls-15, .cls-16, .cls-17 {
        stroke-width: 0px;
      }

      .cls-2 {
        fill: #5ec363;
      }

      .cls-3 {
        fill: #f9a83d;
      }

      .cls-4 {
        fill: #1d2943;
      }

      .cls-5 {
        fill: #e9e7fc;
      }

      .cls-6 {
        fill: #78e75a;
      }

      .cls-18 {
        isolation: isolate;
      }

      .cls-7 {
        fill: #111d33;
      }

      .cls-8 {
        fill: #f3f1fc;
      }

      .cls-9 {
        fill: #f8f9fe;
      }

      .cls-10 {
        fill: #dedffb;
      }

      .cls-11 {
        fill: #fff;
      }

      .cls-12 {
        fill: #4c5c75;
      }

      .cls-13 {
        fill: #febc1f;
      }

      .cls-14 {
        fill: #008080ff;
      }

      .cls-15 {
        fill: #57b3fe;
      }

      .cls-16 {
        fill: #ffd06c;
      }

      .cls-17 {
        fill: #008080ff;
      }
    </style>
  </defs>
  <g
     id="Layer_1-2"
     data-name="Layer 1">
    <g
       id="_79"
       data-name="79">
      <g
         class="cls-18"
         id="g1">
        <polygon
           class="cls-7"
           points="2937.42 3188.28 2936.52 3400.59 1389.43 4300 0 3498.23 .9 3285.92 1547.99 2386.51 2937.42 3188.28"
           id="polygon1" />
      </g>
      <g
         class="cls-18"
         id="g4">
        <polygon
           class="cls-4"
           points="2937.24 3188.29 2936.64 3400.76 1389.32 4299.97 1389.92 4087.5 2937.24 3188.29"
           id="polygon2" />
        <polygon
           class="cls-7"
           points="1389.92 4087.5 1389.32 4299.97 .43 3498.1 1.03 3285.62 1389.92 4087.5"
           id="polygon3" />
        <polygon
           class="cls-12"
           points="2937.24 3188.29 1389.92 4087.5 1.03 3285.62 1548.35 2386.41 2937.24 3188.29"
           id="polygon4" />
      </g>
      <polygon
         class="cls-10"
         points="2790.5 726.54 2783.34 3185.59 1380.47 4000.79 121.83 3274.28 128.1 815.23 1531.86 .03 2790.5 726.54"
         id="polygon5" />
      <polygon
         class="cls-5"
         points="2790.57 726.93 2783.6 3185.59 1380.59 4000.93 1387.56 1542.27 2790.57 726.93"
         id="polygon6" />
      <polygon
         class="cls-10"
         points="1387.56 1542.27 1380.59 4000.93 121.51 3273.99 128.48 815.34 1387.56 1542.27"
         id="polygon7" />
      <polygon
         class="cls-8"
         points="2790.57 726.93 1387.56 1542.27 128.48 815.34 1531.49 0 2790.57 726.93"
         id="polygon8" />
      <polygon
         class="cls-7"
         points="2382.01 661.15 2382.01 771.33 1409.13 1335.7 536.6 832.25 537.5 722.07 1509.47 156.8 2382.01 661.15"
         id="polygon9" />
      <polygon
         class="cls-4"
         points="2382.19 660.81 2381.81 771.14 1409.56 1336.15 1409.94 1225.82 2382.19 660.81"
         id="polygon10" />
      <polygon
         class="cls-7"
         points="1409.94 1225.82 1409.56 1336.15 536.86 832.29 537.24 721.97 1409.94 1225.82"
         id="polygon11" />
      <polygon
         class="cls-12"
         points="2382.19 660.81 1409.94 1225.82 537.24 721.97 1509.49 156.96 2382.19 660.81"
         id="polygon12" />
      <g
         id="g37">
        <g
           id="g18">
          <path
             class="cls-11"
             d="M1031.29,1709.54l-.62,251.38c0,1.45,0,2.7-.42,3.94-1.66,17.63-15.56,24.27-32.15,14.52l-630.71-364.26c-18.04-10.37-32.56-35.47-32.36-56l.62-251.18c0-20.74,14.73-29.04,32.56-18.67l4.35,2.49,626.56,361.77c17.84,10.16,32.36,35.47,32.15,56Z"
             id="path12" />
          <path
             class="cls-1"
             d="M1031.29,1709.54l-.62,251.38c0,1.45,0,2.7-.42,3.94l-626.35-361.77c-18.04-10.37-32.56-35.47-32.36-56l.62-251.38c0-1.45,0-2.7.41-3.94l626.56,361.77c17.84,10.16,32.36,35.47,32.15,56Z"
             id="path13"
             style="fill:#008080" />
          <g
             id="g17">
            <path
               class="cls-11"
               d="M767.99,1615.82c-24.51-14.14-44.56-2.71-44.64,25.44-.09,28.16,19.85,61.94,44.36,76.09,24.51,14.15,44.56,3.46,44.64-24.7.09-28.16-19.85-62.68-44.36-76.83Z"
               id="path14" />
            <path
               class="cls-13"
               d="M634.49,1538.75c-24.51-14.15-44.57-2.72-44.65,25.44-.08,28.16,19.85,61.94,44.35,76.09,24.51,14.15,45.21,3.83,45.3-24.33.08-28.16-20.5-63.05-45.01-77.2Z"
               id="path15" />
            <path
               class="cls-13"
               d="M900.85,1692.83c-24.51-14.15-44.57-2.72-44.65,25.44s19.85,61.94,44.35,76.09c24.51,14.15,45.21,3.83,45.3-24.33.08-28.16-20.5-63.05-45.01-77.2Z"
               id="path16" />
            <path
               class="cls-6"
               d="M501.63,1462.04c-24.51-14.15-44.57-2.72-44.65,25.44-.08,28.16,19.85,61.94,44.36,76.09,24.52,14.15,44.57,3.45,44.65-24.7.08-28.16-19.85-62.68-44.36-76.83Z"
               id="path17" />
          </g>
        </g>
        <g
           id="g24">
          <path
             class="cls-11"
             d="M1031.29,2225.4l-.62,251.38c0,1.45,0,2.7-.42,3.94-1.66,17.63-15.56,24.27-32.15,14.52l-630.71-364.26c-18.04-10.37-32.56-35.47-32.36-56l.62-251.18c0-20.74,14.73-29.04,32.56-18.67l4.35,2.49,626.56,361.77c17.84,10.16,32.36,35.47,32.15,56Z"
             id="path18" />
          <path
             class="cls-1"
             d="M1031.29,2225.4l-.62,251.38c0,1.45,0,2.7-.42,3.94l-626.35-361.77c-18.04-10.37-32.56-35.47-32.36-56l.62-251.38c0-1.45,0-2.7.41-3.94l626.56,361.77c17.84,10.16,32.36,35.47,32.15,56Z"
             id="path19"
             style="fill:#008080" />
          <g
             id="g23">
            <path
               class="cls-11"
               d="M767.99,2131.68c-24.51-14.14-44.56-2.71-44.64,25.44-.09,28.16,19.85,61.94,44.36,76.09,24.51,14.15,44.56,3.46,44.64-24.7.09-28.16-19.85-62.68-44.36-76.83Z"
               id="path20" />
            <path
               class="cls-13"
               d="M634.49,2054.6c-24.51-14.15-44.57-2.72-44.65,25.44-.08,28.16,19.85,61.94,44.35,76.09,24.51,14.15,45.21,3.83,45.3-24.33.08-28.16-20.5-63.05-45.01-77.2Z"
               id="path21" />
            <path
               class="cls-13"
               d="M900.85,2208.68c-24.51-14.15-44.57-2.72-44.65,25.44s19.85,61.94,44.35,76.09c24.51,14.15,45.21,3.83,45.3-24.33.08-28.16-20.5-63.05-45.01-77.2Z"
               id="path22" />
            <path
               class="cls-6"
               d="M501.63,1977.9c-24.51-14.15-44.57-2.72-44.65,25.44-.08,28.16,19.85,61.94,44.36,76.09,24.52,14.15,44.57,3.45,44.65-24.7.08-28.16-19.85-62.68-44.36-76.83Z"
               id="path23" />
          </g>
        </g>
        <g
           id="g30">
          <path
             class="cls-11"
             d="M1031.29,2741.25l-.62,251.38c0,1.45,0,2.7-.42,3.94-1.66,17.63-15.56,24.27-32.15,14.52l-630.71-364.26c-18.04-10.37-32.56-35.47-32.36-56l.62-251.18c0-20.74,14.73-29.04,32.56-18.67l4.35,2.49,626.56,361.77c17.84,10.16,32.36,35.47,32.15,56Z"
             id="path24" />
          <path
             class="cls-1"
             d="M1031.29,2741.25l-.62,251.38c0,1.45,0,2.7-.42,3.94l-626.35-361.77c-18.04-10.37-32.56-35.47-32.36-56l.62-251.38c0-1.45,0-2.7.41-3.94l626.56,361.77c17.84,10.16,32.36,35.47,32.15,56Z"
             id="path25"
             style="fill:#008080" />
          <g
             id="g29">
            <path
               class="cls-11"
               d="M767.99,2647.53c-24.51-14.14-44.56-2.71-44.64,25.44-.09,28.16,19.85,61.94,44.36,76.09,24.51,14.15,44.56,3.46,44.64-24.7.09-28.16-19.85-62.68-44.36-76.83Z"
               id="path26" />
            <path
               class="cls-13"
               d="M634.49,2570.45c-24.51-14.15-44.57-2.72-44.65,25.44-.08,28.16,19.85,61.94,44.35,76.09,24.51,14.15,45.21,3.83,45.3-24.33.08-28.16-20.5-63.05-45.01-77.2Z"
               id="path27" />
            <path
               class="cls-13"
               d="M900.85,2724.53c-24.51-14.15-44.57-2.72-44.65,25.44s19.85,61.94,44.35,76.09c24.51,14.15,45.21,3.83,45.3-24.33.08-28.16-20.5-63.05-45.01-77.2Z"
               id="path28" />
            <path
               class="cls-6"
               d="M501.63,2493.75c-24.51-14.15-44.57-2.72-44.65,25.44-.08,28.16,19.85,61.94,44.36,76.09,24.52,14.15,44.57,3.45,44.65-24.7.08-28.16-19.85-62.68-44.36-76.83Z"
               id="path29" />
          </g>
        </g>
        <g
           id="g36">
          <path
             class="cls-11"
             d="M1031.29,3257.1l-.62,251.39c0,1.45,0,2.7-.42,3.94-1.66,17.63-15.56,24.27-32.15,14.52l-630.71-364.26c-18.04-10.37-32.56-35.47-32.36-56l.62-251.18c0-20.74,14.73-29.04,32.56-18.67l4.35,2.49,626.56,361.77c17.84,10.16,32.36,35.47,32.15,56Z"
             id="path30" />
          <path
             class="cls-1"
             d="M1031.29,3257.1l-.62,251.39c0,1.45,0,2.7-.42,3.94l-626.35-361.77c-18.04-10.37-32.56-35.47-32.36-56l.62-251.39c0-1.45,0-2.7.41-3.94l626.56,361.77c17.84,10.16,32.36,35.47,32.15,56Z"
             id="path31"
             style="fill:#008080" />
          <g
             id="g35">
            <path
               class="cls-11"
               d="M767.99,3163.38c-24.51-14.14-44.56-2.71-44.64,25.44-.09,28.16,19.85,61.94,44.36,76.09,24.51,14.15,44.56,3.46,44.64-24.7.09-28.16-19.85-62.68-44.36-76.83Z"
               id="path32" />
            <path
               class="cls-13"
               d="M634.49,3086.31c-24.51-14.15-44.57-2.72-44.65,25.44-.08,28.16,19.85,61.94,44.35,76.09,24.51,14.15,45.21,3.83,45.3-24.33.08-28.16-20.5-63.05-45.01-77.2Z"
               id="path33" />
            <path
               class="cls-13"
               d="M900.85,3240.39c-24.51-14.15-44.57-2.72-44.65,25.44s19.85,61.94,44.35,76.09c24.51,14.15,45.21,3.83,45.3-24.33.08-28.16-20.5-63.05-45.01-77.2Z"
               id="path34" />
            <path
               class="cls-6"
               d="M501.63,3009.6c-24.51-14.15-44.57-2.72-44.65,25.44-.08,28.16,19.85,61.94,44.36,76.09,24.52,14.15,44.57,3.45,44.65-24.7.08-28.16-19.85-62.68-44.36-76.83Z"
               id="path35" />
          </g>
        </g>
      </g>
      <g
         class="cls-18"
         id="g38">
        <polygon
           class="cls-3"
           points="3393.39 2621.22 3393.39 2688.41 1990.53 3504.5 1383.16 3153.34 1383.16 3085.26 2786.02 2270.05 3393.39 2621.22"
           id="polygon37" />
      </g>
      <g
         class="cls-18"
         id="g40">
        <polygon
           class="cls-13"
           points="3393.75 2620.85 3393.23 2688.76 1990.22 3504.1 1990.74 3436.19 3393.75 2620.85"
           id="polygon38" />
        <polygon
           class="cls-3"
           points="1990.74 3436.19 1990.22 3504.1 1382.81 3153.41 1383.33 3085.5 1990.74 3436.19"
           id="polygon39" />
        <polygon
           class="cls-16"
           points="3393.75 2620.85 1990.74 3436.19 1383.33 3085.5 2786.34 2270.16 3393.75 2620.85"
           id="polygon40" />
      </g>
      <g
         id="g45">
        <polygon
           class="cls-14"
           points="1454.87 1626.53 2716.76 893.19 2716.3 1067.33 1454.4 1800.67 1454.87 1626.53"
           id="polygon41"
           style="fill:#008080" />
        <g
           id="g44">
          <g
             id="g43">
            <path
               class="cls-6"
               d="M2384.41,1138.95c20-11.55,36.28-2.27,36.34,20.93.07,22.98-16.11,50.99-36.11,62.54-20,11.55-36.28,2.27-36.34-20.71-.07-23.2,16.11-51.21,36.1-62.75Z"
               id="path41" />
            <path
               class="cls-15"
               d="M2501.57,1071.31c20-11.55,36.28-2.27,36.34,20.93.07,22.98-16.11,50.99-36.11,62.54s-36.47,2.38-36.53-20.6c-.07-23.2,16.29-51.32,36.29-62.86Z"
               id="path42" />
            <path
               class="cls-11"
               d="M2618.73,1003.66c20-11.55,36.09-2.16,36.15,21.04.07,22.98-15.92,50.88-35.92,62.43-20,11.55-36.47,2.38-36.53-20.6-.07-23.2,16.3-51.32,36.29-62.86Z"
               id="path43" />
          </g>
          <path
             class="cls-11"
             d="M1907.27,1445.53c10.31-5.95,18.83-1.1,18.87,10.75.03,12.08-8.43,26.74-18.74,32.7l-383.96,223.09c-10.31,5.95-18.83,1.1-18.87-10.98-.03-11.85,8.43-26.51,18.74-32.46l383.96-223.09Z"
             id="path44" />
        </g>
      </g>
      <g
         id="g49">
        <polygon
           class="cls-14"
           points="1454.87 1946.27 2716.76 1212.93 2716.3 1387.07 1454.4 2120.41 1454.87 1946.27"
           id="polygon45"
           style="fill:#008080" />
        <g
           id="g48">
          <g
             id="g47">
            <path
               class="cls-15"
               d="M2384.41,1458.69c20-11.55,36.28-2.27,36.34,20.93.07,22.98-16.11,50.99-36.11,62.54-20,11.55-36.28,2.27-36.34-20.71-.07-23.2,16.11-51.21,36.1-62.75Z"
               id="path45" />
            <path
               class="cls-11"
               d="M2501.57,1391.05c20-11.55,36.28-2.27,36.34,20.93.07,22.98-16.11,50.99-36.11,62.54-20,11.55-36.47,2.38-36.53-20.6-.07-23.2,16.29-51.32,36.29-62.86Z"
               id="path46" />
            <path
               class="cls-6"
               d="M2618.73,1323.4c20-11.55,36.09-2.16,36.15,21.04.07,22.98-15.92,50.88-35.92,62.43-20,11.55-36.47,2.38-36.53-20.6-.07-23.2,16.3-51.32,36.29-62.86Z"
               id="path47" />
          </g>
          <path
             class="cls-11"
             d="M1907.27,1765.27c10.31-5.95,18.83-1.1,18.87,10.75.03,12.08-8.43,26.74-18.74,32.7l-383.96,223.09c-10.31,5.95-18.83,1.1-18.87-10.98-.03-11.85,8.43-26.51,18.74-32.46l383.96-223.09Z"
             id="path48" />
        </g>
      </g>
      <g
         id="g53">
        <polygon
           class="cls-14"
           points="1454.87 2266.01 2716.76 1532.68 2716.3 1706.81 1454.4 2440.15 1454.87 2266.01"
           id="polygon49"
           style="fill:#008080" />
        <g
           id="g52">
          <g
             id="g51">
            <path
               class="cls-16"
               d="M2384.41,1778.43c20-11.55,36.28-2.27,36.34,20.93.07,22.98-16.11,50.99-36.11,62.54-20,11.55-36.28,2.27-36.34-20.71-.07-23.2,16.11-51.21,36.1-62.75Z"
               id="path49" />
            <path
               class="cls-6"
               d="M2501.57,1710.79c20-11.55,36.28-2.27,36.34,20.93.07,22.98-16.11,50.99-36.11,62.54-20,11.55-36.47,2.38-36.53-20.6-.07-23.2,16.29-51.32,36.29-62.86Z"
               id="path50" />
            <path
               class="cls-11"
               d="M2618.73,1643.15c20-11.55,36.09-2.16,36.15,21.04.07,22.98-15.92,50.88-35.92,62.43-20,11.55-36.47,2.38-36.53-20.6-.07-23.2,16.3-51.32,36.29-62.86Z"
               id="path51" />
          </g>
          <path
             class="cls-11"
             d="M1907.27,2085.01c10.31-5.95,18.83-1.1,18.87,10.75.03,12.08-8.43,26.74-18.74,32.7l-383.96,223.09c-10.31,5.95-18.83,1.1-18.87-10.98-.03-11.85,8.43-26.51,18.74-32.46l383.96-223.09Z"
             id="path52" />
        </g>
      </g>
      <g
         id="g57">
        <polygon
           class="cls-14"
           points="1454.87 2585.75 2716.76 1852.42 2716.3 2026.55 1454.4 2759.89 1454.87 2585.75"
           id="polygon53"
           style="fill:#008080" />
        <g
           id="g56">
          <g
             id="g55">
            <path
               class="cls-11"
               d="M2384.41,2098.17c20-11.55,36.28-2.27,36.34,20.93.07,22.98-16.11,50.99-36.11,62.54-20,11.55-36.28,2.27-36.34-20.71-.07-23.2,16.11-51.21,36.1-62.75Z"
               id="path53" />
            <path
               class="cls-11"
               d="M2501.57,2030.53c20-11.55,36.28-2.27,36.34,20.93.07,22.98-16.11,50.99-36.11,62.54-20,11.55-36.47,2.38-36.53-20.6-.07-23.2,16.29-51.32,36.29-62.86Z"
               id="path54" />
            <path
               class="cls-15"
               d="M2618.73,1962.89c20-11.55,36.09-2.16,36.15,21.04.07,22.98-15.92,50.88-35.92,62.43-20,11.55-36.47,2.38-36.53-20.6-.07-23.2,16.3-51.32,36.29-62.86Z"
               id="path55" />
          </g>
          <path
             class="cls-11"
             d="M1907.27,2404.75c10.31-5.95,18.83-1.1,18.87,10.75.03,12.08-8.43,26.74-18.74,32.7l-383.96,223.09c-10.31,5.95-18.83,1.1-18.87-10.98-.03-11.85,8.43-26.51,18.74-32.46l383.96-223.09Z"
             id="path56" />
        </g>
      </g>
      <g
         id="g125">
        <g
           id="g65">
          <g
             class="cls-18"
             id="g60">
            <polygon
               class="cls-4"
               points="1959.56 2851.54 1959.6 2866.79 2015.46 2835.15 2015.41 2819.9 1959.56 2851.54"
               id="polygon57" />
            <polygon
               class="cls-7"
               points="2015.61 2820.09 1959.17 2851.45 1959.17 2866.68 1835.55 2795.91 1835.55 2780.67 1891.09 2749.32 2015.61 2820.09"
               id="polygon58" />
            <polygon
               class="cls-7"
               points="1835.46 2780.78 1835.5 2796.03 1959.6 2866.79 1959.56 2851.54 1835.46 2780.78"
               id="polygon59" />
            <polygon
               class="cls-12"
               points="1835.46 2780.78 1959.56 2851.54 2015.41 2819.9 1891.32 2749.13 1835.46 2780.78"
               id="polygon60" />
          </g>
          <g
             class="cls-18"
             id="g64">
            <polygon
               class="cls-4"
               points="2384.91 2610.52 2384.95 2625.77 2440.81 2594.12 2440.77 2578.87 2384.91 2610.52"
               id="polygon61" />
            <polygon
               class="cls-7"
               points="2441.13 2579.11 2384.69 2610.47 2384.69 2625.7 2261.07 2554.93 2261.07 2539.7 2316.61 2508.35 2441.13 2579.11"
               id="polygon62" />
            <polygon
               class="cls-7"
               points="2260.81 2539.75 2260.85 2555 2384.95 2625.77 2384.91 2610.52 2260.81 2539.75"
               id="polygon63" />
            <polygon
               class="cls-12"
               points="2260.81 2539.75 2384.91 2610.52 2440.77 2578.87 2316.67 2508.11 2260.81 2539.75"
               id="polygon64" />
          </g>
        </g>
        <path
           class="cls-4"
           d="M2441.13,2503.87c0,9.85-7.17,21.5-16.12,26.87l-577.81,326.97c-5.37,3.59-10.75,2.69-13.44-.89,0,.89.9,1.79,1.79,2.68l-48.37-28.67c-3.59-.9-5.37-4.48-5.37-9.85l-.9-417.45c0-9.86,7.17-21.5,16.12-26.88l577.81-326.97c4.48-2.69,8.06-2.69,11.65-.9l48.37,27.77c-.9-.9-2.68-.9-4.48-.9,5.37,0,8.96,3.59,8.96,10.75l1.79,417.46Z"
           id="path65" />
        <path
           class="cls-12"
           d="M2434.83,2076.38c-2.7-1.55-6.75-1.32-11.25,1.1l-577.58,327.21c-9,5.08-16.2,17.22-15.98,27.16l1.13,417.29c0,4.86,1.8,8.39,4.72,9.94l-48.95-27.91c-2.93-1.54-4.73-5.08-4.73-9.94l-1.12-417.28c0-9.94,6.97-22.08,15.98-27.16l577.58-327.2c4.5-2.43,8.55-2.65,11.48-1.11l48.73,27.91Z"
           id="path66" />
        <path
           class="cls-4"
           d="M2423.61,2077.49c8.76-4.96,15.97-.93,16,8.95l1.21,417.26c.03,9.88-7.13,22.05-15.89,27.01l-577.64,327.25c-8.91,5.05-16.11,1.02-16.14-8.86l-1.21-417.26c-.03-9.88,7.13-22.05,16.04-27.09l577.64-327.25Z"
           id="path67" />
        <path
           class="cls-11"
           d="M1852.43,2431.77c.09-2.18,2.86-6.78,4.79-7.9l549.85-311.51c4.49-2.54,10.11.63,10.13,5.72l1.12,385.69c-.09,2.12-2.78,6.68-4.65,7.83l-549.99,311.59c-4.49,2.54-10.11-.63-10.13-5.72l-1.12-385.69Z"
           id="path68" />
        <path
           class="cls-10"
           d="M2878.29,2763.65v56.44c0,3.59-2.69,7.17-7.17,9.85l-576.91,326.98c-8.96,5.37-23.29,5.37-32.25,0l-367.29-209.63c-4.48-2.68-7.17-5.37-7.17-8.96v-56.44c0,1.79.9,3.59,2.68,4.48-3.58-4.48-1.79-9.85,4.48-13.43l577.8-327.88c8.96-4.48,22.4-4.48,31.36,0l14.33,8.06,201.56,115.56,152.29,86c3.58,2.68,6.27,6.27,6.27,8.96Z"
           id="path69" />
        <path
           class="cls-10"
           d="M2878.15,2820.31c0,3.53-2.25,6.85-6.75,9.27l-577.58,327.21c-8.78,5.08-23.18,5.08-31.72,0l-367.65-209.53c-4.28-2.43-6.53-5.74-6.53-8.83l-.06-56.44c0,3.09,2.25,6.4,6.52,8.83l367.65,209.53c8.78,5.08,22.95,5.08,31.72,0l577.58-327.21c4.5-2.43,6.75-5.96,6.75-9.27l.06,56.45Z"
           id="path70" />
        <path
           class="cls-9"
           d="M2871.47,2773.18l-577.8,327.25c-8.69,5.01-23,5.01-31.69,0l-149.5-85.26-202.14-115.35-15.85-9.03c-8.94-5.01-8.69-13.04,0-18.05l577.8-327.25c8.94-5.02,23-5.02,31.94,0l13.54,7.77,202.14,115.35,151.8,86.51c8.69,4.76,8.69,13.04-.26,18.06Z"
           id="path71" />
        <path
           class="cls-5"
           d="M2324.08,2917.77c-2.02,1.14-2.2,2.96-.03,4.2l110.91,64.16c2.17,1.24,5.53,1.24,7.55.09l217.31-123.11c2.19-1.24,2.2-3.15.03-4.39l-110.91-64.16c-2.17-1.24-5.36-1.15-7.55.09l-217.3,123.11Z"
           id="path72" />
        <polygon
           class="cls-5"
           points="2706.53 2660.97 2099.09 3007.52 1915.33 2902.66 2522.77 2556.11 2706.53 2660.97"
           id="polygon72" />
        <g
           id="g102">
          <path
             class="cls-12"
             d="M2432.43,2718.22c-2.02,1.15-2.03,3.05-.03,4.2l24.41,13.92c2.01,1.15,5.36,1.15,7.38,0l26.26-14.87c2.19-1.24,2.2-3.15.19-4.29l-24.41-13.92c-2-1.14-5.36-1.14-7.55.1l-26.26,14.87Z"
             id="path73" />
          <path
             class="cls-12"
             d="M2186.82,2754.57c-2.19,1.24-2.03,3.05.14,4.29l24.25,13.82c2.17,1.24,5.19,1.24,7.38,0l26.26-14.87c2.19-1.24,2.37-3.05.19-4.29l-24.25-13.83c-2.17-1.24-5.53-1.24-7.72,0l-26.26,14.88Z"
             id="path74" />
          <path
             class="cls-12"
             d="M2126.99,2949.65c-2.02,1.15-2.19,2.96-.02,4.2l24.25,13.83c2.17,1.24,5.53,1.24,7.55.09l26.42-14.97c2.02-1.14,2.03-3.05-.14-4.29l-24.25-13.83c-2.17-1.24-5.36-1.15-7.38,0l-26.43,14.97Z"
             id="path75" />
          <path
             class="cls-12"
             d="M2482.75,2694.31c-2.02,1.15-2.03,3.05-.02,4.2l24.41,13.92c2.01,1.15,5.36,1.15,7.38,0l26.42-14.97c2.02-1.14,2.03-3.05.03-4.19l-24.41-13.92c-2.01-1.14-5.36-1.14-7.38,0l-26.42,14.97Z"
             id="path76" />
          <path
             class="cls-12"
             d="M2580.39,2692.78c-2.02,1.14-2.19,2.96-.02,4.2l24.25,13.82c2.17,1.24,5.53,1.24,7.55.1l26.42-14.97c2.02-1.15,2.03-3.05-.14-4.29l-24.25-13.83c-2.17-1.24-5.36-1.15-7.38,0l-26.42,14.97Z"
             id="path77" />
          <path
             class="cls-12"
             d="M2530.07,2721.29c-2.02,1.14-2.2,2.96-.02,4.2l24.25,13.82c2.17,1.24,5.53,1.24,7.55.1l26.42-14.97c2.02-1.15,2.03-3.05-.14-4.29l-24.25-13.83c-2.17-1.24-5.36-1.15-7.38,0l-26.42,14.97Z"
             id="path78" />
          <path
             class="cls-12"
             d="M2438.6,2611.93c-2.02,1.15-2.03,3.05.14,4.29l24.25,13.82c2.17,1.24,5.36,1.15,7.38,0l26.42-14.97c2.02-1.14,2.2-2.96.02-4.2l-24.24-13.82c-2.17-1.24-5.53-1.24-7.55-.1l-26.42,14.97Z"
             id="path79" />
          <path
             class="cls-12"
             d="M2388.28,2640.43c-2.02,1.15-2.03,3.05.14,4.29l24.25,13.83c2.18,1.24,5.36,1.15,7.38,0l26.43-14.97c2.02-1.14,2.2-2.96.02-4.2l-24.25-13.82c-2.17-1.24-5.53-1.24-7.55-.1l-26.42,14.97Z"
             id="path80" />
          <path
             class="cls-12"
             d="M2435.6,2667.42c-2.02,1.14-2.2,2.95-.03,4.19l24.41,13.92c2.01,1.15,5.36,1.15,7.38,0l46.62-26.41,43.48,24.79c2,1.14,5.36,1.14,7.38,0l26.42-14.97c2.02-1.15,2.03-3.05.03-4.2l-71.57-40.81c-2.17-1.24-5.36-1.15-7.38,0l-76.75,43.48Z"
             id="path81" />
          <path
             class="cls-12"
             d="M2337.96,2668.94c-2.02,1.15-2.03,3.05.14,4.29l24.25,13.83c2.17,1.24,5.36,1.15,7.38,0l26.26-14.87c2.19-1.24,2.37-3.05.19-4.29l-24.25-13.82c-2.17-1.24-5.53-1.24-7.71,0l-26.26,14.87Z"
             id="path82" />
          <path
             class="cls-12"
             d="M2385.28,2695.93c-2.02,1.14-2.03,3.05-.03,4.19l24.41,13.92c2.01,1.15,5.36,1.15,7.38,0l26.26-14.87c2.19-1.24,2.2-3.15.19-4.29l-24.41-13.92c-2.01-1.15-5.36-1.15-7.55.09l-26.25,14.88Z"
             id="path83" />
          <path
             class="cls-12"
             d="M2287.47,2697.55c-2.02,1.14-2.03,3.05.14,4.29l24.25,13.82c2.17,1.24,5.36,1.15,7.38,0l26.42-14.97c2.02-1.14,2.2-2.95.02-4.19l-24.25-13.83c-2.17-1.24-5.53-1.24-7.55-.09l-26.42,14.97Z"
             id="path84" />
          <path
             class="cls-12"
             d="M2334.79,2724.53c-2.02,1.15-2.03,3.05-.02,4.2l24.41,13.92c2.01,1.15,5.36,1.14,7.38,0l26.42-14.97c2.02-1.15,2.03-3.05.02-4.2l-24.41-13.92c-2.01-1.15-5.36-1.14-7.38,0l-26.42,14.97Z"
             id="path85" />
          <path
             class="cls-12"
             d="M2237.14,2726.06c-2.02,1.14-2.03,3.05.14,4.29l24.25,13.82c2.17,1.24,5.36,1.15,7.38,0l26.43-14.97c2.02-1.14,2.2-2.95.02-4.19l-24.25-13.83c-2.18-1.24-5.53-1.24-7.55-.09l-26.42,14.97Z"
             id="path86" />
          <path
             class="cls-12"
             d="M2381.94,2751.42c-2.02,1.14-2.03,3.05-.02,4.2l24.41,13.92c2,1.14,5.36,1.14,7.38,0l26.42-14.97c2.02-1.15,2.03-3.05.03-4.2l-24.41-13.92c-2.01-1.15-5.36-1.15-7.38,0l-26.42,14.97Z"
             id="path87" />
          <path
             class="cls-12"
             d="M2284.46,2753.04c-2.02,1.14-2.03,3.05-.03,4.2l24.41,13.92c2.01,1.14,5.36,1.14,7.38,0l26.42-14.97c2.02-1.15,2.03-3.05.02-4.2l-24.41-13.92c-2.01-1.15-5.36-1.15-7.38,0l-26.42,14.97Z"
             id="path88" />
          <path
             class="cls-12"
             d="M2331.62,2779.93c-2.02,1.14-2.03,3.05-.02,4.2l24.41,13.92c2.01,1.14,5.36,1.14,7.38,0l26.42-14.97c2.02-1.15,2.03-3.05.03-4.2l-24.41-13.92c-2.01-1.15-5.36-1.15-7.38,0l-26.42,14.97Z"
             id="path89" />
          <path
             class="cls-12"
             d="M2234.14,2781.55c-2.19,1.24-2.03,3.05-.03,4.2l24.41,13.92c2.01,1.14,5.19,1.24,7.38,0l26.26-14.88c2.19-1.24,2.2-3.14.19-4.29l-24.41-13.92c-2.01-1.15-5.36-1.15-7.55.09l-26.26,14.88Z"
             id="path90" />
          <path
             class="cls-12"
             d="M2281.29,2808.44c-2.19,1.24-2.03,3.05-.03,4.2l24.41,13.92c2.01,1.14,5.19,1.24,7.38,0l26.26-14.88c2.19-1.24,2.2-3.15.19-4.29l-24.41-13.92c-2-1.15-5.36-1.15-7.55.09l-26.26,14.88Z"
             id="path91" />
          <path
             class="cls-12"
             d="M2183.65,2810.16c-2.02,1.15-2.03,3.05-.02,4.2l24.41,13.92c2.01,1.15,5.36,1.15,7.38,0l26.42-14.97c2.02-1.14,2.03-3.05.02-4.2l-24.41-13.92c-2.01-1.14-5.36-1.14-7.38,0l-26.42,14.97Z"
             id="path92" />
          <path
             class="cls-12"
             d="M2230.8,2837.05c-2.02,1.15-2.03,3.05-.02,4.2l24.41,13.92c2,1.15,5.36,1.15,7.38,0l26.42-14.97c2.02-1.14,2.03-3.05.03-4.2l-24.41-13.92c-2.01-1.14-5.36-1.14-7.38,0l-26.42,14.97Z"
             id="path93" />
          <path
             class="cls-12"
             d="M2035.69,2840.19c-2.19,1.24-2.2,3.15-.03,4.39l24.24,13.82c2.17,1.24,5.36,1.15,7.55-.09l26.26-14.88c2.19-1.24,2.37-3.05.19-4.29l-24.25-13.83c-2.17-1.24-5.53-1.24-7.72,0l-26.26,14.88Z"
             id="path94" />
          <path
             class="cls-12"
             d="M1985.19,2868.8c-2.02,1.15-2.03,3.05.14,4.29l24.25,13.82c2.17,1.24,5.36,1.15,7.38,0l26.42-14.97c2.02-1.14,2.2-2.96.02-4.2l-24.24-13.82c-2.17-1.24-5.53-1.24-7.55-.1l-26.42,14.97Z"
             id="path95" />
          <path
             class="cls-12"
             d="M2227.8,2892.54c-2.02,1.14-2.2,2.96-.02,4.19l24.25,13.83c2.17,1.24,5.53,1.24,7.55.1l278.21-157.61c2.19-1.24,2.2-3.14.03-4.38l-24.25-13.83c-2.17-1.24-5.36-1.15-7.55.09l-278.21,157.61Z"
             id="path96" />
          <path
             class="cls-12"
             d="M2032.51,2895.78c-2.02,1.14-2.03,3.05-.02,4.2l24.41,13.92c2.01,1.14,5.36,1.14,7.38,0l76.74-43.48c2.19-1.24,2.2-3.15.19-4.29l-24.41-13.92c-2.01-1.14-5.36-1.14-7.55.1l-76.75,43.48Z"
             id="path97" />
          <path
             class="cls-12"
             d="M2079.67,2922.67c-2.02,1.14-2.03,3.05-.02,4.19l24.41,13.92c2,1.14,5.36,1.14,7.38,0l127.24-72.09c2.02-1.14,2.03-3.05.03-4.2l-24.41-13.92c-2.01-1.14-5.36-1.14-7.38,0l-127.24,72.09Z"
             id="path98" />
          <path
             class="cls-12"
             d="M2136.33,2783.17c-2.02,1.15-2.03,3.05.14,4.29l24.25,13.83c2.18,1.24,5.36,1.14,7.38,0l26.42-14.97c2.02-1.15,2.2-2.96.02-4.2l-24.25-13.83c-2.17-1.24-5.53-1.24-7.55-.09l-26.42,14.97Z"
             id="path99" />
          <path
             class="cls-12"
             d="M2133.33,2838.67c-2.02,1.15-2.03,3.05-.03,4.2l24.41,13.92c2.01,1.15,5.36,1.15,7.38,0l26.42-14.97c2.02-1.14,2.03-3.05.02-4.2l-24.41-13.92c-2.01-1.14-5.36-1.14-7.38,0l-26.42,14.97Z"
             id="path100" />
          <path
             class="cls-12"
             d="M2086.01,2811.68c-2.02,1.14-2.03,3.05.14,4.29l24.25,13.83c2.17,1.24,5.36,1.14,7.38,0l26.43-14.97c2.02-1.15,2.2-2.96.02-4.2l-24.25-13.83c-2.17-1.24-5.53-1.24-7.55-.09l-26.42,14.97Z"
             id="path101" />
          <path
             class="cls-12"
             d="M2177.48,2921.05c-2.19,1.24-2.37,3.05-.19,4.29l24.25,13.83c2.17,1.24,5.53,1.24,7.72,0l26.26-14.88c2.19-1.24,2.2-3.15.03-4.39l-24.25-13.82c-2.17-1.24-5.36-1.15-7.55.09l-26.26,14.88Z"
             id="path102" />
        </g>
        <g
           id="g110">
          <polygon
             class="cls-9"
             points="1955.27 2941.76 1955.18 2970.24 1909.29 2944.24 1909.37 2915.76 1955.27 2941.76"
             id="polygon102" />
          <g
             id="g109">
            <polygon
               class="cls-9"
               points="2023 2980.23 2022.92 3008.7 1977.02 2982.7 1977.11 2954.22 2023 2980.23"
               id="polygon103" />
            <g
               id="g105">
              <polygon
                 class="cls-4"
                 points="1931.4 2932.07 1952.01 2943.72 1952.01 2965.22 1912.59 2942.82 1912.59 2921.32 1931.4 2932.07"
                 id="polygon104" />
              <polygon
                 class="cls-4"
                 points="2020.09 2982.24 2020.09 3002.84 1980.67 2981.34 1980.67 2959.84 1999.49 2970.59 2020.09 2982.24"
                 id="polygon105" />
            </g>
            <polygon
               class="cls-12"
               points="1912.56 2921.2 1912.5 2942.43 1912.6 2942.49 1931.36 2931.85 1912.56 2921.2"
               id="polygon106" />
            <polygon
               class="cls-4"
               points="1912.6 2942.49 1951.98 2964.8 1952.06 2943.58 1931.36 2931.85 1912.6 2942.49"
               id="polygon107" />
            <polygon
               class="cls-12"
               points="1980.3 2959.66 1980.23 2980.89 1980.34 2980.95 1999.1 2970.32 1980.3 2959.66"
               id="polygon108" />
            <polygon
               class="cls-4"
               points="1980.34 2980.95 2019.71 3003.26 2019.79 2982.04 1999.1 2970.32 1980.34 2980.95"
               id="polygon109" />
          </g>
        </g>
        <g
           id="g124">
          <path
             class="cls-17"
             d="M2132.18,2318.77c36.8-21.25,74.83-35.76,114.17-43.28l.45,157.82c-6.34,60.82-46.37,126.56-110.8,195.27-51.96,8.46-87.64-4.48-104.08-41.64-5.52-12.48-7.53-26.22-7.57-39.86l-.41-143.18c34.84-35.1,70.91-63.58,108.24-85.13Z"
             id="path110"
             style="fill:#008080" />
          <path
             class="cls-11"
             d="M2219.43,2444.93c-5.13,42.53-32.69,91.13-84.28,148.29-25.07,2.65-44.5-.77-58.53-10.52-12.75-8.73-20.96-22.59-24.99-41.76l-.34-132.2c26.44-24.39,53.57-44.67,80.95-60.5,25.5-14.72,51.77-25.93,78.55-33.46,2.74-.86,5.56-1.63,8.3-2.31l.34,132.46Z"
             id="path111" />
          <g
             id="g119">
            <path
               class="cls-2"
               d="M2135.96,2327.13c2.84-1.64,5.09-.36,5.1,2.97,0,3.26-2.22,7.13-5.06,8.77-2.9,1.67-5.14.39-5.15-2.87,0-3.33,2.22-7.19,5.12-8.87Z"
               id="path112" />
            <path
               class="cls-2"
               d="M2039.04,2402.7c2.9-1.67,5.14-.39,5.15,2.87,0,3.33-2.22,7.19-5.12,8.87-2.84,1.64-5.09.36-5.1-2.97,0-3.26,2.22-7.13,5.06-8.77Z"
               id="path113"
               style="fill:#008080" />
            <path
               class="cls-2"
               d="M2231.51,2291.58c2.84-1.64,5.09-.36,5.1,2.91,0,3.33-2.22,7.19-5.06,8.83-2.9,1.67-5.14.39-5.15-2.94,0-3.26,2.22-7.13,5.12-8.8Z"
               id="path114" />
            <path
               class="cls-2"
               d="M2037.94,2498.03c2.84-1.64,5.09-.36,5.1,2.97,0,3.26-2.22,7.13-5.06,8.77-2.9,1.67-5.14.39-5.15-2.87,0-3.33,2.22-7.19,5.12-8.87Z"
               id="path115" />
            <path
               class="cls-2"
               d="M2207.71,2506.09c2.84-1.64,5.09-.36,5.1,2.97,0,3.26-2.22,7.13-5.06,8.77-2.9,1.67-5.14.39-5.15-2.87,0-3.33,2.22-7.19,5.12-8.87Z"
               id="path116" />
            <path
               class="cls-2"
               d="M2062.17,2590.12c2.9-1.67,5.14-.39,5.15,2.94,0,3.26-2.22,7.13-5.12,8.8-2.84,1.64-5.09.36-5.1-2.9,0-3.33,2.22-7.19,5.06-8.83Z"
               id="path117" />
            <path
               class="cls-2"
               d="M2136.74,2603.22c2.84-1.64,5.09-.36,5.1,2.97,0,3.26-2.22,7.13-5.06,8.77-2.9,1.67-5.14.39-5.15-2.87,0-3.33,2.22-7.19,5.12-8.87Z"
               id="path118" />
            <path
               class="cls-2"
               d="M2232.82,2385.52c2.9-1.67,5.09-.36,5.1,2.97,0,3.26-2.17,7.1-5.06,8.77-2.9,1.67-5.09.36-5.1-2.9,0-3.33,2.17-7.16,5.06-8.83Z"
               id="path119" />
          </g>
          <g
             id="g123">
            <path
               class="cls-7"
               d="M2139.45,2448.8c6.65-9.62,10.88-21.3,10.88-31.55-.09-6.65-1.8-11.77-4.85-15.1-3.15.36-6.65,1.62-10.16,3.6-15.37,8.9-27.86,30.29-27.86,48.09.09,10.34,4.4,17.08,10.97,19.06l-4.94,30.74,33.26-19.14-7.28-35.68Z"
               id="path120" />
            <path
               class="cls-7"
               d="M2152.67,2453.7l7.17,34.93-48.37,27.77.9-6.27.9-6.27,4.48-26.88.9-4.48c-7.17-1.79-10.76-8.06-10.76-18.81,0-17.02,11.65-38.52,27.78-48.38,3.58-1.79,6.27-2.68,9.85-3.58h1.79c9.86,0,16.13,7.17,16.13,19.71,0,10.75-4.48,22.4-10.75,32.25Z"
               id="path121" />
            <g
               id="g122">
              <path
                 class="cls-12"
                 d="M2152.3,2453.29c6.65-9.62,10.97-21.3,10.97-31.55-.09-12.85-6.56-19.95-15.91-19.77-.63,0-1.26.09-1.89.18,3.06,3.33,4.76,8.45,4.85,15.1,0,10.25-4.22,21.93-10.88,31.55l7.28,35.68h-.02s12.95,4.45,12.95,4.45l-7.36-35.64Z"
                 id="path122" />
              <polygon
                 class="cls-4"
                 points="2146.71 2484.49 2113.47 2503.62 2112.48 2509.92 2111.41 2516.75 2159.67 2488.97 2159.66 2488.93 2146.71 2484.49"
                 id="polygon122" />
            </g>
            <path
               class="cls-7"
               d="M2139.4,2448.77c1.83,8.97,7.28,35.73,7.28,35.73-8.96,5.18-33.15,19.15-33.15,19.15l4.26-26.54.67-4.26c-6.61-1.9-10.86-8.74-10.98-19.04,0-17.34,12.07-38.89,27.89-48.05,3.47-2.02,6.94-3.25,10.08-3.58,3.02,3.25,4.82,8.4,4.93,15.12,0,8.95-3.62,21.05-10.98,31.47Z"
               id="path123" />
          </g>
        </g>
      </g>
      <g
         class="cls-18"
         id="g129">
        <polygon
           class="cls-11"
           points="1405.22 332.66 2078.85 724.13 2128.3 695.58 1454.67 304.11 1405.22 332.66"
           id="polygon125" />
        <polygon
           class="cls-11"
           points="1251.64 421.33 1925.27 812.8 1974.72 784.25 1301.09 392.78 1251.64 421.33"
           id="polygon126" />
        <polygon
           class="cls-11"
           points="1098.05 510 1771.69 901.47 1821.38 872.78 1147.74 481.31 1098.05 510"
           id="polygon127" />
        <polygon
           class="cls-11"
           points="944.47 598.67 1618.11 990.14 1667.79 961.46 994.16 569.98 944.47 598.67"
           id="polygon128" />
        <polygon
           class="cls-11"
           points="791.13 687.2 1464.76 1078.68 1514.21 1050.13 840.58 658.65 791.13 687.2"
           id="polygon129" />
      </g>
    </g>
  </g>
</svg>
