<?xml version="1.0" encoding="UTF-8" standalone="no"?>
<svg
   id="Layer_2"
   data-name="Layer 2"
   viewBox="0 0 2468.75 4000"
   version="1.1"
   sodipodi:docname="1click.svg"
   inkscape:version="1.3.2 (091e20e, 2023-11-25, custom)"
   xmlns:inkscape="http://www.inkscape.org/namespaces/inkscape"
   xmlns:sodipodi="http://sodipodi.sourceforge.net/DTD/sodipodi-0.dtd"
   xmlns="http://www.w3.org/2000/svg"
   xmlns:svg="http://www.w3.org/2000/svg">
  <sodipodi:namedview
     id="namedview16"
     pagecolor="#ffffff"
     bordercolor="#000000"
     borderopacity="0.25"
     inkscape:showpageshadow="2"
     inkscape:pageopacity="0.0"
     inkscape:pagecheckerboard="0"
     inkscape:deskcolor="#d1d1d1"
     inkscape:zoom="0.20325"
     inkscape:cx="883.14883"
     inkscape:cy="2073.8007"
     inkscape:window-width="1920"
     inkscape:window-height="1009"
     inkscape:window-x="1912"
     inkscape:window-y="39"
     inkscape:window-maximized="1"
     inkscape:current-layer="Layer_1-2" />
  <defs
     id="defs1">
    <style
       id="style1">
      .cls-1 {
        fill: #c5edf1;
      }

      .cls-1, .cls-2, .cls-3, .cls-4, .cls-5, .cls-6, .cls-7, .cls-8, .cls-9 {
        stroke-width: 0px;
      }

      .cls-2 {
        fill: #fff;
      }

      .cls-2, .cls-5, .cls-6, .cls-7 {
        opacity: .5;
      }

      .cls-3 {
        fill: #f98776;
      }

      .cls-4 {
        fill: #2d4356;
      }

      .cls-5 {
        fill: #829d9e;
      }

      .cls-6 {
        fill: #f7c6c1;
      }

      .cls-7 {
        fill: #9fa5aa;
      }

      .cls-8 {
        fill: #e1ebf4;
      }

      .cls-9 {
        fill: #704242;
        opacity: .3;
      }
    </style>
  </defs>
  <g
     id="Layer_1-2"
     data-name="Layer 1">
    <rect
       class="cls-3"
       x="1315.1"
       y="3708.33"
       width="942.71"
       height="193.85"
       id="rect1"
       style="fill:#008080" />
    <path
       class="cls-1"
       d="M2295.94,222.19v1834.69c-24.37-5-49.69-7.81-75.62-7.81-1.56,0-3.12,0-4.69.31-66.88-62.19-155.63-97.81-249.38-98.44-41.25-45.31-93.12-79.69-151.25-100v-491.25l-.31-8.44c-11.56-200.31-169.37-351.25-367.5-351.25s-368.12,163.44-368.12,364.06v573.75c-.31-.31-.63-.31-1.25-.63-34.06-10.63-71.25-15.94-110-15.94-121.25,0-237.81,50.94-304.69,132.81-70.94,87.19-123.12,244.69,30.31,501.87l4.69,7.81c70,117.5,119.69,244.69,172.81,379.69,51.56,131.25,104.69,266.87,178.44,395.62,6.87,12.19,13.75,24.06,20,35.94,24.69,44.69,45,86.25,61.56,125,16.25,37.81,28.75,72.81,38.12,106.25-48.44,56.25-76.25,130.62-76.25,209.69,0,20.31,1.88,40,5.31,59.06,1.87,9.37,3.75,18.44,6.25,27.19H202.19c-69.06,0-125-55.94-125-125V222.19c0-69.06,55.94-125,125-125h1968.75c69.06,0,125,55.94,125,125Z"
       id="path1" />
    <path
       class="cls-5"
       d="M1079.06,1828.44v-189.69c-41.25-65.94-65-143.44-65-226.56,0-237.81,193.44-431.25,431.25-431.25s431.56,193.44,431.56,431.25c0,78.75-21.56,152.5-58.44,215.94l-3.33,4.88.03,191.64,3.3-2.77c111.25-101.25,181.56-247.19,181.56-409.69,0-306.25-248.13-554.69-554.69-554.69s-554.69,248.44-554.69,554.69c0,165.94,72.81,314.69,188.44,416.25Z"
       id="path2" />
    <path
       class="cls-8"
       d="M2220,3425.62c-28.44,53.75-65.31,150.94-85.62,206.56l-704.37-.94c-25.63-158.44-99.37-302.81-162.81-414.06-67.81-118.13-232.81-538.44-270.94-619.69-36.56-79.69-84.06-153.44-123.75-231.56-20-39.37-38.75-85.94-25.94-130.31,17.81-60.94,101.56-79.37,156.56-62.19,84.06,26.25,139.06,126.87,170.31,206.56,13.44,33.44,48.13,77.5,87.81,78.75,55,1.87,68.75-68.12,68.12-109.69v-985c0-64.38,52.81-116.56,117.81-116.56s113.12,49.06,117.81,116.56v752.81c47.81-17.81,101.88-50.31,155-36.56,44.06,11.25,80.31,50,87.81,94.06l15.62,90,79.38-48.44c63.44-38.75,148.75-7.81,173.12,60.94l24.06,68.12c37.81-20.31,75-48.44,120.31-48.44,151.87,0,118.75,205,120.62,299.38,6.25,284.37,12.81,578.12-120.94,829.69Z"
       id="path3" />
    <rect
       class="cls-7"
       x="1385.42"
       y="3507.19"
       width="812.5"
       height="125"
       id="rect3" />
    <rect
       class="cls-9"
       x="1291.67"
       y="3819.69"
       width="1000"
       height="125"
       id="rect4" />
    <path
       class="cls-3"
       d="M1099.37,3750c-4.38,21.25-6.56,43.44-6.56,65.94,0,41.56,7.81,81.25,21.56,117.5H270c-103.44,0-187.5-84.06-187.5-187.5v-303.75h1021.88c29.38,60.31,50.62,114.38,64.69,164.06-5.31,5.94-10,12.19-14.69,18.75-26.87,36.56-45.63,79.06-55,125Z"
       id="path4"
       style="fill:#008080" />
    <rect
       class="cls-5"
       x="82.5"
       y="624.63"
       width="2192.71"
       height="125"
       id="rect5" />
    <path
       class="cls-3"
       d="M 59.798249,89.953501 H 2286.5482 c 34.0893,0 29.4454,9.648218 29.4833,12.957999 L 2321.25,558.39 H 82.5 V 73.34 c 0,-3.31 -26.011751,16.613501 -22.701751,16.613501 z"
       id="path5"
       style="fill:#008080"
       sodipodi:nodetypes="sssccss" />
    <path
       class="cls-6"
       d="M2249.16,249.63v125c0-69.06-57.5-125-128.44-125H252.6c-70.94,0-128.44,55.94-128.44,125v-125c0-69.06,57.5-125,128.44-125h1868.13c70.94,0,128.44,55.94,128.44,125Z"
       id="path6" />
    <path
       class="cls-4"
       d="M1437.5,250h-500c-34.55,0-62.5,27.98-62.5,62.5s27.95,62.5,62.5,62.5h500c34.48,0,62.5-27.98,62.5-62.5s-28.02-62.5-62.5-62.5Z"
       id="path7" />
    <path
       class="cls-4"
       d="M1154.38,3625c-26.87,36.56-45.63,79.06-55,125h-224.37c-34.69,0-62.5-28.13-62.5-62.5s27.81-62.5,62.5-62.5h279.38Z"
       id="path8" />
    <path
       class="cls-9"
       d="M1092.77,3816.04c0-22.66,2.53-44.84,6.93-66.41H252.6c-70.94,0-128.44-55.94-128.44-125v125c0,69.06,57.5,125,128.44,125h845.49c-3.4-18.99-5.32-38.55-5.32-58.59Z"
       id="path9" />
    <path
       class="cls-5"
       d="M1049.38,3339.14c-16.91-29.5-32.63-59.41-47.6-89.51H82.6v125h986.61c-6.36-11.62-12.92-23.41-19.83-35.49Z"
       id="path10" />
    <path
       class="cls-4"
       d="M1079.06,1765.94v-189.69c-41.25-65.94-65-143.44-65-226.56,0-237.81,193.44-431.25,431.25-431.25s431.56,193.44,431.56,431.25c0,78.75-21.56,152.5-58.44,215.94l-3.33,4.88.03,191.64,3.3-2.77c111.25-101.25,181.56-247.19,181.56-409.69,0-306.25-248.13-554.69-554.69-554.69s-554.69,248.44-554.69,554.69c0,165.94,72.81,314.69,188.44,416.25Z"
       id="path11" />
    <path
       class="cls-4"
       d="M1098.14,3875H253.44c-70.94,0-128.44-55.94-128.44-125v-250h1005.79c-.67-1.57-1.34-3.13-2.02-4.71-7.13-16.48-14.93-33.47-23.46-50.98-2-4.1-4.16-8.33-6.24-12.49-9.2-18.44-18.86-37.21-29.7-56.82H125V625h2125v1425.67c44.37,3.51,86.43,14.87,125,32.63V250c0-138.13-113.44-250-253.44-250H253.44C113.44,0,0,111.87,0,250v3500c0,138.12,113.44,250,253.44,250h896.14c-25.12-36.41-43.13-78.8-51.44-125ZM125,250c0-69.06,57.5-125,128.44-125h1868.13c70.94,0,128.44,55.94,128.44,125v250H125v-250Z"
       id="path12" />
    <path
       class="cls-4"
       d="M2468.75,2773.44c0-120.31-5.31-240-5.31-360.31,0-131.87-109.06-239.06-243.13-239.06-18.44,0-36.87,2.19-55.31,6.56-44.38-64.37-119.06-104.69-200.63-104.69-19.69,0-38.75,2.5-57.5,6.87-40.94-77.19-122.5-127.81-215.31-127.81h-1.56v-596.25c-7.81-133.13-112.19-233.75-242.81-233.75s-243.12,107.19-243.12,239.06v813.44c-46.56-61.25-100.94-101.56-163.44-120.94-91.25-28.13-220.62,2.81-280.62,76.56-86.25,105.94-20,256.56,40.62,358.44l5,8.44c146.25,245.94,210,529.06,352.19,777.19,84.38,147.5,131.56,265.31,149.06,374.69-52.81,30.31-89.06,92.5-89.06,164.06,0,101.56,72.19,184.06,161.25,184.06h803.44c88.75,0,161.25-82.5,161.25-184.06,0-69.37-34.06-130.31-84.69-161.56-7.5-4.69,146.25-374.06,157.5-412.19,45-152.5,52.19-310.94,52.19-468.75ZM2182.5,3877.5h-803.44c-14.69,0-36.25-24.06-36.25-61.56s21.56-61.25,36.25-61.25h803.44c14.69.31,36.25,24.06,36.25,61.25s-21.56,61.56-36.25,61.56ZM2220,3425.62c-28.44,53.75-65.31,150.94-85.62,206.56l-704.37-.94c-25.63-158.44-99.37-302.81-162.81-414.06-67.81-118.13-232.81-538.44-270.94-619.69-36.56-79.69-84.06-153.44-123.75-231.56-20-39.37-38.75-85.94-25.94-130.31,17.81-60.94,101.56-79.37,156.56-62.19,84.06,26.25,139.06,126.87,170.31,206.56,13.44,33.44,48.13,77.5,87.81,78.75,55,1.87,68.75-68.12,68.12-109.69v-985c0-64.38,52.81-116.56,117.81-116.56s113.12,49.06,117.81,116.56v752.81c47.81-17.81,101.88-50.31,155-36.56,44.06,11.25,80.31,50,87.81,94.06l15.62,90,79.38-48.44c63.44-38.75,148.75-7.81,173.12,60.94l24.06,68.12c37.81-20.31,75-48.44,120.31-48.44,151.87,0,118.75,205,120.62,299.38,6.25,284.37,12.81,578.12-120.94,829.69Z"
       id="path13" />
    <path
       class="cls-2"
       d="M1566.14,1364.06v62.5c-4.69-67.5-54.06-116.56-117.81-116.56s-117.81,52.19-117.81,116.56v-62.5c0-64.38,52.81-116.56,117.81-116.56s113.12,49.06,117.81,116.56Z"
       id="path14" />
    <path
       class="cls-2"
       d="M2343.32,2530.62c-2.81-85.94-23.75-171.56-121.88-171.56-45.31,0-82.5,28.13-120.31,48.44l-24.06-68.12c-24.38-68.75-109.69-99.69-173.12-60.94l-79.38,48.44-15.62-90c-7.5-44.06-43.75-82.81-87.81-94.06-53.13-13.75-107.19,18.75-155,36.56v-62.5c47.81-17.81,101.87-50.31,155-36.56,44.06,11.25,80.31,50,87.81,94.06l15.62,90,79.38-48.44c63.44-38.75,148.75-7.81,173.12,60.94l24.06,68.12c37.81-20.31,75-48.44,120.31-48.44,122.19,0,124.69,132.81,121.88,234.06Z"
       id="path15" />
    <path
       class="cls-2"
       d="M1330.51,2351.88v59.69c.63,41.56-13.12,111.56-68.12,109.69-39.69-1.25-74.38-45.31-87.81-78.75-31.25-79.69-86.25-180.31-170.31-206.56-55-17.19-138.75,1.25-156.56,62.19v.63c-5-20.94-5.94-42.19,0-63.13,17.81-60.94,101.56-79.37,156.56-62.19,84.06,26.25,139.06,126.87,170.31,206.56,13.44,33.44,48.12,77.5,87.81,78.75,53.75,1.87,68.12-65.31,68.12-106.87Z"
       id="path16" />
  </g>
</svg>
