<?xml version="1.0" encoding="UTF-8"?>
<svg id="Layer_2" data-name="Layer 2" xmlns="http://www.w3.org/2000/svg" xmlns:xlink="http://www.w3.org/1999/xlink" viewBox="0 0 2124.66 2054.99">
  <defs>
    <style>
      .cls-1 {
        fill: #1d2330;
      }

      .cls-1, .cls-2, .cls-3, .cls-4, .cls-5, .cls-6, .cls-7, .cls-8, .cls-9, .cls-10, .cls-11, .cls-12, .cls-13, .cls-14, .cls-15, .cls-16, .cls-17, .cls-18, .cls-19, .cls-20, .cls-21, .cls-22, .cls-23, .cls-24, .cls-25, .cls-26, .cls-27, .cls-28, .cls-29, .cls-30, .cls-31, .cls-32, .cls-33, .cls-34, .cls-35, .cls-36, .cls-37, .cls-38, .cls-39, .cls-40, .cls-41, .cls-42, .cls-43, .cls-44, .cls-45, .cls-46, .cls-47, .cls-48, .cls-49, .cls-50, .cls-51, .cls-52, .cls-53, .cls-54, .cls-55, .cls-56, .cls-57, .cls-58, .cls-59, .cls-60, .cls-61, .cls-62, .cls-63, .cls-64, .cls-65, .cls-66, .cls-67, .cls-68, .cls-69, .cls-70, .cls-71, .cls-72, .cls-73, .cls-74, .cls-75, .cls-76, .cls-77, .cls-78, .cls-79, .cls-80, .cls-81, .cls-82, .cls-83, .cls-84, .cls-85, .cls-86, .cls-87, .cls-88, .cls-89, .cls-90, .cls-91, .cls-92, .cls-93, .cls-94, .cls-95, .cls-96, .cls-97, .cls-98, .cls-99, .cls-100, .cls-101, .cls-102, .cls-103, .cls-104, .cls-105, .cls-106, .cls-107, .cls-108, .cls-109, .cls-110, .cls-111, .cls-112, .cls-113, .cls-114, .cls-115, .cls-116, .cls-117, .cls-118, .cls-119, .cls-120, .cls-121, .cls-122, .cls-123 {
        stroke-width: 0px;
      }

      .cls-2 {
        opacity: .16;
      }

      .cls-2, .cls-8, .cls-9, .cls-12, .cls-13, .cls-18, .cls-21, .cls-22, .cls-23, .cls-24, .cls-25, .cls-26, .cls-28, .cls-32, .cls-33, .cls-35, .cls-36, .cls-38, .cls-39, .cls-40, .cls-42, .cls-43, .cls-45, .cls-47, .cls-48, .cls-52, .cls-54, .cls-55, .cls-56, .cls-59, .cls-64, .cls-67, .cls-70, .cls-75, .cls-80, .cls-82, .cls-83, .cls-89, .cls-90, .cls-91, .cls-94, .cls-96, .cls-97, .cls-99, .cls-101, .cls-104, .cls-105, .cls-110, .cls-118, .cls-121, .cls-122, .cls-123 {
        fill: #141723;
      }

      .cls-3 {
        opacity: .72;
      }

      .cls-3, .cls-63 {
        fill: #fff;
      }

      .cls-4 {
        fill: url(#linear-gradient-12);
      }

      .cls-5 {
        fill: url(#linear-gradient-23);
      }

      .cls-5, .cls-17 {
        mix-blend-mode: multiply;
      }

      .cls-6 {
        fill: #8db68d;
      }

      .cls-7 {
        fill: url(#linear-gradient-17);
      }

      .cls-8 {
        opacity: .55;
      }

      .cls-10 {
        fill: url(#linear-gradient-19);
      }

      .cls-11 {
        fill: url(#linear-gradient);
      }

      .cls-12 {
        opacity: .76;
      }

      .cls-13 {
        opacity: .61;
      }

      .cls-14 {
        fill: url(#linear-gradient-21);
      }

      .cls-15 {
        fill: url(#linear-gradient-6);
      }

      .cls-16 {
        fill: #69c0b0;
      }

      .cls-17 {
        fill: url(#linear-gradient-25);
      }

      .cls-18 {
        opacity: .65;
      }

      .cls-19 {
        fill: #c1a355;
      }

      .cls-20 {
        fill: #72bfa8;
      }

      .cls-124 {
        mask: url(#mask-2);
      }

      .cls-21 {
        opacity: .45;
      }

      .cls-22 {
        opacity: .29;
      }

      .cls-23 {
        opacity: .02;
      }

      .cls-24 {
        opacity: .67;
      }

      .cls-25 {
        opacity: .94;
      }

      .cls-26 {
        opacity: .92;
      }

      .cls-27 {
        fill: #58c8c4;
      }

      .cls-28 {
        opacity: .69;
      }

      .cls-29 {
        fill: url(#linear-gradient-15);
      }

      .cls-30 {
        fill: #0f283a;
      }

      .cls-31 {
        fill: url(#linear-gradient-11);
      }

      .cls-32 {
        opacity: .37;
      }

      .cls-125 {
        mask: url(#mask-3);
      }

      .cls-33 {
        opacity: .57;
      }

      .cls-126 {
        opacity: .64;
      }

      .cls-34 {
        fill: #8cb58b;
      }

      .cls-35 {
        opacity: .82;
      }

      .cls-36 {
        opacity: .63;
      }

      .cls-37 {
        fill: url(#linear-gradient-5);
      }

      .cls-38 {
        opacity: .14;
      }

      .cls-39 {
        opacity: .51;
      }

      .cls-40 {
        opacity: .35;
      }

      .cls-41 {
        fill: #caa14c;
      }

      .cls-42 {
        opacity: .08;
      }

      .cls-43 {
        opacity: .78;
      }

      .cls-44 {
        fill: #2c3344;
      }

      .cls-45 {
        opacity: .71;
      }

      .cls-46 {
        fill: #db9b39;
      }

      .cls-47 {
        opacity: .2;
      }

      .cls-48 {
        opacity: .06;
      }

      .cls-49 {
        fill: url(#linear-gradient-13);
      }

      .cls-50 {
        fill: #b8a65e;
      }

      .cls-51 {
        fill: #b9a75f;
      }

      .cls-52 {
        opacity: .59;
      }

      .cls-53 {
        fill: #7bbc9f;
      }

      .cls-54 {
        opacity: .41;
      }

      .cls-55 {
        opacity: .47;
      }

      .cls-56 {
        opacity: .24;
      }

      .cls-57 {
        fill: #95b383;
      }

      .cls-58 {
        fill: url(#linear-gradient-16);
      }

      .cls-59 {
        opacity: .88;
      }

      .cls-60 {
        fill: url(#linear-gradient-22);
      }

      .cls-61 {
        fill: #bfa166;
      }

      .cls-62 {
        fill: #84b996;
      }

      .cls-64 {
        opacity: .84;
      }

      .cls-65 {
        fill: #caa04c;
      }

      .cls-66 {
        fill: url(#linear-gradient-20);
      }

      .cls-67 {
        opacity: .1;
      }

      .cls-68 {
        fill: url(#linear-gradient-14);
      }

      .cls-69 {
        fill: url(#linear-gradient-2);
      }

      .cls-70 {
        opacity: .31;
      }

      .cls-71 {
        fill: #a7ac70;
      }

      .cls-72 {
        fill: #9eb07a;
      }

      .cls-73 {
        fill: #4b556e;
      }

      .cls-74 {
        fill: url(#linear-gradient-24);
        opacity: .37;
      }

      .cls-75 {
        opacity: .04;
      }

      .cls-76 {
        fill: url(#linear-gradient-7);
      }

      .cls-77 {
        fill: url(#linear-gradient-3);
      }

      .cls-78 {
        fill: #57c6c2;
      }

      .cls-79 {
        fill: #a7ad71;
      }

      .cls-80 {
        opacity: 0;
      }

      .cls-81 {
        fill: #232738;
      }

      .cls-82 {
        opacity: .18;
      }

      .cls-83 {
        opacity: .86;
      }

      .cls-84 {
        fill: #83b894;
      }

      .cls-127 {
        opacity: .49;
      }

      .cls-85 {
        fill: #6ac2b2;
      }

      .cls-86 {
        fill: #c1a455;
      }

      .cls-87 {
        fill: url(#linear-gradient-9);
      }

      .cls-88 {
        fill: #b0aa68;
      }

      .cls-89 {
        opacity: .73;
      }

      .cls-90 {
        opacity: .22;
      }

      .cls-91 {
        opacity: .27;
      }

      .cls-92 {
        fill: #7aba9e;
      }

      .cls-93 {
        fill: #dc9b3a;
      }

      .cls-94 {
        opacity: .53;
      }

      .cls-95 {
        fill: url(#linear-gradient-26);
        opacity: .6;
      }

      .cls-96 {
        opacity: .33;
      }

      .cls-97 {
        opacity: .49;
      }

      .cls-98 {
        fill: url(#linear-gradient-8);
      }

      .cls-99 {
        opacity: .9;
      }

      .cls-100 {
        fill: url(#linear-gradient-18);
      }

      .cls-101 {
        opacity: .39;
      }

      .cls-102 {
        fill: #d39e43;
      }

      .cls-128 {
        filter: url(#luminosity-noclip);
      }

      .cls-103 {
        fill: #95b282;
      }

      .cls-129 {
        mask: url(#mask-1);
      }

      .cls-130 {
        mask: url(#mask);
      }

      .cls-104 {
        opacity: .25;
      }

      .cls-105 {
        opacity: .96;
      }

      .cls-106 {
        fill: #72bda7;
      }

      .cls-107 {
        fill: #f6921e;
      }

      .cls-108 {
        fill: #afa967;
      }

      .cls-109 {
        fill: #60c3b9;
      }

      .cls-110 {
        opacity: .43;
      }

      .cls-111 {
        fill: #61c5bb;
      }

      .cls-112 {
        fill: url(#linear-gradient-10);
      }

      .cls-113 {
        fill: #ed9527;
      }

      .cls-114 {
        fill: #e49830;
      }

      .cls-115 {
        fill: url(#linear-gradient-4);
      }

      .cls-116 {
        fill: #9eaf79;
      }

      .cls-117 {
        fill: #d39e42;
      }

      .cls-118 {
        opacity: .98;
      }

      .cls-119 {
        fill: #a37f40;
      }

      .cls-120 {
        fill: #f2dbad;
      }

      .cls-131 {
        opacity: .71;
      }

      .cls-132 {
        filter: url(#luminosity-noclip-3);
      }

      .cls-121 {
        opacity: .75;
      }

      .cls-122 {
        opacity: .8;
      }

      .cls-123 {
        opacity: .12;
      }
    </style>
    <linearGradient id="linear-gradient" x1="897.28" y1="1597.76" x2="2001.91" y2="1597.76" gradientTransform="translate(3021.95) rotate(-180) scale(1 -1)" gradientUnits="userSpaceOnUse">
      <stop offset="0" stop-color="#969bbc"/>
      <stop offset="1" stop-color="#e6e7ef"/>
    </linearGradient>
    <linearGradient id="linear-gradient-2" x1="1063.65" y1="1073.38" x2="1057.81" y2="1802.51" gradientUnits="userSpaceOnUse">
      <stop offset="0" stop-color="#cbcbd6"/>
      <stop offset="1" stop-color="#f9faf9"/>
    </linearGradient>
    <linearGradient id="linear-gradient-3" x1="2001.91" y1="1619.06" x2="3021.87" y2="1619.06" xlink:href="#linear-gradient"/>
    <linearGradient id="linear-gradient-4" x1="897.49" y1="1540.51" x2="3021.84" y2="1540.51" gradientTransform="translate(3021.95) rotate(-180) scale(1 -1)" gradientUnits="userSpaceOnUse">
      <stop offset="0" stop-color="#a7abc7"/>
      <stop offset=".42" stop-color="#fff"/>
      <stop offset="1" stop-color="#e6e7ef"/>
    </linearGradient>
    <linearGradient id="linear-gradient-5" x1="611.03" y1="1394.59" x2="685.47" y2="994.73" gradientUnits="userSpaceOnUse">
      <stop offset="0" stop-color="#5b677c"/>
      <stop offset="1" stop-color="#39a9a5"/>
    </linearGradient>
    <linearGradient id="linear-gradient-6" x1="1064.66" y1="766.95" x2="1058.83" y2="1505.54" gradientUnits="userSpaceOnUse">
      <stop offset="0" stop-color="#5fd6d0"/>
      <stop offset="1" stop-color="#41999b"/>
    </linearGradient>
    <linearGradient id="linear-gradient-7" x1="1766.73" y1="938.25" x2="1273.28" y2="1755" xlink:href="#linear-gradient-5"/>
    <linearGradient id="linear-gradient-8" x1="909.31" y1="1442.79" x2="1079.63" y2="910.14" gradientUnits="userSpaceOnUse">
      <stop offset="0" stop-color="#fff"/>
      <stop offset="1" stop-color="#41999b"/>
    </linearGradient>
    <linearGradient id="linear-gradient-9" x1="1052.04" y1="570.8" x2="1077.96" y2="1515.09" xlink:href="#linear-gradient-5"/>
    <linearGradient id="linear-gradient-10" x1="1353.05" y1="1359.58" x2="1828.67" y2="1359.58" gradientTransform="translate(-72.51)" gradientUnits="userSpaceOnUse">
      <stop offset="0" stop-color="#969bbc"/>
      <stop offset=".99" stop-color="#4f566a"/>
    </linearGradient>
    <linearGradient id="linear-gradient-11" x1="3506.07" y1="1404.92" x2="3981.69" y2="1404.92" gradientTransform="translate(4354.54 80.88) rotate(-177.94) scale(1 -1) skewX(-2.06)" xlink:href="#linear-gradient-10"/>
    <linearGradient id="linear-gradient-12" x1="625.26" y1="934.29" x2="1095.21" y2="934.29" gradientTransform="translate(90.9)" gradientUnits="userSpaceOnUse">
      <stop offset="0" stop-color="#262c3d"/>
      <stop offset="1" stop-color="#7d859e"/>
    </linearGradient>
    <linearGradient id="linear-gradient-13" x1="979.62" y1="998.74" x2="1246.92" y2="998.74" gradientTransform="translate(206.5)" xlink:href="#linear-gradient-12"/>
    <linearGradient id="linear-gradient-14" x1="1302.27" y1="1067.72" x2="321.12" y2="281.77" xlink:href="#linear-gradient-12"/>
    <linearGradient id="linear-gradient-15" x1="1052.04" y1="7.58" x2="1077.96" y2="951.87" xlink:href="#linear-gradient-6"/>
    <linearGradient id="linear-gradient-16" x1="409.74" y1="599.44" x2="1070.57" y2="599.44" xlink:href="#linear-gradient-5"/>
    <linearGradient id="linear-gradient-17" x1="1052.04" y1="7.58" x2="1077.96" y2="951.87" xlink:href="#linear-gradient-6"/>
    <linearGradient id="linear-gradient-18" x1="549.91" y1="251.34" x2="1574.74" y2="251.34" xlink:href="#linear-gradient-5"/>
    <linearGradient id="linear-gradient-19" x1="1066.73" y1="166.19" x2="1057.48" y2="679.07" xlink:href="#linear-gradient-6"/>
    <linearGradient id="linear-gradient-20" x1="1070.57" y1="611.31" x2="1714.9" y2="611.31" xlink:href="#linear-gradient-5"/>
    <linearGradient id="linear-gradient-21" x1="1372.78" y1="183.52" x2="1238.48" y2="307.13" xlink:href="#linear-gradient-5"/>
    <linearGradient id="linear-gradient-22" x1="1061.57" y1="354.81" x2="1075.6" y2="865.74" xlink:href="#linear-gradient-5"/>
    <filter id="luminosity-noclip" x="409.74" y="434.37" width="660.82" height="900.86" color-interpolation-filters="sRGB" filterUnits="userSpaceOnUse">
      <feFlood flood-color="#fff" result="bg"/>
      <feBlend in="SourceGraphic" in2="bg"/>
    </filter>
    <filter id="luminosity-noclip-2" x="409.74" y="-9212.1" width="660.82" height="32766" color-interpolation-filters="sRGB" filterUnits="userSpaceOnUse">
      <feFlood flood-color="#fff" result="bg"/>
      <feBlend in="SourceGraphic" in2="bg"/>
    </filter>
    <mask id="mask-1" x="409.74" y="-9212.1" width="660.82" height="32766" maskUnits="userSpaceOnUse"/>
    <linearGradient id="linear-gradient-23" x1="740.16" y1="1335.23" x2="740.16" y2="434.37" gradientUnits="userSpaceOnUse">
      <stop offset="0" stop-color="#fff"/>
      <stop offset="1" stop-color="#000"/>
    </linearGradient>
    <mask id="mask" x="409.74" y="434.37" width="660.82" height="900.86" maskUnits="userSpaceOnUse">
      <g class="cls-128">
        <g class="cls-129">
          <polygon class="cls-5" points="409.74 434.37 409.74 941.23 1070.57 1335.23 1070.57 828.62 409.74 434.37"/>
        </g>
      </g>
    </mask>
    <linearGradient id="linear-gradient-24" x1="740.16" y1="1335.23" x2="740.16" y2="434.37" gradientUnits="userSpaceOnUse">
      <stop offset="0" stop-color="#4dffe1"/>
      <stop offset="1" stop-color="#4dffe1"/>
    </linearGradient>
    <filter id="luminosity-noclip-3" x="1070.76" y="458.11" width="644.15" height="877.12" color-interpolation-filters="sRGB" filterUnits="userSpaceOnUse">
      <feFlood flood-color="#fff" result="bg"/>
      <feBlend in="SourceGraphic" in2="bg"/>
    </filter>
    <filter id="luminosity-noclip-4" x="1070.76" y="-9212.1" width="644.15" height="32766" color-interpolation-filters="sRGB" filterUnits="userSpaceOnUse">
      <feFlood flood-color="#fff" result="bg"/>
      <feBlend in="SourceGraphic" in2="bg"/>
    </filter>
    <mask id="mask-3" x="1070.76" y="-9212.1" width="644.15" height="32766" maskUnits="userSpaceOnUse"/>
    <linearGradient id="linear-gradient-25" x1="1635.23" y1="1335.23" x2="1635.23" y2="458.11" gradientTransform="translate(3028.06) rotate(-180) scale(1 -1)" xlink:href="#linear-gradient-23"/>
    <mask id="mask-2" x="1070.76" y="458.11" width="644.15" height="877.12" maskUnits="userSpaceOnUse">
      <g class="cls-132">
        <g class="cls-125">
          <polygon class="cls-17" points="1714.9 458.11 1714.9 964.97 1070.76 1335.23 1070.76 828.62 1714.9 458.11"/>
        </g>
      </g>
    </mask>
    <linearGradient id="linear-gradient-26" x1="1635.23" y1="1335.23" x2="1635.23" y2="458.11" gradientTransform="translate(3028.06) rotate(-180) scale(1 -1)" xlink:href="#linear-gradient-24"/>
  </defs>
  <g id="Layer_4" data-name="Layer 4">
    <g>
      <g class="cls-127">
        <ellipse class="cls-80" cx="992.58" cy="1745.28" rx="790.87" ry="309.68" transform="translate(-10.43 5.97) rotate(-.34)"/>
        <ellipse class="cls-23" cx="993.99" cy="1742.01" rx="778.41" ry="304.8" transform="translate(-10.41 5.98) rotate(-.34)"/>
        <ellipse class="cls-75" cx="995.4" cy="1738.75" rx="765.94" ry="299.92" transform="translate(-10.39 5.99) rotate(-.34)"/>
        <ellipse class="cls-48" cx="996.82" cy="1735.48" rx="753.47" ry="295.04" transform="translate(-10.37 6) rotate(-.34)"/>
        <ellipse class="cls-42" cx="998.23" cy="1732.22" rx="741" ry="290.16" transform="translate(-10.35 6.01) rotate(-.34)"/>
        <ellipse class="cls-67" cx="999.65" cy="1728.95" rx="728.54" ry="285.28" transform="translate(-10.33 6.02) rotate(-.34)"/>
        <ellipse class="cls-123" cx="1001.06" cy="1725.69" rx="716.07" ry="280.39" transform="translate(-10.31 6.02) rotate(-.34)"/>
        <ellipse class="cls-38" cx="1002.47" cy="1722.42" rx="703.6" ry="275.51" transform="translate(-10.29 6.03) rotate(-.34)"/>
        <ellipse class="cls-2" cx="1003.89" cy="1719.16" rx="691.13" ry="270.63" transform="translate(-10.27 6.04) rotate(-.34)"/>
        <ellipse class="cls-82" cx="1005.3" cy="1715.89" rx="678.67" ry="265.75" transform="translate(-10.25 6.05) rotate(-.34)"/>
        <ellipse class="cls-47" cx="1006.71" cy="1712.63" rx="666.2" ry="260.87" transform="translate(-10.24 6.06) rotate(-.34)"/>
        <ellipse class="cls-90" cx="1008.13" cy="1709.36" rx="653.73" ry="255.98" transform="translate(-10.22 6.07) rotate(-.34)"/>
        <ellipse class="cls-56" cx="1009.54" cy="1706.1" rx="641.27" ry="251.1" transform="translate(-10.2 6.07) rotate(-.34)"/>
        <ellipse class="cls-104" cx="1010.96" cy="1702.83" rx="628.8" ry="246.22" transform="translate(-10.18 6.08) rotate(-.34)"/>
        <ellipse class="cls-91" cx="1012.37" cy="1699.57" rx="616.33" ry="241.34" transform="translate(-10.16 6.09) rotate(-.34)"/>
        <ellipse class="cls-22" cx="1013.78" cy="1696.3" rx="603.86" ry="236.46" transform="translate(-10.14 6.1) rotate(-.34)"/>
        <ellipse class="cls-70" cx="1015.2" cy="1693.04" rx="591.4" ry="231.57" transform="translate(-10.12 6.11) rotate(-.34)"/>
        <ellipse class="cls-96" cx="1016.61" cy="1689.77" rx="578.93" ry="226.69" transform="translate(-10.1 6.12) rotate(-.34)"/>
        <ellipse class="cls-40" cx="1018.02" cy="1686.51" rx="566.46" ry="221.81" transform="translate(-10.08 6.13) rotate(-.34)"/>
        <ellipse class="cls-32" cx="1019.44" cy="1683.24" rx="553.99" ry="216.93" transform="translate(-10.06 6.13) rotate(-.34)"/>
        <ellipse class="cls-101" cx="1020.85" cy="1679.98" rx="541.53" ry="212.05" transform="translate(-10.04 6.14) rotate(-.34)"/>
        <ellipse class="cls-54" cx="1022.27" cy="1676.71" rx="529.06" ry="207.16" transform="translate(-10.02 6.15) rotate(-.34)"/>
        <ellipse class="cls-110" cx="1023.68" cy="1673.45" rx="516.59" ry="202.28" transform="translate(-10 6.16) rotate(-.34)"/>
        <ellipse class="cls-21" cx="1025.09" cy="1670.18" rx="504.12" ry="197.4" transform="translate(-9.98 6.17) rotate(-.34)"/>
        <ellipse class="cls-55" cx="1026.51" cy="1666.92" rx="491.66" ry="192.52" transform="translate(-9.96 6.18) rotate(-.34)"/>
        <ellipse class="cls-97" cx="1027.92" cy="1663.65" rx="479.19" ry="187.64" transform="translate(-9.94 6.18) rotate(-.34)"/>
        <ellipse class="cls-39" cx="1029.33" cy="1660.39" rx="466.72" ry="182.76" transform="translate(-9.92 6.19) rotate(-.34)"/>
        <ellipse class="cls-94" cx="1030.75" cy="1657.12" rx="454.25" ry="177.87" transform="translate(-9.9 6.2) rotate(-.34)"/>
        <ellipse class="cls-8" cx="1032.16" cy="1653.86" rx="441.79" ry="172.99" transform="translate(-9.88 6.21) rotate(-.34)"/>
        <ellipse class="cls-33" cx="1033.58" cy="1650.59" rx="429.32" ry="168.11" transform="translate(-9.86 6.22) rotate(-.34)"/>
        <ellipse class="cls-52" cx="1034.99" cy="1647.33" rx="416.85" ry="163.23" transform="translate(-9.84 6.23) rotate(-.34)"/>
        <ellipse class="cls-13" cx="1036.4" cy="1644.06" rx="404.38" ry="158.35" transform="translate(-9.82 6.23) rotate(-.34)"/>
        <ellipse class="cls-36" cx="1037.82" cy="1640.8" rx="391.92" ry="153.46" transform="translate(-9.8 6.24) rotate(-.34)"/>
        <ellipse class="cls-18" cx="1039.23" cy="1637.53" rx="379.45" ry="148.58" transform="translate(-9.79 6.25) rotate(-.34)"/>
        <ellipse class="cls-24" cx="1040.64" cy="1634.27" rx="366.98" ry="143.7" transform="translate(-9.77 6.26) rotate(-.34)"/>
        <ellipse class="cls-28" cx="1042.06" cy="1631" rx="354.51" ry="138.82" transform="translate(-9.75 6.27) rotate(-.34)"/>
        <ellipse class="cls-45" cx="1043.47" cy="1627.74" rx="342.05" ry="133.94" transform="translate(-9.73 6.28) rotate(-.34)"/>
        <ellipse class="cls-89" cx="1044.89" cy="1624.47" rx="329.58" ry="129.05" transform="translate(-9.71 6.28) rotate(-.34)"/>
        <ellipse class="cls-121" cx="1046.3" cy="1621.2" rx="317.11" ry="124.17" transform="translate(-9.69 6.29) rotate(-.34)"/>
        <ellipse class="cls-12" cx="1047.71" cy="1617.94" rx="304.64" ry="119.29" transform="translate(-9.67 6.3) rotate(-.34)"/>
        <ellipse class="cls-43" cx="1049.13" cy="1614.67" rx="292.18" ry="114.41" transform="translate(-9.65 6.31) rotate(-.34)"/>
        <ellipse class="cls-122" cx="1050.54" cy="1611.41" rx="279.71" ry="109.53" transform="translate(-9.63 6.32) rotate(-.34)"/>
        <ellipse class="cls-35" cx="1051.95" cy="1608.14" rx="267.24" ry="104.64" transform="translate(-9.61 6.33) rotate(-.34)"/>
        <ellipse class="cls-64" cx="1053.37" cy="1604.88" rx="254.77" ry="99.76" transform="translate(-9.59 6.34) rotate(-.34)"/>
        <ellipse class="cls-83" cx="1054.78" cy="1601.61" rx="242.31" ry="94.88" transform="translate(-9.57 6.34) rotate(-.34)"/>
        <ellipse class="cls-59" cx="1056.2" cy="1598.35" rx="229.84" ry="90" transform="translate(-9.55 6.35) rotate(-.34)"/>
        <ellipse class="cls-99" cx="1057.61" cy="1595.08" rx="217.37" ry="85.12" transform="translate(-9.53 6.36) rotate(-.34)"/>
        <ellipse class="cls-26" cx="1059.02" cy="1591.82" rx="204.9" ry="80.24" transform="translate(-9.51 6.37) rotate(-.34)"/>
        <ellipse class="cls-25" cx="1060.44" cy="1588.55" rx="192.44" ry="75.35" transform="translate(-9.49 6.38) rotate(-.34)"/>
        <ellipse class="cls-105" cx="1061.85" cy="1585.29" rx="179.97" ry="70.47" transform="translate(-9.47 6.39) rotate(-.34)"/>
        <ellipse class="cls-118" cx="1063.26" cy="1582.02" rx="167.5" ry="65.59" transform="translate(-9.45 6.39) rotate(-.34)"/>
        <ellipse class="cls-9" cx="1064.68" cy="1578.76" rx="155.03" ry="60.71" transform="translate(-9.43 6.4) rotate(-.34)"/>
      </g>
      <g>
        <g>
          <path class="cls-81" d="M1020.03,1860.26v113.78h.48c1.68,0,3.37,0,5.05-.24,1.92,0,3.61-.24,5.29-.48,1.68-.24,3.61-.72,5.29-.96.48,0,.96-.24,1.68-.48h.72c.96-.24,2.16-.48,3.13-.96,2.16-.48,4.33-1.2,6.49-2.17,2.65-.96,5.05-2.16,7.45-3.61l1053.41-606.03c10.34-6.01,15.63-13.95,15.63-21.64v-114.02c0,7.93-5.29,15.87-15.63,21.64l-1053.41,606.27c-5.05,2.89-10.82,5.05-17.07,6.49-.24,0-.48,0-.72.24-5.77,1.44-11.78,2.17-17.8,2.17Z"/>
          <path class="cls-81" d="M.08,1266.04v114.5c0,.96,0,1.92.24,2.89.24.72.48,1.44.48,2.17.24,0,.24.24.24.48s0,.24.24.48c.24.96.72,1.92,1.44,2.89.24.72.48.96.96,1.44,0,.48.24.72.48.96.24.24.48.48.48.96.96,1.2,2.16,2.4,3.37,3.37q.24.24.48.24c.96.96,2.4,1.92,3.61,2.89.96.48,1.68,1.2,2.65,1.92.24,0,.48.24.72.48l965.12,563.43c3.61,2.16,7.45,3.85,11.54,5.05,1.68.48,3.13.72,4.81,1.2.72.24,1.68.48,2.4.72.96.24,1.92.48,2.89.72,2.4.24,4.57.72,6.73.96,2.16,0,4.09.24,6.01.24h5.05v-113.78h-2.16c-6.25,0-12.51-.96-18.52-2.16-.72-.24-1.68-.48-2.4-.72-6.01-1.44-11.54-3.37-16.35-6.25L15.47,1287.69c-1.44-.72-2.4-1.68-3.37-2.4-1.2-.96-2.65-1.68-3.61-2.65-1.68-1.44-3.13-3.13-4.33-4.81-.24-.24-.48-.48-.48-.72-1.2-1.68-1.92-3.37-2.64-5.05q0-.24-.24-.48c-.48-1.92-.72-3.61-.72-5.53Z"/>
          <path class="cls-11" d="M1020.03,1859.28v113.78h.48c1.68,0,3.37,0,5.05-.24,1.92,0,3.61-.24,5.29-.48,1.68-.24,3.61-.72,5.29-.96.48,0,.96-.24,1.68-.48h.72c.96-.24,2.16-.48,3.13-.96,2.16-.48,4.33-1.2,6.49-2.17,2.65-.96,5.05-2.16,7.45-3.61l1053.41-606.03c10.34-6.01,15.63-13.95,15.63-21.64v-114.02c0,7.93-5.29,15.87-15.63,21.64l-1053.41,606.27c-5.05,2.89-10.82,5.05-17.07,6.49-.24,0-.48,0-.72.24-5.77,1.44-11.78,2.17-17.8,2.17Z"/>
          <path class="cls-69" d="M15.62,1243.23c-20.73,11.97-20.84,31.47-.24,43.44l965.31,563.59c20.59,11.97,54.26,11.97,74.99,0l1053.35-606.03c20.73-11.97,20.68-31.38.09-43.35l-965.31-563.59c-20.59-11.97-54.11-12.06-74.84-.09L15.62,1243.23Z"/>
          <path class="cls-77" d="M.08,1265.06v114.5c0,.96,0,1.92.24,2.89.24.72.48,1.44.48,2.16.24,0,.24.24.24.48s0,.24.24.48c.24.96.72,1.92,1.44,2.89.24.72.48.96.96,1.44,0,.48.24.72.48.96.24.24.48.48.48.96.96,1.2,2.16,2.4,3.37,3.37q.24.24.48.24c.96.96,2.4,1.92,3.61,2.89.96.48,1.68,1.2,2.65,1.92.24,0,.48.24.72.48l965.12,563.43c3.61,2.16,7.45,3.85,11.54,5.05,1.68.48,3.13.72,4.81,1.2.72.24,1.68.48,2.4.72.96.24,1.92.48,2.89.72,2.4.24,4.57.72,6.73.96,2.16,0,4.09.24,6.01.24h5.05v-113.78h-2.16c-6.25,0-12.51-.96-18.52-2.17-.72-.24-1.68-.48-2.4-.72-6.01-1.44-11.54-3.37-16.35-6.25L15.47,1286.7c-1.44-.72-2.4-1.68-3.37-2.4-1.2-.96-2.65-1.68-3.61-2.65-1.68-1.44-3.13-3.13-4.33-4.81-.24-.24-.48-.48-.48-.72-1.2-1.68-1.92-3.37-2.64-5.05q0-.24-.24-.48c-.48-1.92-.72-3.61-.72-5.53Z"/>
          <path class="cls-115" d="M15.37,1285.14l965.31,563.59c20.59,11.97,54.26,11.97,74.99,0l1053.35-606.03c10.03-5.79,15.09-13.33,15.42-20.92.34,8.1-4.71,16.26-15.42,22.44l-1053.35,606.03c-20.73,11.97-54.4,11.97-74.99,0L15.37,1286.67c-10.62-6.17-15.63-14.34-15.25-22.45.29,7.6,5.3,15.15,15.25,20.93Z"/>
          <path class="cls-63" d="M2109.03,1241.61l-1053.35,606.03c-20.73,11.97-54.4,11.97-74.99,0L15.37,1284.05c-9.65-5.61-14.75-12.87-15.32-20.24-.57,8.24,4.53,16.58,15.32,22.85l965.31,563.59c20.59,11.97,54.26,11.97,74.99,0l1053.35-606.03c10.95-6.32,16.1-14.72,15.49-23.01-.54,7.41-5.69,14.73-15.49,20.39Z"/>
        </g>
        <g>
          <polygon class="cls-37" points="1060.89 1428.99 1054.3 1773.29 130.52 1215.95 265.15 949.16 1060.89 1428.99"/>
          <polygon class="cls-15" points="1861.09 974.39 1060.89 1429 265.15 949.16 1065.6 494.56 1861.09 974.39"/>
          <polygon class="cls-76" points="1861.09 974.39 1994.13 1239.41 1054.3 1773.29 1060.89 1428.99 1861.09 974.39"/>
          <polygon class="cls-98" points="1060.89 1425.06 268.51 947.25 265.15 949.16 1060.89 1429 1861.09 974.39 1857.73 972.36 1060.89 1425.06"/>
        </g>
        <polygon class="cls-87" points="1714.9 957.22 1439.33 1115.61 1070.57 1327.48 409.74 933.48 1054.33 563.22 1714.9 957.22"/>
        <g>
          <polygon class="cls-112" points="1756.15 1160.49 1756.15 1290.26 1280.53 1558.67 1280.53 1518.46 1723.05 1268.68 1723.05 1179.12 1756.15 1160.49"/>
          <polygon class="cls-44" points="1723.05 1179.12 1723.05 1268.68 1280.53 1518.46 1280.53 1428.9 1723.05 1179.12"/>
          <g>
            <polygon class="cls-27" points="1672.59 1271.75 1684.84 1265.54 1684.84 1222.67 1672.59 1229.8 1672.59 1271.75"/>
            <polygon class="cls-111" points="1653.87 1282.33 1666.11 1276.12 1666.11 1233.25 1653.87 1240.39 1653.87 1282.33"/>
            <polygon class="cls-85" points="1635.14 1292.91 1647.39 1286.7 1647.39 1243.83 1635.14 1250.97 1635.14 1292.91"/>
            <polygon class="cls-20" points="1616.42 1303.49 1628.67 1297.28 1628.67 1254.42 1616.42 1261.55 1616.42 1303.49"/>
            <polygon class="cls-53" points="1597.69 1314.08 1609.94 1307.87 1609.94 1265 1597.69 1272.13 1597.69 1314.08"/>
            <polygon class="cls-62" points="1578.97 1324.66 1591.22 1318.45 1591.22 1275.58 1578.97 1282.72 1578.97 1324.66"/>
            <polygon class="cls-6" points="1560.24 1335.24 1572.49 1329.03 1572.49 1286.17 1560.24 1293.3 1560.24 1335.24"/>
            <polygon class="cls-57" points="1541.52 1345.82 1553.77 1339.62 1553.77 1296.75 1541.52 1303.88 1541.52 1345.82"/>
            <polygon class="cls-72" points="1522.79 1356.41 1535.04 1350.2 1535.04 1307.33 1522.79 1314.46 1522.79 1356.41"/>
            <polygon class="cls-79" points="1504.07 1366.99 1516.32 1360.78 1516.32 1317.91 1504.07 1325.05 1504.07 1366.99"/>
            <polygon class="cls-88" points="1485.34 1377.57 1497.59 1371.36 1497.59 1328.5 1485.35 1335.63 1485.34 1377.57"/>
            <polygon class="cls-51" points="1466.62 1388.15 1478.87 1381.95 1478.87 1339.08 1466.62 1346.21 1466.62 1388.15"/>
            <polygon class="cls-86" points="1447.9 1398.74 1460.14 1392.53 1460.14 1349.66 1447.9 1356.79 1447.9 1398.74"/>
            <polygon class="cls-41" points="1429.17 1409.32 1441.42 1403.11 1441.42 1360.24 1429.17 1367.38 1429.17 1409.32"/>
            <polygon class="cls-102" points="1410.45 1419.9 1422.69 1413.69 1422.69 1370.83 1410.45 1377.96 1410.45 1419.9"/>
            <polygon class="cls-93" points="1391.72 1430.48 1403.97 1424.28 1403.97 1381.41 1391.72 1388.54 1391.72 1430.48"/>
            <polygon class="cls-114" points="1373 1441.07 1385.25 1434.86 1385.25 1391.99 1373 1399.12 1373 1441.07"/>
            <polygon class="cls-113" points="1354.27 1451.65 1366.52 1445.44 1366.52 1402.57 1354.27 1409.71 1354.27 1451.65"/>
            <polygon class="cls-107" points="1335.55 1462.23 1347.8 1456.02 1347.8 1413.16 1335.55 1420.29 1335.55 1462.23"/>
          </g>
          <polygon class="cls-1" points="1723.05 1268.68 1756.15 1290.26 1756.15 1160.49 1723.05 1179.12 1723.05 1268.68"/>
        </g>
        <g>
          <polygon class="cls-31" points="372.85 1143.36 372.85 1273.13 848.47 1558.67 848.47 1518.46 405.95 1252.74 405.95 1163.18 372.85 1143.36"/>
          <polygon class="cls-44" points="405.95 1163.18 405.95 1252.74 848.47 1518.46 848.47 1428.9 405.95 1163.18"/>
          <g>
            <polygon class="cls-78" points="456.41 1257.63 444.16 1250.98 444.16 1208.11 456.41 1215.68 456.41 1257.63"/>
            <polygon class="cls-109" points="475.13 1268.88 462.89 1262.23 462.89 1219.37 475.13 1226.94 475.13 1268.88"/>
            <polygon class="cls-16" points="493.86 1280.14 481.61 1273.49 481.61 1230.62 493.86 1238.2 493.86 1280.14"/>
            <polygon class="cls-106" points="512.58 1291.4 500.34 1284.75 500.34 1241.88 512.58 1249.45 512.58 1291.4"/>
            <polygon class="cls-92" points="531.31 1302.65 519.06 1296 519.06 1253.14 531.31 1260.71 531.31 1302.65"/>
            <polygon class="cls-84" points="550.03 1313.91 537.78 1307.26 537.78 1264.39 550.03 1271.97 550.03 1313.91"/>
            <polygon class="cls-34" points="568.76 1325.17 556.51 1318.52 556.51 1275.65 568.76 1283.23 568.76 1325.17"/>
            <polygon class="cls-103" points="587.48 1336.42 575.23 1329.78 575.23 1286.91 587.48 1294.48 587.48 1336.42"/>
            <polygon class="cls-116" points="606.21 1347.68 593.96 1341.03 593.96 1298.16 606.21 1305.74 606.21 1347.68"/>
            <polygon class="cls-71" points="624.93 1358.94 612.68 1352.29 612.68 1309.42 624.93 1317 624.93 1358.94"/>
            <polygon class="cls-108" points="643.66 1370.2 631.41 1363.55 631.41 1320.68 643.66 1328.25 643.66 1370.2"/>
            <polygon class="cls-50" points="662.38 1381.45 650.13 1374.8 650.13 1331.94 662.38 1339.51 662.38 1381.45"/>
            <polygon class="cls-19" points="681.1 1392.71 668.86 1386.06 668.86 1343.19 681.1 1350.77 681.1 1392.71"/>
            <polygon class="cls-65" points="699.83 1403.97 687.58 1397.32 687.58 1354.45 699.83 1362.02 699.83 1403.97"/>
            <polygon class="cls-117" points="718.55 1415.22 706.31 1408.57 706.31 1365.71 718.55 1373.28 718.55 1415.22"/>
            <polygon class="cls-46" points="737.28 1426.48 725.03 1419.83 725.03 1376.96 737.28 1384.54 737.28 1426.48"/>
            <polygon class="cls-114" points="756 1437.74 743.76 1431.09 743.76 1388.22 756 1395.79 756 1437.74"/>
            <polygon class="cls-113" points="774.73 1448.99 762.48 1442.34 762.48 1399.48 774.73 1407.05 774.73 1448.99"/>
            <polygon class="cls-107" points="793.45 1460.25 781.2 1453.6 781.2 1410.73 793.45 1418.31 793.45 1460.25"/>
          </g>
          <polygon class="cls-1" points="405.95 1252.74 372.85 1273.13 372.85 1143.36 405.95 1163.18 405.95 1252.74"/>
        </g>
        <g>
          <g>
            <g>
              <g>
                <polygon class="cls-120" points="1119.21 658.35 1137.6 669.14 1079.66 701.98 1061.28 691.19 1119.21 658.35"/>
                <polygon class="cls-119" points="1057.43 699.97 1075.81 710.76 1075.5 636.79 1057.12 626 1057.43 699.97"/>
                <polygon class="cls-120" points="1025.91 637.68 1044.3 648.47 1080.47 628.02 1062.08 617.22 1025.91 637.68"/>
                <polygon class="cls-119" points="1025.94 643.87 1044.32 654.67 1044.3 648.47 1025.91 637.68 1025.94 643.87"/>
                <polygon class="cls-61" points="1044.32 654.67 1075.5 636.99 1075.81 710.76 1137.63 676.03 1137.6 669.14 1080.77 701.35 1080.47 628.02 1044.3 648.47 1044.32 654.67"/>
              </g>
              <g>
                <polygon class="cls-120" points="1149.35 675.57 1167.73 686.36 1109.8 719.2 1091.41 708.41 1149.35 675.57"/>
                <polygon class="cls-119" points="1087.56 717.19 1105.94 727.98 1105.63 654.01 1087.25 643.21 1087.56 717.19"/>
                <polygon class="cls-120" points="1056.04 654.9 1074.43 665.69 1110.6 645.24 1092.22 634.44 1056.04 654.9"/>
                <polygon class="cls-119" points="1056.07 661.09 1074.45 671.88 1074.43 665.69 1056.04 654.9 1056.07 661.09"/>
                <polygon class="cls-61" points="1074.45 671.88 1105.63 654.2 1105.94 727.98 1167.76 693.25 1167.73 686.36 1110.9 718.57 1110.6 645.24 1074.43 665.69 1074.45 671.88"/>
              </g>
              <g>
                <polygon class="cls-120" points="1179.48 692.78 1197.86 703.58 1139.93 736.42 1121.54 725.62 1179.48 692.78"/>
                <polygon class="cls-119" points="1117.69 734.4 1136.07 745.2 1135.76 671.23 1117.38 660.43 1117.69 734.4"/>
                <polygon class="cls-120" points="1086.18 672.12 1104.56 682.91 1140.73 662.46 1122.35 651.66 1086.18 672.12"/>
                <polygon class="cls-119" points="1086.2 678.31 1104.58 689.1 1104.56 682.91 1086.18 672.12 1086.2 678.31"/>
                <polygon class="cls-61" points="1104.58 689.1 1135.76 671.42 1136.07 745.2 1197.89 710.47 1197.86 703.58 1141.04 735.79 1140.73 662.46 1104.56 682.91 1104.58 689.1"/>
              </g>
              <g>
                <polygon class="cls-120" points="1209.61 710 1227.99 720.8 1170.06 753.64 1151.68 742.84 1209.61 710"/>
                <polygon class="cls-119" points="1147.82 751.62 1166.2 762.42 1165.89 688.45 1147.51 677.65 1147.82 751.62"/>
                <polygon class="cls-120" points="1116.31 689.33 1134.69 700.13 1170.86 679.67 1152.48 668.88 1116.31 689.33"/>
                <polygon class="cls-119" points="1116.33 695.53 1134.72 706.32 1134.69 700.13 1116.31 689.33 1116.33 695.53"/>
                <polygon class="cls-61" points="1134.72 706.32 1165.9 688.64 1166.2 762.42 1228.02 727.68 1227.99 720.8 1171.17 753.01 1170.86 679.67 1134.69 700.13 1134.72 706.32"/>
              </g>
              <g>
                <polygon class="cls-120" points="1239.74 727.22 1258.12 738.02 1200.19 770.85 1181.81 760.06 1239.74 727.22"/>
                <polygon class="cls-119" points="1177.95 768.84 1196.34 779.64 1196.03 705.66 1177.64 694.87 1177.95 768.84"/>
                <polygon class="cls-120" points="1146.44 706.55 1164.82 717.35 1200.99 696.89 1182.61 686.1 1146.44 706.55"/>
                <polygon class="cls-119" points="1146.46 712.74 1164.85 723.54 1164.82 717.35 1146.44 706.55 1146.46 712.74"/>
                <polygon class="cls-61" points="1164.85 723.54 1196.03 705.86 1196.34 779.64 1258.15 744.9 1258.12 738.02 1201.3 770.23 1200.99 696.89 1164.82 717.35 1164.85 723.54"/>
              </g>
              <g>
                <polygon class="cls-120" points="1269.87 744.44 1288.26 755.23 1230.32 788.07 1211.94 777.28 1269.87 744.44"/>
                <polygon class="cls-119" points="1208.08 786.06 1226.47 796.85 1226.16 722.88 1207.78 712.09 1208.08 786.06"/>
                <polygon class="cls-120" points="1176.57 723.77 1194.95 734.57 1231.12 714.11 1212.74 703.32 1176.57 723.77"/>
                <polygon class="cls-119" points="1176.6 729.96 1194.98 740.76 1194.95 734.57 1176.57 723.77 1176.6 729.96"/>
                <polygon class="cls-61" points="1194.98 740.76 1226.16 723.08 1226.47 796.85 1288.28 762.12 1288.26 755.23 1231.43 787.44 1231.12 714.11 1194.95 734.57 1194.98 740.76"/>
              </g>
              <g>
                <polygon class="cls-120" points="1300 761.66 1318.39 772.45 1260.45 805.29 1242.07 794.5 1300 761.66"/>
                <polygon class="cls-119" points="1238.22 803.28 1256.6 814.07 1256.29 740.1 1237.91 729.31 1238.22 803.28"/>
                <polygon class="cls-120" points="1206.7 740.99 1225.09 751.78 1261.26 731.33 1242.87 720.53 1206.7 740.99"/>
                <polygon class="cls-119" points="1206.73 747.18 1225.11 757.98 1225.09 751.78 1206.7 740.99 1206.73 747.18"/>
                <polygon class="cls-61" points="1225.11 757.98 1256.29 740.3 1256.6 814.07 1318.42 779.34 1318.39 772.45 1261.56 804.66 1261.26 731.33 1225.09 751.78 1225.11 757.98"/>
              </g>
              <g>
                <polygon class="cls-120" points="1330.14 778.88 1348.52 789.67 1290.58 822.51 1272.2 811.72 1330.14 778.88"/>
                <polygon class="cls-119" points="1268.35 820.5 1286.73 831.29 1286.42 757.32 1268.04 746.52 1268.35 820.5"/>
                <polygon class="cls-120" points="1236.83 758.21 1255.22 769 1291.39 748.55 1273.01 737.75 1236.83 758.21"/>
                <polygon class="cls-119" points="1236.86 764.4 1255.24 775.19 1255.22 769 1236.83 758.21 1236.86 764.4"/>
                <polygon class="cls-61" points="1255.24 775.19 1286.42 757.51 1286.73 831.29 1348.55 796.56 1348.52 789.67 1291.69 821.88 1291.39 748.55 1255.22 769 1255.24 775.19"/>
              </g>
              <g>
                <polygon class="cls-120" points="1360.27 796.09 1378.65 806.89 1320.72 839.73 1302.33 828.93 1360.27 796.09"/>
                <polygon class="cls-119" points="1298.48 837.71 1316.86 848.51 1316.55 774.54 1298.17 763.74 1298.48 837.71"/>
                <polygon class="cls-120" points="1266.97 775.43 1285.35 786.22 1321.52 765.77 1303.14 754.97 1266.97 775.43"/>
                <polygon class="cls-119" points="1266.99 781.62 1285.37 792.41 1285.35 786.22 1266.97 775.43 1266.99 781.62"/>
                <polygon class="cls-61" points="1285.37 792.41 1316.55 774.73 1316.86 848.51 1378.68 813.78 1378.65 806.89 1321.83 839.1 1321.52 765.77 1285.35 786.22 1285.37 792.41"/>
              </g>
              <g>
                <polygon class="cls-120" points="1390.4 813.31 1408.78 824.11 1350.85 856.95 1332.47 846.15 1390.4 813.31"/>
                <polygon class="cls-119" points="1328.61 854.93 1346.99 865.73 1346.68 791.75 1328.3 780.96 1328.61 854.93"/>
                <polygon class="cls-120" points="1297.1 792.64 1315.48 803.44 1351.65 782.98 1333.27 772.19 1297.1 792.64"/>
                <polygon class="cls-119" points="1297.12 798.84 1315.51 809.63 1315.48 803.44 1297.1 792.64 1297.12 798.84"/>
                <polygon class="cls-61" points="1315.51 809.63 1346.69 791.95 1346.99 865.73 1408.81 830.99 1408.78 824.11 1351.96 856.32 1351.65 782.98 1315.48 803.44 1315.51 809.63"/>
              </g>
              <g>
                <polygon class="cls-120" points="1420.53 830.53 1438.91 841.32 1380.98 874.16 1362.6 863.37 1420.53 830.53"/>
                <polygon class="cls-119" points="1358.74 872.15 1377.13 882.94 1376.82 808.97 1358.43 798.18 1358.74 872.15"/>
                <polygon class="cls-120" points="1327.23 809.86 1345.61 820.66 1381.78 800.2 1363.4 789.41 1327.23 809.86"/>
                <polygon class="cls-119" points="1327.25 816.05 1345.64 826.85 1345.61 820.66 1327.23 809.86 1327.25 816.05"/>
                <polygon class="cls-61" points="1345.64 826.85 1376.82 809.17 1377.13 882.94 1438.94 848.21 1438.91 841.32 1382.09 873.54 1381.78 800.2 1345.61 820.66 1345.64 826.85"/>
              </g>
              <g>
                <polygon class="cls-120" points="1450.66 847.75 1469.05 858.54 1411.11 891.38 1392.73 880.59 1450.66 847.75"/>
                <polygon class="cls-119" points="1388.87 889.37 1407.26 900.16 1406.95 826.19 1388.56 815.4 1388.87 889.37"/>
                <polygon class="cls-120" points="1357.36 827.08 1375.74 837.87 1411.91 817.42 1393.53 806.63 1357.36 827.08"/>
                <polygon class="cls-119" points="1357.39 833.27 1375.77 844.07 1375.74 837.87 1357.36 827.08 1357.39 833.27"/>
                <polygon class="cls-61" points="1375.77 844.07 1406.95 826.39 1407.26 900.16 1469.07 865.43 1469.05 858.54 1412.22 890.75 1411.91 817.42 1375.74 837.87 1375.77 844.07"/>
              </g>
              <g>
                <polygon class="cls-120" points="1480.79 864.97 1499.18 875.76 1441.24 908.6 1422.86 897.81 1480.79 864.97"/>
                <polygon class="cls-119" points="1419.01 906.59 1437.39 917.38 1437.08 843.41 1418.7 832.61 1419.01 906.59"/>
                <polygon class="cls-120" points="1387.49 844.3 1405.87 855.09 1442.05 834.64 1423.66 823.84 1387.49 844.3"/>
                <polygon class="cls-119" points="1387.52 850.49 1405.9 861.29 1405.87 855.09 1387.49 844.3 1387.52 850.49"/>
                <polygon class="cls-61" points="1405.9 861.29 1437.08 843.6 1437.39 917.38 1499.21 882.65 1499.18 875.76 1442.35 907.97 1442.05 834.64 1405.87 855.09 1405.9 861.29"/>
              </g>
            </g>
            <g>
              <g>
                <polygon class="cls-120" points="844.45 653.1 826.07 663.89 884 696.73 902.38 685.94 844.45 653.1"/>
                <polygon class="cls-119" points="906.24 694.72 887.86 705.51 888.17 631.54 906.55 620.75 906.24 694.72"/>
                <polygon class="cls-120" points="937.75 632.43 919.37 643.22 883.2 622.77 901.58 611.97 937.75 632.43"/>
                <polygon class="cls-119" points="937.73 638.62 919.34 649.42 919.37 643.22 937.75 632.43 937.73 638.62"/>
                <polygon class="cls-61" points="919.34 649.42 888.16 631.74 887.86 705.51 826.04 670.78 826.07 663.89 882.89 696.1 883.2 622.77 919.37 643.22 919.34 649.42"/>
              </g>
              <g>
                <polygon class="cls-120" points="814.32 670.46 795.94 681.25 853.87 714.09 872.25 703.3 814.32 670.46"/>
                <polygon class="cls-119" points="876.11 712.08 857.72 722.87 858.03 648.9 876.42 638.11 876.11 712.08"/>
                <polygon class="cls-120" points="907.62 649.79 889.24 660.59 853.07 640.13 871.45 629.34 907.62 649.79"/>
                <polygon class="cls-119" points="907.6 655.98 889.21 666.78 889.24 660.59 907.62 649.79 907.6 655.98"/>
                <polygon class="cls-61" points="889.21 666.78 858.03 649.1 857.72 722.87 795.91 688.14 795.94 681.25 852.76 713.47 853.07 640.13 889.24 660.59 889.21 666.78"/>
              </g>
              <g>
                <polygon class="cls-120" points="784.19 687.82 765.8 698.62 823.74 731.46 842.12 720.66 784.19 687.82"/>
                <polygon class="cls-119" points="845.98 729.44 827.59 740.24 827.9 666.26 846.29 655.47 845.98 729.44"/>
                <polygon class="cls-120" points="877.49 667.15 859.11 677.95 822.94 657.49 841.32 646.7 877.49 667.15"/>
                <polygon class="cls-119" points="877.46 673.35 859.08 684.14 859.11 677.95 877.49 667.15 877.46 673.35"/>
                <polygon class="cls-61" points="859.08 684.14 827.9 666.46 827.59 740.24 765.78 705.5 765.8 698.62 822.63 730.83 822.94 657.49 859.11 677.95 859.08 684.14"/>
              </g>
              <g>
                <polygon class="cls-120" points="754.06 705.18 735.67 715.98 793.61 748.82 811.99 738.02 754.06 705.18"/>
                <polygon class="cls-119" points="815.84 746.8 797.46 757.6 797.77 683.63 816.15 672.83 815.84 746.8"/>
                <polygon class="cls-120" points="847.36 684.52 828.98 695.31 792.8 674.86 811.19 664.06 847.36 684.52"/>
                <polygon class="cls-119" points="847.33 690.71 828.95 701.5 828.98 695.31 847.36 684.52 847.33 690.71"/>
                <polygon class="cls-61" points="828.95 701.5 797.77 683.82 797.46 757.6 735.64 722.87 735.67 715.98 792.5 748.19 792.8 674.86 828.98 695.31 828.95 701.5"/>
              </g>
              <g>
                <polygon class="cls-120" points="723.92 722.55 705.54 733.34 763.48 766.18 781.86 755.39 723.92 722.55"/>
                <polygon class="cls-119" points="785.71 764.17 767.33 774.96 767.64 700.99 786.02 690.2 785.71 764.17"/>
                <polygon class="cls-120" points="817.23 701.88 798.84 712.67 762.67 692.22 781.06 681.42 817.23 701.88"/>
                <polygon class="cls-119" points="817.2 708.07 798.82 718.87 798.84 712.67 817.23 701.88 817.2 708.07"/>
                <polygon class="cls-61" points="798.82 718.87 767.64 701.18 767.33 774.96 705.51 740.23 705.54 733.34 762.37 765.55 762.67 692.22 798.84 712.67 798.82 718.87"/>
              </g>
              <g>
                <polygon class="cls-120" points="693.79 739.91 675.41 750.7 733.34 783.54 751.73 772.75 693.79 739.91"/>
                <polygon class="cls-119" points="755.58 781.53 737.2 792.32 737.51 718.35 755.89 707.56 755.58 781.53"/>
                <polygon class="cls-120" points="787.09 719.24 768.71 730.04 732.54 709.58 750.92 698.79 787.09 719.24"/>
                <polygon class="cls-119" points="787.07 725.43 768.69 736.23 768.71 730.04 787.09 719.24 787.07 725.43"/>
                <polygon class="cls-61" points="768.69 736.23 737.51 718.55 737.2 792.32 675.38 757.59 675.41 750.7 732.23 782.91 732.54 709.58 768.71 730.04 768.69 736.23"/>
              </g>
              <g>
                <polygon class="cls-120" points="663.66 757.27 645.28 768.07 703.21 800.91 721.6 790.11 663.66 757.27"/>
                <polygon class="cls-119" points="725.45 798.89 707.07 809.69 707.38 735.71 725.76 724.92 725.45 798.89"/>
                <polygon class="cls-120" points="756.96 736.6 738.58 747.4 702.41 726.94 720.79 716.15 756.96 736.6"/>
                <polygon class="cls-119" points="756.94 742.8 738.55 753.59 738.58 747.4 756.96 736.6 756.94 742.8"/>
                <polygon class="cls-61" points="738.55 753.59 707.38 735.91 707.07 809.69 645.25 774.95 645.28 768.07 702.1 800.28 702.41 726.94 738.58 747.4 738.55 753.59"/>
              </g>
            </g>
            <g>
              <polygon class="cls-4" points="1186.12 1036.74 1186.12 1112.34 716.16 831.67 716.16 756.23 1186.12 1036.74"/>
              <polygon class="cls-49" points="1453.43 885.14 1453.43 960.74 1186.12 1112.34 1186.12 1036.74 1453.43 885.14"/>
              <polygon class="cls-68" points="1453.43 885.14 1186.12 1036.74 716.16 756.23 983.63 604.64 1453.43 885.14"/>
            </g>
            <g>
              <g>
                <polygon class="cls-30" points="1215.69 1051.03 1215.64 1062.45 1240 1048.19 1240.05 1036.77 1215.69 1051.03"/>
                <polygon class="cls-119" points="1330.77 1175.46 1266.95 1139.29 1267.26 1065.32 1231.09 1044.87 1218.56 1051.22 1218.53 1058.95 1248.88 1076.12 1248.57 1150.09 1312.39 1186.25 1330.77 1175.46"/>
                <polygon class="cls-120" points="1330.74 1167.7 1272.81 1134.86 1273.12 1060.88 1236.94 1040.43 1218.56 1051.22 1254.73 1071.68 1254.42 1145.65 1312.36 1178.49 1330.74 1167.7"/>
                <polygon class="cls-61" points="1273.12 1060.88 1254.73 1071.68 1254.42 1145.65 1272.81 1134.86 1273.12 1060.88"/>
                <polygon class="cls-61" points="1312.36 1178.49 1312.33 1186.25 1330.77 1175.46 1330.8 1167.69 1312.36 1178.49"/>
              </g>
              <g>
                <polygon class="cls-30" points="1247.88 1032.49 1247.84 1043.91 1272.2 1029.65 1272.25 1018.23 1247.88 1032.49"/>
                <polygon class="cls-119" points="1362.96 1156.92 1299.15 1120.76 1299.46 1046.78 1263.29 1026.33 1250.76 1032.69 1250.73 1040.42 1281.08 1057.58 1280.77 1131.55 1344.58 1167.72 1362.96 1156.92"/>
                <polygon class="cls-120" points="1362.94 1149.16 1305 1116.32 1305.31 1042.35 1269.14 1021.89 1250.76 1032.69 1286.93 1053.14 1286.62 1127.11 1344.55 1159.95 1362.94 1149.16"/>
                <polygon class="cls-61" points="1305.31 1042.35 1286.93 1053.14 1286.62 1127.11 1305 1116.32 1305.31 1042.35"/>
                <polygon class="cls-61" points="1344.55 1159.95 1344.52 1167.72 1362.96 1156.92 1363 1149.16 1344.55 1159.95"/>
              </g>
              <g>
                <polygon class="cls-30" points="1280.08 1013.95 1280.03 1025.37 1304.4 1011.11 1304.44 999.69 1280.08 1013.95"/>
                <polygon class="cls-119" points="1395.16 1138.38 1331.35 1102.22 1331.66 1028.25 1295.48 1007.79 1282.95 1014.15 1282.92 1021.88 1313.27 1039.04 1312.96 1113.01 1376.78 1149.18 1395.16 1138.38"/>
                <polygon class="cls-120" points="1395.13 1130.62 1337.2 1097.78 1337.51 1023.81 1301.34 1003.35 1282.95 1014.15 1319.13 1034.6 1318.82 1108.57 1376.75 1141.41 1395.13 1130.62"/>
                <polygon class="cls-61" points="1337.51 1023.81 1319.13 1034.6 1318.82 1108.57 1337.2 1097.78 1337.51 1023.81"/>
                <polygon class="cls-61" points="1376.75 1141.41 1376.72 1149.18 1395.16 1138.38 1395.19 1130.62 1376.75 1141.41"/>
              </g>
              <g>
                <polygon class="cls-30" points="1312.28 995.41 1312.23 1006.83 1336.59 992.57 1336.64 981.15 1312.28 995.41"/>
                <polygon class="cls-119" points="1427.36 1119.84 1363.54 1083.68 1363.85 1009.71 1327.68 989.25 1315.15 995.61 1315.12 1003.34 1345.47 1020.5 1345.16 1094.47 1408.97 1130.64 1427.36 1119.84"/>
                <polygon class="cls-120" points="1427.33 1112.08 1369.4 1079.24 1369.7 1005.27 1333.53 984.81 1315.15 995.61 1351.32 1016.06 1351.01 1090.03 1408.95 1122.87 1427.33 1112.08"/>
                <polygon class="cls-61" points="1369.7 1005.27 1351.32 1016.06 1351.01 1090.03 1369.4 1079.24 1369.7 1005.27"/>
                <polygon class="cls-61" points="1408.95 1122.87 1408.91 1130.64 1427.36 1119.84 1427.39 1112.08 1408.95 1122.87"/>
              </g>
              <g>
                <polygon class="cls-30" points="1344.47 976.88 1344.43 988.29 1368.79 974.03 1368.84 962.62 1344.47 976.88"/>
                <polygon class="cls-119" points="1459.55 1101.31 1395.74 1065.14 1396.05 991.17 1359.88 970.71 1347.35 977.07 1347.31 984.8 1377.67 1001.96 1377.36 1075.93 1441.17 1112.1 1459.55 1101.31"/>
                <polygon class="cls-120" points="1459.53 1093.54 1401.59 1060.7 1401.9 986.73 1365.73 966.27 1347.35 977.07 1383.52 997.52 1383.21 1071.5 1441.14 1104.34 1459.53 1093.54"/>
                <polygon class="cls-61" points="1401.9 986.73 1383.52 997.52 1383.21 1071.5 1401.59 1060.7 1401.9 986.73"/>
                <polygon class="cls-61" points="1441.14 1104.34 1441.11 1112.1 1459.55 1101.31 1459.59 1093.54 1441.14 1104.34"/>
              </g>
              <g>
                <polygon class="cls-30" points="1376.67 958.34 1376.62 969.76 1400.99 955.5 1401.03 944.08 1376.67 958.34"/>
                <polygon class="cls-119" points="1491.75 1082.77 1427.94 1046.6 1428.25 972.63 1392.07 952.18 1379.54 958.53 1379.51 966.26 1409.86 983.42 1409.55 1057.4 1473.37 1093.56 1491.75 1082.77"/>
                <polygon class="cls-120" points="1491.72 1075 1433.79 1042.16 1434.1 968.19 1397.93 947.74 1379.54 958.53 1415.71 978.99 1415.41 1052.96 1473.34 1085.8 1491.72 1075"/>
                <polygon class="cls-61" points="1434.1 968.19 1415.71 978.99 1415.41 1052.96 1433.79 1042.16 1434.1 968.19"/>
                <polygon class="cls-61" points="1473.34 1085.8 1473.31 1093.56 1491.75 1082.77 1491.78 1075 1473.34 1085.8"/>
              </g>
              <g>
                <polygon class="cls-30" points="1408.87 939.8 1408.82 951.22 1433.18 936.96 1433.23 925.54 1408.87 939.8"/>
                <polygon class="cls-119" points="1523.95 1064.23 1460.13 1028.06 1460.44 954.09 1424.27 933.64 1411.74 939.99 1411.71 947.72 1442.06 964.89 1441.75 1038.86 1505.56 1075.02 1523.95 1064.23"/>
                <polygon class="cls-120" points="1523.92 1056.46 1465.99 1023.62 1466.29 949.65 1430.12 929.2 1411.74 939.99 1447.91 960.45 1447.6 1034.42 1505.54 1067.26 1523.92 1056.46"/>
                <polygon class="cls-61" points="1466.29 949.65 1447.91 960.45 1447.6 1034.42 1465.99 1023.62 1466.29 949.65"/>
                <polygon class="cls-61" points="1505.54 1067.26 1505.5 1075.02 1523.95 1064.23 1523.98 1056.46 1505.54 1067.26"/>
              </g>
            </g>
            <g>
              <g>
                <polygon class="cls-30" points="1156.6 1039 1156.64 1050.42 1132.28 1036.16 1132.23 1024.74 1156.6 1039"/>
                <polygon class="cls-119" points="1041.52 1163.43 1105.33 1127.27 1105.02 1053.3 1141.19 1032.84 1153.72 1039.2 1153.76 1046.93 1123.4 1064.09 1123.71 1138.06 1059.9 1174.23 1041.52 1163.43"/>
                <polygon class="cls-120" points="1041.54 1155.67 1099.48 1122.83 1099.17 1048.86 1135.34 1028.4 1153.72 1039.2 1117.55 1059.65 1117.86 1133.62 1059.93 1166.46 1041.54 1155.67"/>
                <polygon class="cls-61" points="1099.17 1048.86 1117.55 1059.65 1117.86 1133.62 1099.48 1122.83 1099.17 1048.86"/>
                <polygon class="cls-61" points="1059.93 1166.46 1059.96 1174.23 1041.52 1163.43 1041.48 1155.67 1059.93 1166.46"/>
              </g>
              <g>
                <polygon class="cls-30" points="1126.67 1021.3 1126.72 1032.72 1102.36 1018.46 1102.31 1007.04 1126.67 1021.3"/>
                <polygon class="cls-119" points="1011.59 1145.73 1075.41 1109.57 1075.1 1035.59 1111.27 1015.14 1123.8 1021.5 1123.83 1029.23 1093.48 1046.39 1093.79 1120.36 1029.98 1156.53 1011.59 1145.73"/>
                <polygon class="cls-120" points="1011.62 1137.97 1069.56 1105.13 1069.25 1031.16 1105.42 1010.7 1123.8 1021.5 1087.63 1041.95 1087.94 1115.92 1030 1148.76 1011.62 1137.97"/>
                <polygon class="cls-61" points="1069.25 1031.16 1087.63 1041.95 1087.94 1115.92 1069.56 1105.13 1069.25 1031.16"/>
                <polygon class="cls-61" points="1030 1148.76 1030.04 1156.53 1011.59 1145.73 1011.56 1137.97 1030 1148.76"/>
              </g>
              <g>
                <polygon class="cls-30" points="1096.75 1003.6 1096.8 1015.02 1072.44 1000.76 1072.39 989.34 1096.75 1003.6"/>
                <polygon class="cls-119" points="981.67 1128.03 1045.49 1091.86 1045.18 1017.89 1081.35 997.44 1093.88 1003.79 1093.91 1011.52 1063.56 1028.69 1063.87 1102.66 1000.05 1138.82 981.67 1128.03"/>
                <polygon class="cls-120" points="981.7 1120.26 1039.63 1087.42 1039.32 1013.45 1075.49 993 1093.88 1003.79 1057.71 1024.25 1058.02 1098.22 1000.08 1131.06 981.7 1120.26"/>
                <polygon class="cls-61" points="1039.32 1013.45 1057.71 1024.25 1058.02 1098.22 1039.63 1087.42 1039.32 1013.45"/>
                <polygon class="cls-61" points="1000.08 1131.06 1000.11 1138.82 981.67 1128.03 981.64 1120.26 1000.08 1131.06"/>
              </g>
              <g>
                <polygon class="cls-30" points="1066.83 985.9 1066.88 997.32 1042.51 983.06 1042.47 971.64 1066.83 985.9"/>
                <polygon class="cls-119" points="951.75 1110.33 1015.56 1074.16 1015.25 1000.19 1051.42 979.74 1063.95 986.09 1063.99 993.82 1033.64 1010.98 1033.94 1084.96 970.13 1121.12 951.75 1110.33"/>
                <polygon class="cls-120" points="951.78 1102.56 1009.71 1069.72 1009.4 995.75 1045.57 975.3 1063.95 986.09 1027.78 1006.55 1028.09 1080.52 970.16 1113.36 951.78 1102.56"/>
                <polygon class="cls-61" points="1009.4 995.75 1027.78 1006.55 1028.09 1080.52 1009.71 1069.72 1009.4 995.75"/>
                <polygon class="cls-61" points="970.16 1113.36 970.19 1121.12 951.75 1110.33 951.72 1102.56 970.16 1113.36"/>
              </g>
              <g>
                <polygon class="cls-30" points="1036.91 968.19 1036.95 979.61 1012.59 965.35 1012.54 953.93 1036.91 968.19"/>
                <polygon class="cls-119" points="921.82 1092.62 985.64 1056.46 985.33 982.49 1021.5 962.03 1034.03 968.39 1034.06 976.12 1003.71 993.28 1004.02 1067.25 940.21 1103.42 921.82 1092.62"/>
                <polygon class="cls-120" points="921.85 1084.86 979.79 1052.02 979.48 978.05 1015.65 957.59 1034.03 968.39 997.86 988.84 998.17 1062.81 940.24 1095.65 921.85 1084.86"/>
                <polygon class="cls-61" points="979.48 978.05 997.86 988.84 998.17 1062.81 979.79 1052.02 979.48 978.05"/>
                <polygon class="cls-61" points="940.24 1095.65 940.27 1103.42 921.82 1092.62 921.79 1084.86 940.24 1095.65"/>
              </g>
              <g>
                <polygon class="cls-30" points="1006.98 950.49 1007.03 961.91 982.67 947.65 982.62 936.23 1006.98 950.49"/>
                <polygon class="cls-119" points="891.9 1074.92 955.72 1038.76 955.41 964.79 991.58 944.33 1004.11 950.69 1004.14 958.42 973.79 975.58 974.1 1049.55 910.28 1085.72 891.9 1074.92"/>
                <polygon class="cls-120" points="891.93 1067.16 949.86 1034.32 949.55 960.35 985.73 939.89 1004.11 950.69 967.94 971.14 968.25 1045.11 910.31 1077.95 891.93 1067.16"/>
                <polygon class="cls-61" points="949.55 960.35 967.94 971.14 968.25 1045.11 949.86 1034.32 949.55 960.35"/>
                <polygon class="cls-61" points="910.31 1077.95 910.35 1085.72 891.9 1074.92 891.87 1067.16 910.31 1077.95"/>
              </g>
              <g>
                <polygon class="cls-30" points="977.06 932.79 977.11 944.21 952.74 929.95 952.7 918.53 977.06 932.79"/>
                <polygon class="cls-119" points="861.98 1057.22 925.79 1021.05 925.48 947.08 961.66 926.63 974.19 932.98 974.22 940.71 943.87 957.88 944.18 1031.85 880.36 1068.01 861.98 1057.22"/>
                <polygon class="cls-120" points="862.01 1049.46 919.94 1016.62 919.63 942.64 955.8 922.19 974.19 932.98 938.01 953.44 938.32 1027.41 880.39 1060.25 862.01 1049.46"/>
                <polygon class="cls-61" points="919.63 942.64 938.01 953.44 938.32 1027.41 919.94 1016.62 919.63 942.64"/>
                <polygon class="cls-61" points="880.39 1060.25 880.42 1068.01 861.98 1057.22 861.95 1049.45 880.39 1060.25"/>
              </g>
              <g>
                <polygon class="cls-30" points="947.14 915.09 947.18 926.51 922.82 912.25 922.77 900.83 947.14 915.09"/>
                <polygon class="cls-119" points="832.06 1039.52 895.87 1003.35 895.56 929.38 931.73 908.93 944.26 915.28 944.3 923.01 913.94 940.18 914.25 1014.15 850.44 1050.31 832.06 1039.52"/>
                <polygon class="cls-120" points="832.08 1031.75 890.02 998.91 889.71 924.94 925.88 904.49 944.26 915.28 908.09 935.74 908.4 1009.71 850.47 1042.55 832.08 1031.75"/>
                <polygon class="cls-61" points="889.71 924.94 908.09 935.74 908.4 1009.71 890.02 998.91 889.71 924.94"/>
                <polygon class="cls-61" points="850.47 1042.55 850.5 1050.31 832.06 1039.52 832.02 1031.75 850.47 1042.55"/>
              </g>
              <g>
                <polygon class="cls-30" points="917.21 897.39 917.26 908.8 892.9 894.54 892.85 883.13 917.21 897.39"/>
                <polygon class="cls-119" points="802.13 1021.81 865.95 985.65 865.64 911.68 901.81 891.22 914.34 897.58 914.37 905.31 884.02 922.47 884.33 996.44 820.52 1032.61 802.13 1021.81"/>
                <polygon class="cls-120" points="802.16 1014.05 860.09 981.21 859.79 907.24 895.96 886.78 914.34 897.58 878.17 918.03 878.48 992.01 820.54 1024.85 802.16 1014.05"/>
                <polygon class="cls-61" points="859.79 907.24 878.17 918.03 878.48 992.01 860.09 981.21 859.79 907.24"/>
                <polygon class="cls-61" points="820.54 1024.85 820.58 1032.61 802.13 1021.81 802.1 1014.05 820.54 1024.85"/>
              </g>
              <g>
                <polygon class="cls-30" points="887.29 879.68 887.34 891.1 862.98 876.84 862.93 865.42 887.29 879.68"/>
                <polygon class="cls-119" points="772.21 1004.11 836.02 967.95 835.72 893.98 871.89 873.52 884.42 879.88 884.45 887.61 854.1 904.77 854.41 978.74 790.59 1014.91 772.21 1004.11"/>
                <polygon class="cls-120" points="772.24 996.35 830.17 963.51 829.86 889.54 866.03 869.08 884.42 879.88 848.25 900.33 848.55 974.3 790.62 1007.14 772.24 996.35"/>
                <polygon class="cls-61" points="829.86 889.54 848.25 900.33 848.55 974.3 830.17 963.51 829.86 889.54"/>
                <polygon class="cls-61" points="790.62 1007.14 790.65 1014.91 772.21 1004.11 772.18 996.35 790.62 1007.14"/>
              </g>
              <g>
                <polygon class="cls-30" points="857.37 861.98 857.42 873.4 833.05 859.14 833 847.72 857.37 861.98"/>
                <polygon class="cls-119" points="742.29 986.41 806.1 950.25 805.79 876.27 841.96 855.82 854.49 862.17 854.53 869.9 824.18 887.07 824.48 961.04 760.67 997.2 742.29 986.41"/>
                <polygon class="cls-120" points="742.31 978.65 800.25 945.81 799.94 871.83 836.11 851.38 854.49 862.17 818.32 882.63 818.63 956.6 760.7 989.44 742.31 978.65"/>
                <polygon class="cls-61" points="799.94 871.83 818.32 882.63 818.63 956.6 800.25 945.81 799.94 871.83"/>
                <polygon class="cls-61" points="760.7 989.44 760.73 997.21 742.29 986.41 742.25 978.65 760.7 989.44"/>
              </g>
              <g>
                <polygon class="cls-30" points="827.44 844.28 827.49 855.7 803.13 841.44 803.08 830.02 827.44 844.28"/>
                <polygon class="cls-119" points="712.36 968.71 776.18 932.54 775.87 858.57 812.04 838.12 824.57 844.47 824.6 852.2 794.25 869.37 794.56 943.34 730.75 979.5 712.36 968.71"/>
                <polygon class="cls-120" points="712.39 960.94 770.33 928.1 770.02 854.13 806.19 833.68 824.57 844.47 788.4 864.93 788.71 938.9 730.77 971.74 712.39 960.94"/>
                <polygon class="cls-61" points="770.02 854.13 788.4 864.93 788.71 938.9 770.33 928.1 770.02 854.13"/>
                <polygon class="cls-61" points="730.77 971.74 730.81 979.5 712.36 968.71 712.33 960.94 730.77 971.74"/>
              </g>
              <g>
                <polygon class="cls-30" points="797.52 826.58 797.57 837.99 773.21 823.73 773.16 812.32 797.52 826.58"/>
                <polygon class="cls-119" points="682.44 951.01 746.26 914.84 745.95 840.87 782.12 820.41 794.65 826.77 794.68 834.5 764.33 851.66 764.64 925.64 700.82 961.8 682.44 951.01"/>
                <polygon class="cls-120" points="682.47 943.24 740.4 910.4 740.09 836.43 776.27 815.98 794.65 826.77 758.48 847.22 758.79 921.2 700.85 954.04 682.47 943.24"/>
                <polygon class="cls-61" points="740.09 836.43 758.48 847.22 758.79 921.2 740.4 910.4 740.09 836.43"/>
                <polygon class="cls-61" points="700.85 954.04 700.88 961.8 682.44 951.01 682.41 943.24 700.85 954.04"/>
              </g>
              <g>
                <polygon class="cls-30" points="767.6 808.87 767.65 820.29 743.28 806.03 743.24 794.61 767.6 808.87"/>
                <polygon class="cls-119" points="652.52 933.3 716.33 897.14 716.02 823.17 752.19 802.71 764.73 809.07 764.76 816.8 734.41 833.96 734.72 907.93 670.9 944.1 652.52 933.3"/>
                <polygon class="cls-120" points="652.55 925.54 710.48 892.7 710.17 818.73 746.34 798.27 764.73 809.07 728.55 829.52 728.86 903.49 670.93 936.33 652.55 925.54"/>
                <polygon class="cls-61" points="710.17 818.73 728.55 829.52 728.86 903.49 710.48 892.7 710.17 818.73"/>
                <polygon class="cls-61" points="670.93 936.33 670.96 944.1 652.52 933.3 652.49 925.54 670.93 936.33"/>
              </g>
            </g>
          </g>
          <g class="cls-131">
            <path class="cls-3" d="M864.06,782.18l299.05,175.88c5.36,3.15,12,3.16,17.37.03l125.5-73.14c5.87-3.42,5.89-11.89.03-15.34l-299.12-175.91c-6.21-3.65-13.91-3.67-20.13-.04l-122.67,71.49c-6.52,3.8-6.53,13.2-.03,17.03Z"/>
            <g>
              <g>
                <polygon class="cls-73" points="1144.13 860.27 1154.2 866.18 1212.71 832.07 1202.64 826.17 1144.13 860.27"/>
                <polygon class="cls-73" points="1104.75 837.18 1114.82 843.08 1173.33 808.98 1163.26 803.07 1104.75 837.18"/>
                <polygon class="cls-73" points="1134.23 854.47 1139.27 857.42 1197.78 823.32 1192.74 820.36 1134.23 854.47"/>
                <polygon class="cls-73" points="1125.32 849.24 1130.36 852.2 1188.87 818.09 1183.83 815.14 1125.32 849.24"/>
                <polygon class="cls-73" points="1118.93 845.49 1121.45 846.97 1179.96 812.87 1177.44 811.39 1118.93 845.49"/>
                <polygon class="cls-73" points="1100.11 834.46 1101.37 835.2 1159.88 801.09 1158.62 800.35 1100.11 834.46"/>
                <polygon class="cls-73" points="1097.03 832.65 1098.29 833.39 1156.8 799.28 1155.54 798.55 1097.03 832.65"/>
              </g>
              <g>
                <polygon class="cls-73" points="1083.64 824.8 1093.71 830.7 1152.22 796.6 1142.15 790.69 1083.64 824.8"/>
                <polygon class="cls-73" points="1044.26 801.71 1054.33 807.61 1112.84 773.51 1102.77 767.6 1044.26 801.71"/>
                <polygon class="cls-73" points="1073.74 819 1078.78 821.95 1137.29 787.84 1132.25 784.89 1073.74 819"/>
                <polygon class="cls-73" points="1064.83 813.77 1069.87 816.72 1128.38 782.62 1123.34 779.67 1064.83 813.77"/>
                <polygon class="cls-73" points="1058.44 810.02 1060.96 811.5 1119.47 777.39 1116.95 775.92 1058.44 810.02"/>
                <polygon class="cls-73" points="1039.62 798.99 1040.88 799.72 1099.39 765.62 1098.13 764.88 1039.62 798.99"/>
                <polygon class="cls-73" points="1036.54 797.18 1037.8 797.92 1096.31 763.81 1095.05 763.07 1036.54 797.18"/>
              </g>
              <g>
                <polygon class="cls-73" points="1023.15 789.33 1033.22 795.23 1091.73 761.13 1081.66 755.22 1023.15 789.33"/>
                <polygon class="cls-73" points="983.77 766.23 993.84 772.14 1052.35 738.04 1042.28 732.13 983.77 766.23"/>
                <polygon class="cls-73" points="1013.25 783.52 1018.29 786.48 1076.8 752.37 1071.76 749.42 1013.25 783.52"/>
                <polygon class="cls-73" points="1004.34 778.3 1009.38 781.25 1067.89 747.15 1062.85 744.19 1004.34 778.3"/>
                <polygon class="cls-73" points="997.95 774.55 1000.47 776.03 1058.98 741.92 1056.46 740.45 997.95 774.55"/>
                <polygon class="cls-73" points="979.13 763.51 980.39 764.25 1038.9 730.15 1037.64 729.41 979.13 763.51"/>
                <polygon class="cls-73" points="976.05 761.71 977.31 762.44 1035.82 728.34 1034.56 727.6 976.05 761.71"/>
              </g>
            </g>
            <path class="cls-73" d="M1089.76,866.05l96.62,56.66c.63.37,2.05.15,3.15-.5h0c1.1-.64,1.49-1.47.86-1.84l-96.62-56.66c-.63-.37-2.05-.15-3.15.5h0c-1.1.64-1.49,1.47-.86,1.84Z"/>
            <path class="cls-73" d="M1014.32,835.87l160.03,93.84c.63.37,2.05.15,3.15-.5h0c1.1-.64,1.49-1.47.86-1.84l-160.03-93.84c-.63-.37-2.05-.15-3.15.5h0c-1.1.64-1.49,1.47-.86,1.84Z"/>
            <path class="cls-73" d="M1002.29,842.88l160.03,93.84c.63.37,2.05.15,3.15-.5h0c1.1-.64,1.49-1.47.86-1.84l-160.03-93.84c-.63-.37-2.05-.15-3.15.5h0c-1.1.64-1.49,1.47-.86,1.84Z"/>
            <g>
              <path class="cls-73" d="M929.31,771.96l42.28,24.79c.43.25,1.39.1,2.14-.34l1.29-.75c.75-.44,1.01-1,.58-1.25l-42.28-24.79c-.43-.25-1.39-.1-2.14.34l-1.29.75c-.75.44-1.01,1-.58,1.25Z"/>
              <path class="cls-73" d="M889.18,762.49l70.38,41.27c.43.25,1.39.1,2.14-.34l1.29-.75c.75-.44,1.01-1,.58-1.25l-70.38-41.27c-.43-.25-1.39-.1-2.14.34l-1.29.75c-.75.44-1.01,1-.58,1.25Z"/>
              <path class="cls-73" d="M877.15,769.5l70.38,41.27c.43.25,1.39.1,2.14-.34l1.29-.75c.75-.44,1.01-1,.58-1.25l-70.38-41.27c-.43-.25-1.39-.1-2.14.34l-1.29.75c-.75.44-1.01,1-.58,1.25Z"/>
            </g>
            <g>
              <path class="cls-73" d="M1231.48,865.57l26.91,15.78c.34.2,1.11.08,1.71-.27l1.83-1.07c.6-.35.81-.8.47-1l-26.91-15.78c-.34-.2-1.11-.08-1.71.27l-1.83,1.07c-.6.35-.81.8-.47,1Z"/>
              <path class="cls-73" d="M1201.4,861.99l44.96,26.36c.34.2,1.11.08,1.71-.27l1.83-1.07c.6-.35.81-.8.47-1l-44.96-26.36c-.34-.2-1.11-.08-1.71.27l-1.83,1.07c-.6.35-.81.8-.47,1Z"/>
              <path class="cls-73" d="M1189.37,869l44.96,26.36c.34.2,1.11.08,1.71-.27l1.83-1.07c.6-.35.81-.8.47-1l-44.96-26.36c-.34-.2-1.11-.08-1.71.27l-1.83,1.07c-.6.35-.81.8-.47,1Z"/>
            </g>
          </g>
        </g>
        <polygon class="cls-29" points="1714.9 394 1439.33 552.39 1070.57 764.26 409.74 370.26 1054.33 0 1714.9 394"/>
        <g>
          <g class="cls-126">
            <polygon class="cls-58" points="1070.57 764.26 1070.57 828.62 409.74 434.37 409.74 370.26 1070.57 764.26"/>
            <polygon class="cls-7" points="1714.9 394 1439.33 552.39 1070.57 764.26 409.74 370.26 1054.33 0 1714.9 394"/>
            <polygon class="cls-100" points="1574.74 393 1526.52 420.73 1053.58 138.66 598.12 400.24 549.91 371.51 1053.58 81.95 1574.74 393"/>
            <polygon class="cls-10" points="1526.52 420.73 1071.32 682.31 598.12 400.24 1053.58 138.66 1526.52 420.73"/>
            <polygon class="cls-66" points="1714.9 394 1714.9 458.36 1070.57 828.62 1070.57 764.26 1439.33 552.39 1714.9 394"/>
            <polygon class="cls-14" points="1053.58 81.95 1053.58 138.66 1526.52 420.73 1574.74 393 1053.58 81.95"/>
            <polygon class="cls-60" points="1439.33 548.91 1070.57 760.78 412.72 368.55 409.74 370.26 1070.57 764.26 1439.33 552.39 1714.9 394 1711.93 392.22 1439.33 548.91"/>
          </g>
          <g class="cls-130">
            <polygon class="cls-74" points="409.74 434.37 409.74 941.23 1070.57 1335.23 1070.57 828.62 409.74 434.37"/>
          </g>
          <g class="cls-124">
            <polygon class="cls-95" points="1714.9 458.11 1714.9 964.97 1070.76 1335.23 1070.76 828.62 1714.9 458.11"/>
          </g>
        </g>
      </g>
    </g>
  </g>
</svg>