<?xml version="1.0" encoding="UTF-8" standalone="no"?>
<svg
   id="Layer_2"
   data-name="Layer 2"
   viewBox="0 0 4300 2865.6"
   version="1.1"
   sodipodi:docname="grow.svg"
   inkscape:version="1.3.2 (091e20e, 2023-11-25, custom)"
   xmlns:inkscape="http://www.inkscape.org/namespaces/inkscape"
   xmlns:sodipodi="http://sodipodi.sourceforge.net/DTD/sodipodi-0.dtd"
   xmlns="http://www.w3.org/2000/svg"
   xmlns:svg="http://www.w3.org/2000/svg">
  <sodipodi:namedview
     id="namedview6"
     pagecolor="#ffffff"
     bordercolor="#000000"
     borderopacity="0.25"
     inkscape:showpageshadow="2"
     inkscape:pageopacity="0.0"
     inkscape:pagecheckerboard="0"
     inkscape:deskcolor="#d1d1d1"
     inkscape:zoom="0.28371021"
     inkscape:cx="2148.3189"
     inkscape:cy="1996.7558"
     inkscape:window-width="1920"
     inkscape:window-height="1009"
     inkscape:window-x="1912"
     inkscape:window-y="39"
     inkscape:window-maximized="1"
     inkscape:current-layer="Layer_1-2" />
  <defs
     id="defs1">
    <style
       id="style1">
      .cls-1 {
        fill: #c5cced;
      }

      .cls-1, .cls-2, .cls-3, .cls-4, .cls-5, .cls-6 {
        stroke-width: 0px;
      }

      .cls-2 {
        fill: #ffa14e;
      }

      .cls-3 {
        fill: #2196f3;
      }

      .cls-4 {
        fill: #f45558;
      }

      .cls-5 {
        fill: #5bb774;
      }

      .cls-6 {
        fill: #455a64;
      }
    </style>
  </defs>
  <g
     id="Layer_1-2"
     data-name="Layer 1">
    <g
       id="_809"
       data-name="809">
      <rect
         class="cls-4"
         x="334.13"
         y="1867.19"
         width="492.5"
         height="788.69"
         id="rect1"
         style="fill:#008080" />
      <rect
         class="cls-2"
         x="1118.94"
         y="1232.82"
         width="492.5"
         height="1423.06"
         id="rect2"
         style="fill:#5aa02c" />
      <rect
         class="cls-3"
         x="1903.75"
         y="1555.47"
         width="492.5"
         height="1100.41"
         id="rect3"
         style="fill:#008080" />
      <rect
         class="cls-6"
         x="2688.56"
         y="985.05"
         width="492.5"
         height="1670.83"
         id="rect4" />
      <path
         class="cls-1"
         d="M4300,2760.05c0,58.34-47.23,105.56-104.17,105.56H104.17c-56.94,0-104.17-47.22-104.17-105.56s47.23-104.17,104.17-104.17h4091.67c56.94,0,104.17,47.23,104.17,104.17Z"
         id="path4" />
      <rect
         class="cls-5"
         x="3473.36"
         y="476.55"
         width="492.5"
         height="2179.33"
         id="rect5"
         style="fill:#5aa02c" />
      <path
         class="cls-4"
         d="M2978.06,162.32c27.77,0,55.29,11.94,74.38,34.99,33.93,41.02,28.15,101.9-12.82,135.83l-650.24,538.09c-30.28,25.13-72.88,29.4-107.43,10.55l-631.52-341.52L336.02,1367.3c-45.36,28.46-104.67,14.7-133.06-30.28-28.4-45.11-14.83-104.67,30.28-133.06L1595.41,346.9c29.53-18.53,66.59-19.85,97.25-3.2l623.85,337.37,599.98-496.57c18.09-14.89,39.83-22.18,61.57-22.18Z"
         id="path5"
         style="fill:#008080" />
      <path
         class="cls-4"
         d="M3040.01,550.52l-336.12-405.18c-26.85-32.37-7.23-81.62,34.52-86.66L3220.93.4c38.35-4.63,68.66,31.91,57.03,68.74l-146.41,463.47c-12.67,40.1-64.69,50.28-91.54,17.92Z"
         id="path6"
         style="fill:#008080" />
    </g>
  </g>
</svg>
