<?xml version="1.0" encoding="UTF-8" standalone="no"?>
<svg
   id="Layer_1"
   data-name="Layer 1"
   viewBox="0 0 1980 1751.54"
   version="1.1"
   sodipodi:docname="help-icon-white.svg"
   inkscape:version="1.3.2 (091e20e, 2023-11-25, custom)"
   xmlns:inkscape="http://www.inkscape.org/namespaces/inkscape"
   xmlns:sodipodi="http://sodipodi.sourceforge.net/DTD/sodipodi-0.dtd"
   xmlns="http://www.w3.org/2000/svg"
   xmlns:svg="http://www.w3.org/2000/svg">
  <sodipodi:namedview
     id="namedview2"
     pagecolor="#ffffff"
     bordercolor="#000000"
     borderopacity="0.25"
     inkscape:showpageshadow="2"
     inkscape:pageopacity="0.0"
     inkscape:pagecheckerboard="0"
     inkscape:deskcolor="#d1d1d1"
     inkscape:zoom="0.16410639"
     inkscape:cx="636.78203"
     inkscape:cy="527.09709"
     inkscape:window-width="1920"
     inkscape:window-height="1009"
     inkscape:window-x="1912"
     inkscape:window-y="39"
     inkscape:window-maximized="1"
     inkscape:current-layer="Layer_1" />
  <defs
     id="defs1">
    <rect
       x="688.57771"
       y="706.85853"
       width="140.15299"
       height="73.1233"
       id="rect2" />
    <style
       id="style1">
      .cls-1 {
        fill: #ffffff;
      }

      .cls-1, .cls-2 {
        stroke-width: 0px;
      }

      .cls-2 {
        fill: #b16c9b;
      }
    </style>
  </defs>
  <text
     xml:space="preserve"
     id="text2"
     style="font-size:37.3333px;white-space:pre;shape-inside:url(#rect2);display:inline;opacity:1;fill:#ffffff;fill-opacity:1;stroke:none;stroke-width:0;stroke-dasharray:none"
     transform="matrix(11.243527,0,0,10.59325,-7303.3161,-6894.1821)"><tspan
       x="688.57812"
       y="740.91968"
       id="tspan3"><tspan
         style="font-weight:bold;font-family:'Leelawadee UI';-inkscape-font-specification:'Leelawadee UI Bold'"
         id="tspan1">HELP!</tspan></tspan></text>
  <path
     class="cls-2"
     d="M1980,1127.08c0-106.31-54.68-199.83-137.38-254.05.15-6.7.3-13.4.3-20.1C1842.92,381.84,1461.09,0,990,0S137.08,381.84,137.08,852.92c0,6.7.15,13.4.3,20.1C54.68,927.25,0,1020.77,0,1127.08c0,167.69,135.86,303.55,303.55,303.55,18.58,0,36.86-1.68,54.53-4.87,54.68-9.9,104.33-34.42,144.54-69.6-131.44-127.18-213.23-305.68-213.23-503.22,0-9.75.15-19.34.61-28.94,15.08-373.61,322.74-671.68,700.01-671.68s684.93,298.07,700.01,671.68c.46,9.6.61,19.19.61,28.94,0,197.54-81.79,376.05-213.23,503.22,40.21,35.18,89.86,59.7,144.54,69.6,17.67,3.2,35.95,4.87,54.53,4.87,12.56,0,24.85-1,37.01-2.48v18.77c0,79.78-64.91,144.69-144.69,144.69h-234.68c-16.09-48.5-61.91-83.77-115.63-83.77h-152.31c-67.01,0-121.85,54.83-121.85,121.85s54.83,121.85,121.85,121.85h152.31c53.72,0,99.54-35.27,115.63-83.77h234.68c121.77,0,220.85-99.07,220.85-220.85v-38.31c111.56-44.87,190.38-153.88,190.38-281.53Z"
     id="path1"
     style="fill:#ffffff;fill-opacity:1" />
</svg>
