<?xml version="1.0" encoding="UTF-8" standalone="no"?>
<svg
   id="Layer_2"
   data-name="Layer 2"
   viewBox="0 0 1400 1127.55"
   version="1.1"
   sodipodi:docname="money.svg"
   inkscape:version="1.3.2 (091e20e, 2023-11-25, custom)"
   xmlns:inkscape="http://www.inkscape.org/namespaces/inkscape"
   xmlns:sodipodi="http://sodipodi.sourceforge.net/DTD/sodipodi-0.dtd"
   xmlns="http://www.w3.org/2000/svg"
   xmlns:svg="http://www.w3.org/2000/svg">
  <sodipodi:namedview
     id="namedview6"
     pagecolor="#ffffff"
     bordercolor="#000000"
     borderopacity="0.25"
     inkscape:showpageshadow="2"
     inkscape:pageopacity="0.0"
     inkscape:pagecheckerboard="0"
     inkscape:deskcolor="#d1d1d1"
     inkscape:zoom="0.7210323"
     inkscape:cx="699.69127"
     inkscape:cy="341.87096"
     inkscape:window-width="1920"
     inkscape:window-height="1009"
     inkscape:window-x="1912"
     inkscape:window-y="39"
     inkscape:window-maximized="1"
     inkscape:current-layer="Layer_1-2" />
  <defs
     id="defs1">
    <style
       id="style1">
      .cls-1 {
        fill: #88c36f;
      }

      .cls-1, .cls-2, .cls-3, .cls-4 {
        stroke-width: 0px;
      }

      .cls-2 {
        fill: #4e822c;
        opacity: .5;
      }

      .cls-3 {
        fill: #529c2e;
      }

      .cls-4 {
        fill: #eaf5e6;
      }
    </style>
  </defs>
  <g
     id="Layer_1-2"
     data-name="Layer 1">
    <g
       id="g6">
      <g
         id="g3">
        <rect
           class="cls-1"
           x="29.22"
           y="399.67"
           width="1156.05"
           height="674.92"
           transform="translate(-66.75 60.49) rotate(-5.41)"
           id="rect1" />
        <circle
           class="cls-4"
           cx="607.24"
           cy="737.13"
           r="156.63"
           transform="translate(-343.37 645.29) rotate(-45)"
           id="circle1" />
        <g
           id="g2">
          <path
             class="cls-3"
             d="M41.16,489.67c358.34-33.91,716.39-67.79,1075.69-101.8,18.82,198.88,37.6,397.29,56.47,596.71-358.46,33.92-716.51,67.81-1075.69,101.8-18.81-198.78-37.59-397.22-56.47-596.71ZM126.72,660.17c7.72,81.57,15.33,161.95,22.94,242.42,58.11,1.93,93.77,30.13,105.26,87.4,249.27-23.59,497.94-47.12,746.93-70.68-.74-26.73,5.05-50.49,22.49-70.26,16.98-19.25,37.98-31.57,64.18-34.23-7.75-81.87-15.35-162.26-23-242.99-58.07-1.56-93.69-29.8-105.5-87.25-249.12,23.58-497.8,47.11-746.34,70.63-3.05,60.33-29.3,92.1-86.96,104.97Z"
             id="path1"
             style="fill:#529c58;fill-opacity:1" />
          <path
             class="cls-3"
             d="M591.25,554.72c-102.43,9.51-175.74,97.26-166.31,199.05,9.43,101.75,98.21,175.69,199.53,166.17,100.52-9.44,175-98.65,165.78-198.58-9.43-102.18-97.65-176.06-199-166.65ZM667.84,820.83c-8.02,7.87-18.24,13.46-30.66,16.8l1.63,17.18-40.08,3.79-1.73-18.29c-11.78-1.65-22.69-5.62-32.74-11.94-16.21-10.19-25.14-26.22-26.79-48.1l.17-.86,41.2-3.9c1.11,11.76,4.74,19.89,10.9,24.39,6.15,4.5,14.99,6.21,26.51,5.12,8.77-.83,15.11-3.41,19.04-7.73,3.93-4.33,5.59-9.66,4.99-16.01-.68-7.19-3.33-12.54-7.96-16.05-4.63-3.52-12.66-6.94-24.09-10.29-23.81-5.94-41.71-13.02-53.69-21.26-11.98-8.23-18.8-21.12-20.46-38.67-1.62-17.08,3.69-31.51,15.93-43.31,7.62-7.35,16.82-12.78,27.6-16.3l-1.7-18.01,40.08-3.79,1.67,17.62c12.26,1.41,23.12,5.61,32.56,12.63,14,10.4,21.65,24.76,22.97,43.09l-.17.86-41.07,3.89c-.77-8.12-3.86-14.49-9.26-19.11-5.41-4.62-12.45-6.52-21.13-5.7-8.51.81-15,3.54-19.44,8.19-4.45,4.66-6.38,10.07-5.79,16.23.57,5.97,3.46,10.53,8.68,13.65,5.22,3.13,14.81,6.77,28.77,10.91,21.36,4.95,37.75,11.96,49.18,21.05,11.43,9.09,17.98,22.45,19.65,40.09,1.7,17.92-3.22,32.53-14.74,43.84Z"
             id="path2"
             style="fill:#529c63;fill-opacity:1" />
        </g>
      </g>
      <polygon
         class="cls-2"
         points="1214.29 1018.65 1214.45 1018.21 1150.9 346.71 99.28 446.23 20.73 666.6 1051.62 1034.04 1214.29 1018.65"
         id="polygon3" />
      <g
         id="g5">
        <rect
           class="cls-1"
           x="164.21"
           y="174.48"
           width="1156.05"
           height="674.92"
           transform="translate(214.97 -219.48) rotate(19.62)"
           id="rect3" />
        <circle
           class="cls-4"
           cx="742.23"
           cy="511.94"
           r="156.63"
           transform="translate(-144.6 674.78) rotate(-45)"
           id="circle3" />
        <g
           id="g4">
          <path
             class="cls-3"
             d="M333.96,48.26c339.04,120.85,677.82,241.6,1017.78,362.78-67.07,188.17-133.99,375.9-201.24,564.58-339.16-120.89-677.93-241.64-1017.78-362.78C199.76,424.77,266.68,237.01,333.96,48.26ZM339.36,238.95c-27.51,77.18-54.62,153.24-81.75,229.37,51.84,26.34,72.22,66.97,58.41,123.72,235.85,84.07,471.13,167.93,706.71,251.9,10.64-24.53,25.93-43.61,50.1-54.15,23.53-10.26,47.77-12.54,72.63-3.87,27.61-77.46,54.72-153.52,81.95-229.91-51.96-25.97-72.29-66.63-58.69-123.69-235.71-84.02-471-167.88-706.16-251.7-28.28,53.38-65.51,71.06-123.2,58.33Z"
             id="path3"
             style="fill:#529c58;fill-opacity:1" />
          <path
             class="cls-3"
             d="M804.9,339.89c-96.83-34.71-200.39,13.79-234.9,110.01-34.5,96.19,14.67,200.74,110.51,234.98,95.08,33.97,200.3-15.36,234.21-109.81,34.68-96.57-14.01-200.83-109.83-235.18ZM761.73,613.41c-10.59,3.74-22.22,4.48-34.89,2.25l-5.79,16.25-37.93-13.52,6.17-17.3c-9.97-6.47-18.18-14.69-24.61-24.67-10.38-16.09-11.69-34.39-3.93-54.91l.52-.71,38.98,13.89c-3.97,11.13-4.11,20.03-.44,26.71,3.67,6.68,10.96,11.97,21.86,15.85,8.29,2.96,15.13,3.3,20.53,1.05,5.39-2.26,9.15-6.39,11.3-12.39,2.42-6.8,2.28-12.77-.42-17.91-2.71-5.14-8.53-11.65-17.48-19.52-19.06-15.45-32.28-29.44-39.66-41.97-7.37-12.53-8.1-27.09-2.19-43.69,5.76-16.16,16.68-26.99,32.75-32.51,10.01-3.44,20.65-4.47,31.91-3.1l6.07-17.04,37.93,13.52-5.94,16.67c10.51,6.47,18.57,14.87,24.16,25.21,8.29,15.34,9.15,31.6,2.58,48.76l-.52.71-38.86-13.85c2.74-7.68,2.63-14.76-.31-21.23-2.95-6.47-8.53-11.17-16.74-14.1-8.06-2.87-15.09-3.14-21.08-.8-6,2.34-10.04,6.42-12.11,12.25-2.01,5.65-1.32,11,2.09,16.05,3.41,5.05,10.56,12.4,21.45,22.05,17.26,13.52,29.15,26.81,35.66,39.88,6.51,13.07,6.8,27.95.85,44.64-6.04,16.95-16.68,28.11-31.9,33.49Z"
             id="path4"
             style="fill:#529c63;fill-opacity:1" />
        </g>
      </g>
    </g>
  </g>
</svg>
