<?xml version="1.0" encoding="UTF-8" standalone="no"?>
<svg
   viewBox="0 0 1010.89 1784.7"
   version="1.1"
   id="svg120"
   sodipodi:docname="nvme-ssd.svg"
   inkscape:version="1.3.2 (091e20e, 2023-11-25, custom)"
   xmlns:inkscape="http://www.inkscape.org/namespaces/inkscape"
   xmlns:sodipodi="http://sodipodi.sourceforge.net/DTD/sodipodi-0.dtd"
   xmlns="http://www.w3.org/2000/svg"
   xmlns:svg="http://www.w3.org/2000/svg">
  <sodipodi:namedview
     id="namedview120"
     pagecolor="#ffffff"
     bordercolor="#000000"
     borderopacity="0.25"
     inkscape:showpageshadow="2"
     inkscape:pageopacity="0.0"
     inkscape:pagecheckerboard="0"
     inkscape:deskcolor="#d1d1d1"
     inkscape:zoom="0.32211455"
     inkscape:cx="-330.62773"
     inkscape:cy="957.73384"
     inkscape:window-width="1920"
     inkscape:window-height="1009"
     inkscape:window-x="1912"
     inkscape:window-y="39"
     inkscape:window-maximized="1"
     inkscape:current-layer="svg120" />
  <defs
     id="defs1">
    <style
       id="style1">
      .cls-1 {
        fill: #3acc6a;
      }

      .cls-1, .cls-2, .cls-3, .cls-4, .cls-5, .cls-6, .cls-7, .cls-8, .cls-9, .cls-10, .cls-11, .cls-12, .cls-13, .cls-14, .cls-15 {
        stroke-width: 0px;
      }

      .cls-2 {
        fill: #494417;
      }

      .cls-3 {
        fill: #11471c;
      }

      .cls-16 {
        isolation: isolate;
      }

      .cls-5 {
        fill: #754c24;
      }

      .cls-6, .cls-13 {
        fill: #329557;
      }

      .cls-7 {
        fill: #044f1d;
      }

      .cls-8 {
        fill: #ccffd9;
        opacity: .5;
      }

      .cls-8, .cls-13 {
        mix-blend-mode: multiply;
      }

      .cls-9 {
        fill: #b3b3b3;
      }

      .cls-10 {
        fill: #dbae73;
      }

      .cls-11 {
        fill: #fff;
      }

      .cls-12 {
        fill: #3ad867;
      }

      .cls-14 {
        fill: #837e3a;
      }

      .cls-15 {
        fill: #f2f2f2;
      }
    </style>
  </defs>
  <g
     class="cls-16"
     id="g120">
    <g
       id="Layer_2"
       data-name="Layer 2">
      <g
         id="_Layer_"
         data-name="&amp;lt;Layer&amp;gt;">
        <g
           id="g2">
          <path
             class="cls-6"
             d="M622.11,1776.59c-4.17-61.56-55.49-110.35-117.98-110.35s-113.81,48.8-117.98,110.35H8.11V154.15h994.68v1622.44h-380.68Z"
             id="path1"
             style="fill:#008080" />
          <path
             class="cls-7"
             d="M994.68,162.26v1606.22h-365.22c-7.97-62.16-61.14-110.35-125.33-110.35s-117.36,48.19-125.33,110.35H16.21V162.26h978.46ZM1010.89,146.05H0v1638.65h393.98c0-61,49.35-110.35,110.15-110.35s110.15,49.35,110.15,110.35h396.62V146.05h0Z"
             id="path2"
             style="fill:#004a4a;fill-opacity:1" />
        </g>
        <path
           class="cls-8"
           d="M1010.89,1184.2v600.49h-396.62c0-61-49.35-110.35-110.15-110.35s-110.15,49.35-110.15,110.35H0v-333.89l82.38,10.24,874.91-146.93,53.61-129.9Z"
           id="path3"
           style="fill:#008080" />
        <path
           class="cls-13"
           d="M326.94,321.37v509.82l-40.17-22.48-204.12,131.28,63.52,70.92-60.28,546.32-3.23,21.6h364.98l30.4-34.2h463.85c10.19,0,19.31-4.61,25.38-11.85,4.82-5.75,7.72-13.16,7.72-21.25V321.37c0-9.14-648.04-12.04-648.04,0Z"
           id="path4"
           style="fill:#008080" />
        <path
           class="cls-3"
           d="M944.92.03v146.02H65.97V.03h289v83.8c0,7.6,3.14,14.49,8.1,19.45,4.97,4.77,11.66,7.71,19.05,7.71,6.39,0,12.16-2.03,16.83-5.88,6.38-4.77,10.34-12.47,10.34-21.28V.03h360.44v83.8c0,7.6,3.24,14.49,8.21,19.45,4.86,4.77,11.76,7.71,19.05,7.71,6.38,0,12.26-2.03,16.92-5.88,6.18-4.77,10.23-12.47,10.23-21.28V.03h120.78Z"
           id="path5"
           style="fill:#008080" />
        <g
           id="g6">
          <rect
             class="cls-14"
             x="69.05"
             y="3.04"
             width="282.89"
             height="79.83"
             id="rect5" />
          <path
             class="cls-2"
             d="M348.9,6.08v73.74H72.1V6.08h276.81ZM354.99,0H66.01v85.9h288.97V0h0Z"
             id="path6" />
        </g>
        <g
           id="g7">
          <rect
             class="cls-14"
             x="412.31"
             y="3.04"
             width="354.36"
             height="79.83"
             id="rect6" />
          <path
             class="cls-2"
             d="M763.63,6.08v73.74h-348.28V6.08h348.28ZM769.71,0h-360.44v85.9h360.44V0h0Z"
             id="path7" />
        </g>
        <g
           id="g8">
          <rect
             class="cls-14"
             x="827.21"
             y="3.04"
             width="114.7"
             height="79.83"
             id="rect7" />
          <path
             class="cls-2"
             d="M938.87,6.08v73.74h-108.61V6.08h108.61ZM944.95,0h-120.78v85.9h120.78V0h0Z"
             id="path8" />
        </g>
        <g
           id="g10">
          <rect
             class="cls-10"
             x="77.36"
             y="6.88"
             width="20.78"
             height="75.36"
             id="rect8" />
          <path
             class="cls-5"
             d="M77.36,6.88v75.36h20.78V6.88h-20.78ZM96.78,77.33h-18.06V11.8h18.06v65.53Z"
             id="path9" />
          <path
             class="cls-11"
             d="M79.96,70.92c-.37,0-.67-.3-.67-.67V11.8c0-.37.29-.67.67-.67s.66.3.66.67v58.45c0,.37-.29.67-.66.67Z"
             id="path10" />
        </g>
        <g
           id="g12">
          <rect
             class="cls-10"
             x="103.93"
             y="6.88"
             width="20.78"
             height="75.36"
             id="rect10" />
          <path
             class="cls-5"
             d="M103.93,6.88v75.36h20.78V6.88h-20.78ZM123.36,77.33h-18.07V11.8h18.07v65.53Z"
             id="path11" />
          <path
             class="cls-11"
             d="M106.53,70.92c-.37,0-.67-.3-.67-.67V11.8c0-.37.3-.67.67-.67s.67.3.67.67v58.45c0,.37-.3.67-.67.67Z"
             id="path12" />
        </g>
        <g
           id="g14">
          <rect
             class="cls-10"
             x="130.51"
             y="6.88"
             width="20.78"
             height="75.36"
             id="rect12" />
          <path
             class="cls-5"
             d="M130.51,6.88v75.36h20.78V6.88h-20.78ZM149.93,77.33h-18.07V11.8h18.07v65.53Z"
             id="path13" />
          <path
             class="cls-11"
             d="M133.11,70.92c-.37,0-.67-.3-.67-.67V11.8c0-.37.3-.67.67-.67s.67.3.67.67v58.45c0,.37-.3.67-.67.67Z"
             id="path14" />
        </g>
        <g
           id="g16">
          <rect
             class="cls-10"
             x="157.09"
             y="6.88"
             width="20.78"
             height="75.36"
             id="rect14" />
          <path
             class="cls-5"
             d="M157.09,6.88v75.36h20.78V6.88h-20.78ZM176.5,77.33h-18.06V11.8h18.06v65.53Z"
             id="path15" />
          <path
             class="cls-11"
             d="M159.68,70.92c-.37,0-.67-.3-.67-.67V11.8c0-.37.3-.67.67-.67s.67.3.67.67v58.45c0,.37-.3.67-.67.67Z"
             id="path16" />
        </g>
        <g
           id="g18">
          <rect
             class="cls-10"
             x="183.66"
             y="6.88"
             width="20.77"
             height="75.36"
             id="rect16" />
          <path
             class="cls-5"
             d="M183.66,6.88v75.36h20.77V6.88h-20.77ZM203.08,77.33h-18.06V11.8h18.06v65.53Z"
             id="path17" />
          <path
             class="cls-11"
             d="M186.26,70.92c-.37,0-.67-.3-.67-.67V11.8c0-.37.3-.67.67-.67s.67.3.67.67v58.45c0,.37-.3.67-.67.67Z"
             id="path18" />
        </g>
        <g
           id="g20">
          <rect
             class="cls-10"
             x="210.24"
             y="6.88"
             width="20.77"
             height="75.36"
             id="rect18" />
          <path
             class="cls-5"
             d="M210.24,6.88v75.36h20.77V6.88h-20.77ZM229.66,77.33h-18.06V11.8h18.06v65.53Z"
             id="path19" />
          <path
             class="cls-11"
             d="M212.84,70.92c-.37,0-.67-.3-.67-.67V11.8c0-.37.3-.67.67-.67s.67.3.67.67v58.45c0,.37-.3.67-.67.67Z"
             id="path20" />
        </g>
        <g
           id="g22">
          <rect
             class="cls-10"
             x="236.82"
             y="6.88"
             width="20.77"
             height="75.36"
             id="rect20" />
          <path
             class="cls-5"
             d="M236.82,6.88v75.36h20.77V6.88h-20.77ZM256.23,77.33h-18.06V11.8h18.06v65.53Z"
             id="path21" />
          <path
             class="cls-11"
             d="M239.41,70.92c-.37,0-.67-.3-.67-.67V11.8c0-.37.3-.67.67-.67s.67.3.67.67v58.45c0,.37-.3.67-.67.67Z"
             id="path22" />
        </g>
        <g
           id="g24">
          <rect
             class="cls-10"
             x="263.39"
             y="6.88"
             width="20.78"
             height="75.36"
             id="rect22" />
          <path
             class="cls-5"
             d="M263.39,6.88v75.36h20.78V6.88h-20.78ZM282.81,77.33h-18.06V11.8h18.06v65.53Z"
             id="path23" />
          <path
             class="cls-11"
             d="M265.98,70.92c-.37,0-.67-.3-.67-.67V11.8c0-.37.3-.67.67-.67s.67.3.67.67v58.45c0,.37-.3.67-.67.67Z"
             id="path24" />
        </g>
        <g
           id="g26">
          <rect
             class="cls-10"
             x="289.96"
             y="6.88"
             width="20.78"
             height="75.36"
             id="rect24" />
          <path
             class="cls-5"
             d="M289.96,6.88v75.36h20.78V6.88h-20.78ZM309.39,77.33h-18.07V11.8h18.07v65.53Z"
             id="path25" />
          <path
             class="cls-11"
             d="M292.56,70.92c-.37,0-.67-.3-.67-.67V11.8c0-.37.3-.67.67-.67s.67.3.67.67v58.45c0,.37-.3.67-.67.67Z"
             id="path26" />
        </g>
        <g
           id="g28">
          <rect
             class="cls-10"
             x="316.54"
             y="6.88"
             width="20.78"
             height="75.36"
             id="rect26" />
          <path
             class="cls-5"
             d="M316.54,6.88v75.36h20.78V6.88h-20.78ZM335.96,77.33h-18.07V11.8h18.07v65.53Z"
             id="path27" />
          <path
             class="cls-11"
             d="M319.14,70.92c-.37,0-.67-.3-.67-.67V11.8c0-.37.3-.67.67-.67s.67.3.67.67v58.45c0,.37-.3.67-.67.67Z"
             id="path28" />
        </g>
        <g
           id="g30">
          <rect
             class="cls-10"
             x="428.14"
             y="6.88"
             width="20.2"
             height="75.36"
             id="rect28" />
          <path
             class="cls-5"
             d="M428.14,6.88v75.36h20.2V6.88h-20.2ZM447.03,77.33h-17.57V11.8h17.57v65.53Z"
             id="path29" />
          <path
             class="cls-11"
             d="M430.66,70.91c-.37,0-.66-.29-.66-.66V11.8c0-.37.29-.66.66-.66s.65.29.65.66v58.45c0,.37-.29.66-.65.66Z"
             id="path30" />
        </g>
        <g
           id="g32">
          <rect
             class="cls-10"
             x="455.99"
             y="6.88"
             width="20.21"
             height="75.36"
             id="rect30" />
          <path
             class="cls-5"
             d="M455.99,6.88v75.36h20.21V6.88h-20.21ZM474.88,77.33h-17.57V11.8h17.57v65.53Z"
             id="path31" />
          <path
             class="cls-11"
             d="M458.52,70.91c-.37,0-.66-.29-.66-.66V11.8c0-.37.29-.66.66-.66s.65.29.65.66v58.45c0,.37-.29.66-.65.66Z"
             id="path32" />
        </g>
        <g
           id="g34">
          <rect
             class="cls-10"
             x="483.84"
             y="6.88"
             width="20.21"
             height="75.36"
             id="rect32" />
          <path
             class="cls-5"
             d="M483.84,6.88v75.36h20.21V6.88h-20.21ZM502.73,77.33h-17.57V11.8h17.57v65.53Z"
             id="path33" />
          <path
             class="cls-11"
             d="M486.37,70.91c-.36,0-.65-.29-.65-.66V11.8c0-.37.29-.66.65-.66s.66.29.66.66v58.45c0,.37-.29.66-.66.66Z"
             id="path34" />
        </g>
        <g
           id="g36">
          <rect
             class="cls-10"
             x="511.7"
             y="6.88"
             width="20.21"
             height="75.36"
             id="rect34" />
          <path
             class="cls-5"
             d="M511.7,6.88v75.36h20.21V6.88h-20.21ZM530.59,77.33h-17.57V11.8h17.57v65.53Z"
             id="path35" />
          <path
             class="cls-11"
             d="M514.22,70.91c-.37,0-.65-.29-.65-.66V11.8c0-.37.29-.66.65-.66s.66.29.66.66v58.45c0,.37-.29.66-.66.66Z"
             id="path36" />
        </g>
        <g
           id="g38">
          <rect
             class="cls-10"
             x="539.55"
             y="6.88"
             width="20.21"
             height="75.36"
             id="rect36" />
          <path
             class="cls-5"
             d="M539.55,6.88v75.36h20.21V6.88h-20.21ZM558.44,77.33h-17.57V11.8h17.57v65.53Z"
             id="path37" />
          <path
             class="cls-11"
             d="M542.07,70.91c-.36,0-.66-.29-.66-.66V11.8c0-.37.29-.66.66-.66s.66.29.66.66v58.45c0,.37-.29.66-.66.66Z"
             id="path38" />
        </g>
        <g
           id="g40">
          <rect
             class="cls-10"
             x="567.41"
             y="6.88"
             width="20.21"
             height="75.36"
             id="rect38" />
          <path
             class="cls-5"
             d="M567.41,6.88v75.36h20.21V6.88h-20.21ZM586.3,77.33h-17.57V11.8h17.57v65.53Z"
             id="path39" />
          <path
             class="cls-11"
             d="M569.93,70.91c-.37,0-.66-.29-.66-.66V11.8c0-.37.29-.66.66-.66s.65.29.65.66v58.45c0,.37-.29.66-.65.66Z"
             id="path40" />
        </g>
        <g
           id="g42">
          <rect
             class="cls-10"
             x="595.26"
             y="6.88"
             width="20.21"
             height="75.36"
             id="rect40" />
          <path
             class="cls-5"
             d="M595.26,6.88v75.36h20.21V6.88h-20.21ZM614.15,77.33h-17.57V11.8h17.57v65.53Z"
             id="path41" />
          <path
             class="cls-11"
             d="M597.79,70.91c-.37,0-.66-.29-.66-.66V11.8c0-.37.29-.66.66-.66s.65.29.65.66v58.45c0,.37-.29.66-.65.66Z"
             id="path42" />
        </g>
        <g
           id="g44">
          <rect
             class="cls-10"
             x="623.11"
             y="6.88"
             width="20.21"
             height="75.36"
             id="rect42" />
          <path
             class="cls-5"
             d="M623.11,6.88v75.36h20.21V6.88h-20.21ZM642,77.33h-17.57V11.8h17.57v65.53Z"
             id="path43" />
          <path
             class="cls-11"
             d="M625.64,70.91c-.37,0-.65-.29-.65-.66V11.8c0-.37.29-.66.65-.66s.66.29.66.66v58.45c0,.37-.29.66-.66.66Z"
             id="path44" />
        </g>
        <g
           id="g46">
          <rect
             class="cls-10"
             x="650.96"
             y="6.88"
             width="20.21"
             height="75.36"
             id="rect44" />
          <path
             class="cls-5"
             d="M650.96,6.88v75.36h20.21V6.88h-20.21ZM669.86,77.33h-17.57V11.8h17.57v65.53Z"
             id="path45" />
          <path
             class="cls-11"
             d="M653.49,70.91c-.37,0-.65-.29-.65-.66V11.8c0-.37.29-.66.65-.66s.66.29.66.66v58.45c0,.37-.29.66-.66.66Z"
             id="path46" />
        </g>
        <g
           id="g48">
          <rect
             class="cls-10"
             x="678.82"
             y="6.88"
             width="20.2"
             height="75.36"
             id="rect46" />
          <path
             class="cls-5"
             d="M678.82,6.88v75.36h20.2V6.88h-20.2ZM697.71,77.33h-17.57V11.8h17.57v65.53Z"
             id="path47" />
          <path
             class="cls-11"
             d="M681.34,70.91c-.36,0-.66-.29-.66-.66V11.8c0-.37.29-.66.66-.66s.66.29.66.66v58.45c0,.37-.29.66-.66.66Z"
             id="path48" />
        </g>
        <g
           id="g50">
          <rect
             class="cls-10"
             x="843.84"
             y="6.88"
             width="20.21"
             height="75.36"
             id="rect48" />
          <path
             class="cls-5"
             d="M843.84,6.88v75.36h20.21V6.88h-20.21ZM862.73,77.33h-17.57V11.8h17.57v65.53Z"
             id="path49" />
          <path
             class="cls-11"
             d="M846.37,70.91c-.37,0-.66-.29-.66-.66V11.8c0-.37.29-.66.66-.66s.66.29.66.66v58.45c0,.37-.29.66-.66.66Z"
             id="path50" />
        </g>
        <g
           id="g52">
          <rect
             class="cls-10"
             x="873.37"
             y="6.88"
             width="20.21"
             height="75.36"
             id="rect50" />
          <path
             class="cls-5"
             d="M873.37,6.88v75.36h20.21V6.88h-20.21ZM892.26,77.33h-17.57V11.8h17.57v65.53Z"
             id="path51" />
          <path
             class="cls-11"
             d="M875.89,70.91c-.36,0-.65-.29-.65-.66V11.8c0-.37.29-.66.65-.66s.66.29.66.66v58.45c0,.37-.29.66-.66.66Z"
             id="path52" />
        </g>
        <g
           id="g54">
          <rect
             class="cls-10"
             x="902.9"
             y="6.88"
             width="20.2"
             height="75.36"
             id="rect52" />
          <path
             class="cls-5"
             d="M902.9,6.88v75.36h20.2V6.88h-20.2ZM921.79,77.33h-17.57V11.8h17.57v65.53Z"
             id="path53" />
          <path
             class="cls-11"
             d="M905.42,70.91c-.36,0-.66-.29-.66-.66V11.8c0-.37.29-.66.66-.66s.65.29.65.66v58.45c0,.37-.29.66-.65.66Z"
             id="path54" />
        </g>
        <g
           id="g56">
          <rect
             class="cls-10"
             x="706.68"
             y="6.88"
             width="20.2"
             height="75.36"
             id="rect54" />
          <path
             class="cls-5"
             d="M706.68,6.88v75.36h20.2V6.88h-20.2ZM725.57,77.33h-17.57V11.8h17.57v65.53Z"
             id="path55" />
          <path
             class="cls-11"
             d="M709.2,70.91c-.36,0-.66-.29-.66-.66V11.8c0-.37.29-.66.66-.66s.65.29.65.66v58.45c0,.37-.29.66-.65.66Z"
             id="path56" />
        </g>
        <g
           id="g58">
          <rect
             class="cls-10"
             x="734.53"
             y="6.88"
             width="20.21"
             height="75.36"
             id="rect56" />
          <path
             class="cls-5"
             d="M734.53,6.88v75.36h20.21V6.88h-20.21ZM753.42,77.33h-17.57V11.8h17.57v65.53Z"
             id="path57" />
          <path
             class="cls-11"
             d="M737.06,70.91c-.37,0-.66-.29-.66-.66V11.8c0-.37.29-.66.66-.66s.65.29.65.66v58.45c0,.37-.29.66-.65.66Z"
             id="path58" />
        </g>
        <g
           id="g61">
          <g
             id="g59">
            <rect
               class="cls-4"
               x="79.19"
               y="1005.88"
               width="358.93"
               height="552.95"
               id="rect58" />
            <polygon
               class="cls-9"
               points="85.89 1010.92 432.43 1010.92 432.43 1008.07 82.41 1008.07 82.41 1557.24 85.89 1557.24 85.89 1010.92"
               id="polygon58" />
          </g>
          <g
             id="g60">
            <rect
               class="cls-4"
               x="77.05"
               y="322.58"
               width="300.08"
               height="619.21"
               id="rect59" />
            <polygon
               class="cls-9"
               points="82.66 328.21 372.37 328.21 372.37 325.02 79.75 325.02 79.75 940 82.66 940 82.66 328.21"
               id="polygon59" />
          </g>
        </g>
        <path
           class="cls-15"
           d="M925.99,1510.33H375.94c-5.9,0-11.42-1.64-16.13-4.47-9.09-5.48-15.17-15.44-15.17-26.83V353.88c0-11.39,6.08-21.36,15.17-26.83,4.71-2.84,10.23-4.47,16.13-4.47h550.05c8.64,0,16.46,3.5,22.13,9.16,5.66,5.67,9.17,13.49,9.17,22.14v1125.16c0,7.65-2.74,14.66-7.3,20.09-5.74,6.85-14.36,11.21-24,11.21Z"
           id="path61" />
        <path
           class="cls-13"
           d="M944.92,82.21v63.84H65.97v-30.91c12.16.91,26.55,2.03,38,3.24,24.42,2.54,293.16,13.89,417.79,13.89s292.65,7.7,324.57,6.38c31.92-1.32,76.81-56.44,76.81-56.44h21.78Z"
           id="path62"
           style="fill:#008080" />
        <polygon
           class="cls-12"
           points="957.29 181.72 29.64 181.72 29.64 668.11 65.97 609.85 66.01 305.85 921.79 294.45 957.29 181.72"
           id="polygon62"
           style="fill:#00a9a9;fill-opacity:1" />
        <path
           class="cls-1"
           d="M342.83,1747.36H34.28c-4.19,0-7.6-3.41-7.6-7.6v-882.56c0-4.19,3.41-7.6,7.6-7.6s7.6,3.4,7.6,7.6v874.96h295.98c9.27-19.91,49.72-93.43,145.62-104.71,4.11-.56,7.94,2.48,8.43,6.65.49,4.18-2.49,7.95-6.66,8.44-99.47,11.71-135,99.12-135.35,100-1.15,2.91-3.95,4.83-7.08,4.83Z"
           id="path63"
           style="fill:#00b4b4;fill-opacity:1" />
        <path
           class="cls-1"
           d="M985.12,1767.91h-276.78c-2.52,0-4.56-2.04-4.56-4.56s2.04-4.56,4.56-4.56h272.23v-605.97c0-2.52,2.04-4.56,4.56-4.56s4.56,2.03,4.56,4.56v610.53c0,2.52-2.04,4.56-4.56,4.56Z"
           id="path64"
           style="fill:#00bfbf;fill-opacity:1" />
        <rect
           class="cls-4"
           x="373.96"
           y="391.39"
           width="414.41"
           height="56.33"
           id="rect64" />
        <rect
           class="cls-4"
           x="373.96"
           y="533.25"
           width="414.41"
           height="109.53"
           id="rect65" />
        <g
           id="g92">
          <rect
             class="cls-4"
             x="392.23"
             y="749.76"
             width="134.44"
             height="7.81"
             id="rect66" />
          <rect
             class="cls-4"
             x="392.23"
             y="764.12"
             width="134.44"
             height="5.91"
             id="rect67" />
          <rect
             class="cls-4"
             x="392.23"
             y="778.47"
             width="134.44"
             height="4.43"
             id="rect68" />
          <rect
             class="cls-4"
             x="392.23"
             y="792.83"
             width="134.44"
             height="5.91"
             id="rect69" />
          <rect
             class="cls-4"
             x="392.23"
             y="807.18"
             width="134.44"
             height="5.91"
             id="rect70" />
          <rect
             class="cls-4"
             x="392.23"
             y="821.54"
             width="134.44"
             height="8.65"
             id="rect71" />
          <rect
             class="cls-4"
             x="392.23"
             y="835.89"
             width="134.44"
             height="5.91"
             id="rect72" />
          <rect
             class="cls-4"
             x="392.23"
             y="850.25"
             width="134.44"
             height="3.65"
             id="rect73" />
          <rect
             class="cls-4"
             x="392.23"
             y="864.6"
             width="134.44"
             height="5.91"
             id="rect74" />
          <rect
             class="cls-4"
             x="392.23"
             y="878.96"
             width="134.44"
             height="4.54"
             id="rect75" />
          <rect
             class="cls-4"
             x="392.23"
             y="893.31"
             width="134.44"
             height="5.91"
             id="rect76" />
          <rect
             class="cls-4"
             x="392.23"
             y="907.67"
             width="134.44"
             height="3.7"
             id="rect77" />
          <rect
             class="cls-4"
             x="392.23"
             y="924.01"
             width="134.44"
             height="3.92"
             id="rect78" />
          <rect
             class="cls-4"
             x="392.23"
             y="936.39"
             width="134.44"
             height="5.91"
             id="rect79" />
          <rect
             class="cls-4"
             x="392.23"
             y="950.73"
             width="134.44"
             height="5.91"
             id="rect80" />
          <rect
             class="cls-4"
             x="392.23"
             y="965.09"
             width="134.44"
             height="5.91"
             id="rect81" />
          <rect
             class="cls-4"
             x="392.23"
             y="979.45"
             width="134.44"
             height="5.91"
             id="rect82" />
          <rect
             class="cls-4"
             x="392.23"
             y="993.81"
             width="134.44"
             height="5.91"
             id="rect83" />
          <rect
             class="cls-4"
             x="392.23"
             y="1003.52"
             width="134.44"
             height="10.55"
             id="rect84" />
          <rect
             class="cls-4"
             x="392.23"
             y="1022.51"
             width="134.44"
             height="5.91"
             id="rect85" />
          <rect
             class="cls-4"
             x="392.23"
             y="1036.87"
             width="134.44"
             height="5.91"
             id="rect86" />
          <rect
             class="cls-4"
             x="392.23"
             y="1051.22"
             width="134.44"
             height="5.92"
             id="rect87" />
          <rect
             class="cls-4"
             x="392.23"
             y="1063.68"
             width="134.44"
             height="7.81"
             id="rect88" />
          <rect
             class="cls-4"
             x="392.23"
             y="1079.94"
             width="134.44"
             height="5.91"
             id="rect89" />
          <rect
             class="cls-4"
             x="392.23"
             y="1090.91"
             width="134.44"
             height="9.29"
             id="rect90" />
          <rect
             class="cls-4"
             x="392.23"
             y="1108.64"
             width="134.44"
             height="5.92"
             id="rect91" />
          <rect
             class="cls-4"
             x="392.23"
             y="1123"
             width="134.44"
             height="5.91"
             id="rect92" />
        </g>
        <g
           id="g119">
          <rect
             class="cls-4"
             x="628.85"
             y="752.82"
             width="172.08"
             height="10.17"
             id="rect93" />
          <rect
             class="cls-4"
             x="628.85"
             y="771.52"
             width="172.08"
             height="7.7"
             id="rect94" />
          <rect
             class="cls-4"
             x="628.85"
             y="790.21"
             width="172.08"
             height="5.78"
             id="rect95" />
          <rect
             class="cls-4"
             x="628.85"
             y="808.91"
             width="172.08"
             height="7.7"
             id="rect96" />
          <rect
             class="cls-4"
             x="628.85"
             y="827.61"
             width="172.08"
             height="7.7"
             id="rect97" />
          <rect
             class="cls-4"
             x="628.85"
             y="846.3"
             width="172.08"
             height="11.27"
             id="rect98" />
          <rect
             class="cls-4"
             x="628.85"
             y="865"
             width="172.08"
             height="7.7"
             id="rect99" />
          <rect
             class="cls-4"
             x="628.85"
             y="883.69"
             width="172.08"
             height="4.74"
             id="rect100" />
          <rect
             class="cls-4"
             x="628.85"
             y="902.38"
             width="172.08"
             height="7.7"
             id="rect101" />
          <rect
             class="cls-4"
             x="628.85"
             y="921.08"
             width="172.08"
             height="5.91"
             id="rect102" />
          <rect
             class="cls-4"
             x="628.85"
             y="939.78"
             width="172.08"
             height="7.7"
             id="rect103" />
          <rect
             class="cls-4"
             x="628.85"
             y="958.47"
             width="172.08"
             height="4.83"
             id="rect104" />
          <rect
             class="cls-4"
             x="628.85"
             y="979.75"
             width="172.08"
             height="5.12"
             id="rect105" />
          <rect
             class="cls-4"
             x="628.85"
             y="995.86"
             width="172.08"
             height="7.7"
             id="rect106" />
          <rect
             class="cls-4"
             x="628.85"
             y="1014.56"
             width="172.08"
             height="7.69"
             id="rect107" />
          <rect
             class="cls-4"
             x="628.85"
             y="1033.26"
             width="172.08"
             height="7.7"
             id="rect108" />
          <rect
             class="cls-4"
             x="628.85"
             y="1051.95"
             width="172.08"
             height="7.7"
             id="rect109" />
          <rect
             class="cls-4"
             x="628.85"
             y="1070.65"
             width="172.08"
             height="7.69"
             id="rect110" />
          <rect
             class="cls-4"
             x="628.85"
             y="1083.29"
             width="172.08"
             height="13.75"
             id="rect111" />
          <rect
             class="cls-4"
             x="628.85"
             y="1108.04"
             width="172.08"
             height="7.7"
             id="rect112" />
          <rect
             class="cls-4"
             x="628.85"
             y="1126.74"
             width="172.08"
             height="7.69"
             id="rect113" />
          <rect
             class="cls-4"
             x="628.85"
             y="1145.43"
             width="172.08"
             height="7.7"
             id="rect114" />
          <rect
             class="cls-4"
             x="628.85"
             y="1161.65"
             width="172.08"
             height="10.17"
             id="rect115" />
          <rect
             class="cls-4"
             x="628.85"
             y="1182.82"
             width="172.08"
             height="7.69"
             id="rect116" />
          <rect
             class="cls-4"
             x="628.85"
             y="1197.12"
             width="172.08"
             height="12.1"
             id="rect117" />
          <rect
             class="cls-4"
             x="628.85"
             y="1220.21"
             width="172.08"
             height="7.7"
             id="rect118" />
          <rect
             class="cls-4"
             x="628.85"
             y="1238.91"
             width="172.08"
             height="7.7"
             id="rect119" />
        </g>
      </g>
    </g>
  </g>
</svg>
