<?xml version="1.0" encoding="UTF-8" standalone="no"?>
<svg
   id="Layer_2"
   data-name="Layer 2"
   viewBox="0 0 3948.24 4300"
   version="1.1"
   sodipodi:docname="pc-uptime.svg"
   inkscape:version="1.3.2 (091e20e, 2023-11-25, custom)"
   xmlns:inkscape="http://www.inkscape.org/namespaces/inkscape"
   xmlns:sodipodi="http://sodipodi.sourceforge.net/DTD/sodipodi-0.dtd"
   xmlns="http://www.w3.org/2000/svg"
   xmlns:svg="http://www.w3.org/2000/svg">
  <sodipodi:namedview
     id="namedview113"
     pagecolor="#ffffff"
     bordercolor="#000000"
     borderopacity="0.25"
     inkscape:showpageshadow="2"
     inkscape:pageopacity="0.0"
     inkscape:pagecheckerboard="0"
     inkscape:deskcolor="#d1d1d1"
     inkscape:zoom="0.18906977"
     inkscape:cx="1980.7503"
     inkscape:cy="2959.2251"
     inkscape:window-width="1920"
     inkscape:window-height="1009"
     inkscape:window-x="1912"
     inkscape:window-y="39"
     inkscape:window-maximized="1"
     inkscape:current-layer="Layer_1-2" />
  <defs
     id="defs1">
    <style
       id="style1">
      .cls-1 {
        fill: #b0b8cf;
      }

      .cls-1, .cls-2, .cls-3, .cls-4, .cls-5, .cls-6, .cls-7, .cls-8, .cls-9, .cls-10, .cls-11, .cls-12, .cls-13, .cls-14, .cls-15, .cls-16, .cls-17 {
        stroke-width: 0px;
      }

      .cls-2 {
        fill: #1d2943;
      }

      .cls-3 {
        fill: #e9e7fc;
      }

      .cls-4 {
        fill: #c9cee2;
      }

      .cls-5 {
        fill: #416e84;
      }

      .cls-18 {
        isolation: isolate;
      }

      .cls-6 {
        fill: #566df9;
      }

      .cls-7 {
        fill: #b28afd;
      }

      .cls-8 {
        fill: #f3f1fc;
      }

      .cls-9 {
        fill: #e93565;
      }

      .cls-10 {
        fill: #dedffb;
      }

      .cls-11 {
        fill: #fff;
      }

      .cls-19 {
        opacity: .3;
      }

      .cls-12 {
        fill: #4c5c75;
      }

      .cls-13 {
        fill: #febc1f;
      }

      .cls-14 {
        fill: #57b3fe;
      }

      .cls-15 {
        fill: #9ea9c9;
      }

      .cls-16 {
        fill: #f45170;
      }

      .cls-17 {
        fill: #ffd06c;
      }
    </style>
  </defs>
  <g
     id="Layer_1-2"
     data-name="Layer 1">
    <g
       id="_4"
       data-name="4">
      <g
         id="g57">
        <g
           id="g35">
          <g
             id="g31">
            <g
               id="g4">
              <path
                 class="cls-15"
                 d="M2229.44,3116.45c-43.92,0-87.75-9.62-121.08-29.04l-706.08-410.3c-35.69-20.73-55.29-49.25-55.2-80.31.09-31.32,19.95-59.93,55.99-80.66l709.76-409.77c68.06-39.54,174.71-39.37,242.42,0l706.08,410.3c35.43,20.56,54.85,49.08,54.85,80.4-.09,31.32-19.77,59.93-55.64,80.57l-709.76,409.77c-33.51,19.42-77.42,29.04-121.34,29.04ZM2234.16,2112.57c-37.44,0-74.89,8.31-103.49,24.76l-709.76,409.77c-24.5,14.17-37.97,31.84-37.97,49.69-.09,17.76,13.21,35.34,37.36,49.34l706.08,410.3c55.81,32.37,150.21,32.37,206.55,0l709.76-409.77c24.23-14,37.62-31.67,37.62-49.69.09-17.67-13.47-35.69-37.01-49.34l-706.08-410.3c-28.34-16.53-65.7-24.76-103.06-24.76Z"
                 id="path1"
                 style="fill:#37c8ab" />
              <g
                 class="cls-18"
                 id="g3">
                <path
                   class="cls-10"
                   d="M1411.28,2238.61l706.1,410.34c61.02,35.46,162.08,36.03,224.48,0l709.75-409.77c31.28-18.06,46.71-41.77,46.65-65.4l.53,313.37c.07,23.63-15.37,47.35-46.65,65.4l-709.74,409.77c-62.4,36.03-163.45,35.46-224.48,0l-706.1-410.34c-30.8-17.89-46.21-41.21-46.28-64.56l-.53-313.37c.07,23.35,15.49,46.66,46.28,64.56Z"
                   id="path2"
                   style="fill:#87decd" />
                <path
                   class="cls-8"
                   d="M1412.02,2108.59c-62.4,36.02-62.72,94-.73,130.02l706.1,410.34c61.02,35.46,162.08,36.03,224.48,0l709.74-409.77c62.4-36.02,61.75-94.56.73-130.03l-706.1-410.34c-61.99-36.02-162.08-36.02-224.48,0l-709.74,409.77Z"
                   id="path3"
                   style="fill:#008080" />
              </g>
            </g>
            <g
               id="g20">
              <g
                 id="g9">
                <g
                   class="cls-18"
                   id="g5">
                  <path
                     class="cls-4"
                     d="M1603.1,1979.35l540.84,314.3c46.74,27.16,124.15,27.59,171.94,0l543.63-313.87c23.96-13.83,35.78-32,35.73-50.1l.41,183.23c.05,18.1-11.78,36.26-35.73,50.1l-543.63,313.87c-47.79,27.59-125.2,27.16-171.94,0l-540.84-314.3c-23.59-13.71-35.4-31.56-35.45-49.45l-.41-183.23c.05,17.89,11.86,35.74,35.45,49.45Z"
                     id="path4" />
                  <path
                     class="cls-8"
                     d="M1603.66,1879.76c-47.79,27.59-48.04,72-.56,99.59l540.84,314.3c46.74,27.16,124.15,27.59,171.94,0l543.63-313.87c47.79-27.59,47.3-72.43.56-99.59l-540.84-314.3c-47.48-27.59-124.15-27.59-171.94,0l-543.63,313.87Z"
                     id="path5" />
                </g>
                <g
                   id="g8">
                  <path
                     class="cls-2"
                     d="M2082.1,2328.41c-16.54-9.55-30.46-2.85-30.51,16.78-.05,19.01,13.78,42.35,30.32,51.9,16.54,9.55,29.93,1.92,29.98-17.08.06-19.62-13.24-42.04-29.78-51.59Z"
                     id="path6" />
                  <path
                     class="cls-2"
                     d="M1981.25,2270.18c-16.54-9.55-30.46-2.85-30.51,16.78-.05,19.01,13.78,42.35,30.32,51.9,16.54,9.55,29.93,1.92,29.98-17.08.06-19.62-13.24-42.04-29.78-51.59Z"
                     id="path7" />
                  <path
                     class="cls-2"
                     d="M1880.4,2211.95c-17.08-9.86-30.46-2.85-30.51,16.78-.05,19.01,13.24,42.04,30.32,51.9,16.01,9.24,29.93,1.92,29.98-17.08.06-19.62-13.78-42.35-29.78-51.59Z"
                     id="path8" />
                </g>
              </g>
              <g
                 id="g14">
                <g
                   class="cls-18"
                   id="g10">
                  <path
                     class="cls-4"
                     d="M1603.1,1666.84l540.84,314.3c46.74,27.16,124.15,27.59,171.94,0l543.63-313.87c23.96-13.83,35.78-32,35.73-50.1l.41,183.23c.05,18.1-11.78,36.26-35.73,50.1l-543.63,313.87c-47.79,27.59-125.2,27.16-171.94,0l-540.84-314.3c-23.59-13.71-35.4-31.56-35.45-49.45l-.41-183.23c.05,17.89,11.86,35.74,35.45,49.45Z"
                     id="path9" />
                  <path
                     class="cls-8"
                     d="M1603.66,1567.25c-47.79,27.59-48.04,72-.56,99.59l540.84,314.3c46.74,27.16,124.15,27.59,171.94,0l543.63-313.87c47.79-27.59,47.3-72.43.56-99.59l-540.84-314.3c-47.48-27.59-124.15-27.59-171.94,0l-543.63,313.87Z"
                     id="path10" />
                </g>
                <g
                   id="g13">
                  <path
                     class="cls-2"
                     d="M2082.1,2015.9c-16.54-9.55-30.46-2.85-30.51,16.78-.05,19.01,13.78,42.35,30.32,51.9,16.54,9.55,29.93,1.92,29.98-17.08.06-19.62-13.24-42.04-29.78-51.59Z"
                     id="path11" />
                  <path
                     class="cls-2"
                     d="M1981.25,1957.67c-16.54-9.55-30.46-2.85-30.51,16.78-.05,19.01,13.78,42.35,30.32,51.9,16.54,9.55,29.93,1.92,29.98-17.08.06-19.62-13.24-42.04-29.78-51.59Z"
                     id="path12" />
                  <path
                     class="cls-2"
                     d="M1880.4,1899.44c-17.08-9.86-30.46-2.85-30.51,16.78-.05,19.01,13.24,42.04,30.32,51.9,16.01,9.24,29.93,1.92,29.98-17.08.06-19.62-13.78-42.35-29.78-51.59Z"
                     id="path13" />
                </g>
              </g>
              <g
                 id="g19">
                <g
                   class="cls-18"
                   id="g15">
                  <path
                     class="cls-4"
                     d="M1603.1,1354.33l540.84,314.3c46.74,27.16,124.15,27.59,171.94,0l543.63-313.87c23.96-13.83,35.78-32,35.73-50.1l.41,183.23c.05,18.1-11.78,36.26-35.73,50.1l-543.63,313.87c-47.79,27.59-125.2,27.16-171.94,0l-540.84-314.3c-23.59-13.71-35.4-31.56-35.45-49.45l-.41-183.23c.05,17.89,11.86,35.74,35.45,49.45Z"
                     id="path14" />
                  <path
                     class="cls-8"
                     d="M1603.66,1254.74c-47.79,27.59-48.04,72-.56,99.59l540.84,314.3c46.74,27.16,124.15,27.59,171.94,0l543.63-313.87c47.79-27.59,47.3-72.43.56-99.59l-540.84-314.3c-47.48-27.59-124.15-27.59-171.94,0l-543.63,313.87Z"
                     id="path15" />
                </g>
                <g
                   id="g18">
                  <path
                     class="cls-2"
                     d="M2082.1,1703.39c-16.54-9.55-30.46-2.85-30.51,16.78-.05,19.01,13.78,42.35,30.32,51.9,16.54,9.55,29.93,1.92,29.98-17.08.06-19.62-13.24-42.04-29.78-51.59Z"
                     id="path16" />
                  <path
                     class="cls-2"
                     d="M1981.25,1645.16c-16.54-9.55-30.46-2.85-30.51,16.78-.05,19.01,13.78,42.35,30.32,51.9,16.54,9.55,29.93,1.92,29.98-17.08.06-19.62-13.24-42.04-29.78-51.59Z"
                     id="path17" />
                  <path
                     class="cls-2"
                     d="M1880.4,1586.93c-17.08-9.86-30.46-2.85-30.51,16.78-.05,19.01,13.24,42.04,30.32,51.9,16.01,9.24,29.93,1.92,29.98-17.08.06-19.62-13.78-42.35-29.78-51.59Z"
                     id="path18" />
                </g>
              </g>
            </g>
            <g
               class="cls-19"
               id="g22">
              <g
                 class="cls-18"
                 id="g21">
                <path
                   class="cls-14"
                   d="M1491.88,857.29l635.45,369.28c54.92,31.92,145.86,32.42,202.02,0l638.72-368.77c27.98-16.16,41.87-37.55,41.82-58.89l3.17,1346.08c.06,21.34-13.83,42.73-41.81,58.89l-638.73,368.77c-56.15,32.42-147.1,31.91-202.02,0l-635.45-369.28c-27.71-16.1-41.58-37.08-41.64-58.1l-3.18-1346.07c.06,21.01,13.94,41.99,41.65,58.1Z"
                   id="path20"
                   style="fill:#008080" />
              </g>
            </g>
            <g
               class="cls-18"
               id="g23">
              <path
                 class="cls-10"
                 d="M1411.28,566.81l706.1,410.34c61.02,35.46,162.08,36.03,224.48,0l709.75-409.77c31.28-18.06,46.71-41.77,46.65-65.4l.53,313.37c.07,23.63-15.37,47.35-46.65,65.4l-709.74,409.77c-62.4,36.03-163.45,35.46-224.48,0l-706.1-410.34c-30.8-17.89-46.21-41.21-46.28-64.56l-.53-313.37c.07,23.35,15.49,46.66,46.28,64.56Z"
                 id="path22" />
              <path
                 class="cls-8"
                 d="M1412.02,436.79c-62.4,36.02-62.72,94-.73,130.02l706.1,410.34c61.02,35.46,162.08,36.03,224.48,0l709.74-409.77c62.4-36.02,61.75-94.56.73-130.03L2346.24,27.02c-61.99-36.02-162.08-36.02-224.48,0l-709.74,409.77Z"
                 id="path23" />
            </g>
            <g
               id="g27">
              <g
                 class="cls-18"
                 id="g25">
                <path
                   class="cls-1"
                   d="M1697.02,446.6l469.64,272.93c34.72,20.18,90.97,20.04,125.91-.14l472.71-272.92c17.58-10.15,26.37-23.41,26.33-36.65l.43,126.79c.04,13.24-8.74,26.5-26.33,36.65l-472.71,272.92c-34.95,20.18-91.2,20.31-125.92.14l-469.64-272.92c-17.19-9.99-25.76-23.02-25.8-36.08l-.43-126.79c.04,13.06,8.61,26.09,25.8,36.08Z"
                   id="path24" />
                <path
                   class="cls-11"
                   d="M1697.67,373.66c-34.95,20.18-35.36,52.76-.65,72.93l469.64,272.93c34.72,20.18,90.97,20.04,125.91-.14l472.71-272.92c34.95-20.18,35.13-52.62.41-72.8l-469.64-272.93c-34.72-20.18-90.73-20.18-125.68,0l-472.71,272.92Z"
                   id="path25"
                   style="fill:#afe9dd" />
              </g>
              <path
                 class="cls-12"
                 d="M2012.81,535.91c120.56,69.61,315.75,69.61,435.6,0,120.56-69.61,119.84-182.28,0-251.88-119.13-68.89-312.17-69.61-433.45,0-119.84,69.61-121.28,182.28-2.15,251.88Z"
                 id="path26" />
              <path
                 class="cls-11"
                 d="M2124.64,296.69c-3.94,2.27-7.26,4.99-9.73,8.11-11.4,14.28-.18,31.33,25.07,37.23,16.83,3.93,33.9,10.05,45.8,19.31,10.65,6.48,18.15,14.79,23.52,23.02-4.66,1.38-9.07,3.21-12.99,5.46-3.91,2.26-7.07,4.81-9.6,7.58-26.65-2.33-58.85-2.04-84.8,4.95-19.27,3.4-35.81,9.99-49.28,17.77-9.59,5.54-17.63,11.68-23.99,17.71-15.17,14.43-5.6,33.15,20.65,40.07,18.69,4.98,40.18,2.4,53.94-5.55,4.36-2.52,7.94-5.57,10.42-9.1,5.25-7.65,13.2-15.58,24.3-21.99,2.85-1.65,5.91-3.19,9.18-4.61,11.1-6.12,25.34-10.56,39.7-13.62,2.25,2.77,5.38,5.32,9.14,7.5,4.01,2.33,8.66,4.15,13.55,5.54-4.24,15.37-3.84,34.02,8.15,49.03,9.83,19.16,36.04,33.51,61.02,42.33,19.76,6.95,44.1,4.92,59.42-3.92,3.95-2.28,7.3-5.02,9.82-8.17,11.4-14.28.18-31.33-25.07-37.23-16.83-3.93-33.9-10.05-45.8-19.31-10.66-6.34-18.15-14.79-23.52-23.02,4.66-1.24,9.07-3.06,12.86-5.25,4.16-2.4,7.2-5.03,9.48-7.8,26.78,2.4,58.98,2.11,85.06-4.95,19.26-3.35,35.68-9.87,49.09-17.61,9.65-5.57,17.73-11.77,24.19-17.87,15.05-14.35,5.85-33-20.65-40.07-18.69-4.98-40.18-2.4-53.94,5.55-4.36,2.52-7.94,5.57-10.42,9.1-5.45,7.77-13.28,15.63-24.32,22-2.84,1.64-5.88,3.18-9.16,4.59-11.1,6.27-25.59,10.56-39.82,13.7-2.25-2.62-5.38-5.17-9.27-7.43-4.01-2.33-8.4-4.15-13.05-5.54,4.24-15.52,3.84-34.02-8.4-49.18-9.95-19.09-36.04-33.51-61.02-42.33-19.76-6.95-44.26-4.83-59.52,3.98Z"
                 id="path27"
                 style="fill:#ffb380" />
            </g>
            <polygon
               class="cls-12"
               points="1404.39 679.62 1404.3 761.28 1699.92 931.95 1700 850.29 1404.39 679.62"
               id="polygon27"
               style="fill:#008080" />
            <g
               id="g30">
              <path
                 class="cls-6"
                 d="M2083.81,1073.71c-21.6-12.47-39.76-3.72-39.84,21.9-.07,24.82,17.98,55.29,39.58,67.76,21.6,12.47,39.07,2.51,39.14-22.3.07-25.62-17.29-54.88-38.89-67.35Z"
                 id="path28" />
              <path
                 class="cls-6"
                 d="M1952.14,997.69c-21.6-12.47-39.76-3.72-39.84,21.9-.07,24.82,17.99,55.29,39.58,67.76,21.6,12.47,39.07,2.51,39.14-22.3.07-25.62-17.29-54.88-38.89-67.35Z"
                 id="path29" />
              <path
                 class="cls-6"
                 d="M1820.47,921.67c-22.29-12.87-39.76-3.72-39.84,21.9-.07,24.82,17.29,54.88,39.58,67.76,20.9,12.07,39.07,2.51,39.14-22.3.07-25.62-17.99-55.29-38.89-67.35Z"
                 id="path30" />
            </g>
          </g>
          <g
             id="g32">
            <path
               class="cls-12"
               d="M2792.27,847.71c-3.33-1.33-7.99,1.06-12.66,3.73l-195.28,124.4c-8.66,5.32-12.55,8.32-12.55,18.98l2.2,64.63c.67,4.66-8.18,9.76-4.85,11.76l-26.47-15.07c-2.66-2-4.66-5.33-4.66-10.65v-68.59c0-10.65,7.32-23.3,16.65-28.63l199.1-115.19c4.66-2.67,8.66-2.67,11.32-1.33l27.21,15.98Z"
               id="path31" />
            <path
               class="cls-2"
               d="M2779.85,848.12c8.93-5.16,16.18-1.02,16.21,9.73l.19,68.39c.03,10.75-7.17,23.23-16.1,28.38l-199.39,115.12c-8.93,5.15-16.6,1.27-16.64-9.48l-.19-68.39c-.03-10.75,7.6-23.47,16.53-28.63l199.39-115.12Z"
               id="path32" />
          </g>
          <g
             id="g34">
            <path
               class="cls-17"
               d="M2577.2,1011.46l69.61,40.27c32.77,19.28,59.75,65.54,59.75,104.09v1394.07c0,29.88,20.24,66.5,46.26,80.95l267.92,154.21,192.57-111.03-267.92-155.17c-26.02-14.46-47.23-51.08-46.26-80.96v-1394.07c0-38.55-26.98-84.81-59.75-104.09l-69.39-40.48-192.79,112.2Z"
               id="path33" />
            <polygon
               class="cls-5"
               points="3020.48 2800.96 3212.97 2689.13 3213.02 2673.58 3020.52 2785.41 3020.48 2800.96"
               id="polygon33" />
            <path
               class="cls-13"
               d="M2577.2,1011.46l-.04,15.56,69.53,40.14c25.84,14.92,46.7,51.04,46.61,80.74l-.6,1394.42c-.11,38.18,26.88,84.93,60.11,104.11l267.67,154.54.04-15.56-267.67-154.54c-25.85-14.92-46.7-51.04-46.61-80.74l.6-1394.42c.11-38.18-26.88-84.93-60.11-104.11l-69.53-40.14Z"
               id="path34" />
          </g>
        </g>
        <g
           id="g56">
          <g
             class="cls-18"
             id="g37">
            <polygon
               class="cls-3"
               points="3948.24 2790.5 3944.39 3247.99 3472.43 3522.26 3476.28 3064.77 3948.24 2790.5"
               id="polygon35" />
            <polygon
               class="cls-10"
               points="3476.28 3064.77 3472.43 3522.26 2997.38 3247.99 3001.23 2790.5 3476.28 3064.77"
               id="polygon36" />
            <polygon
               class="cls-8"
               points="3948.24 2790.5 3476.28 3064.77 3001.23 2790.5 3473.19 2516.23 3948.24 2790.5"
               id="polygon37" />
          </g>
          <g
             id="g47">
            <g
               id="g42">
              <polygon
                 class="cls-1"
                 points="3426.51 3136.52 3426.31 3234.02 3047.15 3015.11 3047.34 2917.61 3426.51 3136.52"
                 id="polygon38" />
              <g
                 id="g41">
                <polygon
                   class="cls-12"
                   points="3608.82 3085.61 3520.65 3136.52 3520.85 3234.02 3608.82 3183.23 3608.82 3085.61"
                   id="polygon39" />
                <polygon
                   class="cls-17"
                   points="3584.76 3099.51 3562.55 3112.33 3562.74 3209.83 3584.76 3197.12 3584.76 3099.51"
                   id="polygon40" />
                <polygon
                   class="cls-7"
                   points="3637.99 3166.39 3900.01 3015.11 3899.82 2917.61 3637.99 3068.77 3637.99 3166.39"
                   id="polygon41"
                   style="fill:#008080" />
              </g>
            </g>
            <g
               id="g46">
              <polygon
                 class="cls-1"
                 points="3426.51 3304.53 3426.31 3402.02 3047.15 3183.11 3047.34 3085.61 3426.51 3304.53"
                 id="polygon42" />
              <g
                 id="g45">
                <polygon
                   class="cls-12"
                   points="3608.82 3253.62 3520.65 3304.53 3520.85 3402.02 3608.82 3351.23 3608.82 3253.62"
                   id="polygon43" />
                <polygon
                   class="cls-17"
                   points="3584.76 3267.51 3562.55 3280.34 3562.74 3377.84 3584.76 3365.13 3584.76 3267.51"
                   id="polygon44" />
                <polygon
                   class="cls-7"
                   points="3637.99 3334.4 3900.01 3183.11 3899.82 3085.61 3637.99 3236.78 3637.99 3334.4"
                   id="polygon45"
                   style="fill:#008080" />
              </g>
            </g>
          </g>
          <g
             id="g55">
            <path
               class="cls-14"
               d="M3376.84,2865.26c58.29,25.69,139.02,25.75,196.7,0l39.28,22.68c-79.57,37.86-194.9,37.92-275,0l39.02-22.68Z"
               id="path47" />
            <g
               class="cls-18"
               id="g54">
              <path
                 class="cls-14"
                 d="M3336.83,2693.07c79.57-37.86,194.9-37.92,274.89-.06l-39.02,22.68c-58.07-25.69-138.81-25.63-196.6.06l-39.28-22.68Z"
                 id="path48" />
              <path
                 class="cls-1"
                 d="M3396.26,2735.1c45.39-21.57,110.86-21.51,156.39,0l-22.21,12.91c-32.97-14.63-78.81-14.63-111.82,0l-22.35-12.91Z"
                 id="path49" />
              <path
                 class="cls-1"
                 d="M3548.37,2822.92c25.04-19.11,24.89-45.78-.36-64.77l22.21-12.91c37.18,26.24,37.5,64.28.4,90.52l-22.25-12.84Z"
                 id="path50" />
              <path
                 class="cls-1"
                 d="M3401.27,2758.09c-25.25,19.11-24.99,45.72.36,64.77l-22.21,12.91c-37.39-26.24-37.71-64.28-.51-90.58l22.35,12.91Z"
                 id="path51" />
              <path
                 class="cls-1"
                 d="M3419.2,2833c32.97,14.63,78.91,14.69,111.82,0l22.25,12.84c-45.29,21.63-110.75,21.57-156.28.06l22.21-12.91Z"
                 id="path52" />
              <path
                 class="cls-16"
                 d="M3604.21,2847.44c44.05-33.49,43.79-80.32-.64-113.94l39.02-22.68c65.62,46.21,65.89,113.14.9,159.29l-39.28-22.68Z"
                 id="path53" />
              <path
                 class="cls-16"
                 d="M3345.44,2733.56c-44.27,33.49-44,80.32.54,113.88l-39.02,22.68c-65.72-46.15-65.99-113.08-.79-159.23l39.28,22.68Z"
                 id="path54" />
            </g>
          </g>
        </g>
      </g>
      <g
         id="g113">
        <g
           id="g91">
          <g
             id="g87">
            <g
               id="g60">
              <path
                 class="cls-15"
                 d="M882.36,3894.18c-43.92,0-87.75-9.62-121.08-29.04L55.2,3454.84C19.51,3434.1-.09,3405.58,0,3374.53c.09-31.32,19.95-59.93,55.99-80.66l709.76-409.77c68.06-39.37,174.53-39.37,242.42,0l706.08,410.3c35.43,20.65,54.94,49.17,54.85,80.4-.09,31.32-19.86,60.01-55.64,80.57l-709.76,409.77c-33.51,19.42-77.42,29.04-121.34,29.04ZM887.09,2890.3c-37.44,0-74.89,8.31-103.49,24.76l-709.76,409.77c-24.5,14.17-37.97,31.84-37.97,49.69-.09,17.76,13.21,35.34,37.36,49.34l706.08,410.3c55.9,32.46,150.3,32.28,206.55,0l709.76-409.77c24.23-14,37.62-31.67,37.62-49.6.09-17.93-13.12-35.52-37.01-49.43l-706.08-410.3c-28.34-16.45-65.7-24.76-103.06-24.76Z"
                 id="path57"
                 style="fill:#37c8ab" />
              <g
                 class="cls-18"
                 id="g59">
                <path
                   class="cls-10"
                   d="M64.2,3016.35l706.1,410.34c61.02,35.46,162.08,36.03,224.48,0l709.75-409.77c31.28-18.06,46.71-41.77,46.65-65.4l.53,313.37c.07,23.63-15.37,47.35-46.65,65.4l-709.74,409.77c-62.4,36.03-163.45,35.46-224.48,0l-706.1-410.34c-30.8-17.89-46.21-41.21-46.28-64.56l-.53-313.37c.07,23.35,15.49,46.66,46.28,64.56Z"
                   id="path58"
                   style="fill:#87decd" />
                <path
                   class="cls-8"
                   d="M64.94,2886.33c-62.4,36.02-62.72,94-.73,130.02l706.1,410.34c61.02,35.46,162.08,36.03,224.48,0l709.74-409.77c62.4-36.02,61.75-94.56.73-130.03l-706.1-410.34c-61.99-36.02-162.08-36.02-224.48,0l-709.74,409.77Z"
                   id="path59"
                   style="fill:#008080" />
              </g>
            </g>
            <g
               id="g76">
              <g
                 id="g65">
                <g
                   class="cls-18"
                   id="g61">
                  <path
                     class="cls-4"
                     d="M256.01,2757.09l540.84,314.3c46.74,27.16,124.15,27.59,171.94,0l543.63-313.87c23.96-13.83,35.78-32,35.73-50.1l.41,183.23c.05,18.1-11.78,36.26-35.73,50.1l-543.63,313.87c-47.79,27.59-125.2,27.16-171.94,0l-540.84-314.3c-23.59-13.71-35.4-31.56-35.45-49.45l-.41-183.23c.05,17.89,11.86,35.74,35.45,49.45Z"
                     id="path60" />
                  <path
                     class="cls-8"
                     d="M256.57,2657.5c-47.79,27.59-48.04,72-.56,99.59l540.84,314.3c46.74,27.16,124.15,27.59,171.94,0l543.63-313.87c47.79-27.59,47.3-72.43.56-99.59l-540.84-314.3c-47.48-27.59-124.15-27.59-171.94,0l-543.63,313.87Z"
                     id="path61" />
                </g>
                <g
                   id="g64">
                  <path
                     class="cls-2"
                     d="M735.02,3106.15c-16.54-9.55-30.46-2.85-30.51,16.78-.05,19.01,13.78,42.35,30.32,51.9,16.54,9.55,29.93,1.92,29.98-17.08.06-19.62-13.24-42.04-29.78-51.59Z"
                     id="path62" />
                  <path
                     class="cls-2"
                     d="M634.16,3047.92c-16.54-9.55-30.46-2.85-30.51,16.78-.05,19.01,13.78,42.35,30.32,51.9,16.54,9.55,29.93,1.92,29.98-17.08.06-19.62-13.24-42.04-29.78-51.59Z"
                     id="path63" />
                  <path
                     class="cls-2"
                     d="M533.31,2989.69c-17.08-9.86-30.46-2.85-30.51,16.78-.05,19.01,13.24,42.04,30.32,51.9,16.01,9.24,29.93,1.92,29.98-17.08.06-19.62-13.78-42.35-29.78-51.59Z"
                     id="path64" />
                </g>
              </g>
              <g
                 id="g70">
                <g
                   class="cls-18"
                   id="g66">
                  <path
                     class="cls-4"
                     d="M256.01,2444.58l540.84,314.3c46.74,27.16,124.15,27.59,171.94,0l543.63-313.87c23.96-13.83,35.78-32,35.73-50.1l.41,183.23c.05,18.1-11.78,36.26-35.73,50.1l-543.63,313.87c-47.79,27.59-125.2,27.16-171.94,0l-540.84-314.3c-23.59-13.71-35.4-31.56-35.45-49.45l-.41-183.23c.05,17.89,11.86,35.74,35.45,49.45Z"
                     id="path65" />
                  <path
                     class="cls-8"
                     d="M256.57,2344.99c-47.79,27.59-48.04,72-.56,99.59l540.84,314.3c46.74,27.16,124.15,27.59,171.94,0l543.63-313.87c47.79-27.59,47.3-72.43.56-99.59l-540.84-314.3c-47.48-27.59-124.15-27.59-171.94,0l-543.63,313.87Z"
                     id="path66" />
                </g>
                <g
                   id="g69">
                  <path
                     class="cls-2"
                     d="M735.02,2793.64c-16.54-9.55-30.46-2.85-30.51,16.78-.05,19.01,13.78,42.35,30.32,51.9,16.54,9.55,29.93,1.92,29.98-17.08.06-19.62-13.24-42.04-29.78-51.59Z"
                     id="path67" />
                  <path
                     class="cls-2"
                     d="M634.16,2735.41c-16.54-9.55-30.46-2.85-30.51,16.78-.05,19.01,13.78,42.35,30.32,51.9,16.54,9.55,29.93,1.92,29.98-17.08.06-19.62-13.24-42.04-29.78-51.59Z"
                     id="path68" />
                  <path
                     class="cls-2"
                     d="M533.31,2677.18c-17.08-9.86-30.46-2.85-30.51,16.78-.05,19.01,13.24,42.04,30.32,51.9,16.01,9.24,29.93,1.92,29.98-17.08.06-19.62-13.78-42.35-29.78-51.59Z"
                     id="path69" />
                </g>
              </g>
              <g
                 id="g75">
                <g
                   class="cls-18"
                   id="g71">
                  <path
                     class="cls-4"
                     d="M256.01,2132.07l540.84,314.3c46.74,27.16,124.15,27.59,171.94,0l543.63-313.87c23.96-13.83,35.78-32,35.73-50.1l.41,183.23c.05,18.1-11.78,36.26-35.73,50.1l-543.63,313.87c-47.79,27.59-125.2,27.16-171.94,0l-540.84-314.3c-23.59-13.71-35.4-31.56-35.45-49.45l-.41-183.23c.05,17.89,11.86,35.74,35.45,49.45Z"
                     id="path70" />
                  <path
                     class="cls-8"
                     d="M256.57,2032.48c-47.79,27.59-48.04,72-.56,99.59l540.84,314.3c46.74,27.16,124.15,27.59,171.94,0l543.63-313.87c47.79-27.59,47.3-72.43.56-99.59l-540.84-314.3c-47.48-27.59-124.15-27.59-171.94,0l-543.63,313.87Z"
                     id="path71" />
                </g>
                <g
                   id="g74">
                  <path
                     class="cls-2"
                     d="M735.02,2481.13c-16.54-9.55-30.46-2.85-30.51,16.78-.05,19.01,13.78,42.35,30.32,51.9,16.54,9.55,29.93,1.92,29.98-17.08.06-19.62-13.24-42.04-29.78-51.59Z"
                     id="path72" />
                  <path
                     class="cls-2"
                     d="M634.16,2422.9c-16.54-9.55-30.46-2.85-30.51,16.78-.05,19.01,13.78,42.35,30.32,51.9,16.54,9.55,29.93,1.92,29.98-17.08.06-19.62-13.24-42.04-29.78-51.59Z"
                     id="path73" />
                  <path
                     class="cls-2"
                     d="M533.31,2364.67c-17.08-9.86-30.46-2.85-30.51,16.78-.05,19.01,13.24,42.04,30.32,51.9,16.01,9.24,29.93,1.92,29.98-17.08.06-19.62-13.78-42.35-29.78-51.59Z"
                     id="path74" />
                </g>
              </g>
            </g>
            <g
               class="cls-19"
               id="g78">
              <g
                 class="cls-18"
                 id="g77">
                <path
                   class="cls-14"
                   d="M144.8,1635.03l635.45,369.28c54.92,31.92,145.86,32.42,202.02,0l638.72-368.77c27.98-16.16,41.87-37.55,41.82-58.89l3.17,1346.08c.06,21.34-13.83,42.73-41.81,58.89l-638.73,368.77c-56.15,32.42-147.1,31.91-202.02,0l-635.45-369.28c-27.71-16.1-41.58-37.08-41.64-58.1l-3.18-1346.07c.06,21.01,13.94,41.99,41.65,58.1Z"
                   id="path76"
                   style="fill:#008080" />
              </g>
            </g>
            <g
               class="cls-18"
               id="g79">
              <path
                 class="cls-10"
                 d="M64.2,1344.55l706.1,410.34c61.02,35.46,162.08,36.03,224.48,0l709.75-409.77c31.28-18.06,46.71-41.77,46.65-65.4l.53,313.37c.07,23.63-15.37,47.35-46.65,65.4l-709.74,409.77c-62.4,36.03-163.45,35.46-224.48,0L64.73,1657.92c-30.8-17.89-46.21-41.21-46.28-64.56l-.53-313.37c.07,23.35,15.49,46.67,46.28,64.56Z"
                 id="path78" />
              <path
                 class="cls-8"
                 d="M64.94,1214.53c-62.4,36.02-62.72,94-.73,130.02l706.1,410.34c61.02,35.46,162.08,36.03,224.48,0l709.74-409.77c62.4-36.02,61.75-94.56.73-130.03l-706.1-410.34c-61.99-36.02-162.08-36.02-224.48,0L64.94,1214.53Z"
                 id="path79" />
            </g>
            <g
               id="g83">
              <g
                 class="cls-18"
                 id="g81">
                <path
                   class="cls-1"
                   d="M349.94,1224.34l469.64,272.93c34.72,20.18,90.97,20.04,125.91-.14l472.71-272.92c17.58-10.15,26.37-23.41,26.33-36.65l.43,126.79c.04,13.24-8.74,26.5-26.33,36.65l-472.71,272.92c-34.95,20.18-91.2,20.31-125.92.14l-469.64-272.92c-17.19-9.99-25.76-23.02-25.8-36.08l-.43-126.79c.04,13.06,8.61,26.09,25.8,36.08Z"
                   id="path80" />
                <path
                   class="cls-11"
                   d="M350.58,1151.4c-34.95,20.18-35.36,52.76-.65,72.93l469.64,272.93c34.72,20.18,90.97,20.04,125.91-.14l472.71-272.92c34.95-20.18,35.13-52.62.41-72.8l-469.64-272.93c-34.72-20.18-90.73-20.18-125.68,0l-472.71,272.92Z"
                   id="path81"
                   style="fill:#afe9dd" />
              </g>
              <path
                 class="cls-12"
                 d="M665.73,1313.65c120.56,69.61,315.75,69.61,435.6,0,120.56-69.61,119.84-182.28,0-251.88-119.13-68.89-312.17-69.61-433.45,0-119.84,69.61-121.28,182.28-2.15,251.88Z"
                 id="path82" />
              <path
                 class="cls-11"
                 d="M777.55,1074.43c-3.94,2.27-7.26,4.99-9.73,8.11-11.4,14.28-.18,31.33,25.07,37.23,16.83,3.93,33.9,10.05,45.8,19.31,10.65,6.48,18.15,14.79,23.52,23.02-4.66,1.38-9.07,3.21-12.99,5.46-3.91,2.26-7.07,4.81-9.6,7.58-26.65-2.33-58.85-2.04-84.8,4.95-19.27,3.4-35.81,9.99-49.28,17.77-9.59,5.54-17.63,11.68-23.99,17.71-15.17,14.43-5.6,33.15,20.65,40.07,18.69,4.98,40.18,2.4,53.94-5.55,4.36-2.52,7.94-5.57,10.42-9.1,5.25-7.65,13.2-15.58,24.3-21.99,2.85-1.65,5.91-3.19,9.18-4.61,11.1-6.12,25.34-10.56,39.7-13.62,2.25,2.77,5.38,5.32,9.14,7.5,4.01,2.33,8.66,4.15,13.55,5.54-4.24,15.37-3.84,34.02,8.15,49.03,9.83,19.16,36.04,33.51,61.02,42.33,19.76,6.95,44.1,4.92,59.42-3.92,3.95-2.28,7.3-5.02,9.82-8.17,11.4-14.28.18-31.33-25.07-37.23-16.83-3.93-33.9-10.05-45.8-19.31-10.66-6.34-18.15-14.79-23.52-23.02,4.66-1.24,9.07-3.06,12.86-5.25,4.16-2.4,7.2-5.03,9.48-7.8,26.78,2.4,58.98,2.11,85.06-4.95,19.26-3.35,35.68-9.87,49.09-17.61,9.65-5.57,17.73-11.77,24.19-17.87,15.05-14.35,5.85-33-20.65-40.07-18.69-4.98-40.18-2.4-53.94,5.55-4.36,2.52-7.94,5.57-10.42,9.1-5.45,7.77-13.28,15.63-24.32,22-2.84,1.64-5.88,3.18-9.16,4.59-11.1,6.27-25.59,10.56-39.82,13.7-2.25-2.62-5.38-5.17-9.27-7.43-4.01-2.33-8.4-4.15-13.05-5.54,4.24-15.52,3.84-34.02-8.4-49.18-9.95-19.09-36.04-33.51-61.02-42.33-19.76-6.95-44.26-4.83-59.52,3.98Z"
                 id="path83"
                 style="fill:#ffb380" />
            </g>
            <polygon
               class="cls-12"
               points="57.3 1457.36 57.22 1539.02 352.84 1709.69 352.92 1628.03 57.3 1457.36"
               id="polygon83"
               style="fill:#008080" />
            <g
               id="g86">
              <path
                 class="cls-9"
                 d="M736.73,1851.45c-21.6-12.47-39.76-3.72-39.84,21.9-.07,24.82,17.98,55.29,39.58,67.76,21.6,12.47,39.07,2.51,39.14-22.3.07-25.62-17.29-54.88-38.89-67.35Z"
                 id="path84" />
              <path
                 class="cls-9"
                 d="M605.05,1775.43c-21.6-12.47-39.76-3.72-39.84,21.9-.07,24.82,17.99,55.29,39.58,67.76,21.6,12.47,39.07,2.51,39.14-22.3.07-25.62-17.29-54.88-38.89-67.35Z"
                 id="path85" />
              <path
                 class="cls-9"
                 d="M473.39,1699.41c-22.29-12.87-39.76-3.72-39.84,21.9-.07,24.82,17.29,54.88,39.58,67.76,20.9,12.07,39.07,2.51,39.14-22.3.07-25.62-17.99-55.29-38.89-67.35Z"
                 id="path86" />
            </g>
          </g>
          <g
             id="g88">
            <path
               class="cls-12"
               d="M1445.18,1625.45c-3.33-1.33-7.99,1.06-12.66,3.73l-195.28,124.4c-8.66,5.32-12.55,8.32-12.55,18.98l2.2,64.63c.67,4.66-8.18,9.76-4.85,11.75l-26.47-15.07c-2.66-2-4.66-5.33-4.66-10.65v-68.59c0-10.65,7.32-23.3,16.65-28.63l199.1-115.19c4.66-2.67,8.66-2.67,11.32-1.33l27.21,15.98Z"
               id="path87" />
            <path
               class="cls-2"
               d="M1432.76,1625.86c8.93-5.16,16.18-1.02,16.21,9.73l.19,68.39c.03,10.75-7.17,23.23-16.1,28.38l-199.39,115.12c-8.93,5.15-16.6,1.27-16.64-9.48l-.19-68.39c-.03-10.75,7.6-23.47,16.53-28.63l199.39-115.12Z"
               id="path88" />
          </g>
          <g
             id="g90">
            <path
               class="cls-17"
               d="M1230.12,1789.2l69.61,40.27c32.77,19.28,59.75,65.54,59.75,104.09v1394.07c0,29.88,20.24,66.5,46.26,80.95l267.92,154.21,192.57-111.03-267.92-155.17c-26.02-14.46-47.23-51.08-46.26-80.96v-1394.07c0-38.55-26.98-84.81-59.75-104.09l-69.39-40.48-192.79,112.2Z"
               id="path89" />
            <polygon
               class="cls-5"
               points="1673.39 3578.7 1865.89 3466.87 1865.93 3451.32 1673.44 3563.15 1673.39 3578.7"
               id="polygon89" />
            <path
               class="cls-13"
               d="M1230.12,1789.2l-.04,15.56,69.53,40.14c25.84,14.92,46.7,51.04,46.61,80.74l-.6,1394.42c-.11,38.18,26.88,84.93,60.11,104.11l267.67,154.54.04-15.56-267.67-154.54c-25.85-14.92-46.7-51.04-46.61-80.74l.6-1394.42c.11-38.18-26.88-84.93-60.11-104.11l-69.53-40.14Z"
               id="path90" />
          </g>
        </g>
        <g
           id="g112">
          <g
             class="cls-18"
             id="g93">
            <polygon
               class="cls-3"
               points="2601.16 3568.24 2597.3 4025.73 2125.34 4300 2129.19 3842.51 2601.16 3568.24"
               id="polygon91" />
            <polygon
               class="cls-10"
               points="2129.19 3842.51 2125.34 4300 1650.29 4025.73 1654.14 3568.24 2129.19 3842.51"
               id="polygon92" />
            <polygon
               class="cls-8"
               points="2601.16 3568.24 2129.19 3842.51 1654.14 3568.24 2126.11 3293.97 2601.16 3568.24"
               id="polygon93" />
          </g>
          <g
             id="g103">
            <g
               id="g98">
              <polygon
                 class="cls-1"
                 points="2079.42 3914.26 2079.23 4011.76 1700.06 3792.85 1700.26 3695.35 2079.42 3914.26"
                 id="polygon94" />
              <g
                 id="g97">
                <polygon
                   class="cls-12"
                   points="2261.74 3863.35 2173.57 3914.26 2173.77 4011.76 2261.74 3960.97 2261.74 3863.35"
                   id="polygon95" />
                <polygon
                   class="cls-17"
                   points="2237.68 3877.24 2215.46 3890.07 2215.66 3987.57 2237.68 3974.86 2237.68 3877.24"
                   id="polygon96" />
                <polygon
                   class="cls-7"
                   points="2290.9 3944.13 2552.93 3792.85 2552.73 3695.35 2290.9 3846.51 2290.9 3944.13"
                   id="polygon97"
                   style="fill:#008080" />
              </g>
            </g>
            <g
               id="g102">
              <polygon
                 class="cls-1"
                 points="2079.42 4082.26 2079.23 4179.76 1700.06 3960.85 1700.26 3863.35 2079.42 4082.26"
                 id="polygon98" />
              <g
                 id="g101">
                <polygon
                   class="cls-12"
                   points="2261.74 4031.36 2173.57 4082.27 2173.77 4179.76 2261.74 4128.97 2261.74 4031.36"
                   id="polygon99" />
                <polygon
                   class="cls-17"
                   points="2237.68 4045.25 2215.46 4058.08 2215.66 4155.58 2237.68 4142.87 2237.68 4045.25"
                   id="polygon100" />
                <polygon
                   class="cls-7"
                   points="2290.9 4112.14 2552.93 3960.85 2552.73 3863.35 2290.9 4014.52 2290.9 4112.14"
                   id="polygon101"
                   style="fill:#008080" />
              </g>
            </g>
          </g>
          <g
             id="g111">
            <path
               class="cls-14"
               d="M2029.75,3643c58.29,25.69,139.02,25.75,196.7,0l39.28,22.68c-79.57,37.86-194.9,37.92-275,0l39.02-22.68Z"
               id="path103" />
            <g
               class="cls-18"
               id="g110">
              <path
                 class="cls-14"
                 d="M1989.74,3470.81c79.57-37.86,194.9-37.92,274.89-.06l-39.02,22.68c-58.07-25.69-138.81-25.63-196.6.06l-39.28-22.68Z"
                 id="path104" />
              <path
                 class="cls-1"
                 d="M2049.18,3512.84c45.39-21.57,110.86-21.51,156.39,0l-22.21,12.91c-32.97-14.63-78.81-14.63-111.83,0l-22.35-12.91Z"
                 id="path105" />
              <path
                 class="cls-1"
                 d="M2201.28,3600.66c25.04-19.11,24.89-45.78-.36-64.77l22.21-12.91c37.18,26.24,37.5,64.28.4,90.52l-22.25-12.84Z"
                 id="path106" />
              <path
                 class="cls-1"
                 d="M2054.19,3535.83c-25.25,19.11-24.99,45.72.36,64.77l-22.21,12.91c-37.39-26.24-37.71-64.28-.51-90.58l22.35,12.91Z"
                 id="path107" />
              <path
                 class="cls-1"
                 d="M2072.12,3610.74c32.97,14.63,78.91,14.69,111.82,0l22.25,12.84c-45.29,21.63-110.75,21.57-156.28.06l22.21-12.91Z"
                 id="path108" />
              <path
                 class="cls-16"
                 d="M2257.12,3625.18c44.05-33.49,43.79-80.32-.64-113.94l39.02-22.68c65.62,46.21,65.89,113.14.9,159.29l-39.28-22.68Z"
                 id="path109" />
              <path
                 class="cls-16"
                 d="M1998.35,3511.3c-44.27,33.49-44,80.32.54,113.88l-39.02,22.68c-65.72-46.15-65.99-113.08-.79-159.23l39.28,22.68Z"
                 id="path110" />
            </g>
          </g>
        </g>
      </g>
    </g>
  </g>
</svg>
