<?xml version="1.0" encoding="UTF-8" standalone="no"?>
<svg
   id="Layer_2"
   data-name="Layer 2"
   viewBox="0 0 1362.8 1561.7"
   version="1.1"
   sodipodi:docname="ssd-icon.svg"
   inkscape:version="1.3.2 (091e20e, 2023-11-25, custom)"
   xmlns:inkscape="http://www.inkscape.org/namespaces/inkscape"
   xmlns:sodipodi="http://sodipodi.sourceforge.net/DTD/sodipodi-0.dtd"
   xmlns="http://www.w3.org/2000/svg"
   xmlns:svg="http://www.w3.org/2000/svg">
  <sodipodi:namedview
     id="namedview1"
     pagecolor="#ffffff"
     bordercolor="#000000"
     borderopacity="0.25"
     inkscape:showpageshadow="2"
     inkscape:pageopacity="0.0"
     inkscape:pagecheckerboard="0"
     inkscape:deskcolor="#d1d1d1"
     inkscape:zoom="0.26029328"
     inkscape:cx="-278.53197"
     inkscape:cy="409.15386"
     inkscape:window-width="1920"
     inkscape:window-height="1009"
     inkscape:window-x="1912"
     inkscape:window-y="39"
     inkscape:window-maximized="1"
     inkscape:current-layer="Layer_1-2" />
  <defs
     id="defs1">
    <style
       id="style1">
      .cls-1 {
        fill: #424752;
      }

      .cls-1, .cls-2, .cls-3, .cls-4, .cls-5, .cls-6 {
        fill-rule: evenodd;
      }

      .cls-1, .cls-3, .cls-4, .cls-5, .cls-6 {
        stroke-width: 0px;
      }

      .cls-2 {
        stroke: #f13655;
        stroke-width: .03px;
      }

      .cls-2, .cls-3 {
        fill: #fff;
      }

      .cls-4 {
        fill: #edbb4a;
      }

      .cls-5 {
        fill: #22a037;
      }

      .cls-6 {
        fill: #ddb68c;
      }
    </style>
  </defs>
  <g
     id="Layer_1-2"
     data-name="Layer 1">
    <g
       id="Layer_1-3"
       data-name="Layer_1">
      <g
         id="_530765408"
         data-name=" 530765408">
        <g
           id="g1">
          <path
             id="_530767952"
             data-name=" 530767952"
             class="cls-1"
             d="M1218.2,1561.7H144.6c-79.7,0-144.6-64.9-144.6-144.6V144.6C0,64.9,64.9,0,144.6,0h1073.6c79.7,0,144.6,64.9,144.6,144.6v1272.6c-.5,79.6-65.4,144.5-144.6,144.5ZM144.6,40.1c-57.7,0-104.5,46.8-104.5,104.5v1272.6c0,57.7,46.8,104.5,104.5,104.5h1073.6c57.3,0,104.1-46.8,104.5-104.5V144.6c0-57.8-46.8-104.5-104.5-104.5H144.6Z" />
          <path
             id="_530767520"
             data-name=" 530767520"
             class="cls-1"
             d="M1083.3,1561.7H279.9c-11,0-20.2-8.9-20.2-20.2v-334.3c0-11,8.9-20.2,20.2-20.2h803.4c11,0,20.2,8.9,20.2,20.2v334.3c-.4,11.4-9.2,20.2-20.2,20.2ZM300.1,1521.7h763.4v-294.2H300.1v294.2Z" />
          <path
             id="_530767448"
             data-name=" 530767448"
             class="cls-1"
             d="M409.7,1561.7c-11,0-20.2-8.9-20.2-20.2v-334.3c0-11,8.9-20.2,20.2-20.2s20.2,8.9,20.2,20.2v334.3c-.4,11.4-9.2,20.2-20.2,20.2Z" />
          <path
             id="_530766488"
             data-name=" 530766488"
             class="cls-1"
             d="M545.4,1561.7c-11,0-20.2-8.9-20.2-20.2v-334.3c0-11,8.9-20.2,20.2-20.2s20.2,8.9,20.2,20.2v334.3c.1,11.4-8.8,20.2-20.2,20.2Z" />
          <path
             id="_530767184"
             data-name=" 530767184"
             class="cls-1"
             d="M681.2,1561.7c-11,0-20.2-8.9-20.2-20.2v-334.3c0-11,8.9-20.2,20.2-20.2s20.2,8.9,20.2,20.2v334.3c0,11.4-8.8,20.2-20.2,20.2Z" />
          <path
             id="_530767088"
             data-name=" 530767088"
             class="cls-1"
             d="M817.3,1561.7c-11,0-20.2-8.9-20.2-20.2v-334.3c0-11,8.9-20.2,20.2-20.2s20.2,8.9,20.2,20.2v334.3c.1,11.4-9.2,20.2-20.2,20.2Z" />
          <path
             id="_530767160"
             data-name=" 530767160"
             class="cls-1"
             d="M953.5,1561.7c-11,0-20.2-8.9-20.2-20.2v-334.3c0-11,8.9-20.2,20.2-20.2s20.2,8.9,20.2,20.2v334.3c0,11.4-9.3,20.2-20.2,20.2Z" />
          <path
             id="_530766824"
             data-name=" 530766824"
             class="cls-1"
             d="M212.4,324.6c-60.3,0-109.2-48.9-109.2-109.2s48.9-109.2,109.2-109.2,109.2,48.9,109.2,109.2c0,60.3-49.3,109.2-109.2,109.2ZM212.4,146.7c-37.9,0-69.1,30.8-69.1,69.1s30.8,69.1,69.1,69.1,69.1-30.8,69.1-69.1c.1-38.3-31.1-69.1-69.1-69.1Z" />
          <path
             id="_530766680"
             data-name=" 530766680"
             class="cls-1"
             d="M1150.7,324.6c-60.3,0-109.2-48.9-109.2-109.2s48.9-109.2,109.2-109.2,109.2,48.9,109.2,109.2c0,60.3-48.9,109.2-109.2,109.2ZM1150.7,146.7c-37.9,0-69.1,30.8-69.1,69.1s30.8,69.1,69.1,69.1,69.1-30.8,69.1-69.1c.1-38.3-31.1-69.1-69.1-69.1Z" />
          <path
             id="_530766776"
             data-name=" 530766776"
             class="cls-1"
             d="M1129.7,878.9H233.5c-11,0-20.2-8.9-20.2-20.2v-430c0-11,8.9-20.2,20.2-20.2h896.2c11,0,20.2,8.9,20.2,20.2v430c-.4,11.3-9.3,20.2-20.2,20.2ZM253.3,838.8h856.1v-389.9H253.3v389.9h0Z" />
          <path
             id="_530766512"
             data-name=" 530766512"
             class="cls-1"
             d="M461.6,797.5h-83c-11,0-20.2-8.9-20.2-20.2s8.9-20.2,20.2-20.2h83c24.9,0,44.7-20.2,44.7-44.7,0-19.4-17.3-26.6-56.1-38.4-40-12.2-94.4-28.7-94.4-90.6,0-22.3,8.9-43.8,24.9-59.4,15.2-15.6,37.1-24.9,59.4-24.9h73.8c11,0,20.2,8.9,20.2,20.2s-8.9,20.2-20.2,20.2h-73.8c-11.8,0-23.2,4.6-31.2,12.6-8.9,8.9-13.5,19.8-13.5,31.6,0,29.1,21.1,38.8,66.2,52.3,37.5,11.4,84.7,25.7,84.7,76.7,0,46.5-38,84.8-84.7,84.8h0Z" />
          <path
             id="_530766464"
             data-name=" 530766464"
             class="cls-1"
             d="M854,797.5c-28.2,0-51.4-23.2-51.4-51.4v-204.9c0-28.2,23.2-51.4,51.4-51.4,84.7,0,153.4,68.7,153.4,153.4.4,40.9-15.6,79.7-44.7,108.8-28.6,29.5-67.4,45.5-108.7,45.5h0ZM854,530.3c-6.3,0-11.4,5.1-11.4,11.4v204.9c0,6.3,5.1,11.4,11.4,11.4,30.3,0,59-11.8,80.5-33.3s32.9-50.2,32.9-80.5c0-62.9-50.6-113.9-113.4-113.9Z" />
          <path
             id="_530766752"
             data-name=" 530766752"
             class="cls-1"
             d="M664.7,797.5h-83c-11,0-20.2-8.9-20.2-20.2s8.9-20.2,20.2-20.2h83c24.9,0,44.7-20.2,44.7-44.7,0-19.4-17.3-26.6-56.1-38.4-40-12.2-94.4-28.7-94.4-90.6,0-22.3,8.9-43.8,24.9-59.4,15.2-15.6,37.1-24.9,59.4-24.9h73.8c11,0,20.2,8.9,20.2,20.2s-8.9,20.2-20.2,20.2h-73.8c-11.8,0-23.2,4.6-31.2,12.6-8.9,8.9-13.5,19.8-13.5,31.6,0,29.1,21.1,38.8,66.2,52.3,37.5,11.4,84.7,25.7,84.7,76.7.1,46.5-37.9,84.8-84.7,84.8Z" />
        </g>
        <path
           id="_530766200"
           data-name=" 530766200"
           class="cls-2"
           d="M664.7,636.1c37.5,11.4,84.7,25.7,84.7,76.7,0,46.4-37.9,84.7-84.7,84.7h-83c-11,0-20.2-8.9-20.2-20.2s8.9-20.2,20.2-20.2h83c24.9,0,44.7-20.2,44.7-44.7,0-19.4-17.3-26.6-56.1-38.4-40-12.2-94.4-28.7-94.4-90.6,0-22.3,8.9-43.8,24.9-59.4,15.2-15.6,37.1-24.9,59.4-24.9h73.8c11,0,20.2,8.9,20.2,20.2s-8.9,20.2-20.2,20.2h-73.8c-11.8,0-23.2,4.6-31.2,12.6-8.9,8.9-13.5,19.8-13.5,31.6,0,29.2,21.1,38.9,66.2,52.4ZM253.3,838.8h856.1v-389.9H253.3v389.9h0ZM854,797.5c-28.2,0-51.4-23.2-51.4-51.4v-204.9c0-28.2,23.2-51.4,51.4-51.4,84.7,0,153.4,68.7,153.4,153.4.4,40.9-15.6,79.7-44.7,108.8-28.6,29.5-67.4,45.5-108.7,45.5h0ZM546.3,712.8c0,46.4-37.9,84.7-84.7,84.7h-83c-11,0-20.2-8.9-20.2-20.2s8.9-20.2,20.2-20.2h83c24.9,0,44.7-20.2,44.7-44.7,0-19.4-17.3-26.6-56.1-38.4-40-12.2-94.4-28.7-94.4-90.6,0-22.3,8.9-43.8,24.9-59.4,15.2-15.6,37.1-24.9,59.4-24.9h73.8c11,0,20.2,8.9,20.2,20.2s-8.9,20.2-20.2,20.2h-73.8c-11.8,0-23.2,4.6-31.2,12.6-8.9,8.9-13.5,19.8-13.5,31.6,0,29.1,21.1,38.8,66.2,52.3,37.5,11.5,84.7,25.8,84.7,76.8h0Z" />
        <path
           id="_530765984"
           data-name=" 530765984"
           class="cls-5"
           d="M1129.7,878.9H233.5c-11,0-20.2-8.9-20.2-20.2v-430c0-11,8.9-20.2,20.2-20.2h896.2c11,0,20.2,8.9,20.2,20.2v430c-.4,11.3-9.3,20.2-20.2,20.2ZM681.2,1187h402.2c11,0,20.2,8.9,20.2,20.2v314.5h114.7c57.3,0,104.1-46.8,104.5-104.5V144.6c0-57.7-46.8-104.5-104.5-104.5H144.6c-57.7,0-104.5,46.8-104.5,104.5v1272.6c0,57.7,46.8,104.5,104.5,104.5h115.1v-314.5c0-11,8.9-20.2,20.2-20.2h401.3ZM1150.7,324.6c-60.3,0-109.2-48.9-109.2-109.2s48.9-109.2,109.2-109.2,109.2,48.9,109.2,109.2c0,60.3-48.9,109.2-109.2,109.2ZM212.4,324.6c-60.3,0-109.2-48.9-109.2-109.2s48.9-109.2,109.2-109.2,109.2,48.9,109.2,109.2c0,60.3-49.3,109.2-109.2,109.2Z"
           style="fill:#00c1c1;fill-opacity:1" />
        <polygon
           id="_530765888"
           data-name=" 530765888"
           class="cls-6"
           points="797.1 1227.5 701.4 1227.5 701.4 1521.7 797.1 1521.7 797.1 1227.5" />
        <polygon
           id="_530765912"
           data-name=" 530765912"
           class="cls-6"
           points="660.9 1521.7 660.9 1227.5 565.7 1227.5 565.7 1521.7 660.9 1521.7" />
        <polygon
           id="_530766344"
           data-name=" 530766344"
           class="cls-6"
           points="525.2 1521.7 525.2 1227.5 429.9 1227.5 429.9 1521.7 525.2 1521.7" />
        <polygon
           id="_530765792"
           data-name=" 530765792"
           class="cls-6"
           points="389.5 1521.7 389.5 1227.5 300.1 1227.5 300.1 1521.7 389.5 1521.7" />
        <polygon
           id="_530766080"
           data-name=" 530766080"
           class="cls-6"
           points="837.6 1227.5 837.6 1521.7 933.2 1521.7 933.2 1227.5 837.6 1227.5" />
        <polygon
           id="_530765744"
           data-name=" 530765744"
           class="cls-6"
           points="973.7 1227.5 973.7 1521.7 1063.5 1521.7 1063.5 1227.5 973.7 1227.5" />
        <path
           id="_530766248"
           data-name=" 530766248"
           class="cls-3"
           d="M854,757.9c30.3,0,59-11.8,80.5-33.3s32.9-50.2,32.9-80.5c0-62.8-50.6-113.8-113.4-113.8-6.3,0-11.4,5.1-11.4,11.4v204.9c0,6.2,5.1,11.3,11.4,11.3Z" />
        <path
           id="_530766152"
           data-name=" 530766152"
           class="cls-4"
           d="M1081.6,215.8c0,38.4,30.8,69.1,69.1,69.1s69.1-30.8,69.1-69.1-31.2-69.1-69.1-69.1-69.1,30.8-69.1,69.1Z"
           style="fill:#ffffff" />
        <path
           id="_530766368"
           data-name=" 530766368"
           class="cls-4"
           d="M212.4,285c38.4,0,69.1-30.8,69.1-69.1s-31.2-69.1-69.1-69.1-69.1,30.8-69.1,69.1c0,38.3,30.8,69.1,69.1,69.1Z"
           style="fill:#ffffff" />
      </g>
    </g>
  </g>
</svg>
