<?xml version="1.0" encoding="UTF-8" standalone="no"?>
<svg
   id="Layer_2"
   data-name="Layer 2"
   viewBox="0 0 2100 1762.93"
   version="1.1"
   sodipodi:docname="ssh-icon.svg"
   inkscape:version="1.3.2 (091e20e, 2023-11-25, custom)"
   xmlns:inkscape="http://www.inkscape.org/namespaces/inkscape"
   xmlns:sodipodi="http://sodipodi.sourceforge.net/DTD/sodipodi-0.dtd"
   xmlns="http://www.w3.org/2000/svg"
   xmlns:svg="http://www.w3.org/2000/svg">
  <sodipodi:namedview
     id="namedview2"
     pagecolor="#ffffff"
     bordercolor="#000000"
     borderopacity="0.25"
     inkscape:showpageshadow="2"
     inkscape:pageopacity="0.0"
     inkscape:pagecheckerboard="0"
     inkscape:deskcolor="#d1d1d1"
     inkscape:zoom="0.23058204"
     inkscape:cx="700.40148"
     inkscape:cy="609.32761"
     inkscape:window-width="1920"
     inkscape:window-height="1009"
     inkscape:window-x="1912"
     inkscape:window-y="39"
     inkscape:window-maximized="1"
     inkscape:current-layer="Layer_2" />
  <defs
     id="defs1">
    <style
       id="style1">
      .cls-1 {
        fill: #141414;
        stroke-width: 0px;
      }
    </style>
  </defs>
  <g
     id="Layer_1-2"
     data-name="Layer 1">
    <g
       id="g2">
      <path
         class="cls-1"
         d="M2100,156.95v226.4H0v-226.4C0,70.4,70.4,0,156.95,0h1786.11c86.55,0,156.95,70.4,156.95,156.95Z"
         id="path1"
         style="fill:#008080;fill-opacity:0.87572253" />
      <path
         class="cls-1"
         d="M0,448.58v1157.4c0,86.55,70.4,156.95,156.95,156.95h1786.11c86.55,0,156.95-70.4,156.95-156.95V448.58H0ZM681.5,1299.49c-12.15,11.3-26.74,17.76-46.21,17.76-29.19,0-53.52-14.54-53.52-33.9,0-9.68,4.87-19.36,14.59-27.43l306.48-279.23-306.48-282.46c-9.72-9.68-17.02-16.14-14.59-27.43,2.44-19.36,24.33-33.9,53.52-33.9,21.89,0,34.06,6.47,46.21,17.76l333.23,288.9c17.03,14.54,24.33,24.22,24.33,35.51s-7.3,20.98-24.33,35.51l-333.23,288.9ZM1632.7,1303.23h-579.29c-18.02,0-32.62-14.61-32.62-32.62s14.61-32.62,32.62-32.62h579.29c18.02,0,32.61,14.61,32.61,32.62s-14.59,32.62-32.61,32.62Z"
         id="path2"
         style="fill:#c87137;fill-opacity:0.89017344" />
    </g>
  </g>
  <rect
     style="fill:#ffffff;stroke-width:0"
     id="rect3"
     width="2101.0271"
     height="91.998512"
     x="-0.76665592"
     y="367.99405" />
</svg>
