<?xml version="1.0" encoding="UTF-8" standalone="no"?>
<svg
   id="Layer_2"
   data-name="Layer 2"
   viewBox="0 0 4300 4167.43"
   version="1.1"
   sodipodi:docname="ui-icon.svg"
   inkscape:version="1.3.2 (091e20e, 2023-11-25, custom)"
   xmlns:inkscape="http://www.inkscape.org/namespaces/inkscape"
   xmlns:sodipodi="http://sodipodi.sourceforge.net/DTD/sodipodi-0.dtd"
   xmlns="http://www.w3.org/2000/svg"
   xmlns:svg="http://www.w3.org/2000/svg">
  <sodipodi:namedview
     id="namedview21"
     pagecolor="#ffffff"
     bordercolor="#000000"
     borderopacity="0.25"
     inkscape:showpageshadow="2"
     inkscape:pageopacity="0.0"
     inkscape:pagecheckerboard="0"
     inkscape:deskcolor="#d1d1d1"
     inkscape:zoom="0.19508425"
     inkscape:cx="2150.353"
     inkscape:cy="2083.7151"
     inkscape:window-width="1920"
     inkscape:window-height="1009"
     inkscape:window-x="1912"
     inkscape:window-y="39"
     inkscape:window-maximized="1"
     inkscape:current-layer="Layer_2" />
  <defs
     id="defs1">
    <style
       id="style1">
      .cls-1 {
        stroke-width: 0px;
      }
    </style>
  </defs>
  <g
     id="Layer_1-2"
     data-name="Layer 1">
    <g
       id="g21">
      <g
         id="g8">
        <g
           id="g2">
          <path
             class="cls-1"
             d="M4256.11,476.61v3214.34c0,239.57-193.94,432.62-431.74,432.62h-266.77c238.69,0,432.62-193.05,432.62-432.62V476.61c0-239.56-193.93-432.61-432.62-432.61h266.77c237.8,0,431.74,193.05,431.74,432.61Z"
             id="path1"
             style="fill:#008080;fill-opacity:0.71387285" />
          <path
             class="cls-1"
             d="M3824.39,4167.43h-266.77c-24.25,0-43.88-19.62-43.88-43.88s19.62-43.88,43.88-43.88c214.32,0,388.71-174.39,388.71-388.71V476.64c0-214.32-174.39-388.71-388.71-388.71-24.25,0-43.88-19.62-43.88-43.88S3533.37.17,3557.62.17h266.77c262.23,0,475.61,213.72,475.61,476.46v3214.33c0,262.74-213.38,476.46-475.61,476.46ZM3833.05,88.01c121.6,86.47,201.04,228.38,201.04,388.63v3214.33c0,160.25-79.44,302.16-201.04,388.63,209.87-4.63,379.2-177.22,379.2-388.63V476.64c0-211.41-169.33-384-379.2-388.63Z"
             id="path2"
             style="fill:#008080" />
        </g>
        <path
           class="cls-1"
           d="M3557.62,4167.43H476.64C213.89,4167.43.17,3953.71.17,3690.97V476.64C.17,213.89,213.89.17,476.64.17h3080.99c262.74,0,476.46,213.72,476.46,476.46v3214.33c0,262.74-213.72,476.46-476.46,476.46ZM476.64,87.92c-214.32,0-388.71,174.39-388.71,388.71v3214.33c0,214.32,174.39,388.71,388.71,388.71h3080.99c214.32,0,388.71-174.39,388.71-388.71V476.64c0-214.32-174.39-388.71-388.71-388.71H476.64Z"
           id="path3"
           style="fill:#008080" />
        <path
           class="cls-1"
           d="M3989.87,826.61H43.88c-24.25,0-43.88-19.62-43.88-43.88v-306.02C0,213.89,213.89,0,476.72,0h3081.25c262.31,0,475.78,213.89,475.78,476.72v306.02c0,24.25-19.62,43.88-43.88,43.88ZM87.75,738.86h3858.24v-262.14c0-214.49-174.05-388.97-388.03-388.97H476.72c-214.49,0-388.97,174.47-388.97,388.97v262.14Z"
           id="path4"
           style="fill:#008080" />
        <g
           id="g7">
          <circle
             class="cls-1"
             cx="494.24"
             cy="412.73"
             r="103.48"
             transform="translate(-147.08 470.36) rotate(-45)"
             id="circle4"
             style="fill:#d40000" />
          <circle
             class="cls-1"
             cx="852.71"
             cy="412.73"
             r="103.48"
             transform="translate(-42.09 723.84) rotate(-45)"
             id="circle5"
             style="fill:#d45500" />
          <circle
             class="cls-1"
             cx="1211.18"
             cy="412.73"
             r="103.48"
             transform="translate(62.9 977.32) rotate(-45)"
             id="circle6"
             style="fill:#44aa00" />
          <path
             class="cls-1"
             d="M2281.03,456.58h-218.01c-24.25,0-43.88-19.62-43.88-43.88s19.62-43.88,43.88-43.88h218.01c24.25,0,43.88,19.62,43.88,43.88s-19.62,43.88-43.88,43.88Z"
             id="path6"
             style="fill:#88aa00" />
          <path
             class="cls-1"
             d="M3642.89,456.58h-1114.21c-24.25,0-43.88-19.62-43.88-43.88s19.62-43.88,43.88-43.88h1114.21c24.25,0,43.88,19.62,43.88,43.88s-19.62,43.88-43.88,43.88Z"
             id="path7"
             style="fill:#338000" />
        </g>
      </g>
      <g
         id="g18">
        <g
           id="g12">
          <path
             class="cls-1"
             d="M1144.11,1111.72h-427.79c-24.25,0-43.88-19.62-43.88-43.88s19.62-43.88,43.88-43.88h427.79c24.25,0,43.88,19.62,43.88,43.88s-19.62,43.88-43.88,43.88Z"
             id="path8"
             style="fill:#008080" />
          <path
             class="cls-1"
             d="M589.15,1111.72h-184.93c-24.25,0-43.88-19.62-43.88-43.88s19.62-43.88,43.88-43.88h184.93c24.25,0,43.88,19.62,43.88,43.88s-19.62,43.88-43.88,43.88Z"
             id="path9"
             style="fill:#aa4400" />
          <path
             class="cls-1"
             d="M1144.11,1351.24h-148.08c-24.25,0-43.88-19.62-43.88-43.88s19.62-43.88,43.88-43.88h148.08c24.25,0,43.88,19.62,43.88,43.88s-19.62,43.88-43.88,43.88Z"
             id="path10"
             style="fill:#aa4400" />
          <path
             class="cls-1"
             d="M847.95,1351.24h-443.73c-24.25,0-43.88-19.62-43.88-43.88s19.62-43.88,43.88-43.88h443.73c24.25,0,43.88,19.62,43.88,43.88s-19.62,43.88-43.88,43.88Z"
             id="path11"
             style="fill:#225500" />
          <path
             class="cls-1"
             d="M774.17,1590.67h-369.94c-24.25,0-43.88-19.62-43.88-43.88s19.62-43.88,43.88-43.88h369.94c24.25,0,43.88,19.62,43.88,43.88s-19.62,43.88-43.88,43.88Z"
             id="path12"
             style="fill:#008080" />
        </g>
        <g
           id="g17">
          <path
             class="cls-1"
             d="M3629.52,3337.73h-427.79c-24.25,0-43.88-19.62-43.88-43.88s19.62-43.88,43.88-43.88h427.79c24.25,0,43.88,19.62,43.88,43.88s-19.62,43.88-43.88,43.88Z"
             id="path13"
             style="fill:#008080" />
          <path
             class="cls-1"
             d="M3074.65,3337.73h-185.02c-24.25,0-43.88-19.62-43.88-43.88s19.62-43.88,43.88-43.88h185.02c24.25,0,43.88,19.62,43.88,43.88s-19.62,43.88-43.88,43.88Z"
             id="path14"
             style="fill:#aa4400" />
          <path
             class="cls-1"
             d="M3629.52,3577.16h-148.08c-24.25,0-43.88-19.62-43.88-43.88s19.62-43.88,43.88-43.88h148.08c24.25,0,43.88,19.62,43.88,43.88s-19.62,43.88-43.88,43.88Z"
             id="path15"
             style="fill:#aa4400" />
          <path
             class="cls-1"
             d="M3333.36,3577.16h-443.73c-24.25,0-43.88-19.62-43.88-43.88s19.62-43.88,43.88-43.88h443.73c24.25,0,43.88,19.62,43.88,43.88s-19.62,43.88-43.88,43.88Z"
             id="path16"
             style="fill:#225500" />
          <path
             class="cls-1"
             d="M3259.58,3816.68h-369.94c-24.25,0-43.88-19.62-43.88-43.88s19.62-43.88,43.88-43.88h369.94c24.25,0,43.88,19.62,43.88,43.88s-19.62,43.88-43.88,43.88Z"
             id="path17"
             style="fill:#008080" />
        </g>
      </g>
      <path
         class="cls-1"
         d="M2007.58,3503.12c-597.12,0-1082.84-485.72-1082.84-1082.76s485.72-1082.84,1082.84-1082.84,1082.84,485.72,1082.84,1082.84-485.72,1082.76-1082.84,1082.76ZM2007.58,1425.28c-548.7,0-995.09,446.38-995.09,995.09s446.38,995,995.09,995,995.09-446.38,995.09-995-446.38-995.09-995.09-995.09Z"
         id="path18"
         style="fill:#008080;fill-opacity:1" />
      <g
         id="g20">
        <path
           class="cls-1"
           d="M1581.64,1928.91v591.79c0,69.52,13.03,127.31,39.1,173.36,38.67,69.52,103.85,104.28,195.52,104.28,109.93,0,184.66-37.58,224.2-112.75,21.29-40.84,31.94-95.81,31.94-164.89v-591.79h131.65v537.69c0,117.75-15.86,208.34-47.58,271.78-58.22,115.58-168.15,173.36-329.78,173.36s-271.34-57.79-329.13-173.36c-31.72-63.44-47.58-154.03-47.58-271.78v-537.69h131.65Z"
           id="path19"
           style="fill:#d45500" />
        <path
           class="cls-1"
           d="M2434.12,1928.91h131v957.42h-131v-957.42Z"
           id="path20"
           style="fill:#d45500" />
      </g>
    </g>
  </g>
</svg>
