<?xml version="1.0" encoding="UTF-8" standalone="no"?>
<!-- Generator: Adobe Illustrator 16.0.0, SVG Export Plug-In . SVG Version: 6.00 Build 0)  -->

<svg
   version="1.1"
   id="Layer_1"
   x="0px"
   y="0px"
   width="363.57849"
   height="456.64102"
   viewBox="0 0 363.57849 456.64102"
   enable-background="new 0 0 800 800"
   xml:space="preserve"
   sodipodi:docname="litespeed-logo.svg"
   xmlns:inkscape="http://www.inkscape.org/namespaces/inkscape"
   xmlns:sodipodi="http://sodipodi.sourceforge.net/DTD/sodipodi-0.dtd"
   xmlns="http://www.w3.org/2000/svg"
   xmlns:svg="http://www.w3.org/2000/svg"><defs
   id="defs6" /><sodipodi:namedview
   id="namedview6"
   pagecolor="#ffffff"
   bordercolor="#000000"
   borderopacity="0.25"
   inkscape:showpageshadow="2"
   inkscape:pageopacity="0.0"
   inkscape:pagecheckerboard="0"
   inkscape:deskcolor="#d1d1d1" />
<g
   id="g6"
   transform="translate(-218.211,-66.503998)">
	
	<g
   id="g5">
		<g
   id="g3">
			<path
   fill="#5e8cda"
   d="M 577.879,288.375 474.666,185.16 c -0.43,-0.436 -1.012,-0.672 -1.613,-0.672 -0.047,0 -0.09,0 -0.131,0 -0.652,0.037 -1.258,0.354 -1.664,0.867 l -43.988,55.818 c -0.727,0.912 -0.643,2.207 0.178,3.029 l 47.398,47.391 c 1.697,1.709 2.633,3.969 2.633,6.396 -0.012,2.385 -0.951,4.621 -2.631,6.291 l -13.691,13.699 c -0.77,0.771 -0.889,1.98 -0.293,2.879 3.42,5.104 8.998,13.529 9.529,14.453 1.717,3.438 2.285,12.203 -2.77,16.049 l -107.826,82.822 c -0.559,0.428 -0.887,1.096 -0.887,1.803 0,9.195 -0.014,82.99 -0.006,83.74 0,1.592 0,2.541 1.262,3.184 0.318,0.162 0.664,0.236 1.027,0.236 0.943,0 1.32,-0.363 2.229,-1.27 l 1.797,-1.82 c 1.58,-1.559 212.654,-212.539 212.654,-212.539 5.229,-5.295 5.213,-13.873 0.006,-19.141 z"
   id="path2" />
			<path
   fill="#093071"
   d="m 440.729,67.521 -0.035,-0.047 c -0.027,-0.025 -0.049,-0.059 -0.064,-0.08 l -0.059,-0.076 c -0.41,-0.492 -1.012,-0.787 -1.654,-0.814 -0.039,0 -0.066,0 -0.104,0 -0.605,0 -1.191,0.23 -1.619,0.668 l -215.02,215.043 c -2.559,2.523 -3.963,5.93 -3.963,9.568 0,3.633 1.414,7.02 3.979,9.539 l 103.178,103.191 c 0.428,0.438 1.012,0.67 1.613,0.67 0.045,0 0.09,0 0.135,0 0.65,-0.037 1.256,-0.35 1.654,-0.873 l 44.023,-55.818 c 0.719,-0.906 0.635,-2.193 -0.18,-3.027 l -47.447,-47.391 c -1.682,-1.668 -2.592,-3.902 -2.6,-6.291 -0.008,-2.412 0.918,-4.662 2.6,-6.338 l 13.73,-13.75 c 0.779,-0.787 0.893,-2.016 0.25,-2.92 l -9.361,-13.465 c -3.781,-5.365 -2.607,-12.984 2.615,-16.99 l 107.863,-82.754 c 0.564,-0.432 0.898,-1.096 0.898,-1.814 l 0.021,-84.854 c 0.002,-0.496 -0.155,-0.98 -0.453,-1.377 z"
   id="path3" />
		</g>
		<path
   fill="#f5cd21"
   d="m 459.723,333.936 -119.438,-77.58 52.756,75.838 c 1.129,1.742 1.018,4.709 -0.236,6.381 L 298.309,458.5 c -1.666,2.174 -3.063,4.529 -1.879,6.959 0.631,1.27 2.178,2.291 3.674,2.396 1.865,-0.01 3.297,-0.82 5.26,-2.318 l 151.859,-116.58 c 4.646,-3.549 4.521,-12.139 2.5,-15.021 z"
   id="path4" />
		<path
   fill="#fddd75"
   d="m 503.57,124.232 c -0.723,-1.469 -2.303,-2.453 -3.953,-2.453 -1.479,0 -2.859,0.637 -4.982,2.258 l -151.924,116.67 c -4.814,3.682 -5.904,10.705 -2.426,15.648 l 119.438,77.58 c -1.734,-2.539 -52.262,-75.785 -52.773,-76.527 -1.145,-1.619 -1.047,-4.773 0.203,-6.357 l 94.494,-119.965 0.063,-0.084 c 1.536,-1.967 3.071,-4.277 1.86,-6.77 z"
   id="path5" />
	</g>
</g>
</svg>
