<?xml version="1.0" encoding="UTF-8" standalone="no"?>
<!-- Uploaded to: SVG Repo, www.svgrepo.com, Generator: SVG Repo Mixer Tools -->

<svg
   width="270.9884"
   height="161.30692"
   viewBox="0 -204 173.43258 103.23643"
   version="1.1"
   preserveAspectRatio="xMidYMid"
   id="svg2"
   sodipodi:docname="woocommerce-svgrepo-com.svg"
   xmlns:inkscape="http://www.inkscape.org/namespaces/inkscape"
   xmlns:sodipodi="http://sodipodi.sourceforge.net/DTD/sodipodi-0.dtd"
   xmlns="http://www.w3.org/2000/svg"
   xmlns:svg="http://www.w3.org/2000/svg">
  <defs
     id="defs2" />
  <sodipodi:namedview
     id="namedview2"
     pagecolor="#ffffff"
     bordercolor="#000000"
     borderopacity="0.25"
     inkscape:showpageshadow="2"
     inkscape:pageopacity="0.0"
     inkscape:pagecheckerboard="0"
     inkscape:deskcolor="#d1d1d1" />
  <g
     fill-rule="evenodd"
     id="g2"
     transform="translate(-2.6660156e-6,-204)">
    <path
       d="M 157.26652,0 H 16.096294 C 7.1623473,0 -0.06987785,7.3031136 5.0945756e-4,16.166151 v 53.88723 c 0,8.93372 7.23274764244,16.16606 16.16669454244,16.16606 h 66.862488 l 30.560058,17.016979 -6.9487,-17.016979 h 50.62547 c 8.93417,0 16.16606,-7.23234 16.16606,-16.16606 V 16.166151 C 173.43258,7.2322039 166.20069,0 157.26652,0 Z M 13.118629,12.479117 c -1.985336,0.141819 -3.4743503,0.850871 -4.466996,2.19802 -0.9926457,1.276285 -1.347149,2.907073 -1.1344651,4.75059 4.1833571,26.589293 8.0830751,44.527869 11.6992001,53.816365 1.418104,3.403214 3.048892,5.034365 4.963319,4.892545 2.977937,-0.212956 6.523152,-4.325267 10.706509,-12.337387 2.19802,-4.538224 5.601461,-11.344652 10.210231,-20.420645 3.828628,13.400807 9.075495,23.469537 15.669874,30.205282 1.843653,1.914336 3.757989,2.765253 5.601189,2.623433 1.63115,-0.141819 2.907073,-0.992736 3.757989,-2.55275 0.709098,-1.347058 0.992737,-2.907073 0.850917,-4.67959 -0.425458,-6.452106 0.212956,-15.456962 1.985473,-27.014388 1.8432,-11.911884 4.112311,-20.491328 6.877564,-25.596421 0.567278,-1.063555 0.779781,-2.127156 0.709098,-3.403395 -0.14182,-1.630833 -0.850917,-2.977982 -2.197976,-4.041538 -1.347058,-1.0635552 -2.836389,-1.559878 -4.467086,-1.4181038 -2.056156,0.1418194 -3.61617,1.1344648 -4.67959,3.1198018 -4.39595,8.012166 -7.515978,20.98765 -9.359178,38.997273 -2.69457,-6.806746 -4.963682,-14.818957 -6.736199,-24.249226 -0.77978,-4.183312 -2.694116,-6.168649 -5.814145,-5.95592 -2.127065,0.141775 -3.899627,1.559879 -5.317731,4.254222 L 26.448617,55.234379 C 23.896048,44.953237 21.485298,32.403211 19.287278,17.58421 18.790955,13.897221 16.734708,12.195478 13.118629,12.479117 Z m 136.632361,5.105319 c 5.03437,1.063601 8.79236,3.757944 11.34466,8.224895 2.26911,3.828854 3.40321,8.437624 3.40321,13.96813 0,7.302978 -1.8432,13.96804 -5.53051,20.065824 -4.25413,7.09052 -9.78463,10.635554 -16.6622,10.635554 -1.20524,0 -2.48161,-0.14182 -3.82912,-0.425458 -5.03392,-1.06342 -8.79191,-3.757537 -11.34466,-8.224623 -2.26865,-3.899809 -3.40321,-8.579399 -3.40321,-14.039222 0,-7.303023 1.84365,-13.968039 5.53051,-19.994868 4.32526,-7.09043 9.85577,-10.635645 16.66265,-10.635645 1.20524,0 2.48162,0.14182 3.82867,0.425413 z m -2.97775,38.35904 c 2.62343,-2.339795 4.39595,-5.814145 5.38868,-10.493734 0.28364,-1.630743 0.49615,-3.403351 0.49615,-5.246868 0,-2.056201 -0.42546,-4.254221 -1.27638,-6.452287 -1.06342,-2.765253 -2.48161,-4.254222 -4.18345,-4.60877 -2.55229,-0.496323 -5.03391,0.921781 -7.3737,4.396086 -1.91434,2.694343 -3.12003,5.530506 -3.75799,8.437579 -0.35478,1.630833 -0.4966,3.403576 -0.4966,5.176093 0,2.056156 0.42546,4.254131 1.27638,6.452106 1.06387,2.765254 2.48161,4.254131 4.18345,4.608907 1.77251,0.354322 3.68685,-0.425459 5.74346,-2.269112 z m -30.1346,-30.134145 c -2.55275,-4.466951 -6.38142,-7.161294 -11.34465,-8.224895 -1.34751,-0.283593 -2.62344,-0.425413 -3.82913,-0.425413 -6.806425,0 -12.336931,3.545215 -16.662198,10.635645 -3.687306,6.026829 -5.530507,12.691845 -5.530507,19.994868 0,5.459823 1.134556,10.139413 3.403215,14.039222 2.55275,4.467086 6.310739,7.161203 11.344651,8.224623 1.347058,0.283638 2.623434,0.425458 3.829126,0.425458 6.877563,0 12.408073,-3.545034 16.662203,-10.635554 3.68731,-6.097784 5.5305,-12.762846 5.5305,-20.065824 0,-5.530506 -1.13455,-10.139276 -3.40321,-13.96813 z m -8.93417,19.640411 c -0.99229,4.679589 -2.76526,8.153939 -5.38869,10.493734 -2.05615,1.843653 -3.970492,2.623434 -5.743009,2.269112 -1.701833,-0.354776 -3.120028,-1.843653 -4.183447,-4.608907 -0.850917,-2.197975 -1.276376,-4.39595 -1.276376,-6.452106 0,-1.772517 0.14182,-3.54526 0.496595,-5.176093 0.637961,-2.907073 1.8432,-5.743236 3.757536,-8.437579 2.340248,-3.474305 4.821861,-4.892409 7.374161,-4.396086 1.70183,0.354548 3.12003,1.843517 4.18345,4.60877 0.85091,2.198066 1.27637,4.396086 1.27637,6.452287 0,1.843517 -0.14182,3.616125 -0.49659,5.246868 z"
       fill="#7f54b3"
       id="path1" />
  </g>
</svg>
