<?xml version="1.0" encoding="UTF-8" standalone="no"?>
<svg
   width="403.03125"
   zoomAndPan="magnify"
   viewBox="0 0 302.27344 256.18881"
   height="341.58508"
   preserveAspectRatio="xMidYMid"
   version="1.0"
   id="svg6"
   sodipodi:docname="logo-icon.svg"
   xmlns:inkscape="http://www.inkscape.org/namespaces/inkscape"
   xmlns:sodipodi="http://sodipodi.sourceforge.net/DTD/sodipodi-0.dtd"
   xmlns="http://www.w3.org/2000/svg"
   xmlns:svg="http://www.w3.org/2000/svg">
  <sodipodi:namedview
     id="namedview6"
     pagecolor="#ffffff"
     bordercolor="#000000"
     borderopacity="0.25"
     inkscape:showpageshadow="2"
     inkscape:pageopacity="0.0"
     inkscape:pagecheckerboard="0"
     inkscape:deskcolor="#d1d1d1" />
  <defs
     id="defs3">
    <clipPath
       id="08573b6511">
      <path
         d="M 35.058594,57.132812 H 338 V 313.36719 H 35.058594 Z m 0,0"
         clip-rule="nonzero"
         id="path1" />
    </clipPath>
    <clipPath
       id="27c2abb7ca">
      <path
         d="m 206.77734,57.132812 c 3.31641,0 6.65625,0 9.96485,0 26.39843,4.28125 42.89453,18.527344 50.40625,41.835938 44.00781,-3.109375 76.5,40.96875 56.5039,84.22656 6.48438,9.09375 11.89453,19.26172 13.84766,32.90625 0,3.91016 0,7.8125 0,11.71875 -5.82031,34.73438 -30.875,58.20703 -72.00391,51.88672 -10.58203,17.83594 -29.41015,35.375 -58.71093,33.47266 -15.14454,-1.17188 -25.6836,-7.95313 -34.90625,-16.19141 -9.71875,6.84766 -20.24219,12.22266 -35.44532,12.28125 -35.17578,0.10156 -58.707028,-26.28516 -59.27734,-62.47656 -22.613281,-8.46485 -37.925781,-24.26953 -42.097656,-51.3125 0,-3.91016 0,-7.82813 0,-11.71875 4.601562,-26.79688 19.085937,-43.62891 43.199218,-50.76563 -1.449218,-45.207028 46.789068,-73.453121 86.414058,-53.539059 9.4375,-9.847656 22.78516,-20.589843 42.10547,-22.324219 z m 0,0"
         clip-rule="nonzero"
         id="path2" />
    </clipPath>
    <clipPath
       id="e9164bad2f">
      <path
         d="M 117.78516,121.37891 H 255 v 137.25 H 117.78516 Z m 0,0"
         clip-rule="nonzero"
         id="path3" />
    </clipPath>
  </defs>
  <g
     clip-path="url(#08573b6511)"
     id="g5"
     transform="translate(-35.058593,-57.132813)">
    <g
       clip-path="url(#27c2abb7ca)"
       id="g4">
      <path
         fill="#673de6"
         d="M 35.058594,57.132812 H 337.33203 V 313.36719 H 35.058594 Z m 0,0"
         fill-opacity="1"
         fill-rule="nonzero"
         id="path4" />
    </g>
  </g>
  <g
     clip-path="url(#e9164bad2f)"
     id="g6"
     transform="translate(-35.058593,-57.132813)">
    <path
       fill="#ffffff"
       d="m 239.42187,121.37891 c -22.76953,0 -53.32031,15.61718 -73.83203,42.47265 h -17.00781 c -12.28906,0 -19.33203,9.17188 -24.18359,18.875 l -6.49219,12.98047 h 30.67578 l 15.92578,15.92969 15.92969,15.92578 v 30.67578 l 12.98437,-6.49219 c 9.69922,-4.84765 18.8711,-11.89453 18.8711,-24.18359 v -17.00391 c 26.85547,-20.51562 42.47265,-51.0664 42.47265,-73.83203 v -15.34765 z m -27.1289,31.85546 c 5.86328,0 10.61719,4.75391 10.61719,10.61719 0,5.86719 -4.75391,10.6211 -10.61719,10.6211 -5.86328,0 -10.61719,-4.75391 -10.61719,-10.6211 0,-5.86328 4.75391,-10.61719 10.61719,-10.61719 z m -69.01953,63.71094 -5.3125,5.3086 c -7.66797,7.66796 -10.61719,26.54687 -10.61719,26.54687 0,0 18.03125,-2.10156 26.54687,-10.61719 l 5.3086,-5.30859 z m 0,0"
       fill-opacity="1"
       fill-rule="nonzero"
       id="path5" />
  </g>
</svg>
