<?xml version="1.0" encoding="UTF-8" standalone="no"?>
<svg
   width="323.0632"
   zoomAndPan="magnify"
   viewBox="0 0 242.2974 41.617904"
   height="55.49054"
   preserveAspectRatio="xMidYMid"
   version="1.0"
   id="svg24"
   sodipodi:docname="logo-white.svg"
   inkscape:version="1.3.2 (091e20e, 2023-11-25, custom)"
   xmlns:inkscape="http://www.inkscape.org/namespaces/inkscape"
   xmlns:sodipodi="http://sodipodi.sourceforge.net/DTD/sodipodi-0.dtd"
   xmlns="http://www.w3.org/2000/svg"
   xmlns:svg="http://www.w3.org/2000/svg">
  <sodipodi:namedview
     id="namedview24"
     pagecolor="#ffffff"
     bordercolor="#000000"
     borderopacity="0.25"
     inkscape:showpageshadow="2"
     inkscape:pageopacity="0.0"
     inkscape:pagecheckerboard="0"
     inkscape:deskcolor="#d1d1d1"
     inkscape:zoom="1.626"
     inkscape:cx="250"
     inkscape:cy="250"
     inkscape:window-width="1920"
     inkscape:window-height="1009"
     inkscape:window-x="-8"
     inkscape:window-y="39"
     inkscape:window-maximized="1"
     inkscape:current-layer="g21" />
  <defs
     id="defs3">
    <clipPath
       id="a032432bc2">
      <path
         d="m 98.757812,167.80469 h 49.199218 v 41.5664 H 98.757812 Z m 0,0"
         clip-rule="nonzero"
         id="path1" />
    </clipPath>
    <clipPath
       id="36bf1b5601">
      <path
         d="m 126.61328,167.80469 c 0.53906,0 1.08203,0 1.61719,0 4.28125,0.69531 6.95703,3.00781 8.17578,6.78906 7.14062,-0.50391 12.41016,6.64453 9.16797,13.66406 1.05078,1.47266 1.92969,3.1211 2.24609,5.33594 0,0.63672 0,1.26562 0,1.90234 -0.94531,5.63282 -5.00781,9.44141 -11.67969,8.41797 -1.71875,2.89063 -4.77343,5.73828 -9.52734,5.42969 -2.45703,-0.19141 -4.16406,-1.29297 -5.66015,-2.62891 -1.57813,1.11328 -3.28516,1.98438 -5.75,1.99219 -5.70704,0.0156 -9.52344,-4.26172 -9.61719,-10.13281 -3.66797,-1.375 -6.152346,-3.9375 -6.828128,-8.32422 0,-0.63672 0,-1.26953 0,-1.90234 0.746094,-4.34766 3.093748,-7.07813 7.007818,-8.23438 -0.23438,-7.33594 7.58984,-11.91797 14.01953,-8.6875 1.52734,-1.59766 3.69531,-3.33984 6.82812,-3.62109 z m 0,0"
         clip-rule="nonzero"
         id="path2" />
    </clipPath>
    <clipPath
       id="093525aad6">
      <path
         d="m 112.17578,178.22656 h 22.5 v 22.5 h -22.5 z m 0,0"
         clip-rule="nonzero"
         id="path3" />
    </clipPath>
  </defs>
  <g
     fill="#673de6"
     fill-opacity="1"
     id="g6"
     transform="translate(-66.663547,-166.24885)"
     style="fill:#ffffff">
    <g
       transform="translate(148.47103,204.31135)"
       id="g5"
       style="fill:#ffffff">
      <g
         id="g4"
         style="fill:#ffffff">
        <path
           d="m 4.078125,-13.09375 c 0.675781,0.53125 1.847656,1.265625 3.515625,2.203125 C 9.257812,-9.960938 10.851562,-9.5 12.375,-9.5 c 1.519531,0 2.28125,-0.59375 2.28125,-1.78125 0,-0.53125 -0.214844,-1 -0.640625,-1.40625 -0.429687,-0.414062 -1.214844,-0.890625 -2.359375,-1.421875 C 10.507812,-14.648438 9.648438,-15.070312 9.078125,-15.375 8.503906,-15.6875 7.742188,-16.191406 6.796875,-16.890625 5.847656,-17.585938 5.117188,-18.3125 4.609375,-19.0625 3.179688,-21.101562 2.46875,-23.695312 2.46875,-26.84375 c 0,-3.144531 1.171875,-5.800781 3.515625,-7.96875 2.34375,-2.164062 5.410156,-3.25 9.203125,-3.25 2.582031,0 4.960938,0.277344 7.140625,0.828125 2.1875,0.554687 3.316406,1.277344 3.390625,2.171875 0,0.117188 0,0.226562 0,0.328125 0,1.25 -0.398438,2.835937 -1.1875,4.75 -0.78125,1.917969 -1.335938,2.980469 -1.65625,3.1875 -2.292969,-1.175781 -4.34375,-1.765625 -6.15625,-1.765625 -1.804688,0 -2.703125,0.648438 -2.703125,1.9375 0,0.78125 0.660156,1.480469 1.984375,2.09375 0.28125,0.136719 0.6875,0.335938 1.21875,0.59375 0.539062,0.25 1.160156,0.546875 1.859375,0.890625 0.707031,0.335937 1.460937,0.761719 2.265625,1.28125 0.800781,0.523437 1.664062,1.210937 2.59375,2.0625 1.90625,1.792969 2.859375,4.15625 2.859375,7.09375 0,3.824219 -1.058594,6.953125 -3.171875,9.390625 -2.117188,2.429688 -5.375,3.675781 -9.78125,3.75 C 11.695312,0.53125 9.753906,0.351562 8.015625,0 6.285156,-0.351562 4.773438,-1.050781 3.484375,-2.09375 2.203125,-3.132812 1.5625,-4.382812 1.5625,-5.84375 c 0,-1.46875 0.265625,-2.925781 0.796875,-4.375 0.539063,-1.457031 1.113281,-2.414062 1.71875,-2.875 z m 0,0"
           id="path4"
           style="fill:#ffffff" />
      </g>
    </g>
  </g>
  <g
     fill="#673de6"
     fill-opacity="1"
     id="g9"
     transform="translate(-66.663547,-166.24885)"
     style="fill:#ffffff">
    <g
       transform="translate(179.49552,204.31135)"
       id="g8"
       style="fill:#ffffff">
      <g
         id="g7"
         style="fill:#ffffff">
        <path
           d="m 18.84375,-0.859375 c 0,0.71875 -1.773438,1.078125 -5.3125,1.078125 -3.542969,0 -5.3125,-0.359375 -5.3125,-1.078125 V -27.8125 H 1.765625 c -0.605469,0 -1.03125,-0.820312 -1.28125,-2.46875 -0.105469,-0.78125 -0.15625,-1.582031 -0.15625,-2.40625 0,-0.832031 0.050781,-1.640625 0.15625,-2.421875 0.25,-1.644531 0.675781,-2.46875 1.28125,-2.46875 H 25.125 c 0.601562,0 1.035156,0.824219 1.296875,2.46875 0.101563,0.78125 0.15625,1.589844 0.15625,2.421875 0,0.824219 -0.05469,1.625 -0.15625,2.40625 -0.261719,1.648438 -0.695313,2.46875 -1.296875,2.46875 h -6.28125 z m 0,0"
           id="path6"
           style="fill:#ffffff" />
      </g>
    </g>
  </g>
  <g
     fill="#673de6"
     fill-opacity="1"
     id="g12"
     transform="translate(-66.663547,-166.24885)"
     style="fill:#ffffff">
    <g
       transform="translate(208.96348,204.31135)"
       id="g11"
       style="fill:#ffffff">
      <g
         id="g10"
         style="fill:#ffffff">
        <path
           d="m 32.109375,-1.1875 c 0,0.761719 -1.683594,1.140625 -5.046875,1.140625 -3.367188,0 -5.195312,-0.269531 -5.484375,-0.8125 l -8.96875,-16.75 V -0.90625 c 0,0.636719 -1.65625,0.953125 -4.96875,0.953125 -3.304687,0 -4.953125,-0.316406 -4.953125,-0.953125 v -35.921875 c 0,-0.539063 1.410156,-0.8125 4.234375,-0.8125 1.113281,0 2.410156,0.101563 3.890625,0.296875 1.488281,0.199219 2.394531,0.570312 2.71875,1.109375 l 8.59375,16.53125 V -36.5625 c 0,-0.675781 1.660156,-1.015625 4.984375,-1.015625 3.332031,0 5,0.339844 5,1.015625 z m 0,0"
           id="path9"
           style="fill:#ffffff" />
      </g>
    </g>
  </g>
  <g
     fill="#673de6"
     fill-opacity="1"
     id="g15"
     transform="translate(-66.663547,-166.24885)"
     style="fill:#ffffff">
    <g
       transform="translate(246.2678,204.31135)"
       id="g14"
       style="fill:#ffffff">
      <g
         id="g13"
         style="fill:#ffffff">
        <path
           d="m 18.65625,0.53125 c -5.03125,0 -9.132812,-1.644531 -12.296875,-4.9375 -3.167969,-3.289062 -4.75,-8.09375 -4.75,-14.40625 0,-6.320312 1.597656,-11.109375 4.796875,-14.359375 3.207031,-3.257813 7.34375,-4.890625 12.40625,-4.890625 5.070312,0 9.160156,1.605469 12.265625,4.8125 3.113281,3.199219 4.671875,8.046875 4.671875,14.546875 0,6.492187 -1.59375,11.320313 -4.78125,14.484375 -3.179688,3.167969 -7.28125,4.75 -12.3125,4.75 z M 18.6875,-27.75 c -1.71875,0 -3.164062,0.789062 -4.328125,2.359375 -1.167969,1.574219 -1.75,3.78125 -1.75,6.625 0,2.84375 0.550781,5.027344 1.65625,6.546875 1.113281,1.523438 2.578125,2.28125 4.390625,2.28125 1.8125,0 3.28125,-0.765625 4.40625,-2.296875 1.125,-1.539063 1.6875,-3.742187 1.6875,-6.609375 0,-2.863281 -0.585938,-5.0625 -1.75,-6.59375 -1.15625,-1.539062 -2.59375,-2.3125 -4.3125,-2.3125 z m 0,0"
           id="path12"
           style="fill:#ffffff" />
      </g>
    </g>
  </g>
  <g
     fill="#673de6"
     fill-opacity="1"
     id="g18"
     transform="translate(-66.663547,-166.24885)"
     style="fill:#ffffff">
    <g
       transform="translate(286.14845,204.31135)"
       id="g17"
       style="fill:#ffffff">
      <g
         id="g16"
         style="fill:#ffffff">
        <path
           d="M 2.140625,-3.171875 V -36.5625 c 0,-0.75 1.816406,-1.125 5.453125,-1.125 3.632812,0 5.453125,0.375 5.453125,1.125 V -10.25 H 21.3125 c 0.644531,0 1.09375,0.839844 1.34375,2.515625 0.101562,0.824219 0.15625,1.667969 0.15625,2.53125 0,0.855469 -0.05469,1.730469 -0.15625,2.625 C 22.375,-0.859375 21.910156,0 21.265625,0 H 4.71875 C 3.9375,0 3.3125,-0.320312 2.84375,-0.96875 2.375,-1.613281 2.140625,-2.347656 2.140625,-3.171875 Z m 0,0"
           id="path15"
           style="fill:#ffffff" />
      </g>
    </g>
  </g>
  <g
     clip-path="url(#a032432bc2)"
     id="g20"
     transform="translate(-66.663547,-167.74885)"
     style="fill:#ffffff">
    <g
       clip-path="url(#36bf1b5601)"
       id="g19"
       style="fill:#ffffff">
      <path
         fill="#673de6"
         d="m 98.757812,167.80469 h 49.035158 v 41.5664 H 98.757812 Z m 0,0"
         fill-opacity="1"
         fill-rule="nonzero"
         id="path18"
         style="fill:#ffffff" />
    </g>
  </g>
  <g
     clip-path="url(#093525aad6)"
     id="g21"
     transform="translate(-66.663547,-167.74885)">
    <path
       fill="#ffffff"
       d="m 131.90625,178.22656 c -3.69141,0 -8.64844,2.53516 -11.97656,6.89063 h -2.75781 c -1.99219,0 -3.13672,1.48828 -3.92188,3.0625 l -1.05469,2.10547 h 4.97657 l 2.58593,2.58203 2.58203,2.58593 v 4.97266 l 2.10547,-1.05078 c 1.57422,-0.78906 3.0625,-1.92969 3.0625,-3.92188 v -2.76171 c 4.35547,-3.32422 6.88672,-8.28125 6.88672,-11.97266 v -2.49219 z m -4.39844,5.16797 c 0.94922,0 1.72266,0.77344 1.72266,1.72266 0,0.95312 -0.77344,1.72265 -1.72266,1.72265 -0.95312,0 -1.72265,-0.76953 -1.72265,-1.72265 0,-0.94922 0.76953,-1.72266 1.72265,-1.72266 z m -11.19531,10.33594 -0.86328,0.85937 c -1.24219,1.2461 -1.72266,4.30469 -1.72266,4.30469 0,0 2.92578,-0.33984 4.3086,-1.71875 l 0.85937,-0.86328 z m 0,0"
       fill-opacity="1"
       fill-rule="nonzero"
       id="path20"
       style="fill:#673de6;fill-opacity:1" />
  </g>
  <g
     fill="#673de6"
     fill-opacity="1"
     id="g24"
     transform="translate(-66.663547,-166.24885)">
    <g
       transform="translate(63.976047,204.31135)"
       id="g23"
       style="fill:#ffffff">
      <g
         id="g22"
         style="fill:#ffffff">
        <path
           d="M 31.890625,-0.90625 C 31.890625,-0.300781 30.082031,0 26.46875,0 22.851562,0 21.046875,-0.300781 21.046875,-0.90625 V -13.265625 H 13.53125 V -0.90625 C 13.53125,-0.300781 11.722656,0 8.109375,0 4.492188,0 2.6875,-0.300781 2.6875,-0.90625 V -36.5 c 0,-0.757812 1.804688,-1.140625 5.421875,-1.140625 3.613281,0 5.421875,0.382813 5.421875,1.140625 v 12.609375 h 7.515625 V -36.40625 c 0,-0.5 0.894531,-0.851562 2.6875,-1.0625 0.925781,-0.07031 1.835937,-0.109375 2.734375,-0.109375 l 2.734375,0.109375 c 1.789063,0.210938 2.6875,0.5625 2.6875,1.0625 z m 0,0"
           id="path21"
           style="fill:#ffffff" />
      </g>
    </g>
  </g>
</svg>
