<?xml version="1.0" encoding="UTF-8" standalone="no"?>
<svg
   width="323.0632"
   zoomAndPan="magnify"
   viewBox="0 0 242.2974 63.202891"
   height="84.270523"
   preserveAspectRatio="xMidYMid"
   version="1.0"
   id="svg105"
   sodipodi:docname="logo-2.svg"
   inkscape:version="1.3.2 (091e20e, 2023-11-25, custom)"
   xmlns:inkscape="http://www.inkscape.org/namespaces/inkscape"
   xmlns:sodipodi="http://sodipodi.sourceforge.net/DTD/sodipodi-0.dtd"
   xmlns="http://www.w3.org/2000/svg"
   xmlns:svg="http://www.w3.org/2000/svg">
  <sodipodi:namedview
     id="namedview105"
     pagecolor="#ffffff"
     bordercolor="#000000"
     borderopacity="0.25"
     inkscape:showpageshadow="2"
     inkscape:pageopacity="0.0"
     inkscape:pagecheckerboard="0"
     inkscape:deskcolor="#d1d1d1"
     inkscape:zoom="1.626"
     inkscape:cx="250"
     inkscape:cy="250"
     inkscape:window-width="1920"
     inkscape:window-height="1009"
     inkscape:window-x="-8"
     inkscape:window-y="39"
     inkscape:window-maximized="1"
     inkscape:current-layer="svg105" />
  <defs
     id="defs3">
    <clipPath
       id="63bcb4f4c3">
      <path
         d="m 97.632812,162.60156 h 49.199218 v 41.57031 H 97.632812 Z m 0,0"
         clip-rule="nonzero"
         id="path1" />
    </clipPath>
    <clipPath
       id="f86f68ff4b">
      <path
         d="m 125.48828,162.60156 c 0.53906,0 1.08203,0 1.61719,0 4.28125,0.69531 6.95703,3.00781 8.17578,6.78906 7.14062,-0.5039 12.41016,6.64454 9.16797,13.66407 1.05078,1.47265 1.92969,3.125 2.24609,5.33593 0,0.63672 0,1.26954 0,1.90235 -0.94531,5.63281 -5.00781,9.4414 -11.67969,8.41797 -1.71875,2.89062 -4.77343,5.73828 -9.52734,5.42968 -2.45703,-0.1914 -4.16406,-1.29296 -5.66015,-2.6289 -1.57813,1.11328 -3.28516,1.98437 -5.75,1.99219 -5.70704,0.0195 -9.52344,-4.26172 -9.61719,-10.13282 -3.66797,-1.375 -6.152346,-3.9375 -6.828128,-8.32422 0,-0.63281 0,-1.26953 0,-1.90234 0.746094,-4.34766 3.093748,-7.07812 7.007818,-8.23437 -0.23438,-7.33204 7.58984,-11.91407 14.01953,-8.6836 1.52734,-1.59765 3.69531,-3.33984 6.82812,-3.625 z m 0,0"
         clip-rule="nonzero"
         id="path2" />
    </clipPath>
    <clipPath
       id="7f59509714">
      <path
         d="m 111.05078,173.02344 h 22.5 v 22.5 h -22.5 z m 0,0"
         clip-rule="nonzero"
         id="path3" />
    </clipPath>
  </defs>
  <g
     fill="#673de6"
     fill-opacity="1"
     id="g6"
     transform="translate(-65.538543,-161.04619)">
    <g
       transform="translate(83.208983,220.88971)"
       id="g5">
      <g
         id="g4">
        <path
           d="M 5.75,0 H 3.6875 V -4.125 L 0.046875,-10.5 H 2.28125 l 2.390625,4.125 h 0.1875 l 2.34375,-4.125 h 2.1875 L 5.75,-4.125 Z m 0,0"
           id="path4" />
      </g>
    </g>
  </g>
  <g
     fill="#673de6"
     fill-opacity="1"
     id="g9"
     transform="translate(-65.538543,-161.04619)">
    <g
       transform="translate(92.637861,220.88971)"
       id="g8">
      <g
         id="g7">
        <path
           d="M 4.609375,0.15625 C 3.828125,0.15625 3.144531,-0.00390625 2.5625,-0.328125 1.976562,-0.648438 1.523438,-1.117188 1.203125,-1.734375 0.878906,-2.347656 0.71875,-3.085938 0.71875,-3.953125 c 0,-0.875 0.160156,-1.617187 0.484375,-2.234375 0.320313,-0.625 0.773437,-1.09375 1.359375,-1.40625 0.582031,-0.320312 1.265625,-0.484375 2.046875,-0.484375 0.769531,0 1.445313,0.164063 2.03125,0.484375 0.59375,0.3125 1.050781,0.78125 1.375,1.40625 0.332031,0.617188 0.5,1.359375 0.5,2.234375 0,0.867187 -0.167969,1.605469 -0.5,2.21875 -0.324219,0.617187 -0.78125,1.085937 -1.375,1.40625 C 6.054688,-0.00390625 5.378906,0.15625 4.609375,0.15625 Z m 0,-1.6875 c 1.226563,0 1.84375,-0.804688 1.84375,-2.421875 0,-0.84375 -0.164063,-1.457031 -0.484375,-1.84375 -0.3125,-0.394531 -0.765625,-0.59375 -1.359375,-0.59375 -1.230469,0 -1.84375,0.8125 -1.84375,2.4375 0,1.617187 0.613281,2.421875 1.84375,2.421875 z m 0,0"
           id="path6" />
      </g>
    </g>
  </g>
  <g
     fill="#673de6"
     fill-opacity="1"
     id="g12"
     transform="translate(-65.538543,-161.04619)">
    <g
       transform="translate(101.84412,220.88971)"
       id="g11">
      <g
         id="g10">
        <path
           d="m 3.625,0.15625 c -0.886719,0 -1.542969,-0.2421875 -1.96875,-0.734375 -0.429688,-0.488281 -0.640625,-1.1875 -0.640625,-2.09375 v -5.25 h 2 v 5 c 0,0.480469 0.101563,0.835937 0.3125,1.0625 0.207031,0.21875 0.53125,0.328125 0.96875,0.328125 0.539063,0 0.960937,-0.175781 1.265625,-0.53125 C 5.875,-2.425781 6.03125,-3 6.03125,-3.78125 v -4.140625 h 2 V 0 H 6.109375 V -1.171875 L 5.96875,-1.203125 C 5.707031,-0.742188 5.394531,-0.398438 5.03125,-0.171875 4.664062,0.046875 4.195312,0.15625 3.625,0.15625 Z m 0,0"
           id="path9" />
      </g>
    </g>
  </g>
  <g
     fill="#673de6"
     fill-opacity="1"
     id="g15"
     transform="translate(-65.538543,-161.04619)">
    <g
       transform="translate(111.00729,220.88971)"
       id="g14">
      <g
         id="g13">
        <path
           d="m 1.140625,0 v -7.921875 h 1.9375 V -6.75 l 0.15625,0.03125 c 0.1875,-0.4375 0.4375,-0.757812 0.75,-0.96875 0.3125,-0.207031 0.6875,-0.3125 1.125,-0.3125 0.457031,0 0.800781,0.078125 1.03125,0.234375 l -0.328125,1.71875 -0.15625,0.03125 c -0.125,-0.0625 -0.25,-0.101563 -0.375,-0.125 -0.117188,-0.019531 -0.261719,-0.03125 -0.4375,-0.03125 -0.554688,0 -0.976562,0.199219 -1.265625,0.59375 -0.292969,0.386719 -0.4375,1.011719 -0.4375,1.875 V 0 Z m 0,0"
           id="path12" />
      </g>
    </g>
  </g>
  <g
     fill="#673de6"
     fill-opacity="1"
     id="g21"
     transform="translate(-65.538543,-161.04619)">
    <g
       transform="translate(120.68751,220.88971)"
       id="g20">
      <g
         id="g19">
        <path
           d="m 4.65625,0.15625 c -0.730469,0 -1.382812,-0.0898438 -1.953125,-0.265625 -0.5625,-0.1875 -1.039063,-0.425781 -1.421875,-0.71875 -0.375,-0.289063 -0.664062,-0.613281 -0.859375,-0.96875 L 1.5625,-3.1875 H 1.75 c 0.3125,0.46875 0.710938,0.84375 1.203125,1.125 0.488281,0.28125 1.054687,0.421875 1.703125,0.421875 0.550781,0 0.96875,-0.113281 1.25,-0.34375 0.289062,-0.238281 0.4375,-0.566406 0.4375,-0.984375 0,-0.25 -0.046875,-0.457031 -0.140625,-0.625 C 6.109375,-3.757812 5.957031,-3.898438 5.75,-4.015625 c -0.210938,-0.125 -0.496094,-0.226563 -0.859375,-0.3125 l -1.34375,-0.3125 c -0.949219,-0.21875 -1.65625,-0.578125 -2.125,-1.078125 -0.460937,-0.5 -0.6875,-1.148438 -0.6875,-1.953125 0,-0.59375 0.144531,-1.113281 0.4375,-1.5625 0.300781,-0.445313 0.734375,-0.796875 1.296875,-1.046875 0.570312,-0.25 1.253906,-0.375 2.046875,-0.375 0.8125,0 1.503906,0.109375 2.078125,0.328125 0.582031,0.210937 1.070312,0.53125 1.46875,0.96875 l -1.03125,1.40625 H 6.859375 C 6.554688,-8.265625 6.210938,-8.5 5.828125,-8.65625 c -0.375,-0.15625 -0.8125,-0.234375 -1.3125,-0.234375 -0.5625,0 -0.996094,0.105469 -1.296875,0.3125 -0.292969,0.199219 -0.4375,0.476563 -0.4375,0.828125 0,0.335938 0.101562,0.601562 0.3125,0.796875 0.207031,0.199219 0.566406,0.351563 1.078125,0.453125 l 1.375,0.296875 c 1.019531,0.210937 1.757813,0.574219 2.21875,1.09375 0.457031,0.511719 0.6875,1.183594 0.6875,2.015625 0,0.65625 -0.140625,1.230469 -0.421875,1.71875 C 7.75,-0.894531 7.320312,-0.519531 6.75,-0.25 6.1875,0.0195312 5.488281,0.15625 4.65625,0.15625 Z m 0,0"
           id="path18" />
      </g>
    </g>
  </g>
  <g
     fill="#673de6"
     fill-opacity="1"
     id="g24"
     transform="translate(-65.538543,-161.04619)">
    <g
       transform="translate(129.70706,220.88971)"
       id="g23">
      <g
         id="g22">
        <path
           d="M 1.140625,3.21875 V -7.921875 h 2 v 1.03125 l 0.140625,0.03125 c 0.238281,-0.40625 0.550781,-0.707031 0.9375,-0.90625 0.394531,-0.207031 0.859375,-0.3125 1.390625,-0.3125 0.632813,0 1.1875,0.152344 1.65625,0.453125 0.476563,0.304688 0.851563,0.761719 1.125,1.375 0.269531,0.617188 0.40625,1.382812 0.40625,2.296875 0,0.898437 -0.140625,1.652344 -0.421875,2.265625 C 8.09375,-1.070312 7.703125,-0.609375 7.203125,-0.296875 6.703125,0.00390625 6.125,0.15625 5.46875,0.15625 4.976562,0.15625 4.550781,0.0703125 4.1875,-0.09375 3.832031,-0.257812 3.53125,-0.519531 3.28125,-0.875 l -0.140625,0.03125 v 4.0625 z m 3.78125,-4.75 c 0.59375,0 1.039063,-0.191406 1.34375,-0.578125 0.3125,-0.394531 0.46875,-1.007813 0.46875,-1.84375 0,-0.84375 -0.15625,-1.457031 -0.46875,-1.84375 -0.304687,-0.394531 -0.75,-0.59375 -1.34375,-0.59375 -0.554687,0 -0.996094,0.203125 -1.328125,0.609375 -0.324219,0.398438 -0.484375,1.007812 -0.484375,1.828125 0,0.804687 0.160156,1.40625 0.484375,1.8125 0.332031,0.40625 0.773438,0.609375 1.328125,0.609375 z m 0,0"
           id="path21" />
      </g>
    </g>
  </g>
  <g
     fill="#673de6"
     fill-opacity="1"
     id="g27"
     transform="translate(-65.538543,-161.04619)">
    <g
       transform="translate(139.19338,220.88971)"
       id="g26">
      <g
         id="g25">
        <path
           d="m 7.828125,-3.515625 h -5.09375 c 0.0625,0.6875 0.257813,1.195313 0.59375,1.515625 0.332031,0.3125 0.789063,0.46875 1.375,0.46875 0.457031,0 0.828125,-0.082031 1.109375,-0.25 0.28125,-0.175781 0.503906,-0.4375 0.671875,-0.78125 h 0.15625 L 7.96875,-1.71875 C 7.707031,-1.164062 7.316406,-0.710938 6.796875,-0.359375 6.273438,-0.015625 5.578125,0.15625 4.703125,0.15625 3.878906,0.15625 3.171875,0 2.578125,-0.3125 1.984375,-0.625 1.523438,-1.085938 1.203125,-1.703125 0.878906,-2.316406 0.71875,-3.066406 0.71875,-3.953125 c 0,-0.90625 0.164062,-1.664063 0.5,-2.28125 0.34375,-0.625 0.800781,-1.085937 1.375,-1.390625 0.582031,-0.300781 1.238281,-0.453125 1.96875,-0.453125 1.113281,0 1.96875,0.296875 2.5625,0.890625 0.601562,0.59375 0.90625,1.464844 0.90625,2.609375 0,0.417969 -0.015625,0.746094 -0.046875,0.984375 z M 6.125,-4.796875 C 6.101562,-5.398438 5.960938,-5.835938 5.703125,-6.109375 5.441406,-6.390625 5.0625,-6.53125 4.5625,-6.53125 c -1.011719,0 -1.605469,0.578125 -1.78125,1.734375 z m 0,0"
           id="path24" />
      </g>
    </g>
  </g>
  <g
     fill="#673de6"
     fill-opacity="1"
     id="g30"
     transform="translate(-65.538543,-161.04619)">
    <g
       transform="translate(147.80361,220.88971)"
       id="g29">
      <g
         id="g28">
        <path
           d="m 7.828125,-3.515625 h -5.09375 c 0.0625,0.6875 0.257813,1.195313 0.59375,1.515625 0.332031,0.3125 0.789063,0.46875 1.375,0.46875 0.457031,0 0.828125,-0.082031 1.109375,-0.25 0.28125,-0.175781 0.503906,-0.4375 0.671875,-0.78125 h 0.15625 L 7.96875,-1.71875 C 7.707031,-1.164062 7.316406,-0.710938 6.796875,-0.359375 6.273438,-0.015625 5.578125,0.15625 4.703125,0.15625 3.878906,0.15625 3.171875,0 2.578125,-0.3125 1.984375,-0.625 1.523438,-1.085938 1.203125,-1.703125 0.878906,-2.316406 0.71875,-3.066406 0.71875,-3.953125 c 0,-0.90625 0.164062,-1.664063 0.5,-2.28125 0.34375,-0.625 0.800781,-1.085937 1.375,-1.390625 0.582031,-0.300781 1.238281,-0.453125 1.96875,-0.453125 1.113281,0 1.96875,0.296875 2.5625,0.890625 0.601562,0.59375 0.90625,1.464844 0.90625,2.609375 0,0.417969 -0.015625,0.746094 -0.046875,0.984375 z M 6.125,-4.796875 C 6.101562,-5.398438 5.960938,-5.835938 5.703125,-6.109375 5.441406,-6.390625 5.0625,-6.53125 4.5625,-6.53125 c -1.011719,0 -1.605469,0.578125 -1.78125,1.734375 z m 0,0"
           id="path27" />
      </g>
    </g>
  </g>
  <g
     fill="#673de6"
     fill-opacity="1"
     id="g33"
     transform="translate(-65.538543,-161.04619)">
    <g
       transform="translate(156.41383,220.88971)"
       id="g32">
      <g
         id="g31">
        <path
           d="M 3.921875,0.15625 C 3.285156,0.15625 2.726562,0.00390625 2.25,-0.296875 1.769531,-0.609375 1.394531,-1.070312 1.125,-1.6875 0.851562,-2.300781 0.71875,-3.054688 0.71875,-3.953125 c 0,-0.90625 0.132812,-1.664063 0.40625,-2.28125 0.28125,-0.625 0.671875,-1.085937 1.171875,-1.390625 0.5,-0.300781 1.070313,-0.453125 1.71875,-0.453125 0.488281,0 0.914063,0.089844 1.28125,0.265625 0.363281,0.167969 0.671875,0.429688 0.921875,0.78125 L 6.375,-7.0625 v -4.046875 H 8.359375 V 0 H 6.375 V -1.03125 L 6.21875,-1.0625 C 6,-0.6875 5.695312,-0.390625 5.3125,-0.171875 4.925781,0.046875 4.460938,0.15625 3.921875,0.15625 Z M 4.5625,-1.53125 c 0.5625,0 1.003906,-0.195312 1.328125,-0.59375 C 6.210938,-2.53125 6.375,-3.140625 6.375,-3.953125 6.375,-4.773438 6.210938,-5.382812 5.890625,-5.78125 5.566406,-6.1875 5.125,-6.390625 4.5625,-6.390625 c -0.585938,0 -1.03125,0.199219 -1.34375,0.59375 -0.304688,0.386719 -0.453125,1 -0.453125,1.84375 0,0.835937 0.148437,1.449219 0.453125,1.84375 0.3125,0.386719 0.757812,0.578125 1.34375,0.578125 z m 0,0"
           id="path30" />
      </g>
    </g>
  </g>
  <g
     fill="#673de6"
     fill-opacity="1"
     id="g36"
     transform="translate(-65.538543,-161.04619)">
    <g
       transform="translate(165.90734,220.88971)"
       id="g35">
      <g
         id="g34">
        <path
           d="M 1.75,3.359375 C 1.414062,3.359375 1.109375,3.332031 0.828125,3.28125 0.554688,3.226562 0.332031,3.160156 0.15625,3.078125 L 0.46875,1.46875 0.609375,1.421875 C 0.722656,1.484375 0.867188,1.53125 1.046875,1.5625 1.222656,1.601562 1.40625,1.625 1.59375,1.625 1.914062,1.625 2.179688,1.582031 2.390625,1.5 2.609375,1.414062 2.789062,1.273438 2.9375,1.078125 3.082031,0.890625 3.210938,0.625 3.328125,0.28125 L 0.171875,-7.921875 H 2.25 l 1.96875,5.5 h 0.171875 l 1.921875,-5.5 H 8.34375 L 5.15625,0.5 C 4.90625,1.175781 4.625,1.722656 4.3125,2.140625 4.007812,2.554688 3.648438,2.863281 3.234375,3.0625 2.828125,3.257812 2.332031,3.359375 1.75,3.359375 Z m 0,0"
           id="path33" />
      </g>
    </g>
  </g>
  <g
     fill="#673de6"
     fill-opacity="1"
     id="g42"
     transform="translate(-65.538543,-161.04619)">
    <g
       transform="translate(177.87835,220.88971)"
       id="g41">
      <g
         id="g40">
        <path
           d="M 8.15625,-6.546875 V -10.5 h 2.0625 V 0 H 8.15625 V -4.78125 H 3.4375 V 0 H 1.359375 V -10.5 H 3.4375 v 3.953125 z m 0,0"
           id="path39" />
      </g>
    </g>
  </g>
  <g
     fill="#673de6"
     fill-opacity="1"
     id="g45"
     transform="translate(-65.538543,-161.04619)">
    <g
       transform="translate(189.46158,220.88971)"
       id="g44">
      <g
         id="g43">
        <path
           d="M 4.609375,0.15625 C 3.828125,0.15625 3.144531,-0.00390625 2.5625,-0.328125 1.976562,-0.648438 1.523438,-1.117188 1.203125,-1.734375 0.878906,-2.347656 0.71875,-3.085938 0.71875,-3.953125 c 0,-0.875 0.160156,-1.617187 0.484375,-2.234375 0.320313,-0.625 0.773437,-1.09375 1.359375,-1.40625 0.582031,-0.320312 1.265625,-0.484375 2.046875,-0.484375 0.769531,0 1.445313,0.164063 2.03125,0.484375 0.59375,0.3125 1.050781,0.78125 1.375,1.40625 0.332031,0.617188 0.5,1.359375 0.5,2.234375 0,0.867187 -0.167969,1.605469 -0.5,2.21875 -0.324219,0.617187 -0.78125,1.085937 -1.375,1.40625 C 6.054688,-0.00390625 5.378906,0.15625 4.609375,0.15625 Z m 0,-1.6875 c 1.226563,0 1.84375,-0.804688 1.84375,-2.421875 0,-0.84375 -0.164063,-1.457031 -0.484375,-1.84375 -0.3125,-0.394531 -0.765625,-0.59375 -1.359375,-0.59375 -1.230469,0 -1.84375,0.8125 -1.84375,2.4375 0,1.617187 0.613281,2.421875 1.84375,2.421875 z m 0,0"
           id="path42" />
      </g>
    </g>
  </g>
  <g
     fill="#673de6"
     fill-opacity="1"
     id="g48"
     transform="translate(-65.538543,-161.04619)">
    <g
       transform="translate(198.66783,220.88971)"
       id="g47">
      <g
         id="g46">
        <path
           d="m 3.703125,0.15625 c -0.542969,0 -1.039063,-0.0625 -1.484375,-0.1875 C 1.769531,-0.164062 1.382812,-0.34375 1.0625,-0.5625 0.75,-0.78125 0.515625,-1.035156 0.359375,-1.328125 l 1.109375,-1.1875 h 0.140625 c 0.269531,0.355469 0.582031,0.621094 0.9375,0.796875 0.363281,0.179688 0.753906,0.265625 1.171875,0.265625 0.394531,0 0.6875,-0.066406 0.875,-0.203125 0.195312,-0.144531 0.296875,-0.347656 0.296875,-0.609375 0,-0.195313 -0.074219,-0.363281 -0.21875,-0.5 C 4.535156,-2.898438 4.3125,-3.007812 4,-3.09375 l -1.046875,-0.25 C 2.160156,-3.53125 1.582031,-3.816406 1.21875,-4.203125 0.863281,-4.585938 0.6875,-5.078125 0.6875,-5.671875 c 0,-0.488281 0.125,-0.914063 0.375,-1.28125 0.25,-0.363281 0.601562,-0.640625 1.0625,-0.828125 0.457031,-0.195312 0.988281,-0.296875 1.59375,-0.296875 0.71875,0 1.3125,0.105469 1.78125,0.3125 0.46875,0.210937 0.832031,0.484375 1.09375,0.828125 l -1.0625,1.140625 H 5.390625 c -0.21875,-0.25 -0.46875,-0.429687 -0.75,-0.546875 C 4.367188,-6.457031 4.0625,-6.515625 3.71875,-6.515625 c -0.78125,0 -1.171875,0.246094 -1.171875,0.734375 0,0.210938 0.070313,0.382812 0.21875,0.515625 0.144531,0.125 0.398437,0.230469 0.765625,0.3125 L 4.515625,-4.75 c 0.800781,0.179688 1.382813,0.460938 1.75,0.84375 0.375,0.375 0.5625,0.886719 0.5625,1.53125 0,0.5 -0.125,0.945312 -0.375,1.328125 C 6.210938,-0.660156 5.851562,-0.363281 5.375,-0.15625 4.90625,0.0507812 4.347656,0.15625 3.703125,0.15625 Z m 0,0"
           id="path45" />
      </g>
    </g>
  </g>
  <g
     fill="#673de6"
     fill-opacity="1"
     id="g51"
     transform="translate(-65.538543,-161.04619)">
    <g
       transform="translate(205.97109,220.88971)"
       id="g50">
      <g
         id="g49">
        <path
           d="m 5.46875,-1.890625 0.515625,1.46875 C 5.765625,-0.242188 5.492188,-0.101562 5.171875,0 4.847656,0.101562 4.476562,0.15625 4.0625,0.15625 3.207031,0.15625 2.554688,-0.078125 2.109375,-0.546875 1.660156,-1.015625 1.4375,-1.695312 1.4375,-2.59375 V -6.359375 H 0.234375 V -7.9375 H 1.4375 v -1.546875 l 2,-0.3125 V -7.9375 h 2.25 v 1.578125 h -2.25 v 3.625 c 0,0.398437 0.078125,0.683594 0.234375,0.859375 0.164063,0.179688 0.40625,0.265625 0.71875,0.265625 0.351563,0 0.660156,-0.09375 0.921875,-0.28125 z m 0,0"
           id="path48" />
      </g>
    </g>
  </g>
  <g
     fill="#673de6"
     fill-opacity="1"
     id="g54"
     transform="translate(-65.538543,-161.04619)">
    <g
       transform="translate(212.12535,220.88971)"
       id="g53">
      <g
         id="g52">
        <path
           d="m 2.140625,-8.875 c -0.367187,0 -0.664063,-0.109375 -0.890625,-0.328125 -0.21875,-0.21875 -0.328125,-0.5 -0.328125,-0.84375 0,-0.34375 0.109375,-0.625 0.328125,-0.84375 0.226562,-0.21875 0.523438,-0.328125 0.890625,-0.328125 0.238281,0 0.445313,0.05469 0.625,0.15625 0.1875,0.105469 0.332031,0.246094 0.4375,0.421875 0.101563,0.167969 0.15625,0.367187 0.15625,0.59375 0,0.230469 -0.054687,0.433594 -0.15625,0.609375 -0.105469,0.179688 -0.25,0.320312 -0.4375,0.421875 -0.179687,0.09375 -0.386719,0.140625 -0.625,0.140625 z m -1,8.875 v -7.921875 h 2 V 0 Z m 0,0"
           id="path51" />
      </g>
    </g>
  </g>
  <g
     fill="#673de6"
     fill-opacity="1"
     id="g57"
     transform="translate(-65.538543,-161.04619)">
    <g
       transform="translate(216.39097,220.88971)"
       id="g56">
      <g
         id="g55">
        <path
           d="m 1.140625,0 v -7.921875 h 1.90625 v 1.15625 l 0.15625,0.03125 c 0.5,-0.894531 1.300781,-1.34375 2.40625,-1.34375 0.914063,0 1.585937,0.25 2.015625,0.75 0.425781,0.5 0.640625,1.226563 0.640625,2.171875 V 0 H 6.28125 v -4.90625 c 0,-0.53125 -0.109375,-0.910156 -0.328125,-1.140625 -0.210937,-0.226563 -0.546875,-0.34375 -1.015625,-0.34375 -0.5625,0 -1.007812,0.183594 -1.328125,0.546875 -0.3125,0.367188 -0.46875,0.945312 -0.46875,1.734375 V 0 Z m 0,0"
           id="path54" />
      </g>
    </g>
  </g>
  <g
     fill="#673de6"
     fill-opacity="1"
     id="g60"
     transform="translate(-65.538543,-161.04619)">
    <g
       transform="translate(225.66903,220.88971)"
       id="g59">
      <g
         id="g58">
        <path
           d="M 4.109375,3.359375 C 2.804688,3.359375 1.84375,3.164062 1.21875,2.78125 0.59375,2.40625 0.28125,1.875 0.28125,1.1875 c 0,-0.417969 0.128906,-0.761719 0.390625,-1.03125 0.269531,-0.257812 0.65625,-0.4375 1.15625,-0.53125 V -0.53125 C 1.554688,-0.6875 1.363281,-0.863281 1.25,-1.0625 1.132812,-1.257812 1.078125,-1.492188 1.078125,-1.765625 c 0,-0.632813 0.410156,-1.0625 1.234375,-1.28125 v -0.15625 c -0.429688,-0.238281 -0.75,-0.539063 -0.96875,-0.90625 -0.210938,-0.363281 -0.3125,-0.800781 -0.3125,-1.3125 0,-0.519531 0.117188,-0.976563 0.359375,-1.375 0.238281,-0.40625 0.59375,-0.71875 1.0625,-0.9375 0.46875,-0.226563 1.023437,-0.34375 1.671875,-0.34375 0.664062,0 1.195312,0.117187 1.59375,0.34375 C 5.957031,-8.085938 6.097656,-8.5 6.140625,-8.96875 L 6.28125,-9.0625 7.71875,-8.703125 C 7.675781,-8.328125 7.566406,-8.007812 7.390625,-7.75 7.210938,-7.488281 6.9375,-7.257812 6.5625,-7.0625 v 0.15625 c 0.445312,0.398438 0.671875,0.945312 0.671875,1.640625 0,0.492187 -0.125,0.933594 -0.375,1.328125 -0.242187,0.386719 -0.59375,0.695312 -1.0625,0.921875 C 5.328125,-2.796875 4.769531,-2.6875 4.125,-2.6875 H 3.828125 C 3.640625,-2.69531 3.503906,-2.703125 3.421875,-2.703125 3.242188,-2.703125 3.101562,-2.65625 3,-2.5625 c -0.105469,0.09375 -0.15625,0.21875 -0.15625,0.375 0,0.167969 0.066406,0.296875 0.203125,0.390625 0.132813,0.09375 0.332031,0.148437 0.59375,0.15625 l 1.765625,0.0625 c 1.757812,0.054687 2.640625,0.808594 2.640625,2.265625 0,0.507812 -0.132813,0.960938 -0.390625,1.359375 C 7.394531,2.453125 6.96875,2.769531 6.375,3 5.789062,3.238281 5.035156,3.359375 4.109375,3.359375 Z M 4.125,-4.078125 c 0.382812,0 0.6875,-0.109375 0.90625,-0.328125 C 5.25,-4.632812 5.359375,-4.960938 5.359375,-5.390625 5.359375,-5.804688 5.25,-6.125 5.03125,-6.34375 4.8125,-6.5625 4.507812,-6.671875 4.125,-6.671875 c -0.386719,0 -0.683594,0.109375 -0.890625,0.328125 -0.210937,0.21875 -0.3125,0.539062 -0.3125,0.953125 0,0.429687 0.101563,0.757813 0.3125,0.984375 0.207031,0.21875 0.503906,0.328125 0.890625,0.328125 z m -0.015625,6 C 4.785156,1.921875 5.28125,1.820312 5.59375,1.625 5.90625,1.4375 6.0625,1.191406 6.0625,0.890625 c 0,-0.25 -0.085938,-0.4375 -0.25,-0.5625 C 5.65625,0.210938 5.40625,0.148438 5.0625,0.140625 L 3.5,0.078125 c -0.054688,0 -0.105469,-0.0078125 -0.15625,-0.015625 -0.042969,0 -0.085938,0 -0.125,0 -0.335938,0 -0.589844,0.066406 -0.765625,0.203125 C 2.273438,0.410156 2.1875,0.613281 2.1875,0.875 c 0,0.332031 0.160156,0.585938 0.484375,0.765625 0.320313,0.1875 0.800781,0.28125 1.4375,0.28125 z m 0,0"
           id="path57" />
      </g>
    </g>
  </g>
  <g
     fill="#673de6"
     fill-opacity="1"
     id="g66"
     transform="translate(-65.538543,-161.04619)">
    <g
       transform="translate(237.37435,220.88971)"
       id="g65">
      <g
         id="g64">
        <path
           d="m 5.421875,-10.5 c 0.75,0 1.390625,0.136719 1.921875,0.40625 0.539062,0.273438 0.945312,0.65625 1.21875,1.15625 0.269531,0.5 0.40625,1.078125 0.40625,1.734375 0,0.65625 -0.136719,1.230469 -0.40625,1.71875 -0.273438,0.492187 -0.679688,0.875 -1.21875,1.15625 -0.53125,0.273437 -1.171875,0.40625 -1.921875,0.40625 H 3.4375 V 0 H 1.359375 V -10.5 Z M 5.15625,-5.5625 c 1.15625,0 1.734375,-0.546875 1.734375,-1.640625 0,-1.101563 -0.578125,-1.65625 -1.734375,-1.65625 H 3.4375 V -5.5625 Z m 0,0"
           id="path63" />
      </g>
    </g>
  </g>
  <g
     fill="#673de6"
     fill-opacity="1"
     id="g69"
     transform="translate(-65.538543,-161.04619)">
    <g
       transform="translate(246.96839,220.88971)"
       id="g68">
      <g
         id="g67">
        <path
           d="M 3.09375,0.15625 C 2.582031,0.15625 2.140625,0.0625 1.765625,-0.125 1.390625,-0.3125 1.101562,-0.585938 0.90625,-0.953125 0.707031,-1.316406 0.609375,-1.75 0.609375,-2.25 c 0,-0.476562 0.097656,-0.875 0.296875,-1.1875 C 1.101562,-3.757812 1.410156,-4.019531 1.828125,-4.21875 2.253906,-4.425781 2.8125,-4.582031 3.5,-4.6875 c 0.46875,-0.082031 0.820312,-0.164062 1.0625,-0.25 0.25,-0.09375 0.414062,-0.195312 0.5,-0.3125 0.09375,-0.113281 0.140625,-0.257812 0.140625,-0.4375 0,-0.257812 -0.089844,-0.453125 -0.265625,-0.578125 C 4.757812,-6.398438 4.460938,-6.46875 4.046875,-6.46875 c -0.4375,0 -0.855469,0.101562 -1.25,0.296875 -0.398437,0.1875 -0.742187,0.445313 -1.03125,0.765625 h -0.15625 l -0.828125,-1.25 C 1.1875,-7.101562 1.675781,-7.453125 2.25,-7.703125 c 0.582031,-0.25 1.21875,-0.375 1.90625,-0.375 1.050781,0 1.8125,0.226563 2.28125,0.671875 0.46875,0.449219 0.703125,1.078125 0.703125,1.890625 V -2.0625 c 0,0.355469 0.15625,0.53125 0.46875,0.53125 0.113281,0 0.226563,-0.023438 0.34375,-0.078125 L 8.0625,-1.578125 8.203125,-0.1875 C 8.085938,-0.113281 7.929688,-0.0507812 7.734375,0 7.546875,0.0390625 7.332031,0.0625 7.09375,0.0625 c -0.480469,0 -0.855469,-0.0859375 -1.125,-0.265625 -0.261719,-0.1875 -0.449219,-0.476563 -0.5625,-0.875 H 5.265625 C 4.867188,-0.253906 4.144531,0.15625 3.09375,0.15625 Z m 0.625,-1.5 c 0.457031,0 0.820312,-0.148438 1.09375,-0.453125 0.28125,-0.3125 0.421875,-0.742187 0.421875,-1.296875 v -0.796875 l -0.125,-0.03125 C 4.984375,-3.828125 4.820312,-3.75 4.625,-3.6875 4.4375,-3.625 4.160156,-3.5625 3.796875,-3.5 c -0.4375,0.074219 -0.75,0.199219 -0.9375,0.375 -0.1875,0.179688 -0.28125,0.429688 -0.28125,0.75 0,0.335938 0.097656,0.589844 0.296875,0.765625 0.207031,0.179687 0.488281,0.265625 0.84375,0.265625 z m 0,0"
           id="path66" />
      </g>
    </g>
  </g>
  <g
     fill="#673de6"
     fill-opacity="1"
     id="g72"
     transform="translate(-65.538543,-161.04619)">
    <g
       transform="translate(255.32009,220.88971)"
       id="g71">
      <g
         id="g70">
        <path
           d="m 1.140625,0 v -7.921875 h 1.9375 V -6.75 l 0.15625,0.03125 c 0.1875,-0.4375 0.4375,-0.757812 0.75,-0.96875 0.3125,-0.207031 0.6875,-0.3125 1.125,-0.3125 0.457031,0 0.800781,0.078125 1.03125,0.234375 l -0.328125,1.71875 -0.15625,0.03125 c -0.125,-0.0625 -0.25,-0.101563 -0.375,-0.125 -0.117188,-0.019531 -0.261719,-0.03125 -0.4375,-0.03125 -0.554688,0 -0.976562,0.199219 -1.265625,0.59375 -0.292969,0.386719 -0.4375,1.011719 -0.4375,1.875 V 0 Z m 0,0"
           id="path69" />
      </g>
    </g>
  </g>
  <g
     fill="#673de6"
     fill-opacity="1"
     id="g75"
     transform="translate(-65.538543,-161.04619)">
    <g
       transform="translate(261.53181,220.88971)"
       id="g74">
      <g
         id="g73">
        <path
           d="m 5.46875,-1.890625 0.515625,1.46875 C 5.765625,-0.242188 5.492188,-0.101562 5.171875,0 4.847656,0.101562 4.476562,0.15625 4.0625,0.15625 3.207031,0.15625 2.554688,-0.078125 2.109375,-0.546875 1.660156,-1.015625 1.4375,-1.695312 1.4375,-2.59375 V -6.359375 H 0.234375 V -7.9375 H 1.4375 v -1.546875 l 2,-0.3125 V -7.9375 h 2.25 v 1.578125 h -2.25 v 3.625 c 0,0.398437 0.078125,0.683594 0.234375,0.859375 0.164063,0.179688 0.40625,0.265625 0.71875,0.265625 0.351563,0 0.660156,-0.09375 0.921875,-0.28125 z m 0,0"
           id="path72" />
      </g>
    </g>
  </g>
  <g
     fill="#673de6"
     fill-opacity="1"
     id="g78"
     transform="translate(-65.538543,-161.04619)">
    <g
       transform="translate(267.68607,220.88971)"
       id="g77">
      <g
         id="g76">
        <path
           d="m 1.140625,0 v -7.921875 h 1.90625 v 1.15625 l 0.15625,0.03125 c 0.5,-0.894531 1.300781,-1.34375 2.40625,-1.34375 0.914063,0 1.585937,0.25 2.015625,0.75 0.425781,0.5 0.640625,1.226563 0.640625,2.171875 V 0 H 6.28125 v -4.90625 c 0,-0.53125 -0.109375,-0.910156 -0.328125,-1.140625 -0.210937,-0.226563 -0.546875,-0.34375 -1.015625,-0.34375 -0.5625,0 -1.007812,0.183594 -1.328125,0.546875 -0.3125,0.367188 -0.46875,0.945312 -0.46875,1.734375 V 0 Z m 0,0"
           id="path75" />
      </g>
    </g>
  </g>
  <g
     fill="#673de6"
     fill-opacity="1"
     id="g81"
     transform="translate(-65.538543,-161.04619)">
    <g
       transform="translate(276.96413,220.88971)"
       id="g80">
      <g
         id="g79">
        <path
           d="m 7.828125,-3.515625 h -5.09375 c 0.0625,0.6875 0.257813,1.195313 0.59375,1.515625 0.332031,0.3125 0.789063,0.46875 1.375,0.46875 0.457031,0 0.828125,-0.082031 1.109375,-0.25 0.28125,-0.175781 0.503906,-0.4375 0.671875,-0.78125 h 0.15625 L 7.96875,-1.71875 C 7.707031,-1.164062 7.316406,-0.710938 6.796875,-0.359375 6.273438,-0.015625 5.578125,0.15625 4.703125,0.15625 3.878906,0.15625 3.171875,0 2.578125,-0.3125 1.984375,-0.625 1.523438,-1.085938 1.203125,-1.703125 0.878906,-2.316406 0.71875,-3.066406 0.71875,-3.953125 c 0,-0.90625 0.164062,-1.664063 0.5,-2.28125 0.34375,-0.625 0.800781,-1.085937 1.375,-1.390625 0.582031,-0.300781 1.238281,-0.453125 1.96875,-0.453125 1.113281,0 1.96875,0.296875 2.5625,0.890625 0.601562,0.59375 0.90625,1.464844 0.90625,2.609375 0,0.417969 -0.015625,0.746094 -0.046875,0.984375 z M 6.125,-4.796875 C 6.101562,-5.398438 5.960938,-5.835938 5.703125,-6.109375 5.441406,-6.390625 5.0625,-6.53125 4.5625,-6.53125 c -1.011719,0 -1.605469,0.578125 -1.78125,1.734375 z m 0,0"
           id="path78" />
      </g>
    </g>
  </g>
  <g
     fill="#673de6"
     fill-opacity="1"
     id="g84"
     transform="translate(-65.538543,-161.04619)">
    <g
       transform="translate(285.57434,220.88971)"
       id="g83">
      <g
         id="g82">
        <path
           d="m 1.140625,0 v -7.921875 h 1.9375 V -6.75 l 0.15625,0.03125 c 0.1875,-0.4375 0.4375,-0.757812 0.75,-0.96875 0.3125,-0.207031 0.6875,-0.3125 1.125,-0.3125 0.457031,0 0.800781,0.078125 1.03125,0.234375 l -0.328125,1.71875 -0.15625,0.03125 c -0.125,-0.0625 -0.25,-0.101563 -0.375,-0.125 -0.117188,-0.019531 -0.261719,-0.03125 -0.4375,-0.03125 -0.554688,0 -0.976562,0.199219 -1.265625,0.59375 -0.292969,0.386719 -0.4375,1.011719 -0.4375,1.875 V 0 Z m 0,0"
           id="path81" />
      </g>
    </g>
  </g>
  <g
     fill="#673de6"
     fill-opacity="1"
     id="g87"
     transform="translate(-65.538543,-161.04619)">
    <g
       transform="translate(147.34603,199.10869)"
       id="g86">
      <g
         id="g85">
        <path
           d="m 4.078125,-13.09375 c 0.675781,0.53125 1.847656,1.265625 3.515625,2.203125 C 9.257812,-9.960938 10.851562,-9.5 12.375,-9.5 c 1.519531,0 2.28125,-0.59375 2.28125,-1.78125 0,-0.53125 -0.214844,-1 -0.640625,-1.40625 -0.429687,-0.414062 -1.214844,-0.890625 -2.359375,-1.421875 C 10.507812,-14.648438 9.648438,-15.070312 9.078125,-15.375 8.503906,-15.6875 7.742188,-16.191406 6.796875,-16.890625 5.847656,-17.585938 5.117188,-18.3125 4.609375,-19.0625 3.179688,-21.101562 2.46875,-23.695312 2.46875,-26.84375 c 0,-3.144531 1.171875,-5.800781 3.515625,-7.96875 2.34375,-2.164062 5.410156,-3.25 9.203125,-3.25 2.582031,0 4.960938,0.277344 7.140625,0.828125 2.1875,0.554687 3.316406,1.277344 3.390625,2.171875 0,0.117188 0,0.226562 0,0.328125 0,1.25 -0.398438,2.835937 -1.1875,4.75 -0.78125,1.917969 -1.335938,2.980469 -1.65625,3.1875 -2.292969,-1.175781 -4.34375,-1.765625 -6.15625,-1.765625 -1.804688,0 -2.703125,0.648438 -2.703125,1.9375 0,0.78125 0.660156,1.480469 1.984375,2.09375 0.28125,0.136719 0.6875,0.335938 1.21875,0.59375 0.539062,0.25 1.160156,0.546875 1.859375,0.890625 0.707031,0.335937 1.460937,0.761719 2.265625,1.28125 0.800781,0.523437 1.664062,1.210937 2.59375,2.0625 1.90625,1.792969 2.859375,4.15625 2.859375,7.09375 0,3.824219 -1.058594,6.953125 -3.171875,9.390625 -2.117188,2.429688 -5.375,3.675781 -9.78125,3.75 C 11.695312,0.53125 9.753906,0.351562 8.015625,0 6.285156,-0.351562 4.773438,-1.050781 3.484375,-2.09375 2.203125,-3.132812 1.5625,-4.382812 1.5625,-5.84375 c 0,-1.46875 0.265625,-2.925781 0.796875,-4.375 0.539063,-1.457031 1.113281,-2.414062 1.71875,-2.875 z m 0,0"
           id="path84" />
      </g>
    </g>
  </g>
  <g
     fill="#673de6"
     fill-opacity="1"
     id="g90"
     transform="translate(-65.538543,-161.04619)">
    <g
       transform="translate(178.37052,199.10869)"
       id="g89">
      <g
         id="g88">
        <path
           d="m 18.84375,-0.859375 c 0,0.71875 -1.773438,1.078125 -5.3125,1.078125 -3.542969,0 -5.3125,-0.359375 -5.3125,-1.078125 V -27.8125 H 1.765625 c -0.605469,0 -1.03125,-0.820312 -1.28125,-2.46875 -0.105469,-0.78125 -0.15625,-1.582031 -0.15625,-2.40625 0,-0.832031 0.050781,-1.640625 0.15625,-2.421875 0.25,-1.644531 0.675781,-2.46875 1.28125,-2.46875 H 25.125 c 0.601562,0 1.035156,0.824219 1.296875,2.46875 0.101563,0.78125 0.15625,1.589844 0.15625,2.421875 0,0.824219 -0.05469,1.625 -0.15625,2.40625 -0.261719,1.648438 -0.695313,2.46875 -1.296875,2.46875 h -6.28125 z m 0,0"
           id="path87" />
      </g>
    </g>
  </g>
  <g
     fill="#673de6"
     fill-opacity="1"
     id="g93"
     transform="translate(-65.538543,-161.04619)">
    <g
       transform="translate(207.83848,199.10869)"
       id="g92">
      <g
         id="g91">
        <path
           d="m 32.109375,-1.1875 c 0,0.761719 -1.683594,1.140625 -5.046875,1.140625 -3.367188,0 -5.195312,-0.269531 -5.484375,-0.8125 l -8.96875,-16.75 V -0.90625 c 0,0.636719 -1.65625,0.953125 -4.96875,0.953125 -3.304687,0 -4.953125,-0.316406 -4.953125,-0.953125 v -35.921875 c 0,-0.539063 1.410156,-0.8125 4.234375,-0.8125 1.113281,0 2.410156,0.101563 3.890625,0.296875 1.488281,0.199219 2.394531,0.570312 2.71875,1.109375 l 8.59375,16.53125 V -36.5625 c 0,-0.675781 1.660156,-1.015625 4.984375,-1.015625 3.332031,0 5,0.339844 5,1.015625 z m 0,0"
           id="path90" />
      </g>
    </g>
  </g>
  <g
     fill="#673de6"
     fill-opacity="1"
     id="g96"
     transform="translate(-65.538543,-161.04619)">
    <g
       transform="translate(245.1428,199.10869)"
       id="g95">
      <g
         id="g94">
        <path
           d="m 18.65625,0.53125 c -5.03125,0 -9.132812,-1.644531 -12.296875,-4.9375 -3.167969,-3.289062 -4.75,-8.09375 -4.75,-14.40625 0,-6.320312 1.597656,-11.109375 4.796875,-14.359375 3.207031,-3.257813 7.34375,-4.890625 12.40625,-4.890625 5.070312,0 9.160156,1.605469 12.265625,4.8125 3.113281,3.199219 4.671875,8.046875 4.671875,14.546875 0,6.492187 -1.59375,11.320313 -4.78125,14.484375 -3.179688,3.167969 -7.28125,4.75 -12.3125,4.75 z M 18.6875,-27.75 c -1.71875,0 -3.164062,0.789062 -4.328125,2.359375 -1.167969,1.574219 -1.75,3.78125 -1.75,6.625 0,2.84375 0.550781,5.027344 1.65625,6.546875 1.113281,1.523438 2.578125,2.28125 4.390625,2.28125 1.8125,0 3.28125,-0.765625 4.40625,-2.296875 1.125,-1.539063 1.6875,-3.742187 1.6875,-6.609375 0,-2.863281 -0.585938,-5.0625 -1.75,-6.59375 -1.15625,-1.539062 -2.59375,-2.3125 -4.3125,-2.3125 z m 0,0"
           id="path93" />
      </g>
    </g>
  </g>
  <g
     fill="#673de6"
     fill-opacity="1"
     id="g99"
     transform="translate(-65.538543,-161.04619)">
    <g
       transform="translate(285.02345,199.10869)"
       id="g98">
      <g
         id="g97">
        <path
           d="M 2.140625,-3.171875 V -36.5625 c 0,-0.75 1.816406,-1.125 5.453125,-1.125 3.632812,0 5.453125,0.375 5.453125,1.125 V -10.25 H 21.3125 c 0.644531,0 1.09375,0.839844 1.34375,2.515625 0.101562,0.824219 0.15625,1.667969 0.15625,2.53125 0,0.855469 -0.05469,1.730469 -0.15625,2.625 C 22.375,-0.859375 21.910156,0 21.265625,0 H 4.71875 C 3.9375,0 3.3125,-0.320312 2.84375,-0.96875 2.375,-1.613281 2.140625,-2.347656 2.140625,-3.171875 Z m 0,0"
           id="path96" />
      </g>
    </g>
  </g>
  <g
     clip-path="url(#63bcb4f4c3)"
     id="g101"
     transform="translate(-65.538543,-162.54619)">
    <g
       clip-path="url(#f86f68ff4b)"
       id="g100">
      <path
         fill="#673de6"
         d="m 97.632812,162.60156 h 49.035158 v 41.57031 H 97.632812 Z m 0,0"
         fill-opacity="1"
         fill-rule="nonzero"
         id="path99" />
    </g>
  </g>
  <g
     clip-path="url(#7f59509714)"
     id="g102"
     transform="translate(-65.538543,-162.54619)">
    <path
       fill="#ffffff"
       d="m 130.78125,173.02344 c -3.69141,0 -8.64844,2.53515 -11.97656,6.89062 h -2.75781 c -1.99219,0 -3.13672,1.48828 -3.92188,3.0625 l -1.05469,2.10547 h 4.97657 l 2.58593,2.58203 2.58203,2.58594 v 4.97266 l 2.10547,-1.05079 c 1.57422,-0.78515 3.0625,-1.92968 3.0625,-3.92187 v -2.75781 c 4.35547,-3.32813 6.88672,-8.28516 6.88672,-11.97657 v -2.49218 z m -4.39844,5.16797 c 0.94922,0 1.72266,0.77343 1.72266,1.72265 0,0.95313 -0.77344,1.72266 -1.72266,1.72266 -0.95312,0 -1.72265,-0.76953 -1.72265,-1.72266 0,-0.94922 0.76953,-1.72265 1.72265,-1.72265 z m -11.19531,10.33593 -0.86328,0.85938 c -1.24219,1.24609 -1.72266,4.30859 -1.72266,4.30859 0,0 2.92578,-0.34375 4.3086,-1.72265 l 0.85937,-0.86329 z m 0,0"
       fill-opacity="1"
       fill-rule="nonzero"
       id="path101" />
  </g>
  <g
     fill="#673de6"
     fill-opacity="1"
     id="g105"
     transform="translate(-65.538543,-161.04619)">
    <g
       transform="translate(62.851047,199.10869)"
       id="g104">
      <g
         id="g103">
        <path
           d="M 31.890625,-0.90625 C 31.890625,-0.300781 30.082031,0 26.46875,0 22.851562,0 21.046875,-0.300781 21.046875,-0.90625 V -13.265625 H 13.53125 V -0.90625 C 13.53125,-0.300781 11.722656,0 8.109375,0 4.492188,0 2.6875,-0.300781 2.6875,-0.90625 V -36.5 c 0,-0.757812 1.804688,-1.140625 5.421875,-1.140625 3.613281,0 5.421875,0.382813 5.421875,1.140625 v 12.609375 h 7.515625 V -36.40625 c 0,-0.5 0.894531,-0.851562 2.6875,-1.0625 0.925781,-0.07031 1.835937,-0.109375 2.734375,-0.109375 l 2.734375,0.109375 c 1.789063,0.210938 2.6875,0.5625 2.6875,1.0625 z m 0,0"
           id="path102" />
      </g>
    </g>
  </g>
</svg>
